<svg id="logo" xmlns="http://www.w3.org/2000/svg" viewBox="0 0 800 92.02"><defs><style>.cls-1{fill:#c22036;}</style></defs><title>logo</title><path d="M664.3,52.76h25.58V58H658.7v-56h5.6Z"/><path d="M698.66,2.09h5.6V58h-5.6Z"/><path d="M732.87,58l-20.62-56h6.08l17.42,48.52L753.17,2.09h6.08L738.62,58Z"/><path d="M772.83,52.76H800V58H767.23v-56H799.6V7.36H772.83V27.19H797.6v5.28H772.83Z"/><polygon class="cls-1" points="160.29 16.87 68.52 16.87 82.35 1.69 164.76 1.69 160.29 16.87"/><polygon class="cls-1" points="154.73 35.71 51.44 35.71 63.5 22.43 158.66 22.43 154.73 35.71"/><polygon class="cls-1" points="149.17 54.55 34.36 54.55 44.66 43.3 152.56 43.3 149.17 54.55"/><polygon class="cls-1" points="143.75 72.72 17.69 72.72 25.55 64.04 146.19 64.04 143.75 72.72"/><polygon class="cls-1" points="1.09 90.79 6.65 84.69 140.03 84.69 138.27 90.79 1.09 90.79"/><path d="M256.6,77.38c2.6,1.51,9.17,4.38,14.1,4.38,5.2,0,8.62-3,8.9-6.71.27-3.29-1.23-5.61-6.43-8.35-6-3.29-10-7.94-9.44-14.24,1-10.54,10.68-17.93,23.54-17.93,5.75,0,10.68,1.37,12.87,2.87l-3,10.13c-2.05-1.1-7-3.29-11.5-3.29-4.93,0-8.49,2.6-8.76,6.3-.27,3.15,1.92,5.2,6.43,7.53,5.75,3.29,10.54,7.67,10,14.65-1.1,12-11.63,18.75-24.77,18.62-6.3-.14-12.18-1.92-14.78-4Z"/><path d="M339,16.47,333.52,35.9h13.69l-4,13.69h-14l-5.06,16.15a35.1,35.1,0,0,0-1.37,8.76c.14,3.56,1.51,5.06,5.34,5.06,1.78,0,4.65-.41,6.16-.55l-3.56,11.5a31.34,31.34,0,0,1-9.58,1.23c-9.86,0-13.82-5.48-13.14-12.32a58.23,58.23,0,0,1,2.19-11.09l5.48-18.48h-8.35l3.56-13.69h8.62l5.75-19.44H339Z"/><path d="M480.53,90.38H466.29c1.23-3.29.55-1.37,1.78-5.2l5.34-7c-6.3,10-13.82,13.41-20.67,13.41-9.72,0-15.47-7.53-14.51-18.48,1.64-18.48,16.29-38.33,41.61-38.33a55.88,55.88,0,0,1,16.29,2.46Zm-.68-45.44a16.34,16.34,0,0,0-4.11-.27c-11.91,0-22.45,13.55-23.54,25.87-.55,5.75,1.23,10.4,6.84,10.4,6.16,0,12.73-7.53,16.56-21.35Z"/><path d="M496,90.38l11.22-37.64c2.05-6.57,3.7-12,5.06-16.84H526l-2.46,8.35.14-.82c6.3-6.84,10.13-8.76,17.66-8.76,7.8,0,13.41,4.65,12.59,14.92a53.88,53.88,0,0,1-1.78,8.9l-9.17,31.89H529.67l9.17-30.8a35.53,35.53,0,0,0,1.23-6.43c.41-4.52-1-7.8-6.16-7.8-5.89,0-13.28,7.25-16.7,20l-7.67,25.19Z"/><path d="M600.84,88.05c-5.61,2.74-12.87,4-19.44,4-15.06,0-21.49-9.31-20.39-22.58,1.37-16.43,15.06-34.36,33.81-34.36,10.68,0,17,6.16,16.15,15.33-1.23,14-16.29,18.48-37.23,17.93a13.63,13.63,0,0,0,.82,7.67c1.78,3.7,5.48,5.61,10.68,5.61,6.16,0,14.78-3.15,18.89-5.2Zm-8.62-43.12c-8.21,0-14.1,7.25-16.29,13.82,13.41.14,22.17-1.64,22.72-8.21C599.06,47,596.46,44.94,592.22,44.94Z"/><path d="M214,1.69l-4.24,14.37H175.16l-5.75,19.3H204l-4.38,14.37H165.16L153,90.79H138.06L164.48,1.55,214,1.69Z"/><path d="M427.14,90.93H376.5L402.92,1.69h15.33L395.8,76.56h35.45Z"/><path d="M241.27,90.38H227c1.23-3.29.55-1.37,1.78-5.2l5.34-7c-6.3,10-13.82,13.41-20.67,13.41-9.72,0-15.47-7.53-14.51-18.48,1.64-18.48,16.29-38.33,41.61-38.33a55.88,55.88,0,0,1,16.29,2.46Zm-.68-45.44a16.34,16.34,0,0,0-4.11-.27c-11.91,0-22.45,13.55-23.54,25.87-.55,5.75,1.23,10.4,6.84,10.4,6.16,0,12.73-7.53,16.56-21.35Z"/></svg>