<?xml version="1.0" encoding="utf-8"?>
<!-- Generator: Adobe Illustrator 17.0.0, SVG Export Plug-In . SVG Version: 6.00 Build 0)  -->
<!DOCTYPE svg PUBLIC "-//W3C//DTD SVG 1.1//EN" "http://www.w3.org/Graphics/SVG/1.1/DTD/svg11.dtd">
<svg version="1.1" id="Слой_1" xmlns="http://www.w3.org/2000/svg" xmlns:xlink="http://www.w3.org/1999/xlink" x="0px" y="0px"
	 width="500px" height="369.193px" viewBox="0 0 500 369.193" enable-background="new 0 0 500 369.193" xml:space="preserve">
<g>
	<path fill="#6198BC" d="M125.299,139.372c0,0,18.149,73.415,12.455,79.482c-5.693,6.067-25.206,13.249-27.668,2.564
		C107.624,210.733,114.035,143.396,125.299,139.372z"/>
	
		<linearGradient id="SVGID_1_" gradientUnits="userSpaceOnUse" x1="109.9972" y1="-237.804" x2="106.7275" y2="-10.7416" gradientTransform="matrix(1 0.0026 0.0026 0.7312 -3.6474 379.0605)">
		<stop  offset="0" style="stop-color:#C1272D"/>
		<stop  offset="0.0419" style="stop-color:#B4242A;stop-opacity:0.9581"/>
		<stop  offset="0.2254" style="stop-color:#7D191D;stop-opacity:0.7746"/>
		<stop  offset="0.4045" style="stop-color:#501013;stop-opacity:0.5955"/>
		<stop  offset="0.5754" style="stop-color:#2D090B;stop-opacity:0.4246"/>
		<stop  offset="0.7358" style="stop-color:#140405;stop-opacity:0.2642"/>
		<stop  offset="0.8817" style="stop-color:#050101;stop-opacity:0.1183"/>
		<stop  offset="1" style="stop-color:#000000;stop-opacity:0"/>
	</linearGradient>
	<path fill="url(#SVGID_1_)" d="M60.645,235.852c0,0,2.993,29.552,4.725,42.071s6.448,21.004,6.448,21.004s-3.649,4.028-3.189,5.595
		c0.46,1.567,3.095,4.093,3.095,4.093s-0.446-1.47-0.194,6.919c0.205,6.842,1.024,13.507,1.196,28.114
		c0.039,3.302,3.059,9.627,3.006,10.837c-0.285,6.561-3.215,13.224-5.029,14.207c0,0,26.677,1.732,34.258-1.245l0.667-2.499
		c0,0,12.682,4.534,30.718-2.482c0,0-6.155-10.334-6.387-12.865c-0.031-0.334,4.622-9.925,4.622-9.925s-2.713-11.164-1.111-14.717
		c1.602-3.553,4.466-5.088,5.2-7.269c0.733-2.181-1.923-7.444-1.923-7.444s3.773-5.345,4.272-14.404
		c0.499-9.06,10.935-57.094,8.61-67.118c-2.326-10.024-9.785-19.697-9.785-19.697s-40.234,3.48-47.991,3.459
		C84.096,212.465,59.152,221.563,60.645,235.852z"/>
	<g>
		<path fill="#5B2421" d="M120.635,218.476c0,0,0.378-0.152,1.008-0.404c0.634-0.243,1.523-0.589,2.568-0.894
			c2.071-0.671,4.772-1.197,7.002-1.167c0,0-0.976,0.468-2.779,0.957C126.636,217.5,124.023,218.087,120.635,218.476z"/>
	</g>
	<g>
		<path fill="#5B2421" d="M126.213,212.341c0,0-0.06,1.625-0.16,4.338c-0.103,2.713-0.238,6.514-0.482,10.864
			c-0.239,4.35-0.597,9.254-1.256,14.142c-0.081,0.611-0.153,1.223-0.244,1.832c-0.099,0.608-0.198,1.215-0.297,1.82
			c-0.203,1.209-0.38,2.414-0.67,3.588c-0.134,0.588-0.266,1.172-0.398,1.75c-0.13,0.579-0.259,1.152-0.446,1.705
			c-0.35,1.109-0.693,2.194-1.026,3.248c0,0,0.204-1.029,0.636-2.961c0.251-0.958,0.407-2.178,0.649-3.602
			c0.271-1.418,0.433-3.084,0.683-4.947c0.438-3.735,0.919-8.309,1.356-13.643C125.017,225.146,125.476,219.057,126.213,212.341z"/>
	</g>
	<g>
		<path fill="#5F7B92" d="M72.872,75.835c0,0-27.014,8.582-30.45,10.281c0,0-3.758,5.554-3.21,7.762
			c0.549,2.208,5.935,34.761,9.289,41.626c3.354,6.866,10.568,27.206,11.646,33.61c1.078,6.404,2.875,27.018,0.524,34.366
			c-2.351,7.348-9.199,42.836-10.108,45.997c-0.909,3.161,53.988,4.155,60.517-2.998c6.528-7.152,16.21-50.971,15.758-67.35
			s-9.642-23.508-14.848-27.232c-5.206-3.723-28.779-46.025-32.793-54.372S72.872,75.835,72.872,75.835z"/>
		<path fill="#5F7B92" d="M112.744,73.527c0,0,20.432,5.397,26.686,7.045c6.254,1.648,7.276,7.629,7.236,11.801
			c-0.04,4.172-3.822,41.754-4.726,46.875c-0.904,5.121,1.093,34.469,2.18,40.049c1.086,5.58,5.568,43.315,12.251,59.587
			c0,0-16.884,7.275-19.435,5.793c-2.551-1.482-7.082-34.014-8.702-43.434c-1.619-9.42-4.966-24.089-8.729-29.346
			c-3.763-5.257-7.361-13.399-4.661-24.337c2.7-10.938,1.575-47.11,0.781-55.485C114.831,83.699,112.744,73.527,112.744,73.527z"/>
		<path fill="#0A0A0A" d="M122.788,158.576c2.261-0.981,6.762,4.21,3.398,6.73C122.821,167.827,119.312,160.084,122.788,158.576z"/>
		<g>
			<g>
				<path fill="none" stroke="#050504" stroke-width="2" stroke-miterlimit="10" d="M75.06,152.853"/>
			</g>
		</g>
		<g>
			<g>
				<path fill="none" stroke="#050504" stroke-width="2" stroke-miterlimit="10" d="M51.921,135.537"/>
			</g>
		</g>
		<g>
			<g>
				<path fill="none" stroke="#050504" stroke-width="2" stroke-miterlimit="10" d="M65.36,160.454"/>
			</g>
		</g>
		<g>
			<g>
				<path fill="none" stroke="#050504" stroke-width="2" stroke-miterlimit="10" d="M53.291,141.244"/>
			</g>
		</g>
		<path fill="#0A0A0A" d="M115.574,198.983c-2.682-1.055-4.081,7.085-0.73,7.973C118.196,207.842,120.401,200.881,115.574,198.983z"
			/>
		<path fill="#282828" d="M62.647,205.566c0.036,0.002,21.076,1.311,25.361,0.244c0,0-1.384,10.563-1.966,11.84
			c-0.582,1.277-26.093,1.744-27.367,0.877C57.4,217.659,60.959,205.48,62.647,205.566z"/>
		<path fill="#282828" d="M137.406,203.174c0.147-0.465,9.419-2.27,10.606-2.739c1.187-0.469,2.296,9.97,1.787,10.499
			c-0.509,0.528-7.288,2.185-8.712,2.072C139.664,212.894,137.406,203.174,137.406,203.174z"/>
		<g>
			<g>
				<g>
					<path fill="#0C0C0B" d="M123.323,208.18c0,0-0.5,3.2-1.573,8.5c-0.53,2.651-1.221,5.824-2.085,9.379
						c-0.869,3.554-1.904,7.493-3.312,11.633c-0.358,1.033-0.756,2.075-1.147,3.135c-0.475,1.04-0.851,2.119-1.429,3.164
						c-0.286,0.524-0.54,1.057-0.859,1.58c-0.363,0.512-0.729,1.026-1.096,1.543c-0.975,1.094-2.157,1.644-3.306,2.152
						c-2.328,0.962-4.738,1.48-7.165,1.9c-2.428,0.412-4.881,0.689-7.336,0.895c-9.822,0.769-19.668,0.559-28.425-0.138
						c0,0,2.072-0.089,6.019-0.258c3.94-0.184,9.755-0.416,17.195-1.003c3.714-0.315,7.852-0.687,12.277-1.47
						c2.2-0.403,4.51-0.89,6.667-1.768c1.068-0.456,2.093-0.962,2.734-1.791c0.33-0.491,0.72-0.917,1.023-1.467
						c0.305-0.549,0.612-1.103,0.922-1.662c2.241-4.695,4.034-10.116,5.784-15.876C119.959,220.855,121.663,214.696,123.323,208.18z
						"/>
				</g>
			</g>
		</g>
		<g>
			<g>
				<g>
					<path fill="#0C0C0B" d="M58.085,161.175c0,0,2.686,0.236,7.149,0.538c2.231,0.149,4.907,0.31,7.908,0.413
						c1.499,0.03,3.084,0.116,4.721,0.065c0.816-0.025,1.665,0.014,2.497-0.06c1.314-0.107,2.651-0.216,4.009-0.327
						c-0.272,0.708-0.546,1.421-0.821,2.139l-0.35,0.942l-0.209,0.594c-0.271,0.798-0.545,1.606-0.822,2.422
						c-0.547,1.635-1.05,3.321-1.551,5.029c-0.965,3.424-1.827,6.978-2.319,10.554c-0.106,0.892-0.204,1.789-0.254,2.678
						l-0.042,1.331c-0.016,0.223-0.002,0.441,0.013,0.658l0.064,0.99l0.084,1.25l0.01,0.155c-0.025,0.024-0.098-0.001-0.145,0.002
						l-0.317-0.025l-0.629-0.049l-1.826-0.155c-0.906-0.087-1.807-0.174-2.702-0.26c-3.581-0.357-7.064-0.751-10.354-1.188
						c0,0,3.957-0.152,11.278-0.017c0.866,0.017,1.781,0.035,2.745,0.055l0.219-0.015c0.05,0.013,0.034-0.036,0.024-0.078
						l-0.023-0.116c0,0.041-0.137-0.782-0.119-1.303c-0.115-2.324,0.149-4.819,0.597-7.46c0.456-2.642,1.132-5.43,2.007-8.346
						c0.433-1.46,0.926-2.947,1.463-4.468c0.271-0.759,0.55-1.527,0.849-2.301l0.224-0.582l0.063-0.153l0.038-0.086
						c0.065-0.151,0.078-0.161,0.11-0.219c-0.035-0.01-0.089-0.015-0.149-0.021c-0.429,0.019-0.861,0.038-1.297,0.057
						c-0.977,0.003-1.956-0.06-2.955-0.091c-1.001-0.021-2.004-0.126-3.023-0.214c-1.019-0.096-2.054-0.168-3.095-0.308
						C66.981,162.737,62.612,162.039,58.085,161.175z"/>
				</g>
			</g>
		</g>
		<g>
			<g>
				<g>
					<path fill="#0C0C0B" d="M129.37,207.137c0,0,1.029,4.847,2.542,11.971c0.733,3.561,1.584,7.692,2.485,12.071
						c0.461,2.18,0.936,4.423,1.415,6.687c0.253,1.124,0.505,2.257,0.793,3.364c0.143,0.552,0.289,1.109,0.458,1.629
						c0.078,0.273,0.173,0.508,0.263,0.751c0.04,0.117,0.103,0.208,0.121,0.266c0.015,0.044,0.016,0.037,0.029,0.057
						c0.03,0.018-0.01,0.006,0.077,0.034c0.097,0.012,0.185,0.04,0.308,0.042c0.227,0.019,0.489,0.014,0.752-0.004
						c0.529-0.035,1.081-0.115,1.63-0.21c1.101-0.195,2.201-0.455,3.284-0.726c2.167-0.55,4.276-1.154,6.286-1.742
						c0,0-1.039,0.597-3.122,1.549c-1.043,0.473-2.346,1.035-3.935,1.605c-0.796,0.283-1.663,0.569-2.627,0.81
						c-0.484,0.119-0.988,0.232-1.543,0.299c-0.277,0.034-0.569,0.055-0.884,0.051c-0.164-0.009-0.326-0.016-0.51-0.05
						c-0.199-0.028-0.453-0.126-0.663-0.227c-0.169-0.169-0.381-0.335-0.513-0.527c-0.114-0.198-0.2-0.335-0.275-0.493
						c-0.127-0.288-0.267-0.588-0.365-0.875c-0.223-0.584-0.409-1.174-0.592-1.783c-0.366-1.216-0.693-2.496-1.01-3.84
						c-0.635-2.688-1.214-5.634-1.76-8.82C130.932,222.654,129.998,215.318,129.37,207.137z"/>
				</g>
			</g>
		</g>
	</g>
	<g>
		<path fill="#6198BC" d="M74.724,75.853c-0.007,0.763-1.756,4.807-0.112,11.663c1.644,6.855,30.235,56.504,39.336,65.782
			c0,0,2.311-40.22,1.811-54.943c-0.5-14.723-4.235-26.32-4.235-26.32L74.724,75.853z"/>
		<path fill="#980E00" d="M93.014,91.856c0,0,9.596-4.205,12.363-2.936c0,0,0.21,7.811-0.375,9.331
			c-0.585,1.52-4.014,2.538-5.717,1.783C97.582,99.279,93.014,91.856,93.014,91.856z"/>
		<path fill="#980E00" d="M98.802,98.753c0,0-3.149,26.931-3.326,30.562s19.436,24.553,19.436,24.553s4.797-25.514,5.032-27.8
			c0.236-2.286-15.568-28.3-15.568-28.3S100.281,98.03,98.802,98.753z"/>
		<path fill="#F5C8B0" d="M78.135,65.621c0,0,0.67,8.102,0.211,11.38c0,0,12.752,7.556,19.359,9.454
			c6.608,1.898,10.34-9.9,10.592-12.388c0.253-2.487-1.678-10.68-1.678-10.68L78.135,65.621z"/>
		<path fill="#2B2B2B" d="M72.872,75.835c0,0,21.287,48.062,43.216,79.265c0,0-42.118-30.4-43.675-31.484
			c-1.557-1.084,8.893-20.861,8.893-20.861s-22.003-1.235-22.636-2.119C58.036,99.753,71.228,76.384,72.872,75.835z"/>
		<path fill="#2B2B2B" d="M111.378,72.033c0,0,20.426,10.546,20.983,14.328c0.163,1.11-15.209,9.686-15.209,9.686
			s13.82,8.896,14.963,10.617c1.143,1.721-17.348,47.203-17.348,47.203S114.859,87.864,111.378,72.033z"/>
		<path fill="#81B6D3" d="M76.209,71.334c0,0,13.115,12.476,21.497,15.121c0,0-7.218,9.733-9.089,11.638
			c0,0-15.589-13.799-17.811-19.805C70.806,78.288,73.999,75.208,76.209,71.334z"/>
		<path fill="#81B6D3" d="M97.706,86.456c0,0,5.55-5.365,10.178-16.825l3.64,2.404c0,0,2.653,13.083-0.208,21.605L97.706,86.456z"/>
	</g>
	<g>
		<polygon id="XMLID_10_" fill-rule="evenodd" clip-rule="evenodd" fill="#1C1C1C" points="132.413,183.604 114.233,182.113 
			124.199,145.489 141.328,148.101 142.695,149.17 		"/>
		<path id="XMLID_9_" fill-rule="evenodd" clip-rule="evenodd" fill="#EFEFEF" d="M114.288,182.168
			c1.258-3.979,11.248-35.63,11.248-35.63l17.159,2.632l-1.367-1.068l-17.129-2.613l-11.22,35.705L114.288,182.168z"/>
		
			<ellipse id="XMLID_8_" fill-rule="evenodd" clip-rule="evenodd" fill="#727272" cx="132.548" cy="154.763" rx="1.189" ry="1.166"/>
	</g>
	<g>
		<path fill="#FFDAC3" d="M150.958,166.823c0,0-6.976-4.345-9.398-4.368c-0.605-0.006-1.595-0.145-2.758-0.361
			c-0.002,0.055-0.01,0.113-0.031,0.175c-0.017,0.046-0.03,0.094-0.047,0.141c-0.03,0.139-0.074,0.27-0.131,0.395
			c-0.182,0.552-0.351,1.107-0.541,1.656c-0.179,0.515-0.384,1.064-0.818,1.419c-0.029,0.024-0.06,0.034-0.09,0.052l0.001,0
			c0,0-0.001,0-0.001,0c-0.234,0.14-0.489,0.122-0.676-0.004c-0.403-0.001-0.953-0.001-1.556,0.005
			c-0.14,0.018-0.283,0.021-0.424,0.005c-1.154,0.016-2.415,0.055-3.187,0.143c-1.712,0.195-10.861-2.275-13.513-2.447
			c-1.965,0.936-1.585,3.039-0.837,4.319c0.46,0.788,4.302,2.251,4.302,2.251s-0.649,4.657-0.051,5.314
			c0.598,0.657,2.277,1.184,2.277,1.184s-0.979,1.854-0.153,3.144c0.826,1.29,6.142,2.622,7.14,2.761
			c2.135,0.296,16.836,0.732,18.7-0.533C151.03,180.812,152.638,169.884,150.958,166.823z"/>
		<path fill="#6198BC" d="M151.43,163.456c0,0-3.25-0.78-5.149-1.389c0,0,2.895,17.508-4.427,23.205l8.181,1.318
			C150.034,186.589,155.89,167.322,151.43,163.456z"/>
		<path fill="#5F7B92" d="M139.43,80.572c0,0,7.924-0.529,9.314,3.169c1.101,2.929,3.099,10.015,3.099,10.015
			s19.67,58.634,21.603,65.015c1.934,6.381,7.792,19.472,4.609,24.466c-3.183,4.994-18.149,5.42-32.53,3.558
			c0,0,6.825-6.846,6.999-15.787c0.162-8.287-1.889-7.559-1.889-7.559l-2.456-0.772c0,0-5.661-18.063-7.85-27.494
			C138.14,125.75,139.43,80.572,139.43,80.572z"/>
		<g>
			<g>
				<g>
					<path fill="#0C0C0B" d="M150.593,163.272c0,0,0.513-0.23,1.396-0.569c0.438-0.182,0.982-0.339,1.599-0.515
						c0.614-0.193,1.318-0.327,2.078-0.447c0.755-0.156,1.587-0.14,2.435-0.181c0.849,0.072,1.737,0.085,2.59,0.327
						c1.735,0.344,3.321,1.218,4.522,2.212c0,0-0.403,0.018-1.1-0.036c-0.688-0.08-1.696-0.132-2.916-0.27
						c-1.237-0.067-2.684-0.249-4.428-0.288C154.961,163.437,152.896,163.359,150.593,163.272z"/>
				</g>
			</g>
		</g>
		<g>
			<g>
				<path fill="none" stroke="#050504" stroke-miterlimit="10" d="M163.435,156.268"/>
			</g>
		</g>
		<g>
			<g>
				<path fill="none" stroke="#050504" stroke-miterlimit="10" d="M150.266,162.47"/>
			</g>
		</g>
		<g>
			<g>
				<path fill="none" stroke="#050504" stroke-width="2" stroke-miterlimit="10" d="M157.761,153.648"/>
			</g>
		</g>
		<g>
			<g>
				<path fill="none" stroke="#050504" stroke-width="2" stroke-miterlimit="10" d="M149.288,160.478"/>
			</g>
		</g>
		<g>
			<g>
				<path fill="none" stroke="#050504" stroke-width="2" stroke-miterlimit="10" d="M157.709,129.424"/>
			</g>
		</g>
		<g>
			<g>
				<path fill="none" stroke="#050504" stroke-width="2" stroke-miterlimit="10" d="M152.552,102.586"/>
			</g>
		</g>
		<g>
			<g>
				<path fill="none" stroke="#050504" stroke-width="2" stroke-miterlimit="10" d="M159.769,181.881"/>
			</g>
		</g>
		<g>
			<g>
				<path fill="none" stroke="#050504" stroke-width="2" stroke-miterlimit="10" d="M153.716,188.948"/>
			</g>
		</g>
		<g>
			<g>
				<path fill="none" stroke="#050504" stroke-width="2" stroke-miterlimit="10" d="M161.199,181.325"/>
			</g>
		</g>
		<g>
			<g>
				<path fill="none" stroke="#050504" stroke-width="2" stroke-miterlimit="10" d="M158.569,188.139"/>
			</g>
		</g>
		<g>
			<g>
				<g>
					<path fill="#0C0C0B" d="M141.536,144.931c0,0,0.045-1.734,0.121-4.628c0.055-1.447,0.092-3.185,0.215-5.138
						c0.146-1.953,0.308-4.124,0.481-6.442c0.189-2.317,0.409-4.781,0.662-7.316c0.129-1.247,0.259-2.513,0.391-3.788
						c0.141-1.266,0.17-2.567,0.274-3.855c0.275-5.18,0.314-10.418,0.463-15.12c0,0,0.255,1.088,0.564,3.189
						c0.315,2.1,0.685,5.211,0.81,9.252c0.07,2.02,0.047,4.274-0.131,6.747c-0.233,2.5-0.524,5.111-0.888,7.931
						c-0.364,2.819-0.801,5.831-1.326,9.025C142.664,137.984,142.177,141.376,141.536,144.931z"/>
				</g>
			</g>
		</g>
		<g>
			<g>
				<g>
					<path fill="#EEBDA2" d="M120.418,169.765c0,0,0.823,0.063,1.835,0.32c0.995,0.236,2.287,0.792,3.067,1.599
						c0,0-0.615,0.109-1.504-0.072C122.953,171.428,121.685,170.953,120.418,169.765z"/>
				</g>
			</g>
		</g>
	</g>
	<g>
		<g>
			<path fill="#FFDAC3" d="M104.076,36.106c0,0,3.781-7.89,8.612-6.525c4.832,1.365,5.625,17.889-5.233,15.796
				C107.455,45.377,104.039,39.97,104.076,36.106z"/>
			<g>
				<path fill="#D4A083" d="M108.25,40.558c0,0,0.111-0.278,0.324-0.745c0.093-0.243,0.274-0.491,0.463-0.785
					c0.178-0.306,0.448-0.587,0.736-0.894c0.137-0.161,0.305-0.299,0.484-0.432c0.177-0.135,0.357-0.277,0.548-0.408
					c0.414-0.207,0.822-0.473,1.293-0.58c0.907-0.324,1.9-0.272,2.702-0.082c0,0-0.197,0.081-0.551,0.186
					c-0.356,0.083-0.857,0.276-1.469,0.496C111.566,37.822,109.97,38.653,108.25,40.558z"/>
			</g>
		</g>
		<g>
			<path fill="#FFDAC3" d="M66.691,40.909c0,0-2.527-3.903-7.105-2.008c-4.578,1.896,0.918,14.908,5.667,14.291
				C70.002,52.577,70.634,45.792,66.691,40.909z"/>
			<g>
				<path fill="#D4A083" d="M60.297,44.088c0,0,0.067-0.03,0.189-0.086c0.123-0.054,0.302-0.141,0.543-0.204
					c0.471-0.146,1.192-0.268,2.012-0.108c0.411,0.066,0.831,0.233,1.237,0.449c0.398,0.233,0.772,0.536,1.076,0.901
					c0.609,0.732,0.892,1.685,0.83,2.488c0,0-0.115-0.17-0.284-0.475c-0.198-0.295-0.46-0.723-0.876-1.168
					c-0.419-0.437-0.963-0.919-1.733-1.271C62.529,44.242,61.533,44.018,60.297,44.088z"/>
			</g>
		</g>
		<path fill="#FFDAC3" d="M61.406,15.453c0,0,40.194-7.974,41.039-6.926c0.845,1.048,5.78,15.534,6.336,16.946
			c0.556,1.412,1.099,7.299,1.099,7.299s1.143,29.348,1.138,29.811c-0.004,0.462-0.37,4.458-3.784,3.855
			c-3.414-0.603-7.768,5.156-9.21,6.852c-1.441,1.696-26.094-6.061-26.094-6.061s-7.705-28.573-8.551-29.436l-0.942-5.983
			L61.406,15.453z"/>
		<g>
			<path fill="#D4A083" d="M90.434,35.671c0,0,0.311,0.972,0.83,2.596c0.523,1.621,1.267,3.889,2.168,6.46
				c0.458,1.283,0.949,2.644,1.503,4.022c0.283,0.685,0.574,1.378,0.896,2.056c0.075,0.174,0.163,0.337,0.25,0.502l0.151,0.287
				c0.092,0.172,0.18,0.342,0.252,0.505c0.182,0.193-0.119,0.258-0.241,0.366c-0.077,0.049-0.15,0.102-0.237,0.145l-0.217,0.117
				c-0.184,0.107-0.374,0.169-0.562,0.25c-1.513,0.612-3.116,0.755-4.645,0.787c-0.382-0.024-0.762-0.047-1.138-0.07
				c-0.187-0.013-0.374-0.026-0.56-0.038c-0.186-0.008-0.37-0.029-0.55-0.067c-0.725-0.129-1.432-0.261-2.112-0.397
				c0,0,0.666,0.008,1.905,0.069c0.155,0.008,0.319,0.016,0.492,0.025c0.173-0.008,0.356-0.016,0.547-0.024
				c0.381-0.014,0.797-0.029,1.248-0.046c0.895-0.083,1.924-0.2,3.037-0.491c0.547-0.163,1.127-0.342,1.684-0.614
				c0.072-0.031,0.143-0.062,0.207-0.103l0.088-0.05l0.005-0.005c0.008-0.006,0.01-0.012,0-0.019l-0.003-0.002
				c-0.002-0.002,0.006,0.013-0.025-0.043l-0.129-0.237c-0.089-0.159-0.173-0.32-0.248-0.487c-0.643-1.32-1.21-2.794-1.746-4.397
				C92.214,43.561,91.24,39.84,90.434,35.671z"/>
		</g>
		<g>
			<g>
				<path fill="none" stroke="#BF003E" stroke-width="1.5" stroke-miterlimit="10" d="M106.024,63.238"/>
			</g>
		</g>
		<g>
			<path fill="#9E664E" d="M72.615,43.507c0,0,0.107,0.026,0.304,0.075c0.195,0.053,0.479,0.122,0.838,0.184
				c0.715,0.131,1.726,0.238,2.861,0.15c1.135-0.094,2.384-0.393,3.568-0.894c1.187-0.499,2.319-1.163,3.338-1.816
				c0,0-0.163,0.236-0.518,0.661c-0.374,0.398-0.943,1-1.85,1.557c-0.892,0.566-2.139,1.085-3.661,1.23
				C75.984,44.78,74.202,44.47,72.615,43.507z"/>
		</g>
		<g>
			<path fill="#9E664E" d="M95.582,40.736c0,0,0.1,0.024,0.282,0.068c0.181,0.046,0.445,0.113,0.776,0.183
				c0.66,0.144,1.588,0.321,2.642,0.379c1.054,0.071,2.226-0.033,3.351-0.341c1.121-0.326,2.188-0.865,3.137-1.456
				c0,0-0.147,0.219-0.476,0.615c-0.351,0.361-0.897,0.916-1.79,1.362c-0.882,0.446-2.116,0.768-3.522,0.673
				C98.577,42.126,97.046,41.62,95.582,40.736z"/>
		</g>
		<g>
			<path fill="#2D180E" d="M69.023,35.477c0,0,0.345-0.373,0.951-0.978c0.295-0.313,0.693-0.635,1.133-1.013
				c0.433-0.388,0.966-0.753,1.532-1.15c2.258-1.598,5.651-2.814,8.464-2.753c0,0-0.294,0.183-0.858,0.458
				c-0.568,0.259-1.386,0.67-2.437,1.128C75.704,32.133,72.803,33.454,69.023,35.477z"/>
		</g>
		<g>
			<path fill="#2D180E" d="M93.392,28.415c0,0,0.465-0.077,1.239-0.174c0.387-0.048,0.857-0.1,1.385-0.149
				c0.529-0.042,1.126-0.069,1.765-0.072c0.641,0.038,1.329,0.034,2.029,0.187c0.349,0.07,0.71,0.115,1.059,0.221
				c0.348,0.112,0.697,0.23,1.044,0.354c0.353,0.108,0.676,0.287,0.997,0.461c0.321,0.174,0.635,0.353,0.938,0.536
				c0.572,0.426,1.095,0.884,1.554,1.336c0,0-0.321-0.064-0.875-0.236c-0.277-0.086-0.612-0.198-0.994-0.343
				c-0.401-0.106-0.855-0.23-1.348-0.393c-0.242-0.094-0.512-0.148-0.792-0.213c-0.279-0.067-0.568-0.142-0.869-0.228
				c-0.302-0.08-0.629-0.119-0.96-0.196c-0.166-0.037-0.336-0.075-0.508-0.113c-0.173-0.037-0.355-0.054-0.537-0.086
				C97.073,29.031,95.325,28.862,93.392,28.415z"/>
		</g>
		<g>
			<path fill="#2D180E" d="M110.209,36.502c-0.924,0.806-1.036,2.174-1.136,3.396c-0.452,5.494-4.259,16.495-4.584,16.574
				c-0.49,0.119-6.924-2.763-8.736-2.734c-1.7,0.027-3.196,1.397-4.88,1.628c-1.822,0.25-4.61-0.645-6.368-0.104
				c-1.93,0.593-6.972,5.412-7.546,5.316c-0.322-0.054-8.925-9.926-9.688-11.125l-2.399-2.847c0.353,1.685,0.95,3.884,1.68,6.325
				c0.542,2.705,1.083,5.409,1.625,8.114c0.048-0.221,0.139-0.432,0.268-0.618c0.703,1.914,1.1,3.941,1.171,5.979
				c0.04-0.292,0.523-0.276,0.676-0.025c0.153,0.251,0.092,0.571,0.064,0.864c-0.094,0.972,0.255,1.978,0.931,2.682
				c0.357,2.311,0.714,4.621,1.071,6.932c0.102-0.559,0.203-1.118,0.305-1.676c0.539,2.461,1.319,4.869,2.326,7.179
				c0.122-0.346,0.243-0.693,0.365-1.039c1.036,1.182,1.673,2.708,1.785,4.276c0.31-0.232,0.619-0.464,0.929-0.695
				c-0.318,2.433,1.158,4.99,3.423,5.932c-0.544-0.584-0.642-1.536-0.229-2.219c0.162,0.261,0.325,0.523,0.487,0.784
				c-0.174-0.77-0.031-1.607,0.389-2.275c1.077,1.029,1.736,2.483,1.801,3.971c0.659-0.727,1.319-1.454,1.978-2.18
				c-0.037,2.588,2.208,4.998,4.792,5.144c-0.777-0.479-1.006-1.657-0.464-2.392c0.333,0.114,0.666,0.228,0.999,0.343
				c0.227-0.39,0.454-0.781,0.681-1.171c-0.175,1.541,1.986,2.506,3.716,2.478c1.464-0.024,5.808-1.333,7.158-1.902
				c1.349-0.57,0.863-1.781,0.894-3.245c0.466,0.08,0.895,0.358,1.157,0.752c0.217-0.346,0.435-0.692,0.652-1.038
				c0.936,0.129,1.831-0.554,2.256-1.397c0.424-0.844,0.481-1.818,0.53-2.761c0.46-0.036,0.487,1.639,0.625,2.08
				c0.522-1.529,0.476-2.045,0.496-2.388c0.248,0.147,1.209-0.337,1.394,0.782c1.167-1.63,0.372-3.506,0.647-5.144
				c0.291,0.076,0.557,0.243,0.751,0.472c0.002-0.817,0.004-1.634,0.006-2.451c0-0.176,0.015-0.38,0.159-0.481
				c0.105-0.074,0.272,0.003,0.311,0.103c0.382-2.002,0.438-4.065,0.157-6.083c0.223,0.148,0.446,0.295,0.669,0.443
				c-0.089-1.494-0.362-2.976-0.802-4.407c-0.015-0.482-0.036-1.037-0.061-1.649c0.055,0.011,0.11,0.023,0.165,0.034
				c0.442-1.136,0.013-2.398-0.267-3.585c-0.033-0.14-0.066-0.318-0.097-0.518c-0.042-0.759-0.088-1.554-0.138-2.379
				c0.061-0.745,0.291-1.086,0.841-0.177c0.153-4.583-0.922-8.246-1.768-12C111.038,42.824,110.649,39.378,110.209,36.502z
				 M90.991,57.436c6.098-1.009,11.719-0.892,12.223,2.158c0.423,2.555-2.391,6.421-6.922,8.152
				c-1.417,0.541-1.474-2.509-2.018-2.643c-0.287-0.071-2.206,0.216-2.494,0.263c-0.436,0.072,0.226,3.172-1.303,3.296
				c-4.914,0.398-9.132-3.214-9.552-5.754C80.421,59.858,84.893,58.444,90.991,57.436z"/>
			<path fill="#2D180E" d="M112.674,76.699c-0.007,0.037-0.01,0.075-0.017,0.112C112.686,76.774,112.688,76.735,112.674,76.699z"/>
		</g>
		<g>
			<g>
				<path fill="#2D180E" d="M63.604,44.13c0.48,0.315,2,2.851,2.398,2.438c-2.068-7.426-3.234-15.909-2.084-22.119
					c0.292-1.577,3.74-6.495,4.981-7.332c2.446-1.651,9.631-1.245,13.895-1.875c5.705-0.843,8.655-3.955,13.252-4.085
					c1.29-0.037,3.489,0.787,5.071,2.1c2.405,1.997,6.501,10.787,7.304,13.698c0.45,1.632,1.703,7.858,1.707,10.32
					c0.646,0.733,0.77-2.962,1.129-3.966c-0.619-8.82-1.99-10.887-2.33-19.459c-0.177-4.481-3.25-9.422-7.301-11.194
					c-12.15-5.316-19.327-1.059-21.386-0.747c-4.698,0.714-11.311,1.597-14.674,4.268c-4.504,3.579-8.717,8.962-8.095,14.681
					C58.194,27.502,63.123,43.815,63.604,44.13z"/>
			</g>
			<path fill="#442519" d="M69.601,14.952c-0.775-1.563-1.263-3.413-0.642-5.043c0.404-1.059,1.228-1.898,2.088-2.636
				c1.278-1.097,2.683-2.044,4.18-2.816c-0.689-0.062-1.354,0.242-1.969,0.558c-1.219,0.625-2.411,1.336-3.393,2.29
				c-0.983,0.954-1.75,2.175-1.968,3.527c-0.197,1.218,0.056,2.459,0.308,3.668c-0.543-1.149-0.974-2.376-1.026-3.646
				c-0.052-1.27,0.309-2.595,1.179-3.522c-1.132,1.322-2.142,2.856-2.318,4.588c-0.176,1.732,0.717,3.669,2.373,4.203
				c-0.044-0.321-0.031-0.649,0.038-0.965c0.323,0.037,0.641,0.122,0.94,0.252c0.1-0.11,0.117-0.288,0.039-0.415"/>
			<path fill="#442519" d="M81.944,14.418c-0.763-0.123-1.357-0.727-1.799-1.361c-0.815-1.171-1.312-2.561-1.422-3.983
				c-0.019-0.246-0.026-0.5,0.06-0.731c0.196-0.528,0.809-0.793,1.063-1.295c0.333-0.656-0.048-1.433-0.088-2.168
				c-0.056-1.037,0.577-1.971,1.183-2.815c-0.277,1.121-0.555,2.262-0.496,3.416c0.024,0.464,0.103,0.929,0.04,1.389
				c-0.111,0.821-0.658,1.531-0.789,2.349c-0.131,0.815,0.171,1.652,0.647,2.325c0.476,0.674,1.116,1.212,1.749,1.742
				c-0.559-0.66-1.064-1.388-1.309-2.216c-0.246-0.829-0.203-1.775,0.272-2.497c-0.027,1.814,0.639,3.631,1.832,4.998
				c0.007-0.827-0.037-1.654-0.132-2.475c0.301,0.737,0.601,1.474,0.902,2.211c0.777-0.8,1.119-1.999,0.882-3.088
				c-0.179-0.825-0.662-1.567-0.782-2.402c-0.056-0.389-0.031-0.783-0.033-1.176c-0.009-1.461-0.408-2.919-1.146-4.18
				c1.04,1.388,1.563,3.085,2.068,4.745c0.306,1.007,0.613,2.015,0.919,3.022c0.147,0.483,0.295,0.978,0.269,1.482
				c-0.046,0.886-0.614,1.648-1.158,2.348c-0.055,0.071-0.113,0.144-0.194,0.181c-0.16,0.074-0.343-0.013-0.506-0.082
				c-0.558-0.238-1.201-0.271-1.781-0.091c-0.03-0.131-0.061-0.262-0.091-0.393"/>
			<path fill="#442519" d="M86.615,2.255c1.221,1.054,2.442,2.108,3.663,3.163c0.142,0.123,0.287,0.249,0.375,0.415
				c0.154,0.289,0.109,0.642,0.195,0.958c0.159,0.583,0.725,0.943,1.124,1.397c0.652,0.742,0.87,1.84,0.55,2.775
				c0.471-0.729,0.45-1.691,0.156-2.507c-0.294-0.817-0.828-1.521-1.354-2.211c0.597,0.56,1.406,0.877,1.928,1.507
				c0.626,0.756,0.717,1.807,0.781,2.787c0.261-1.12,0.424-2.347-0.087-3.377c-0.284-0.572-0.75-1.029-1.208-1.473
				c-1.006-0.977-2.013-1.954-3.019-2.931c0.234,0.52,0.486,1.032,0.754,1.535c-1.269-0.983-2.621-1.86-4.037-2.617"/>
			<path fill="#442519" d="M94.728,3.574c1.089,0.892,2.177,1.784,3.266,2.676c0.455,0.373,0.913,0.748,1.303,1.189
				c1.152,1.303,1.63,3.172,1.245,4.868c0.67-0.675,0.891-1.756,0.541-2.64c0.384,1.106,0.594,2.272,0.621,3.443
				c0.783-1.505,0.413-3.325,0.024-4.976c-0.054-0.23-0.113-0.469-0.267-0.648c-0.133-0.155-0.322-0.247-0.493-0.359
				c-0.461-0.3-0.803-0.747-1.195-1.134c-0.776-0.764-1.75-1.289-2.71-1.803c-0.934-0.501-1.955-1.017-3.002-0.852"/>
		</g>
		<g>
			<path id="XMLID_7_" fill="#EAB7B0" d="M99.222,60.517c0.029-0.191,0.41-0.541-0.093-0.518c-1.081,0.05-2.566-0.322-3.772-0.387
				c-0.498-0.027-1.371-0.088-1.782,0.195c-0.307,0.211-0.557,0.406-0.915,0.509c-0.384,0.11-0.736-0.204-1.136-0.2
				c-1.731,0.021-3.643,1.973-5.3,1.736c-0.086,0.169-0.154,0.353,0.006,0.454c0.16,0.101,1.544,0.941,2.155,1.16
				c0.425,0.152,1.994,0.796,2.442,0.735c0.845-0.115,3.659-0.537,4.488-0.732c0.913-0.214,1.446-0.921,2.005-1.496
				C97.59,61.696,98.629,60.871,99.222,60.517"/>
			<path id="XMLID_1_" fill="#C47065" d="M99.93,59.682c-0.618-0.179-1.475,0.34-2.083,0.551c-0.91,0.316-1.952,0.01-2.854,0.349
				c-0.791,0.297-1.395,1.063-2.236,1.15c-0.562,0.058-1.108-0.207-1.672-0.23c-0.748-0.03-1.443,0.362-2.176,0.515
				c-0.605,0.126-1.244,0.085-1.828-0.117c-0.225-0.078-0.452-0.181-0.69-0.165c-0.238,0.016-0.486,0.207-0.46,0.444
				c0.034,0.311,0.446,0.393,0.758,0.377c1.732-0.086,3.586-0.913,5.291-0.597c0.284,0.053,0.747,0.128,1.039,0.073
				c0.334-0.063,0.717-0.426,1.008-0.603c1.648-1.002,3.29-0.613,5.196-0.911C99.448,60.481,100.181,60.085,99.93,59.682z"/>
		</g>
	</g>
	<g>
		<path opacity="0.14" fill="#FFFFFF" d="M67.228,42.95c-0.349,3.418,2.796,10.891,9.33,9.141c5.727-1.534,8.38-4.063,8.882-7.462
			c1.322-8.96-2.308-7.973-7.848-7.42C71.692,37.797,67.577,39.532,67.228,42.95z"/>
		<path opacity="0.14" fill="#FFFFFF" d="M108.949,34.902c1.602,3.04,1.48,11.147-5.234,11.967
			c-5.885,0.719-9.292-0.634-11.028-3.599c-4.577-7.816-0.841-8.257,4.503-9.817C102.881,31.793,107.347,31.863,108.949,34.902z"/>
		<g>
			<polygon opacity="0.14" fill="#FFFFFF" points="71.744,51.687 68.99,48.737 72.227,38.154 76.125,37.541 			"/>
			<polygon opacity="0.14" fill="#FFFFFF" points="75.165,51.81 73.676,52.029 78.07,37.212 79.581,37.11 			"/>
		</g>
		<g>
			<polygon opacity="0.14" fill="#FFFFFF" points="97.102,46.814 94.102,44.909 97.585,33.282 101.483,32.669 			"/>
			<polygon opacity="0.14" fill="#FFFFFF" points="100.522,46.937 99.034,47.156 103.428,32.339 104.938,32.237 			"/>
		</g>
		<path d="M110.448,31.551c-0.284-1.463-4.249-0.21-11.016,0.827c-4.667,0.715-8.165,2.107-9.427,3.899l-4.816,0.935
			c-1.841-1.19-5.606-1.172-10.202-0.09c-6.663,1.569-10.809,1.891-10.525,3.353c0.046,0.235,0.016,0.574,0.314,0.905
			c0.599,0.665,1.263-0.245,2.075,3.225c0,0,0.914,2.48,1.195,3.315c1.463,4.338,4.703,4.843,7.252,4.664
			c2.79-0.197,4.255-0.826,6.093-1.665c2.324-1.062,3.875-3.719,4.525-6.19c0.386-1.47,0.472-3.693,0.49-4.717l3.519-0.683
			c0.4,0.943,1.311,2.973,2.219,4.192c1.527,2.049,3.96,3.933,6.512,4.049c2.018,0.091,3.612,0.127,6.273-0.734
			c2.431-0.787,5.247-2.467,4.981-7.038c-0.051-0.879-0.131-3.521-0.131-3.521c-0.545-3.522,0.411-2.926,0.718-3.767
			C110.648,32.089,110.493,31.786,110.448,31.551z M85.102,40.539c0,0,0.306,2.286-0.21,4.249c-0.65,2.471-1.599,4.322-3.923,5.383
			c-1.838,0.84-3.249,1.389-6.039,1.586c-2.548,0.18-4.884-0.639-6.347-4.977c-0.282-0.835-0.808-2.741-0.808-2.741
			c-0.811-3.47,2.953-5.402,6.955-6.11C81.401,36.75,85.16,37.286,85.102,40.539z M108.708,36.097c0,0,0.225,1.964,0.276,2.844
			c0.266,4.571-1.594,6.203-4.025,6.99c-2.661,0.861-4.176,0.879-6.194,0.788c-2.552-0.115-4.125-1.477-5.651-3.526
			c-1.213-1.627-1.784-3.862-1.784-3.862c-1.271-2.996,2.016-4.898,8.643-6.299C103.949,32.191,108.163,32.575,108.708,36.097z"/>
	</g>
	<path opacity="0.7" fill="#FFFFFF" d="M185.916,148.126c0.281,0,0.534,0.119,0.721,0.311l67.012-25.863
		c-0.016-0.077-0.026-0.156-0.026-0.238c0-0.602,0.463-1.09,1.033-1.09c0.571,0,1.033,0.488,1.033,1.09
		c0,0.602-0.463,1.09-1.033,1.09c-0.241,0-0.459-0.09-0.635-0.236l-67.083,25.901c0.005,0.042,0.012,0.083,0.012,0.126
		c0,0.602-0.463,1.09-1.033,1.09c-0.571,0-1.033-0.488-1.033-1.09C184.882,148.614,185.345,148.126,185.916,148.126z"/>
	<path opacity="0.7" fill="#FFFFFF" d="M254.656,247.685c-0.281,0-0.534,0.119-0.721,0.31l-67.012-25.863
		c0.016-0.077,0.027-0.156,0.027-0.238c0-0.602-0.463-1.09-1.033-1.09c-0.571,0-1.033,0.488-1.033,1.09
		c0,0.602,0.463,1.09,1.033,1.09c0.241,0,0.459-0.09,0.635-0.236l67.083,25.901c-0.005,0.042-0.012,0.083-0.012,0.126
		c0,0.602,0.463,1.09,1.033,1.09c0.571,0,1.033-0.488,1.033-1.09C255.689,248.173,255.226,247.685,254.656,247.685z"/>
	<path opacity="0.7" fill="#FFFFFF" d="M186.087,172.346c0.275,0.062,0.499,0.234,0.644,0.462l66.554-9.981
		c-0.001-0.079,0.005-0.159,0.021-0.239c0.119-0.589,0.668-0.965,1.226-0.839c0.558,0.125,0.914,0.704,0.796,1.293
		c-0.119,0.589-0.668,0.965-1.226,0.839c-0.235-0.053-0.432-0.189-0.575-0.37l-66.631,10.002c-0.004,0.042-0.005,0.083-0.013,0.125
		c-0.119,0.589-0.668,0.965-1.226,0.839c-0.558-0.125-0.915-0.704-0.796-1.293C184.98,172.597,185.528,172.221,186.087,172.346z"/>
	<path opacity="0.7" fill="#FFFFFF" d="M254.331,207.228c-0.275,0.062-0.499,0.234-0.644,0.462l-66.554-9.981
		c0.001-0.079-0.005-0.159-0.021-0.239c-0.119-0.589-0.668-0.965-1.226-0.839c-0.558,0.125-0.915,0.704-0.796,1.293
		c0.119,0.589,0.668,0.965,1.226,0.839c0.235-0.053,0.432-0.189,0.575-0.37l66.631,10.002c0.004,0.042,0.005,0.083,0.013,0.125
		c0.119,0.589,0.668,0.965,1.226,0.839c0.558-0.125,0.915-0.704,0.796-1.293C255.438,207.479,254.889,207.103,254.331,207.228z"/>
	<g>
		<path fill="#FFFFFF" d="M274.056,126.878c-1.402,1.34-3.006,2.01-4.811,2.01c-1.924,0-3.565-0.678-4.922-2.035
			c-1.357-1.357-2.035-2.997-2.035-4.922c0-1.919,0.678-3.559,2.035-4.922c1.357-1.362,2.997-2.044,4.922-2.044
			c1.8,0,3.505,0.735,5.118,2.205l-1.32,1.201c-1.215-1.078-2.481-1.618-3.798-1.618c-1.425,0-2.644,0.505-3.657,1.516
			c-1.013,1.01-1.52,2.231-1.52,3.662c0,1.436,0.507,2.66,1.52,3.67c1.013,1.01,2.232,1.516,3.657,1.516
			c1.226,0,2.242-0.324,3.048-0.971v-4.113h1.763V126.878z"/>
		<path fill="#FFFFFF" d="M278.467,121.164c0.659-0.891,1.467-1.359,2.427-1.405v1.831c-0.642,0.034-1.153,0.242-1.533,0.622
			c-0.574,0.568-0.872,1.243-0.894,2.027v4.505h-1.763v-8.762h1.763V121.164z"/>
		<path fill="#FFFFFF" d="M285.296,126.759c0.295,0.261,0.831,0.392,1.609,0.392c0.84,0,1.558-0.295,2.154-0.886
			c0.074-0.079,0.224-0.255,0.451-0.528l1.763,0.63c-0.431,0.596-0.744,0.991-0.937,1.184c-0.948,0.948-2.092,1.422-3.432,1.422
			c-1.334,0-2.475-0.474-3.423-1.422c-0.948-0.948-1.422-2.092-1.422-3.432c0-1.34,0.474-2.483,1.422-3.432
			c0.948-0.948,2.089-1.422,3.423-1.422c1.146,0,2.151,0.346,3.014,1.039c0.142,0.119,0.281,0.247,0.417,0.383
			c0.057,0.057,0.218,0.236,0.485,0.536l-0.886,0.894L285.296,126.759z M288.242,121.309c-0.199-0.153-0.644-0.23-1.337-0.23
			c-0.835,0-1.549,0.297-2.142,0.89c-0.593,0.593-0.89,1.31-0.89,2.15c0,0.687,0.077,1.133,0.23,1.337L288.242,121.309z"/>
		<path fill="#FFFFFF" d="M300.913,120.594v-0.613h1.771v8.771h-1.771v-1.098c-0.852,0.88-1.839,1.32-2.963,1.32
			c-1.34,0-2.482-0.473-3.427-1.418c-0.945-0.945-1.418-2.087-1.418-3.427c0-1.34,0.473-2.482,1.418-3.427
			c0.945-0.945,2.087-1.418,3.427-1.418C299.074,119.282,300.061,119.72,300.913,120.594z M300.913,124.775v-1.294
			c-0.102-0.55-0.375-1.05-0.817-1.499c-0.596-0.59-1.311-0.886-2.146-0.886c-0.84,0-1.557,0.295-2.15,0.886
			c-0.593,0.591-0.89,1.306-0.89,2.146c0,0.834,0.297,1.549,0.89,2.142c0.593,0.593,1.31,0.89,2.15,0.89
			c0.835,0,1.55-0.295,2.146-0.886C300.538,125.825,300.811,125.325,300.913,124.775z"/>
		<path fill="#FFFFFF" d="M306.354,119.98v-3.287h1.763v3.287h1.575v1.763h-1.575v7h-1.763v-7h-1.575v-1.763H306.354z"/>
		<path fill="#FFFFFF" d="M325.369,120.594v-0.613h1.771v8.771h-1.771v-1.098c-0.852,0.88-1.839,1.32-2.963,1.32
			c-1.34,0-2.482-0.473-3.427-1.418c-0.945-0.945-1.418-2.087-1.418-3.427c0-1.34,0.473-2.482,1.418-3.427
			c0.945-0.945,2.087-1.418,3.427-1.418C323.529,119.282,324.517,119.72,325.369,120.594z M325.369,124.775v-1.294
			c-0.102-0.55-0.375-1.05-0.817-1.499c-0.596-0.59-1.311-0.886-2.146-0.886c-0.84,0-1.557,0.295-2.15,0.886
			c-0.593,0.591-0.89,1.306-0.89,2.146c0,0.834,0.297,1.549,0.89,2.142c0.593,0.593,1.31,0.89,2.15,0.89
			c0.835,0,1.55-0.295,2.146-0.886C324.994,125.825,325.267,125.325,325.369,124.775z"/>
		<path fill="#FFFFFF" d="M330.81,119.98v-3.287h1.763v3.287h1.575v1.763h-1.575v7h-1.763v-7h-1.575v-1.763H330.81z"/>
		<path fill="#FFFFFF" d="M342.229,119.98h1.763v0.817c0.341-0.857,0.996-1.286,1.967-1.286c0.965,0,1.507,0.488,1.626,1.465
			c0.278-0.976,1.044-1.465,2.299-1.465c1.238,0,1.856,0.752,1.856,2.257v6.974h-1.771v-6.165c0-0.863-0.349-1.294-1.047-1.294
			c-0.29,0-0.54,0.102-0.749,0.307c-0.21,0.204-0.315,0.891-0.315,2.061v5.092h-1.763l0.009-6.165c0-0.863-0.352-1.294-1.056-1.294
			c-0.29,0-0.54,0.102-0.749,0.307c-0.182,0.176-0.284,0.642-0.307,1.396v5.756h-1.763V119.98z"/>
		<path fill="#FFFFFF" d="M357.846,128.862c-1.107,0-1.998-0.338-2.674-1.013c-0.676-0.676-1.022-1.521-1.039-2.538v-5.331h1.771
			v5.262c0,0.505,0.184,0.94,0.553,1.303c0.369,0.363,0.829,0.545,1.379,0.545c0.505,0,0.944-0.18,1.316-0.541
			c0.372-0.36,0.558-0.796,0.558-1.307v-5.262h1.763v5.331c-0.017,1.016-0.361,1.862-1.03,2.538
			C359.767,128.524,358.902,128.862,357.846,128.862z"/>
		<path fill="#FFFFFF" d="M365.799,115.11v13.633h-1.771V115.11H365.799z"/>
		<path fill="#FFFFFF" d="M369.418,119.98v-3.287h1.763v3.287h1.575v1.763h-1.575v7h-1.763v-7h-1.575v-1.763H369.418z"/>
		<path fill="#FFFFFF" d="M376.707,116.736c0.244,0.238,0.366,0.531,0.366,0.877c0,0.346-0.122,0.639-0.366,0.877
			c-0.244,0.238-0.536,0.358-0.877,0.358c-0.335,0-0.625-0.119-0.869-0.358c-0.244-0.238-0.366-0.531-0.366-0.877
			c0-0.346,0.122-0.639,0.366-0.877c0.244-0.238,0.533-0.358,0.869-0.358C376.171,116.379,376.463,116.498,376.707,116.736z
			 M376.716,119.98v8.762h-1.763v-8.762H376.716z"/>
		<path fill="#FFFFFF" d="M380.48,119.98v-3.287h1.763v3.287h1.575v1.763h-1.575v7h-1.763v-7h-1.575v-1.763H380.48z"/>
		<path fill="#FFFFFF" d="M393.465,120.594v-0.613h1.771v8.771h-1.771v-1.098c-0.852,0.88-1.839,1.32-2.963,1.32
			c-1.34,0-2.482-0.473-3.427-1.418c-0.945-0.945-1.418-2.087-1.418-3.427c0-1.34,0.473-2.482,1.418-3.427
			c0.945-0.945,2.088-1.418,3.427-1.418C391.626,119.282,392.614,119.72,393.465,120.594z M393.465,124.775v-1.294
			c-0.102-0.55-0.375-1.05-0.817-1.499c-0.596-0.59-1.311-0.886-2.146-0.886c-0.84,0-1.557,0.295-2.15,0.886
			c-0.593,0.591-0.89,1.306-0.89,2.146c0,0.834,0.297,1.549,0.89,2.142c0.593,0.593,1.31,0.89,2.15,0.89
			c0.835,0,1.55-0.295,2.146-0.886C393.091,125.825,393.363,125.325,393.465,124.775z"/>
		<path fill="#FFFFFF" d="M399.571,126.861c0.21,0.204,0.46,0.307,0.749,0.307s0.538-0.102,0.745-0.307
			c0.207-0.204,0.311-0.457,0.311-0.758c0-0.29-0.102-0.536-0.307-0.741c-0.142-0.142-0.446-0.36-0.911-0.656
			c-0.636-0.346-1.087-0.653-1.354-0.92c-0.465-0.465-0.698-1.025-0.698-1.678c0-0.659,0.233-1.222,0.698-1.69
			c0.466-0.468,1.028-0.703,1.686-0.703s1.206,0.221,1.643,0.664c0.312,0.312,0.511,0.661,0.596,1.047l-1.712,0.494
			c-0.04-0.142-0.079-0.235-0.119-0.281c-0.102-0.102-0.238-0.153-0.409-0.153c-0.17,0-0.316,0.061-0.439,0.183
			c-0.122,0.122-0.183,0.268-0.183,0.439s0.06,0.315,0.179,0.434c0.108,0.102,0.352,0.276,0.732,0.519
			c0.704,0.386,1.215,0.738,1.533,1.056c0.551,0.557,0.826,1.218,0.826,1.984c0,0.783-0.274,1.452-0.822,2.005
			c-0.548,0.553-1.213,0.83-1.997,0.83c-0.778,0-1.442-0.278-1.993-0.834c-0.38-0.38-0.63-0.854-0.749-1.422l1.754-0.375
			C399.383,126.568,399.463,126.753,399.571,126.861z"/>
		<path fill="#FFFFFF" d="M410.717,119.98l-2.376,2.929l3.304,5.833h-2.103l-2.384-4.368l-0.077,0.094v4.275h-1.771v-12.049h1.771
			v4.956l1.362-1.669H410.717z"/>
		<path fill="#FFFFFF" d="M415.247,116.736c0.244,0.238,0.366,0.531,0.366,0.877c0,0.346-0.122,0.639-0.366,0.877
			s-0.536,0.358-0.877,0.358c-0.335,0-0.624-0.119-0.869-0.358s-0.366-0.531-0.366-0.877c0-0.346,0.122-0.639,0.366-0.877
			s0.534-0.358,0.869-0.358C414.711,116.379,415.003,116.498,415.247,116.736z M415.256,119.98v8.762h-1.763v-8.762H415.256z"/>
		<path fill="#FFFFFF" d="M419.726,122.331v6.412h-1.771v-8.762h1.771v1.022c0.369-0.999,1.11-1.499,2.222-1.499
			c0.948,0,1.702,0.336,2.261,1.009s0.847,1.517,0.864,2.533v5.697h-1.763v-5.629c0-0.505-0.184-0.938-0.553-1.299
			c-0.369-0.36-0.809-0.541-1.32-0.541c-0.505,0-0.942,0.176-1.311,0.528C419.922,122.013,419.789,122.189,419.726,122.331z"/>
		<path fill="#FFFFFF" d="M435.258,120.585v-0.605h1.771v6.514c0,1.703-0.463,3.017-1.388,3.943
			c-0.948,0.835-2.092,1.252-3.432,1.252c-1.34,0-2.484-0.417-3.432-1.252c-0.193-0.193-0.502-0.585-0.928-1.175l1.754-0.63
			c0.227,0.272,0.38,0.448,0.46,0.528c0.596,0.59,1.311,0.886,2.146,0.886c1.402,0,2.373-0.92,2.912-2.759
			c-0.551,1.067-1.496,1.601-2.836,1.601c-1.34,0-2.482-0.46-3.427-1.379c-0.945-0.92-1.418-2.049-1.418-3.389
			c0-1.34,0.473-2.482,1.418-3.427c0.945-0.945,2.088-1.418,3.427-1.418C433.416,119.274,434.407,119.711,435.258,120.585z
			 M435.25,123.438c-0.108-0.539-0.38-1.027-0.817-1.465c-0.59-0.596-1.306-0.894-2.146-0.894s-1.557,0.298-2.15,0.894
			s-0.89,1.311-0.89,2.146c0,0.84,0.297,1.557,0.89,2.15c0.593,0.593,1.31,0.89,2.15,0.89s1.555-0.295,2.146-0.886
			c0.437-0.437,0.71-0.92,0.817-1.448V123.438z"/>
	</g>
	<g>
		<path fill="#FFFFFF" d="M267.559,200.992l4.956,13.624h-1.873l-1.754-4.82h-3.61l-1.746,4.82h-1.882l4.956-13.624H267.559z
			 M268.248,208.034l-1.167-3.193l-1.158,3.193H268.248z"/>
		<path fill="#FFFFFF" d="M275.98,213.526v4.036h-1.763v-11.708h1.763v0.792c0.852-0.999,1.842-1.499,2.972-1.499
			c1.34,0,2.482,0.473,3.427,1.418c0.945,0.945,1.418,2.088,1.418,3.427c0,1.34-0.473,2.484-1.418,3.432
			c-0.945,0.948-2.088,1.422-3.427,1.422C277.822,214.846,276.832,214.406,275.98,213.526z M275.98,209.311v1.371
			c0.108,0.54,0.383,1.028,0.826,1.465c0.59,0.591,1.306,0.886,2.146,0.886c0.84,0,1.557-0.297,2.15-0.89
			c0.593-0.593,0.89-1.31,0.89-2.15c0-0.835-0.297-1.55-0.89-2.146s-1.31-0.894-2.15-0.894c-0.84,0-1.555,0.298-2.146,0.894
			C276.363,208.284,276.088,208.772,275.98,209.311z"/>
		<path fill="#FFFFFF" d="M287.689,213.526v4.036h-1.763v-11.708h1.763v0.792c0.852-0.999,1.842-1.499,2.972-1.499
			c1.34,0,2.482,0.473,3.427,1.418s1.418,2.088,1.418,3.427c0,1.34-0.473,2.484-1.418,3.432c-0.945,0.948-2.088,1.422-3.427,1.422
			C289.531,214.846,288.54,214.406,287.689,213.526z M287.689,209.311v1.371c0.108,0.54,0.383,1.028,0.826,1.465
			c0.59,0.591,1.306,0.886,2.146,0.886c0.84,0,1.557-0.297,2.15-0.89c0.593-0.593,0.89-1.31,0.89-2.15
			c0-0.835-0.297-1.55-0.89-2.146s-1.31-0.894-2.15-0.894c-0.84,0-1.555,0.298-2.146,0.894
			C288.072,208.284,287.797,208.772,287.689,209.311z"/>
		<path fill="#FFFFFF" d="M299.397,207.038c0.659-0.891,1.467-1.359,2.427-1.405v1.831c-0.641,0.034-1.152,0.242-1.533,0.622
			c-0.573,0.568-0.871,1.243-0.894,2.027v4.505h-1.763v-8.762h1.763V207.038z"/>
		<path fill="#FFFFFF" d="M306.226,212.632c0.295,0.261,0.832,0.392,1.609,0.392c0.84,0,1.558-0.295,2.154-0.886
			c0.074-0.079,0.224-0.255,0.451-0.528l1.763,0.63c-0.431,0.596-0.744,0.991-0.937,1.184c-0.948,0.948-2.092,1.422-3.432,1.422
			c-1.334,0-2.475-0.474-3.423-1.422c-0.948-0.948-1.422-2.092-1.422-3.432c0-1.34,0.474-2.483,1.422-3.432
			c0.948-0.948,2.089-1.422,3.423-1.422c1.147,0,2.152,0.346,3.014,1.039c0.142,0.119,0.281,0.247,0.417,0.383
			c0.057,0.057,0.219,0.236,0.485,0.536l-0.886,0.894L306.226,212.632z M309.173,207.182c-0.199-0.153-0.644-0.23-1.337-0.23
			c-0.835,0-1.548,0.297-2.142,0.89c-0.593,0.593-0.89,1.31-0.89,2.15c0,0.687,0.077,1.133,0.23,1.337L309.173,207.182z"/>
		<path fill="#FFFFFF" d="M321.188,211.61l1.763,0.63c-0.431,0.596-0.744,0.991-0.937,1.184c-0.948,0.948-2.092,1.422-3.432,1.422
			c-1.334,0-2.475-0.474-3.423-1.422c-0.948-0.948-1.422-2.092-1.422-3.432c0-1.34,0.474-2.483,1.422-3.432
			c0.948-0.948,2.089-1.422,3.423-1.422c1.34,0,2.484,0.474,3.432,1.422c0.193,0.193,0.505,0.582,0.937,1.167l-1.763,0.647
			c-0.227-0.278-0.38-0.457-0.46-0.536c-0.59-0.59-1.306-0.886-2.146-0.886c-0.835,0-1.548,0.297-2.142,0.89
			c-0.593,0.593-0.89,1.31-0.89,2.15c0,0.834,0.297,1.549,0.89,2.142c0.593,0.593,1.307,0.89,2.142,0.89
			c0.84,0,1.558-0.295,2.154-0.886C320.81,212.059,320.961,211.883,321.188,211.61z"/>
		<path fill="#FFFFFF" d="M326.893,202.61c0.244,0.238,0.366,0.531,0.366,0.877c0,0.346-0.122,0.639-0.366,0.877
			c-0.244,0.238-0.536,0.358-0.877,0.358c-0.335,0-0.624-0.119-0.869-0.358c-0.244-0.238-0.366-0.531-0.366-0.877
			c0-0.346,0.122-0.639,0.366-0.877c0.244-0.238,0.534-0.358,0.869-0.358C326.357,202.252,326.649,202.371,326.893,202.61z
			 M326.902,205.854v8.762h-1.763v-8.762H326.902z"/>
		<path fill="#FFFFFF" d="M337.196,206.467v-0.613h1.771v8.771h-1.771v-1.098c-0.852,0.88-1.839,1.32-2.963,1.32
			c-1.34,0-2.482-0.473-3.427-1.418c-0.945-0.945-1.418-2.087-1.418-3.427c0-1.34,0.473-2.482,1.418-3.427s2.088-1.418,3.427-1.418
			C335.357,205.156,336.345,205.593,337.196,206.467z M337.196,210.648v-1.294c-0.102-0.55-0.375-1.05-0.817-1.499
			c-0.596-0.59-1.311-0.886-2.146-0.886c-0.84,0-1.557,0.295-2.15,0.886c-0.593,0.591-0.89,1.306-0.89,2.146
			c0,0.834,0.297,1.549,0.89,2.142c0.593,0.593,1.31,0.89,2.15,0.89c0.834,0,1.55-0.295,2.146-0.886
			C336.822,211.699,337.094,211.199,337.196,210.648z"/>
		<path fill="#FFFFFF" d="M342.638,205.854v-3.287h1.763v3.287h1.575v1.763H344.4v7h-1.763v-7h-1.575v-1.763H342.638z"/>
		<path fill="#FFFFFF" d="M350.753,212.632c0.295,0.261,0.832,0.392,1.609,0.392c0.84,0,1.558-0.295,2.154-0.886
			c0.074-0.079,0.224-0.255,0.451-0.528l1.763,0.63c-0.431,0.596-0.744,0.991-0.937,1.184c-0.948,0.948-2.092,1.422-3.432,1.422
			c-1.334,0-2.475-0.474-3.423-1.422c-0.948-0.948-1.422-2.092-1.422-3.432c0-1.34,0.474-2.483,1.422-3.432
			c0.948-0.948,2.089-1.422,3.423-1.422c1.147,0,2.152,0.346,3.014,1.039c0.142,0.119,0.281,0.247,0.417,0.383
			c0.057,0.057,0.219,0.236,0.485,0.536l-0.886,0.894L350.753,212.632z M353.699,207.182c-0.199-0.153-0.644-0.23-1.337-0.23
			c-0.835,0-1.548,0.297-2.142,0.89c-0.593,0.593-0.89,1.31-0.89,2.15c0,0.687,0.077,1.133,0.23,1.337L353.699,207.182z"/>
		<path fill="#FFFFFF" d="M360.545,212.734c0.21,0.204,0.46,0.307,0.749,0.307s0.538-0.102,0.745-0.307s0.311-0.457,0.311-0.758
			c0-0.29-0.102-0.536-0.307-0.741c-0.142-0.142-0.446-0.36-0.911-0.656c-0.636-0.346-1.087-0.653-1.354-0.92
			c-0.465-0.465-0.698-1.025-0.698-1.678c0-0.659,0.233-1.222,0.698-1.69c0.466-0.468,1.028-0.702,1.686-0.702
			s1.206,0.221,1.643,0.664c0.312,0.312,0.511,0.661,0.596,1.047l-1.712,0.494c-0.04-0.142-0.079-0.235-0.119-0.281
			c-0.102-0.102-0.238-0.153-0.409-0.153c-0.17,0-0.316,0.061-0.439,0.183c-0.122,0.122-0.183,0.268-0.183,0.439
			c0,0.17,0.06,0.315,0.179,0.434c0.108,0.102,0.352,0.276,0.732,0.519c0.704,0.386,1.215,0.738,1.533,1.056
			c0.551,0.557,0.826,1.218,0.826,1.984c0,0.783-0.274,1.452-0.822,2.005c-0.548,0.553-1.213,0.83-1.997,0.83
			c-0.778,0-1.442-0.278-1.993-0.835c-0.38-0.38-0.63-0.854-0.749-1.422l1.754-0.375
			C360.358,212.442,360.437,212.627,360.545,212.734z"/>
		<path fill="#FFFFFF" d="M383.869,212.751c-1.402,1.34-3.006,2.01-4.811,2.01c-1.924,0-3.565-0.678-4.922-2.035
			c-1.357-1.357-2.035-2.997-2.035-4.922c0-1.919,0.678-3.559,2.035-4.922c1.357-1.362,2.997-2.044,4.922-2.044
			c1.8,0,3.505,0.735,5.118,2.205l-1.32,1.201c-1.215-1.078-2.481-1.618-3.798-1.618c-1.425,0-2.644,0.505-3.657,1.516
			c-1.013,1.01-1.52,2.231-1.52,3.662c0,1.436,0.507,2.66,1.52,3.67c1.013,1.01,2.232,1.516,3.657,1.516
			c1.226,0,2.242-0.324,3.048-0.971v-4.113h1.763V212.751z"/>
		<path fill="#FFFFFF" d="M388.28,207.038c0.659-0.891,1.467-1.359,2.427-1.405v1.831c-0.642,0.034-1.152,0.242-1.533,0.622
			c-0.573,0.568-0.871,1.243-0.894,2.027v4.505h-1.763v-8.762h1.763V207.038z"/>
		<path fill="#FFFFFF" d="M400.014,206.467v-0.613h1.771v8.771h-1.771v-1.098c-0.852,0.88-1.839,1.32-2.963,1.32
			c-1.34,0-2.482-0.473-3.427-1.418c-0.945-0.945-1.418-2.087-1.418-3.427c0-1.34,0.473-2.482,1.418-3.427s2.088-1.418,3.427-1.418
			C398.174,205.156,399.162,205.593,400.014,206.467z M400.014,210.648v-1.294c-0.102-0.55-0.375-1.05-0.817-1.499
			c-0.596-0.59-1.311-0.886-2.146-0.886c-0.84,0-1.557,0.295-2.15,0.886c-0.593,0.591-0.89,1.306-0.89,2.146
			c0,0.834,0.297,1.549,0.89,2.142c0.593,0.593,1.31,0.89,2.15,0.89c0.834,0,1.55-0.295,2.146-0.886
			C399.639,211.699,399.911,211.199,400.014,210.648z"/>
		<path fill="#FFFFFF" d="M405.455,205.854v-3.287h1.763v3.287h1.575v1.763h-1.575v7h-1.763v-7h-1.575v-1.763H405.455z"/>
		<path fill="#FFFFFF" d="M412.744,202.61c0.244,0.238,0.366,0.531,0.366,0.877c0,0.346-0.122,0.639-0.366,0.877
			c-0.244,0.238-0.536,0.358-0.877,0.358c-0.335,0-0.624-0.119-0.869-0.358c-0.244-0.238-0.366-0.531-0.366-0.877
			c0-0.346,0.122-0.639,0.366-0.877c0.244-0.238,0.534-0.358,0.869-0.358C412.207,202.252,412.5,202.371,412.744,202.61z
			 M412.752,205.854v8.762h-1.763v-8.762H412.752z"/>
		<path fill="#FFFFFF" d="M417.495,207.608v7.017h-1.771v-7.017h-0.783v-1.763h0.783v-1.575c0.04-0.727,0.318-1.351,0.835-1.873
			c0.534-0.499,1.152-0.749,1.856-0.749c0.352,0,0.886,0.122,1.601,0.366l-0.588,1.669c-0.5-0.21-0.815-0.315-0.945-0.315
			c-0.238,0-0.468,0.099-0.69,0.298c-0.187,0.187-0.287,0.412-0.298,0.673v1.507h1.575v1.763H417.495z"/>
		<path fill="#FFFFFF" d="M422.426,202.61c0.244,0.238,0.366,0.531,0.366,0.877c0,0.346-0.122,0.639-0.366,0.877
			c-0.244,0.238-0.536,0.358-0.877,0.358c-0.335,0-0.624-0.119-0.869-0.358c-0.244-0.238-0.366-0.531-0.366-0.877
			c0-0.346,0.122-0.639,0.366-0.877s0.534-0.358,0.869-0.358C421.889,202.252,422.182,202.371,422.426,202.61z M422.434,205.854
			v8.762h-1.763v-8.762H422.434z"/>
		<path fill="#FFFFFF" d="M432.074,211.61l1.763,0.63c-0.431,0.596-0.744,0.991-0.937,1.184c-0.948,0.948-2.092,1.422-3.432,1.422
			c-1.334,0-2.475-0.474-3.423-1.422c-0.948-0.948-1.422-2.092-1.422-3.432c0-1.34,0.474-2.483,1.422-3.432
			c0.948-0.948,2.089-1.422,3.423-1.422c1.34,0,2.484,0.474,3.432,1.422c0.193,0.193,0.505,0.582,0.937,1.167l-1.763,0.647
			c-0.227-0.278-0.38-0.457-0.46-0.536c-0.59-0.59-1.306-0.886-2.146-0.886c-0.835,0-1.548,0.297-2.142,0.89
			c-0.593,0.593-0.89,1.31-0.89,2.15c0,0.834,0.297,1.549,0.89,2.142c0.593,0.593,1.307,0.89,2.142,0.89
			c0.84,0,1.558-0.295,2.154-0.886C431.696,212.059,431.846,211.883,432.074,211.61z"/>
		<path fill="#FFFFFF" d="M443.475,206.467v-0.613h1.771v8.771h-1.771v-1.098c-0.852,0.88-1.839,1.32-2.963,1.32
			c-1.34,0-2.482-0.473-3.427-1.418c-0.945-0.945-1.418-2.087-1.418-3.427c0-1.34,0.473-2.482,1.418-3.427
			c0.945-0.945,2.088-1.418,3.427-1.418C441.636,205.156,442.624,205.593,443.475,206.467z M443.475,210.648v-1.294
			c-0.102-0.55-0.375-1.05-0.817-1.499c-0.596-0.59-1.311-0.886-2.146-0.886c-0.84,0-1.557,0.295-2.15,0.886
			c-0.593,0.591-0.89,1.306-0.89,2.146c0,0.834,0.297,1.549,0.89,2.142c0.593,0.593,1.31,0.89,2.15,0.89
			c0.835,0,1.55-0.295,2.146-0.886C443.101,211.699,443.373,211.199,443.475,210.648z"/>
		<path fill="#FFFFFF" d="M448.917,205.854v-3.287h1.763v3.287h1.575v1.763h-1.575v7h-1.763v-7h-1.575v-1.763H448.917z"/>
		<path fill="#FFFFFF" d="M456.206,202.61c0.244,0.238,0.366,0.531,0.366,0.877c0,0.346-0.122,0.639-0.366,0.877
			c-0.244,0.238-0.536,0.358-0.877,0.358c-0.335,0-0.624-0.119-0.869-0.358c-0.244-0.238-0.366-0.531-0.366-0.877
			c0-0.346,0.122-0.639,0.366-0.877c0.244-0.238,0.534-0.358,0.869-0.358C455.669,202.252,455.962,202.371,456.206,202.61z
			 M456.214,205.854v8.762h-1.763v-8.762H456.214z"/>
		<path fill="#FFFFFF" d="M463.248,205.139c1.34,0,2.482,0.474,3.427,1.422c0.945,0.948,1.418,2.092,1.418,3.432
			c0,1.34-0.473,2.484-1.418,3.432c-0.945,0.948-2.088,1.422-3.427,1.422c-1.334,0-2.475-0.474-3.423-1.422
			c-0.948-0.948-1.422-2.092-1.422-3.432c0-1.34,0.474-2.483,1.422-3.432C460.773,205.613,461.914,205.139,463.248,205.139z
			 M461.098,207.847c-0.593,0.596-0.89,1.311-0.89,2.146c0,0.84,0.297,1.555,0.89,2.146c0.593,0.591,1.31,0.886,2.15,0.886
			c0.84,0,1.557-0.295,2.15-0.886c0.593-0.59,0.89-1.306,0.89-2.146c0-0.835-0.297-1.55-0.89-2.146s-1.31-0.894-2.15-0.894
			C462.408,206.953,461.691,207.251,461.098,207.847z"/>
		<path fill="#FFFFFF" d="M471.908,208.204v6.412h-1.771v-8.762h1.771v1.022c0.369-0.999,1.11-1.499,2.223-1.499
			c0.948,0,1.702,0.336,2.261,1.009s0.847,1.517,0.864,2.533v5.697h-1.763v-5.629c0-0.505-0.184-0.938-0.553-1.299
			c-0.369-0.36-0.809-0.541-1.32-0.541c-0.505,0-0.942,0.176-1.311,0.528C472.104,207.886,471.97,208.063,471.908,208.204z"/>
	</g>
	<g>
		<path fill="#FFFFFF" d="M264.434,156.727v13.624h-1.763v-13.624H264.434z"/>
		<path fill="#FFFFFF" d="M268.938,163.939v6.412h-1.771v-8.762h1.771v1.022c0.369-0.999,1.11-1.499,2.223-1.499
			c0.948,0,1.702,0.336,2.261,1.009c0.559,0.673,0.847,1.517,0.864,2.533v5.697h-1.763v-5.629c0-0.505-0.184-0.938-0.553-1.299
			c-0.369-0.36-0.809-0.541-1.32-0.541c-0.505,0-0.942,0.176-1.311,0.528C269.134,163.621,269.001,163.797,268.938,163.939z"/>
		<path fill="#FFFFFF" d="M277.93,161.589v-3.287h1.763v3.287h1.575v1.763h-1.575v7h-1.763v-7h-1.575v-1.763H277.93z"/>
		<path fill="#FFFFFF" d="M286.045,168.367c0.295,0.261,0.832,0.392,1.609,0.392c0.84,0,1.558-0.295,2.154-0.886
			c0.074-0.079,0.224-0.255,0.451-0.528l1.763,0.63c-0.431,0.596-0.744,0.991-0.937,1.184c-0.948,0.948-2.092,1.422-3.432,1.422
			c-1.334,0-2.475-0.474-3.423-1.422s-1.422-2.092-1.422-3.432s0.474-2.484,1.422-3.432c0.948-0.948,2.089-1.422,3.423-1.422
			c1.147,0,2.152,0.346,3.014,1.039c0.142,0.119,0.281,0.247,0.417,0.383c0.057,0.057,0.219,0.236,0.485,0.536l-0.886,0.894
			L286.045,168.367z M288.992,162.918c-0.199-0.153-0.644-0.23-1.337-0.23c-0.834,0-1.548,0.297-2.142,0.89s-0.89,1.31-0.89,2.15
			c0,0.687,0.077,1.133,0.23,1.337L288.992,162.918z"/>
		<path fill="#FFFFFF" d="M295.838,163.939v6.412h-1.771v-8.762h1.771v1.022c0.369-0.999,1.11-1.499,2.223-1.499
			c0.948,0,1.702,0.336,2.261,1.009c0.559,0.673,0.847,1.517,0.864,2.533v5.697h-1.763v-5.629c0-0.505-0.184-0.938-0.553-1.299
			c-0.369-0.36-0.809-0.541-1.32-0.541c-0.505,0-0.942,0.176-1.311,0.528C296.034,163.621,295.9,163.797,295.838,163.939z"/>
		<path fill="#FFFFFF" d="M305.537,168.469c0.21,0.204,0.46,0.307,0.749,0.307s0.538-0.102,0.745-0.307
			c0.207-0.204,0.311-0.457,0.311-0.758c0-0.29-0.102-0.536-0.307-0.741c-0.142-0.142-0.446-0.36-0.911-0.656
			c-0.636-0.346-1.087-0.653-1.354-0.92c-0.466-0.465-0.698-1.025-0.698-1.678c0-0.659,0.233-1.222,0.698-1.69
			s1.027-0.703,1.686-0.703c0.659,0,1.206,0.221,1.643,0.664c0.312,0.312,0.511,0.661,0.596,1.047l-1.712,0.494
			c-0.04-0.142-0.079-0.236-0.119-0.281c-0.102-0.102-0.238-0.153-0.409-0.153c-0.17,0-0.316,0.061-0.439,0.183
			c-0.122,0.122-0.183,0.268-0.183,0.439s0.06,0.315,0.179,0.434c0.108,0.102,0.352,0.275,0.732,0.519
			c0.704,0.386,1.215,0.738,1.533,1.056c0.551,0.556,0.826,1.218,0.826,1.984c0,0.783-0.274,1.452-0.822,2.005
			c-0.548,0.553-1.213,0.83-1.997,0.83c-0.778,0-1.442-0.278-1.993-0.834c-0.38-0.38-0.63-0.854-0.749-1.422l1.754-0.375
			C305.349,168.177,305.429,168.362,305.537,168.469z"/>
		<path fill="#FFFFFF" d="M314.001,168.367c0.295,0.261,0.832,0.392,1.609,0.392c0.84,0,1.558-0.295,2.154-0.886
			c0.074-0.079,0.224-0.255,0.451-0.528l1.763,0.63c-0.431,0.596-0.744,0.991-0.937,1.184c-0.948,0.948-2.092,1.422-3.432,1.422
			c-1.334,0-2.475-0.474-3.423-1.422c-0.948-0.948-1.422-2.092-1.422-3.432s0.474-2.484,1.422-3.432
			c0.948-0.948,2.089-1.422,3.423-1.422c1.147,0,2.152,0.346,3.014,1.039c0.142,0.119,0.281,0.247,0.417,0.383
			c0.057,0.057,0.219,0.236,0.485,0.536l-0.886,0.894L314.001,168.367z M316.947,162.918c-0.199-0.153-0.644-0.23-1.337-0.23
			c-0.835,0-1.548,0.297-2.142,0.89s-0.89,1.31-0.89,2.15c0,0.687,0.077,1.133,0.23,1.337L316.947,162.918z"/>
		<path fill="#FFFFFF" d="M331.517,163.36c-0.965-0.324-1.747-0.785-2.346-1.384s-0.898-1.341-0.898-2.227
			c0-0.869,0.311-1.615,0.932-2.24s1.375-0.937,2.261-0.937c0.874,0,1.624,0.309,2.248,0.928c0.352,0.341,0.647,0.883,0.886,1.626
			l-1.601,0.63c-0.193-0.522-0.369-0.863-0.528-1.022c-0.278-0.272-0.613-0.409-1.005-0.409c-0.397,0-0.735,0.138-1.013,0.413
			s-0.417,0.612-0.417,1.009c0,0.397,0.139,0.735,0.417,1.013c0.312,0.307,0.744,0.588,1.294,0.843
			c1.067,0.346,1.973,0.891,2.716,1.635c0.835,0.823,1.252,1.822,1.252,2.997c0,1.175-0.416,2.178-1.247,3.01
			c-0.832,0.832-1.832,1.247-3.002,1.247c-1.175,0-2.177-0.417-3.006-1.252c-0.664-0.664-1.084-1.581-1.26-2.75l1.712-0.622
			c0.108,1.005,0.372,1.717,0.792,2.137c0.488,0.488,1.076,0.732,1.763,0.732c0.687,0,1.274-0.244,1.763-0.732
			c0.488-0.488,0.732-1.079,0.732-1.771c0-0.687-0.244-1.274-0.732-1.763C332.763,164.01,332.192,163.638,331.517,163.36z"/>
		<path fill="#FFFFFF" d="M341.761,160.874c1.34,0,2.482,0.474,3.427,1.422c0.945,0.948,1.418,2.092,1.418,3.432
			s-0.473,2.484-1.418,3.432s-2.088,1.422-3.427,1.422c-1.334,0-2.475-0.474-3.423-1.422s-1.422-2.092-1.422-3.432
			s0.474-2.484,1.422-3.432C339.286,161.348,340.427,160.874,341.761,160.874z M339.611,163.582c-0.593,0.596-0.89,1.311-0.89,2.146
			c0,0.84,0.297,1.555,0.89,2.146c0.593,0.59,1.31,0.886,2.15,0.886c0.84,0,1.557-0.295,2.15-0.886
			c0.593-0.59,0.89-1.306,0.89-2.146c0-0.834-0.297-1.55-0.89-2.146s-1.31-0.894-2.15-0.894
			C340.921,162.688,340.204,162.986,339.611,163.582z"/>
		<path fill="#FFFFFF" d="M355.589,167.345l1.763,0.63c-0.431,0.596-0.744,0.991-0.937,1.184c-0.948,0.948-2.092,1.422-3.432,1.422
			c-1.334,0-2.475-0.474-3.423-1.422s-1.422-2.092-1.422-3.432s0.474-2.484,1.422-3.432c0.948-0.948,2.089-1.422,3.423-1.422
			c1.34,0,2.484,0.474,3.432,1.422c0.193,0.193,0.505,0.582,0.937,1.167l-1.763,0.647c-0.227-0.278-0.38-0.457-0.46-0.536
			c-0.59-0.59-1.306-0.886-2.146-0.886c-0.835,0-1.548,0.297-2.142,0.89s-0.89,1.31-0.89,2.15c0,0.835,0.297,1.548,0.89,2.142
			s1.307,0.89,2.142,0.89c0.84,0,1.558-0.295,2.154-0.886C355.212,167.794,355.362,167.618,355.589,167.345z"/>
		<path fill="#FFFFFF" d="M361.295,158.345c0.244,0.238,0.366,0.531,0.366,0.877s-0.122,0.639-0.366,0.877s-0.536,0.358-0.877,0.358
			c-0.335,0-0.624-0.119-0.869-0.358c-0.244-0.238-0.366-0.531-0.366-0.877s0.122-0.639,0.366-0.877
			c0.244-0.238,0.534-0.358,0.869-0.358C360.758,157.987,361.051,158.106,361.295,158.345z M361.303,161.589v8.762h-1.763v-8.762
			H361.303z"/>
		<path fill="#FFFFFF" d="M371.598,162.202v-0.613h1.771v8.771h-1.771v-1.098c-0.852,0.88-1.839,1.32-2.963,1.32
			c-1.34,0-2.482-0.473-3.427-1.418c-0.945-0.945-1.418-2.088-1.418-3.427s0.473-2.482,1.418-3.427
			c0.945-0.945,2.088-1.418,3.427-1.418C369.759,160.891,370.747,161.328,371.598,162.202z M371.598,166.383v-1.294
			c-0.102-0.551-0.375-1.05-0.817-1.499c-0.596-0.59-1.311-0.886-2.146-0.886c-0.84,0-1.557,0.295-2.15,0.886
			s-0.89,1.306-0.89,2.146c0,0.835,0.297,1.548,0.89,2.142c0.593,0.593,1.31,0.89,2.15,0.89c0.835,0,1.55-0.295,2.146-0.886
			C371.223,167.433,371.496,166.934,371.598,166.383z"/>
		<path fill="#FFFFFF" d="M377.704,156.718v13.633h-1.771v-13.633H377.704z"/>
		<path fill="#FFFFFF" d="M386.287,156.727h1.609l5.62,9.724v-9.724h1.771v13.624h-1.541l-5.697-9.844v9.844h-1.763V156.727z"/>
		<path fill="#FFFFFF" d="M400.567,168.367c0.295,0.261,0.832,0.392,1.609,0.392c0.84,0,1.558-0.295,2.154-0.886
			c0.074-0.079,0.224-0.255,0.451-0.528l1.763,0.63c-0.431,0.596-0.744,0.991-0.937,1.184c-0.948,0.948-2.092,1.422-3.432,1.422
			c-1.334,0-2.475-0.474-3.423-1.422s-1.422-2.092-1.422-3.432s0.474-2.484,1.422-3.432c0.948-0.948,2.089-1.422,3.423-1.422
			c1.147,0,2.152,0.346,3.014,1.039c0.142,0.119,0.281,0.247,0.417,0.383c0.057,0.057,0.219,0.236,0.485,0.536l-0.886,0.894
			L400.567,168.367z M403.513,162.918c-0.199-0.153-0.644-0.23-1.337-0.23c-0.834,0-1.548,0.297-2.142,0.89s-0.89,1.31-0.89,2.15
			c0,0.687,0.077,1.133,0.23,1.337L403.513,162.918z"/>
		<path fill="#FFFFFF" d="M409.653,161.589v-3.287h1.763v3.287h1.575v1.763h-1.575v7h-1.763v-7h-1.575v-1.763H409.653z"/>
		<path fill="#FFFFFF" d="M418.909,167.754v-6.165h1.763v6.02c0,0.312,0.105,0.572,0.315,0.779c0.21,0.207,0.46,0.311,0.749,0.311
			c0.698,0,1.047-0.434,1.047-1.303v-5.807h1.771v6.139c-0.028,0.749-0.304,1.385-0.826,1.907c-0.551,0.556-1.215,0.835-1.993,0.835
			c-0.783,0-1.428-0.272-1.933-0.817c-0.517,0.545-1.164,0.817-1.941,0.817c-0.783,0-1.45-0.278-2.001-0.835
			c-0.522-0.522-0.795-1.158-0.817-1.907v-6.139h1.763v5.807c0,0.869,0.352,1.303,1.056,1.303c0.29,0,0.539-0.102,0.749-0.307
			C418.787,168.217,418.886,168.004,418.909,167.754z"/>
		<path fill="#FFFFFF" d="M431.197,160.874c1.34,0,2.482,0.474,3.427,1.422c0.945,0.948,1.418,2.092,1.418,3.432
			s-0.473,2.484-1.418,3.432c-0.945,0.948-2.088,1.422-3.427,1.422c-1.334,0-2.475-0.474-3.423-1.422s-1.422-2.092-1.422-3.432
			s0.474-2.484,1.422-3.432C428.721,161.348,429.862,160.874,431.197,160.874z M429.046,163.582c-0.593,0.596-0.89,1.311-0.89,2.146
			c0,0.84,0.297,1.555,0.89,2.146c0.593,0.59,1.31,0.886,2.15,0.886c0.84,0,1.557-0.295,2.15-0.886
			c0.593-0.59,0.89-1.306,0.89-2.146c0-0.834-0.297-1.55-0.89-2.146s-1.31-0.894-2.15-0.894
			C430.356,162.688,429.64,162.986,429.046,163.582z"/>
		<path fill="#FFFFFF" d="M439.848,162.773c0.659-0.891,1.467-1.36,2.427-1.405v1.831c-0.641,0.034-1.152,0.241-1.533,0.622
			c-0.573,0.568-0.871,1.243-0.894,2.027v4.505h-1.763v-8.762h1.763V162.773z"/>
		<path fill="#FFFFFF" d="M449.564,161.589l-2.376,2.929l3.304,5.833h-2.103l-2.384-4.368l-0.077,0.094v4.275h-1.771v-12.049h1.771
			v4.956l1.362-1.669H449.564z"/>
		<path fill="#FFFFFF" d="M453.966,168.469c0.21,0.204,0.46,0.307,0.749,0.307s0.538-0.102,0.745-0.307
			c0.207-0.204,0.311-0.457,0.311-0.758c0-0.29-0.102-0.536-0.307-0.741c-0.142-0.142-0.446-0.36-0.911-0.656
			c-0.636-0.346-1.087-0.653-1.354-0.92c-0.465-0.465-0.698-1.025-0.698-1.678c0-0.659,0.233-1.222,0.698-1.69
			c0.466-0.468,1.028-0.703,1.686-0.703s1.206,0.221,1.643,0.664c0.312,0.312,0.511,0.661,0.596,1.047l-1.712,0.494
			c-0.04-0.142-0.079-0.236-0.119-0.281c-0.102-0.102-0.238-0.153-0.409-0.153s-0.316,0.061-0.439,0.183s-0.183,0.268-0.183,0.439
			s0.06,0.315,0.179,0.434c0.108,0.102,0.352,0.275,0.732,0.519c0.704,0.386,1.215,0.738,1.533,1.056
			c0.551,0.556,0.826,1.218,0.826,1.984c0,0.783-0.274,1.452-0.822,2.005c-0.548,0.553-1.213,0.83-1.997,0.83
			c-0.778,0-1.442-0.278-1.993-0.834c-0.38-0.38-0.63-0.854-0.749-1.422l1.754-0.375
			C453.779,168.177,453.858,168.362,453.966,168.469z"/>
		<path fill="#FFFFFF" d="M473.228,156.727h1.771v9.597c-0.153,1.096-0.605,2.021-1.354,2.776c-0.908,0.908-2.001,1.362-3.278,1.362
			s-2.369-0.453-3.274-1.358s-1.358-1.997-1.358-3.274v-9.103h1.771v9.103c0,0.783,0.28,1.455,0.839,2.014
			c0.559,0.559,1.233,0.839,2.022,0.839c0.795,0,1.47-0.278,2.027-0.835c0.556-0.556,0.835-1.229,0.835-2.018V156.727z"/>
		<path fill="#FFFFFF" d="M479.325,168.469c0.21,0.204,0.46,0.307,0.749,0.307s0.538-0.102,0.745-0.307
			c0.207-0.204,0.311-0.457,0.311-0.758c0-0.29-0.102-0.536-0.307-0.741c-0.142-0.142-0.446-0.36-0.911-0.656
			c-0.636-0.346-1.087-0.653-1.354-0.92c-0.465-0.465-0.698-1.025-0.698-1.678c0-0.659,0.233-1.222,0.698-1.69
			c0.466-0.468,1.028-0.703,1.686-0.703s1.206,0.221,1.643,0.664c0.312,0.312,0.511,0.661,0.596,1.047l-1.712,0.494
			c-0.04-0.142-0.079-0.236-0.119-0.281c-0.102-0.102-0.238-0.153-0.409-0.153s-0.316,0.061-0.439,0.183s-0.183,0.268-0.183,0.439
			s0.06,0.315,0.179,0.434c0.108,0.102,0.352,0.275,0.732,0.519c0.704,0.386,1.215,0.738,1.533,1.056
			c0.551,0.556,0.826,1.218,0.826,1.984c0,0.783-0.274,1.452-0.822,2.005c-0.548,0.553-1.213,0.83-1.997,0.83
			c-0.778,0-1.442-0.278-1.993-0.834c-0.38-0.38-0.63-0.854-0.749-1.422l1.754-0.375
			C479.137,168.177,479.217,168.362,479.325,168.469z"/>
		<path fill="#FFFFFF" d="M487.789,168.367c0.295,0.261,0.832,0.392,1.609,0.392c0.84,0,1.558-0.295,2.154-0.886
			c0.074-0.079,0.224-0.255,0.451-0.528l1.763,0.63c-0.431,0.596-0.744,0.991-0.937,1.184c-0.948,0.948-2.092,1.422-3.432,1.422
			c-1.334,0-2.475-0.474-3.423-1.422s-1.422-2.092-1.422-3.432s0.474-2.484,1.422-3.432c0.948-0.948,2.089-1.422,3.423-1.422
			c1.147,0,2.152,0.346,3.014,1.039c0.142,0.119,0.281,0.247,0.417,0.383c0.057,0.057,0.219,0.236,0.485,0.536l-0.886,0.894
			L487.789,168.367z M490.735,162.918c-0.199-0.153-0.644-0.23-1.337-0.23c-0.835,0-1.548,0.297-2.142,0.89s-0.89,1.31-0.89,2.15
			c0,0.687,0.077,1.133,0.23,1.337L490.735,162.918z"/>
		<path fill="#FFFFFF" d="M497.573,162.773c0.659-0.891,1.467-1.36,2.427-1.405v1.831c-0.641,0.034-1.152,0.241-1.533,0.622
			c-0.573,0.568-0.871,1.243-0.894,2.027v4.505h-1.763v-8.762h1.763V162.773z"/>
	</g>
	<g>
		<path fill="#FFFFFF" d="M262.501,257.973v-13.624h1.763v11.853h4.871v1.771H262.501z"/>
		<path fill="#FFFFFF" d="M273.077,245.967c0.244,0.238,0.366,0.531,0.366,0.877c0,0.346-0.122,0.639-0.366,0.877
			c-0.244,0.238-0.536,0.358-0.877,0.358c-0.335,0-0.624-0.119-0.869-0.358c-0.244-0.238-0.366-0.531-0.366-0.877
			c0-0.346,0.122-0.639,0.366-0.877c0.244-0.238,0.534-0.358,0.869-0.358C272.54,245.609,272.832,245.728,273.077,245.967z
			 M273.085,249.211v8.762h-1.763v-8.762H273.085z"/>
		<path fill="#FFFFFF" d="M277.828,250.965v7.017h-1.771v-7.017h-0.783v-1.763h0.783v-1.575c0.04-0.727,0.318-1.351,0.835-1.873
			c0.534-0.499,1.152-0.749,1.856-0.749c0.352,0,0.886,0.122,1.601,0.366l-0.588,1.669c-0.5-0.21-0.815-0.315-0.945-0.315
			c-0.238,0-0.468,0.099-0.69,0.298c-0.187,0.187-0.287,0.412-0.298,0.673v1.507h1.575v1.763H277.828z"/>
		<path fill="#FFFFFF" d="M283.84,255.989c0.295,0.261,0.832,0.392,1.609,0.392c0.84,0,1.558-0.295,2.154-0.886
			c0.074-0.079,0.224-0.255,0.451-0.528l1.763,0.63c-0.431,0.596-0.744,0.991-0.937,1.184c-0.948,0.948-2.092,1.422-3.432,1.422
			c-1.334,0-2.475-0.474-3.423-1.422c-0.948-0.948-1.422-2.092-1.422-3.432c0-1.34,0.474-2.483,1.422-3.432
			c0.948-0.948,2.089-1.422,3.423-1.422c1.147,0,2.152,0.346,3.014,1.039c0.142,0.119,0.281,0.247,0.417,0.383
			c0.057,0.057,0.219,0.236,0.485,0.536l-0.886,0.894L283.84,255.989z M286.786,250.54c-0.199-0.153-0.644-0.23-1.337-0.23
			c-0.835,0-1.548,0.297-2.142,0.89c-0.593,0.593-0.89,1.31-0.89,2.15c0,0.687,0.077,1.133,0.23,1.337L286.786,250.54z"/>
		<path fill="#FFFFFF" d="M293.632,244.34v13.633h-1.771V244.34H293.632z"/>
		<path fill="#FFFFFF" d="M300.521,248.496c1.34,0,2.482,0.474,3.427,1.422c0.945,0.948,1.418,2.092,1.418,3.432
			c0,1.34-0.473,2.484-1.418,3.432c-0.945,0.948-2.088,1.422-3.427,1.422c-1.334,0-2.475-0.474-3.423-1.422
			c-0.948-0.948-1.422-2.092-1.422-3.432c0-1.34,0.474-2.483,1.422-3.432C298.046,248.97,299.187,248.496,300.521,248.496z
			 M298.371,251.204c-0.593,0.596-0.89,1.311-0.89,2.146c0,0.84,0.297,1.555,0.89,2.146c0.593,0.591,1.31,0.886,2.15,0.886
			s1.557-0.295,2.15-0.886c0.593-0.59,0.89-1.306,0.89-2.146c0-0.834-0.297-1.55-0.89-2.146s-1.31-0.894-2.15-0.894
			S298.964,250.608,298.371,251.204z"/>
		<path fill="#FFFFFF" d="M309.181,251.561v6.412h-1.771v-8.762h1.771v1.022c0.369-0.999,1.11-1.499,2.222-1.499
			c0.948,0,1.702,0.336,2.261,1.009c0.559,0.673,0.847,1.517,0.864,2.533v5.697h-1.763v-5.629c0-0.505-0.184-0.938-0.553-1.299
			c-0.369-0.36-0.809-0.541-1.32-0.541c-0.505,0-0.942,0.176-1.311,0.528C309.377,251.244,309.244,251.42,309.181,251.561z"/>
		<path fill="#FFFFFF" d="M324.713,249.816v-0.605h1.771v6.514c0,1.703-0.463,3.017-1.388,3.943
			c-0.948,0.834-2.092,1.252-3.432,1.252s-2.484-0.417-3.432-1.252c-0.193-0.193-0.502-0.585-0.928-1.175l1.754-0.63
			c0.227,0.272,0.38,0.448,0.46,0.528c0.596,0.59,1.311,0.886,2.146,0.886c1.402,0,2.373-0.92,2.912-2.759
			c-0.551,1.067-1.496,1.601-2.836,1.601c-1.34,0-2.482-0.46-3.427-1.379s-1.418-2.049-1.418-3.389c0-1.34,0.473-2.482,1.418-3.427
			c0.945-0.945,2.088-1.418,3.427-1.418C322.871,248.504,323.862,248.942,324.713,249.816z M324.705,252.668
			c-0.108-0.539-0.38-1.027-0.817-1.465c-0.59-0.596-1.306-0.894-2.146-0.894s-1.557,0.298-2.15,0.894s-0.89,1.311-0.89,2.146
			c0,0.84,0.297,1.557,0.89,2.15c0.593,0.593,1.31,0.89,2.15,0.89s1.555-0.295,2.146-0.886c0.437-0.437,0.71-0.92,0.817-1.448
			V252.668z"/>
		<path fill="#FFFFFF" d="M335.102,257.973v-13.624h1.763v11.853h4.871v1.771H335.102z"/>
		<path fill="#FFFFFF" d="M345.967,255.989c0.295,0.261,0.832,0.392,1.609,0.392c0.84,0,1.558-0.295,2.154-0.886
			c0.074-0.079,0.224-0.255,0.451-0.528l1.763,0.63c-0.431,0.596-0.744,0.991-0.937,1.184c-0.948,0.948-2.092,1.422-3.432,1.422
			c-1.334,0-2.475-0.474-3.423-1.422c-0.948-0.948-1.422-2.092-1.422-3.432c0-1.34,0.474-2.483,1.422-3.432
			c0.948-0.948,2.089-1.422,3.423-1.422c1.147,0,2.152,0.346,3.014,1.039c0.142,0.119,0.281,0.247,0.417,0.383
			c0.057,0.057,0.219,0.236,0.485,0.536l-0.886,0.894L345.967,255.989z M348.913,250.54c-0.199-0.153-0.644-0.23-1.337-0.23
			c-0.835,0-1.548,0.297-2.142,0.89c-0.593,0.593-0.89,1.31-0.89,2.15c0,0.687,0.077,1.133,0.23,1.337L348.913,250.54z"/>
		<path fill="#FFFFFF" d="M361.584,249.824v-0.613h1.771v8.771h-1.771v-1.098c-0.852,0.88-1.839,1.32-2.963,1.32
			c-1.34,0-2.482-0.473-3.427-1.418c-0.945-0.945-1.418-2.087-1.418-3.427c0-1.34,0.473-2.482,1.418-3.427
			c0.945-0.945,2.088-1.418,3.427-1.418C359.745,248.513,360.733,248.95,361.584,249.824z M361.584,254.005v-1.294
			c-0.102-0.55-0.375-1.05-0.817-1.499c-0.596-0.59-1.311-0.886-2.146-0.886c-0.84,0-1.557,0.295-2.15,0.886
			c-0.593,0.591-0.89,1.306-0.89,2.146c0,0.835,0.297,1.549,0.89,2.142c0.593,0.593,1.31,0.89,2.15,0.89
			c0.835,0,1.55-0.295,2.146-0.886C361.21,255.056,361.482,254.556,361.584,254.005z"/>
		<path fill="#FFFFFF" d="M367.681,250.395c0.659-0.891,1.467-1.359,2.427-1.405v1.831c-0.641,0.034-1.152,0.242-1.533,0.622
			c-0.573,0.568-0.871,1.243-0.894,2.027v4.505h-1.763v-8.762h1.763V250.395z"/>
		<path fill="#FFFFFF" d="M373.77,251.561v6.412h-1.771v-8.762h1.771v1.022c0.369-0.999,1.11-1.499,2.223-1.499
			c0.948,0,1.702,0.336,2.261,1.009c0.559,0.673,0.847,1.517,0.864,2.533v5.697h-1.763v-5.629c0-0.505-0.184-0.938-0.553-1.299
			c-0.369-0.36-0.809-0.541-1.32-0.541c-0.505,0-0.942,0.176-1.311,0.528C373.965,251.244,373.832,251.42,373.77,251.561z"/>
		<path fill="#FFFFFF" d="M384.422,255.989c0.295,0.261,0.832,0.392,1.609,0.392c0.84,0,1.558-0.295,2.154-0.886
			c0.074-0.079,0.224-0.255,0.451-0.528l1.763,0.63c-0.431,0.596-0.744,0.991-0.937,1.184c-0.948,0.948-2.092,1.422-3.432,1.422
			c-1.334,0-2.475-0.474-3.423-1.422c-0.948-0.948-1.422-2.092-1.422-3.432c0-1.34,0.474-2.483,1.422-3.432
			c0.948-0.948,2.089-1.422,3.423-1.422c1.147,0,2.152,0.346,3.014,1.039c0.142,0.119,0.281,0.247,0.417,0.383
			c0.057,0.057,0.219,0.236,0.485,0.536l-0.886,0.894L384.422,255.989z M387.368,250.54c-0.199-0.153-0.644-0.23-1.337-0.23
			c-0.835,0-1.548,0.297-2.142,0.89c-0.593,0.593-0.89,1.31-0.89,2.15c0,0.687,0.077,1.133,0.23,1.337L387.368,250.54z"/>
		<path fill="#FFFFFF" d="M394.206,250.395c0.659-0.891,1.467-1.359,2.427-1.405v1.831c-0.641,0.034-1.152,0.242-1.533,0.622
			c-0.573,0.568-0.871,1.243-0.894,2.027v4.505h-1.763v-8.762h1.763V250.395z"/>
	</g>
	<g>
		<g>
			<path fill="#070707" d="M88.405,164.554c0,0,0.135,8.164-0.13,13.505c-0.265,5.341-5.524,11.346-5.524,11.346
				s-4.709-10.87-2.265-14.78C82.931,170.715,88.405,164.554,88.405,164.554z"/>
			<path fill="#F3C9B2" d="M84.156,169.607c0,0,6.198-7.679,7.492-8.901c1.294-1.222,5.756,1.575,5.756,1.575
				S85.86,170.149,84.156,169.607z"/>
			<path fill="#FFDAC3" d="M112.456,169.474c-0.988-1.007-10.389-3.234-10.389-3.234s4.46-4.393,6.456-4.537
				c1.498-0.108,7.173-0.157,10.716-0.437l0,0c0.034-0.06,0.065-0.12,0.095-0.181c0.074-0.162,0.135-0.339,0.215-0.5
				c0.15-0.412,0.248-0.841,0.336-1.278c0.112-0.557,0.131-1.237,0.398-1.746c0.146-0.278,0.287-0.453,0.437-0.556
				c-3.988-0.853-14.509-0.458-17.339,0.455c-3.43,1.107-20.45,13.254-20.45,13.254s-2.125,13.542-0.38,14.293
				c1.746,0.751,12.961-3.887,14.25-4.587c1.289-0.7,10.401,0.1,10.401,0.1s-0.026,2.707,1.262,2.15
				c1.288-0.558,4.444-2.807,5.244-4.509c0.8-1.702-1.312-4.287-1.312-4.287S113.444,170.481,112.456,169.474z"/>
			<g>
				<g>
					<g>
						<path fill="#EEBDA2" d="M100.628,166.085c0,0-0.239,0.046-0.634,0.122c-0.391,0.08-0.972,0.117-1.549,0.206
							c-0.597,0.079-1.029,0.275-1.517,0.701c-0.477,0.449-0.981,0.949-1.54,1.339c0,0,0.019-0.168,0.104-0.463
							c0.09-0.294,0.216-0.723,0.547-1.209c0.138-0.253,0.377-0.503,0.673-0.755c0.305-0.234,0.746-0.445,1.198-0.47
							C98.812,165.496,99.638,165.762,100.628,166.085z"/>
					</g>
				</g>
			</g>
			<g>
				<g>
					<g>
						<path fill="#EEBDA2" d="M112.396,173.891c0,0-1.408,0.031-3.227-0.116c-0.456-0.035-0.936-0.088-1.433-0.144
							c-0.504-0.033-1.021-0.081-1.538-0.146c-1.033-0.131-2.062-0.334-2.972-0.643c0,0,0.908-0.258,2.515-0.289
							c0.805,0.005,1.779-0.02,2.91,0.229C109.779,173.007,111.052,173.36,112.396,173.891z"/>
					</g>
				</g>
			</g>
		</g>
		<path fill="#6198BC" d="M79.001,164.463c0,0,6.129-0.195,9.412-0.764c0,0-7.301,18.28-5.662,25.706c0,0-6.549-0.633-7.825-1.215
			C73.648,187.607,79.001,164.463,79.001,164.463z"/>
		<path fill="#5F7B92" d="M44.975,87.292c3.483,6.399,11.773,25.364,9.388,33.809c-2.385,8.446-17.438,32.81-17.438,32.81
			s4.247,2.904,2.806,4.593c0,0,31.58,5.498,43.276,4.292c0,0-7.167,19.182-5.744,26.865c0,0-38.667-2.062-56.302-5.532
			c-17.636-3.469-21.28-9.737-20.939-15.595s11.942-26.792,12.829-30.082c0.887-3.29,11.033-21.147,15.091-28.232
			C31.999,103.136,40.469,79.013,44.975,87.292z"/>
		<g>
			<g>
				<g>
					<path fill="#0C0C0B" d="M39.842,158.257c0,0-0.074-0.139-0.209-0.393c-0.064-0.125-0.143-0.277-0.235-0.456
						c-0.097-0.174-0.25-0.35-0.391-0.553c-0.589-0.807-1.634-1.701-3.051-2.397c-2.813-1.445-6.998-2.137-10.158-3.899
						c0,0,0.44-0.057,1.238-0.078c0.8-0.021,1.965-0.025,3.453,0.17c1.479,0.211,3.326,0.586,5.292,1.65
						c0.974,0.529,1.968,1.282,2.767,2.293C39.35,155.6,39.871,156.928,39.842,158.257z"/>
				</g>
			</g>
		</g>
		<g>
			<g>
				<path fill="none" stroke="#050504" stroke-width="2" stroke-miterlimit="10" d="M38.023,158.196"/>
			</g>
		</g>
		<g>
			<g>
				<path fill="none" stroke="#050504" stroke-width="2" stroke-miterlimit="10" d="M28.077,155.251"/>
			</g>
		</g>
		<g>
			<g>
				<path fill="none" stroke="#050504" stroke-width="2" stroke-miterlimit="10" d="M19.427,136.073"/>
			</g>
		</g>
		<g>
			<g>
				<path fill="none" stroke="#050504" stroke-width="2" stroke-miterlimit="10" d="M29.686,106.534"/>
			</g>
		</g>
		<g>
			<g>
				<path fill="none" stroke="#050504" stroke-width="2" stroke-miterlimit="10" d="M66.36,174.998"/>
			</g>
		</g>
		<g>
			<g>
				<path fill="none" stroke="#050504" stroke-width="2" stroke-miterlimit="10" d="M69.928,189.281"/>
			</g>
		</g>
		<g>
			<g>
				<path fill="none" stroke="#050504" stroke-width="2" stroke-miterlimit="10" d="M63.117,182.933"/>
			</g>
		</g>
		<g>
			<g>
				<path fill="none" stroke="#050504" stroke-width="2" stroke-miterlimit="10" d="M65.524,188.522"/>
			</g>
		</g>
		<g>
			<g>
				<g>
					<path fill="#0C0C0B" d="M44.312,141.258c0,0,6.488-13.96,12.252-22.683C56.564,118.575,53.063,127.861,44.312,141.258z"/>
				</g>
			</g>
		</g>
		<g>
			<g>
				<g>
					<path fill="#0C0C0B" d="M50.618,129.559c0,0,0.169-0.321,0.449-0.854c0.316-0.515,0.834-1.198,1.524-1.878
						c1.387-1.368,3.383-2.646,5.162-3.422c0,0-0.517,0.814-1.758,1.892c-0.611,0.544-1.405,1.14-2.319,1.812
						C52.766,127.793,51.682,128.481,50.618,129.559z"/>
				</g>
			</g>
		</g>
	</g>
</g>
</svg>
