<?xml version="1.0" encoding="utf-8"?>
<!-- Generator: Adobe Illustrator 17.0.0, SVG Export Plug-In . SVG Version: 6.00 Build 0)  -->
<!DOCTYPE svg PUBLIC "-//W3C//DTD SVG 1.1//EN" "http://www.w3.org/Graphics/SVG/1.1/DTD/svg11.dtd">
<svg version="1.1" id="Слой_1" xmlns="http://www.w3.org/2000/svg" xmlns:xlink="http://www.w3.org/1999/xlink" x="0px" y="0px"
	 width="600px" height="557.855px" viewBox="0 0 600 557.855" enable-background="new 0 0 600 557.855" xml:space="preserve">
<g>
	<g>
		<path fill="#EFEFEF" d="M282.938,66.483c6.432,0,11.646,5.408,11.646,12.078c0,8.788-5.64,6.992-5.64,13.448
			c0,1.287-0.998,2.34-2.218,2.34h-7.577c-1.22,0-2.219-1.053-2.219-2.34c0-6.457-5.64-4.661-5.64-13.448
			C271.291,71.891,276.505,66.483,282.938,66.483L282.938,66.483z M272.114,78.561c0,1.833,0.239,3.739,1.216,5.33
			c0.688,1.122,1.632,1.9,2.494,2.865c1.407,1.576,1.931,3.138,1.931,5.254c0,0.78,0.585,1.517,1.395,1.517h7.576
			c0.811,0,1.395-0.737,1.395-1.517c0-2.116,0.524-3.678,1.931-5.255c0.861-0.965,1.805-1.743,2.494-2.865
			c0.976-1.59,1.216-3.496,1.216-5.33c0-6.038-4.68-11.255-10.823-11.255C276.794,67.306,272.114,72.523,272.114,78.561z"/>
		<path fill="#EFEFEF" d="M287.098,94.866h-8.263c-0.545,0-0.991,0.445-0.991,0.991v0.001c0,0.545,0.445,0.991,0.991,0.991h8.263
			c0.545,0,0.991-0.445,0.991-0.991v-0.001C288.089,95.311,287.643,94.866,287.098,94.866z"/>
		<path fill="#EFEFEF" d="M287.098,97.335h-8.263c-0.545,0-0.991,0.445-0.991,0.991v0.001c0,0.545,0.445,0.991,0.991,0.991h8.263
			c0.545,0,0.991-0.445,0.991-0.991v-0.001C288.089,97.781,287.643,97.335,287.098,97.335z"/>
		<path fill="#EFEFEF" d="M287.098,99.805h-8.263c-0.545,0-0.991,0.445-0.991,0.991l0,0c0,0.545,0.445,0.991,0.991,0.991h8.263
			c0.545,0,0.991-0.445,0.991-0.991l0,0C288.089,100.25,287.643,99.805,287.098,99.805z"/>
		<polygon fill="#EFEFEF" points="281.131,103.251 279.514,102.268 283.012,102.268 286.511,102.268 284.894,103.251 		"/>
		<path fill="#EFBB00" d="M286.725,93.527h-7.576c-0.81,0-1.395-0.737-1.395-1.517c0-2.116-0.524-3.678-1.931-5.254
			c-0.861-0.965-1.805-1.743-2.494-2.865c-0.977-1.59-1.216-3.496-1.216-5.33c0-6.038,4.68-11.255,10.824-11.255
			c6.143,0,10.823,5.217,10.823,11.255c0,1.833-0.239,3.739-1.216,5.33c-0.689,1.122-1.633,1.9-2.494,2.865
			c-1.407,1.576-1.931,3.138-1.931,5.254C288.121,92.789,287.536,93.527,286.725,93.527z"/>
		<path fill="#EFEFEF" d="M282.811,69.228c-4.951,3.381-5.213,8.929-5.213,8.929s-4.195-0.068-3.943-0.082
			c0.253-0.013-0.364-2.982,2.184-6.155C278.387,68.747,282.811,69.228,282.811,69.228z"/>
		<path fill="#EFEFEF" d="M282.938,53.075L282.938,53.075c-0.199,0-0.361,0.162-0.361,0.36v10.432c0,0.199,0.162,0.36,0.361,0.36
			l0,0c0.198,0,0.36-0.162,0.36-0.36V53.435C283.298,53.236,283.136,53.075,282.938,53.075z"/>
		<path fill="#EFEFEF" d="M270.27,56.469L270.27,56.469c-0.172,0.099-0.232,0.321-0.133,0.493l5.216,9.034
			c0.1,0.172,0.321,0.232,0.493,0.132l0,0c0.171-0.099,0.231-0.321,0.132-0.492l-5.216-9.035
			C270.663,56.429,270.442,56.369,270.27,56.469z"/>
		<path fill="#EFEFEF" d="M260.996,65.742L260.996,65.742c-0.099,0.172-0.04,0.394,0.132,0.493l9.034,5.216
			c0.173,0.099,0.394,0.04,0.493-0.132l0,0c0.099-0.172,0.04-0.394-0.132-0.493l-9.034-5.216
			C261.317,65.51,261.096,65.57,260.996,65.742z"/>
		<path fill="#EFEFEF" d="M257.602,78.41L257.602,78.41c0,0.199,0.162,0.361,0.361,0.361h10.432c0.199,0,0.361-0.162,0.361-0.361
			l0,0c0-0.198-0.162-0.36-0.361-0.36h-10.432C257.764,78.049,257.602,78.211,257.602,78.41z"/>
		<path fill="#EFEFEF" d="M260.996,91.077L260.996,91.077c0.099,0.172,0.321,0.232,0.493,0.132l9.034-5.216
			c0.173-0.099,0.232-0.321,0.132-0.493l0,0c-0.1-0.172-0.321-0.231-0.493-0.132l-9.034,5.216
			C260.957,90.684,260.898,90.905,260.996,91.077z"/>
		<path fill="#EFEFEF" d="M295.605,56.469L295.605,56.469c-0.172-0.099-0.393-0.04-0.493,0.132l-5.216,9.035
			c-0.099,0.172-0.04,0.393,0.132,0.492l0,0c0.172,0.099,0.394,0.04,0.493-0.132l5.216-9.035
			C295.836,56.79,295.777,56.568,295.605,56.469z"/>
		<path fill="#EFEFEF" d="M304.879,65.742L304.879,65.742c-0.099-0.172-0.321-0.231-0.493-0.132l-9.035,5.216
			c-0.172,0.099-0.231,0.321-0.132,0.493l0,0c0.099,0.172,0.32,0.231,0.493,0.132l9.034-5.216
			C304.918,66.136,304.977,65.914,304.879,65.742z"/>
		<path fill="#EFEFEF" d="M308.273,78.41L308.273,78.41c0-0.198-0.162-0.36-0.361-0.36h-10.433c-0.198,0-0.36,0.162-0.36,0.36l0,0
			c0,0.198,0.162,0.36,0.36,0.36h10.433C308.111,78.77,308.273,78.609,308.273,78.41z"/>
		<path fill="#EFEFEF" d="M304.879,91.078L304.879,91.078c0.099-0.172,0.04-0.394-0.132-0.493l-9.034-5.216
			c-0.173-0.099-0.394-0.04-0.493,0.132l0,0c-0.099,0.172-0.04,0.393,0.132,0.493l9.035,5.216
			C304.558,91.309,304.779,91.249,304.879,91.078z"/>
	</g>
	<path fill="#120F12" d="M247.196,469.622c0,0,3.345,9.167,7.932,12.123c0.972,5.492-2.126,12.388,1.348,16.214
		c1.943,0.825,5.509,5.765,1.84,5.599l-7.979-0.165l-7.46-18.171l0.858-3.111l-2.24,0.755l-2.181-7.434
		C239.315,475.431,243.194,468.937,247.196,469.622z"/>
	<path fill="#545454" d="M326.264,324.273c0,0-2.73,83.019-4.476,86.474c-1.747,3.456-64.796,73.514-64.796,73.514
		c-10.979-6.578-6.752-4.735-12.265-14.858c9.366-14.744,32.717-46.447,56.078-68.942c0.639-3.898-3.71-57.256-3.71-57.256
		l-0.839-20.269l11.237-3.121L326.264,324.273z"/>
	<path fill="#545454" d="M246.184,472.249c-0.396-0.83-0.871-1.77-1.456-2.846c9.366-14.744,34.388-48.379,59.501-71.379
		c0.639-3.898-7.13-54.819-7.13-54.819l-0.073-1.748c0.009,0.001,1.654,0.123,3.567-0.791c1.918-0.916,3.084-1.75,3.084-1.75
		l-3.788,4.346l7.204,55.84c0,0-32.014,39.515-45.185,54.019C252.635,463.333,248.072,469.494,246.184,472.249z"/>
	<path fill="#120F12" d="M295.101,489.131l3.127,7.543c2.594,3.14,2.208,2.727,2.031,6.89l-20.892,0.017
		c0,0-0.163-4.948,1.786-6.458c2.034-0.823,4.629-8.165,4.629-8.165L295.101,489.131z"/>
	<path fill="#545454" d="M280.462,495.494l18.219-1.32l-1.586-150.968l2.793,0.057l-1.775-20.842l-2.217,1.206l-6.711-3.211
		l-24.235,10.538C267.515,383.999,274.742,442.593,280.462,495.494z"/>
	<path fill="#DAD8DA" d="M281.784,327.385c0.716,0.861,15.79,9.207,20.649,7.6l16.491-5.45c5.442-1.797,10.209-6.123,10.209-6.123
		s-20.82-6.065-21.681-5.921C306.591,317.635,281.784,327.385,281.784,327.385z"/>
	<path fill="#FFFFFF" d="M263.164,221.872c-1.496,2.176-25.312,9.49-25.422,9.524c0.531-0.163,10.226,23.579,11.293,25.876
		c8.401,18.082,12.558,36.686,9.918,56.815c-0.325,2.482-0.777,4.909-1.279,7.366l20.145,7.093l7.028,7.816l44.286-12.949
		c-3.36-13.214-6.375-27.086-6.964-40.772c-0.814-18.903,7.575-36.11,13.992-53.474l-30.181-10.446l-39.959,1.911L263.164,221.872z"
		/>
	<path fill="#EACAB5" d="M261.376,320.38c1.384,0.421,15.869,7.447,16.441,8.165c0.573,0.716,5.163,6.022,4.014,7.17
		c-1.147,1.147-11.042,11.759-12.045,10.468c-1.004-1.291-12.475-14.053-12.475-14.053L261.376,320.38z"/>
	<path fill="#DCB1A1" d="M281.833,335.715c0.209-0.208,0.224-0.557,0.112-0.988l-3.49-3.403c0,0,2.006,3.696,1.795,5.038
		c-0.212,1.343-9.715,6.578-10.586,6.471c-0.638-0.076-7.569-8.471-11.488-13.202l-0.864,2.499c0,0,11.472,12.762,12.475,14.053
		C270.791,347.475,280.686,336.861,281.833,335.715z"/>
	<path fill="#FFFFFF" d="M257.173,240.862l-19.432-9.467c-2.971,7.727-5.943,15.453-8.914,23.18
		c-2.412,6.273-4.824,12.546-7.237,18.818c-2.165,5.631-6.955,12.861-6.882,18.792c0.081,6.546,5.243,10.252,9.317,14.617
		c4.243,4.547,8.486,9.093,12.728,13.64c5.538,5.935,11.075,11.868,16.613,17.803l16.679-15.838l-33.007-34.516L257.173,240.862z"/>
	<path fill="#E2B09F" d="M252.713,161.275c-2.309-0.988-14.627-7.314-15.917-3.872s3.299,18.643,4.589,20.363
		c1.29,1.721,9.894,4.015,10.324,3.012C252.14,179.774,252.713,161.275,252.713,161.275z"/>
	<path fill="#E09275" d="M247.982,160.774c-0.932-0.287-5.306-1.792-6.239-0.144c-0.932,1.649,0.144,5.664,0.144,6.524
		c0,0.861,1.649,7.099,2.796,8.174c1.148,1.075,5.664,2.51,5.951,1.65C250.922,176.117,247.982,160.774,247.982,160.774z"/>
	<path fill="#E2B09F" d="M312.908,158.584c2.308-0.989,14.627-7.314,15.917-3.872c1.29,3.442-3.298,18.642-4.589,20.363
		c-1.29,1.72-9.894,4.015-10.324,3.011C313.481,177.082,312.908,158.584,312.908,158.584z"/>
	<path fill="#E09275" d="M317.639,158.082c0.932-0.287,5.306-1.792,6.238-0.143c0.932,1.649-0.144,5.664-0.144,6.524
		c0,0.861-1.649,7.099-2.796,8.175c-1.147,1.075-5.664,2.509-5.951,1.649C314.699,173.425,317.639,158.082,317.639,158.082z"/>
	<path fill="#94989C" d="M303.474,224.176c0.133-0.332,4.78-5.266,4.714-5.455c-0.067-0.189,0.028-5.87,0.028-5.87l-41.655,1.192
		l0.855,9.004L303.474,224.176z"/>
	<path fill="#D9A795" d="M270.289,194.949c0.861,5.449,3.015,21.389,1.296,22.823c-1.721,1.434-11.329,5.306-11.329,5.306
		s21.781,15.2,26.098,15.774c4.317,0.574,26.385-17.208,26.385-17.208s-11.185-4.303-12.905-6.882
		c-1.722-2.581-3.442-24.091-3.442-24.091L270.289,194.949z"/>
	<path fill="#EDC2B4" d="M315.375,134.461c0.292,14.174-0.223,28.601,0.879,42.729c1.151,14.746-12.649,25.772-23.925,32.723
		c-2.538,1.564-6.437,0.959-9.452,1.187c-4.49,0.339-6.333-1.416-9.795-3.724c-2.056-1.37-4.098-2.762-6.08-4.238
		c-3.941-2.934-7.675-6.204-10.664-10.126c-2.988-3.92-5.127-8.081-5.561-12.952c-0.337-3.782-1.025-7.561-1.535-11.325
		l-2.165-31.69L315.375,134.461z"/>
	<path fill="#DEB7A9" d="M315.375,134.461c0.292,14.174-0.223,28.601,0.879,42.729c1.151,14.746-12.649,25.772-23.925,32.723
		c-2.538,1.564-6.437,0.959-9.452,1.187c-4.49,0.339-6.333-1.416-9.795-3.724c-2.056-1.37-4.098-2.762-6.08-4.238
		c-3.941-2.934-7.675-6.204-10.664-10.126c-2.988-3.92-5.127-8.081-5.561-12.952c-0.337-3.782-1.025-7.561-1.535-11.325
		l-2.165-31.69L315.375,134.461z"/>
	<path fill="#EACAB5" d="M314.723,130.215c0.292,14.58-0.223,29.421,0.879,43.953c1.151,15.169-12.649,26.511-23.925,33.661
		c-2.538,1.609-6.437,0.986-9.453,1.221c-4.489,0.349-6.333-1.456-9.794-3.831c-2.055-1.41-4.098-2.841-6.08-4.36
		c-3.941-3.018-7.675-6.383-10.664-10.416c-2.988-4.032-5.127-8.313-5.562-13.324c-0.337-3.89-1.025-7.778-1.536-11.649
		l-2.165-32.598L314.723,130.215z"/>
	<path fill="#614647" d="M313.228,125.569c5.306,0.574,12.188,0.287,13.049,5.449c0.861,5.162-10.155,37.495-10.236,35.771
		C315.959,165.066,313.228,125.569,313.228,125.569z"/>
	<path fill="#614647" d="M249.391,170.914l2.03-27.85c0,0,29.683,7.6,31.26,6.597c1.578-1.004,19.934-4.302,29.255-9.32
		c9.321-5.019,10.326-15.057,9.752-22.227c-0.574-7.171-7.887-13.91-7.887-13.91s-0.573,5.736-8.891,8.604
		c-8.317,2.868-30.114-1.434-40.152,0.287c-10.039,1.721-17.065,11.471-17.065,11.471s-7.026-0.001-9.895,7.743
		C234.781,140.461,245.693,161.441,249.391,170.914z"/>
	<path fill="#614647" d="M277.983,158.462c-0.323-0.323-1.276-1.343-2.657-1.738c-6.485-1.859-23.933,0.258-28.513,1.734
		c-0.589,0.191-0.656,0.173-0.693,0.585c-0.037,0.411,0.103,2.813,0.319,3.164c0.218,0.351,1.149,0.44,2.043,1.586
		c1.603,2.054,2.024,9.869,5.757,13.336c3.867,3.59,17.564,2.814,20.925-2.536c2.222-3.534,3.182-7.365,4.253-11.061
		c0.738-0.867,1.42-0.977,2.034-1.104c0.382-0.079,0.718-0.113,0.917-0.128c0.199-0.011,0.537-0.023,0.926,0.004
		c0.627,0.045,1.317,0.063,2.164,0.824c1.554,3.521,3.016,7.189,5.688,10.396c4.043,4.855,17.722,3.8,21.077-0.273
		c3.239-3.933,2.615-11.736,3.931-13.984c0.734-1.254,1.645-1.466,1.814-1.843c0.169-0.378-0.013-2.776-0.105-3.179
		c-0.092-0.403-0.155-0.377-0.764-0.487c-4.735-0.853-22.309-0.628-28.49,2.077c-1.315,0.575-2.124,1.713-2.402,2.077
		c-0.514,0.24-1.367,0.393-4.097,0.515C279.39,158.67,278.525,158.631,277.983,158.462L277.983,158.462z M310.821,155.428
		c0,0,1.616,0.021,2.419,1.732s0.771,5.739,0.538,7.734c-0.233,1.996-0.883,5.139-2.003,6.742
		c-3.464,4.96-16.013,5.236-19.402,1.391c-2.609-2.961-7.329-11.955-2.491-14.931C294.029,155.548,306.342,154.26,310.821,155.428
		L310.821,155.428z M253.26,159.276c4.283-1.754,16.658-2.115,21.107-0.141c5.191,2.304,1.709,11.847-0.481,15.129
		c-2.846,4.262-15.32,5.658-19.414,1.204c-1.323-1.44-2.386-4.469-2.883-6.416c-0.496-1.947-1.064-5.934-0.495-7.737
		C251.662,159.512,253.26,159.276,253.26,159.276z"/>
	<path fill="#B7D8E2" d="M273.886,174.264c2.191-3.282,5.673-12.824,0.481-15.128c-4.448-1.975-16.824-1.614-21.107,0.141
		c0,0-1.195,0.177-1.885,1.388c-0.109,0.191-0.206,0.406-0.282,0.651c-0.568,1.803-0.001,5.791,0.496,7.738
		c0.179,0.706,0.434,1.555,0.749,2.418c0.553,1.517,1.29,3.08,2.133,3.997C258.566,179.922,271.04,178.526,273.886,174.264z"/>
	<path fill="#B7D8E2" d="M289.883,158.097c-4.837,2.975-0.118,11.969,2.491,14.93c3.389,3.846,15.938,3.569,19.402-1.391
		c0.64-0.916,1.127-2.335,1.47-3.755c0.257-1.066,0.435-2.131,0.534-2.987c0.191-1.639,0.246-4.649-0.184-6.62
		c-0.093-0.43-0.211-0.809-0.354-1.115c-0.804-1.712-2.419-1.733-2.419-1.733C306.342,154.26,294.029,155.548,289.883,158.097z"/>
	<path fill="#AAA9AC" d="M301.99,227.802c-1.148-0.287-8.256-1.327-8.256-1.327l-6.453,12.299l14.566-3.801L301.99,227.802z"/>
	<path fill="#AAA9AC" d="M272.965,231.574c1.348-1.191,8.081-3.907,8.081-3.907l5.307,11.186l-14.477-3.308L272.965,231.574z"/>
	<path fill="#EAEAEA" d="M266.563,214.043l14.483,13.623L269.145,244.3c-0.665,0.929-8.89-21.222-8.89-21.222L266.563,214.043z"/>
	<path fill="#EAEAEA" d="M308.217,212.851l-14.483,13.623l11.903,16.634c0.665,0.929,8.89-21.222,8.89-21.222L308.217,212.851z"/>
	<path fill="#EACAB5" d="M372.413,193.88c0-0.187,0.489-6.179,0.275-12.781c-0.17-5.244-1.19-10.91-0.372-14.095
		c0.909-3.537,4.775-4.063,6.266,1.902c1.193,4.777,1.79,23.084,1.79,23.084s2.315-1.564,3.907-1.962
		c1.592-0.398,4.351,2.09,4.351,2.09s3.024-0.08,4.394,0.791c1.369,0.871,2.174,2.463,2.174,2.463s2.288,0.099,2.786,1.592
		c0.497,1.492-0.299,7.96-1.194,9.154c-0.896,1.194-2.396,3.083-2.396,3.083c-0.19,3.768-6.039,6.439-6.039,6.439l-2.359,10.483
		c0,0-17.164,2.88-16.567,1.686c0.596-1.194,1.89-13.034,1.095-14.725c-0.796-1.692-3.681-6.964-3.681-9.055
		c0-2.089,0.299-8.558,1.393-8.855C369.331,194.875,372.413,193.88,372.413,193.88z"/>
	<path fill="#DCB1A1" d="M374.623,165.081c1.15-1.425,2.834-0.677,3.959,3.825c1.194,4.777,1.79,23.084,1.79,23.084
		s0.08-0.059,0.222-0.158c-0.005,0.01-0.808,1.557-1.254,2.5c-0.447,0.945,1.99,6.07,2.188,6.666
		c0.199,0.597-0.651,3.737-1.047,4.518c-0.396,0.781,2.156,3.286,4.185,1.025c0.785-0.875,1.958-3.598,2.528-5.772
		c0.903-3.443,1.001-6.537,1.001-6.537s0.247,2.917-0.15,5.107c-0.192,1.059-0.985,3.663-1.764,5.124
		c-0.966,1.811-0.869,2.087-0.818,2.395c0.098,0.596,1.474,1.431,2.718,1.531c1.244,0.099,1.848-1.467,2.699-2.465
		c0.851-0.999,3.532-8.258,3.631-8.706c0.099-0.447-0.099,0.249-0.298,1.393c-0.199,1.145-2.488,7.214-2.736,7.711
		c-0.126,0.255-1.22,1.602-1.392,2.615c-0.163,0.963,1.189,1.845,1.528,2.112c0.697,0.546,2.78-1.846,2.78-1.846
		c-0.19,3.768-4.534,6.152-4.534,6.152l-2.788,10.338c0,0-1.796,2.05-3.54,2.208l-1.506-1.792c-0.278-0.331,1.066-6.532,1.066-6.532
		c-1.14-1.794-6.09,0.208-9.898-1.873c-0.284-0.155,8.897,1.156,7.089-7.106c-0.348-1.592-2.785-3.134-3.184-3.233
		c-0.398-0.099-2.338-0.945-2.886-1.642c-0.547-0.697-1.195-5.373-1.195-5.373s1.939,3.027,1.988,3.474
		c0.049,0.448,1.744,2.546,1.992,2.645c0.249,0.099,1.79-0.248,2.238-0.496c0.447-0.249,1.592-3.681,1.592-3.681
		s-1.891-7.612-2.787-7.96c-0.895-0.349-5.629-0.449-5.629-0.449s5.132-0.744,5.729-1.591c0.596-0.846,0.784-12.884,0.348-17.163
		C378.052,170.845,377.928,164.712,374.623,165.081z"/>
	<path fill="#EDC2B4" d="M374.064,218.105c0.861,0.143,8.866,1.171,12.594-1.697c3.728-2.868,6.246-4.846,7.698-6.824
		c0.035,1.066-1.821,5.907-4.984,7.583c-0.898,4.728-2.07,8.996-1.779,9.599c0.52,1.073-14.45-2.149-14.486-3.259
		C373.071,222.394,374.064,218.105,374.064,218.105z"/>
	<path fill="#FFFFFF" d="M321.882,257.832c12.706,8.696,25.283,17.584,38.111,26.099c22.497,14.933,29.908-56.914,31.02-56.95
		l-24.648-4.369l-2.642,40.692l-27.561-34.138L321.882,257.832z"/>
	<polygon fill="#362F34" points="283.7,233.26 282.848,239.632 281.092,320.187 293.568,333.81 304.897,317.893 292.072,239.358 	
		"/>
	<path fill="#362F34" d="M293.747,227.944c-1.362,0-13.336-0.215-13.479,0.717c-0.143,0.932-1.362,6.167-0.86,6.596
		c0.502,0.43,2.275,4.208,3.442,4.375c1.167,0.167,8.349-0.042,9.224-0.273c0.875-0.23,2.75-4.316,2.75-4.817
		C294.823,234.039,293.747,227.944,293.747,227.944z"/>
	<path fill="#DCAB98" d="M284.743,164.307c0,0.861,3.586,14.986,3.586,14.986c3.833,2.15,3.726,1.029,6.633,3.585
		c-0.665-2.568-5.485-5.378-5.485-5.378L284.743,164.307z"/>
	<path fill="#DCAB98" d="M279.296,186.246c0.502,0.286,3.945,1.506,6.095,1.864c2.151,0.358,3.8-0.144,4.446-0.359
		c0.645-0.214,4.947-2.867,4.374-2.867s-6.649,0.393-6.649,0.393C289.847,185.136,278.478,185.779,279.296,186.246z"/>
	<g>
		<path fill="#7F5E57" d="M285.214,195.884c-0.715,0-1.405-0.032-2.06-0.097c-5.336-0.531-12.199-4.003-12.268-4.038
			c-0.454,0.126-0.025-0.712,0.201-0.394c0.069,0.034,6.857,3.47,12.111,3.992c5.093,0.508,12.337-1.051,17.224-3.703
			c0.235-0.511,0.791,0.48,0.211,0.388C296.305,194.382,290.149,195.884,285.214,195.884z"/>
	</g>
	<path fill="#2C272D" d="M304.897,317.893l-12.824-78.535c0.433-0.114,1.112-1.174,1.687-2.276c0.438-0.841,0.816-1.705,0.979-2.193
		c0.054-0.164,0.084-0.285,0.084-0.348c0-0.502-1.076-6.596-1.076-6.596c-0.147,0-0.416-0.003-0.781-0.005
		c-0.195-0.003-0.416-0.004-0.661-0.006c0.089,0.234,0.179,0.487,0.27,0.749c0.528,1.546,1.024,3.495,0.841,4.547
		c-0.176,1.003-0.855,2.415-1.539,3.422c-0.452,0.667-0.906,1.158-1.217,1.239c-0.011,0.004-0.025,0.006-0.039,0.01
		c-0.095,0.025-0.24,0.055-0.423,0.093c-0.369,0.076-0.896,0.177-1.485,0.289c-0.415,0.078-0.859,0.162-1.304,0.242
		c-0.379,0.07-0.759,0.139-1.115,0.205c-0.09,0.017-0.179,0.033-0.266,0.048c-0.01,0.002-0.019,0.004-0.027,0.005
		c-1.02,0.184-1.797,0.323-1.797,0.323s1.492,0.234,3.021,0.547c1.495,0.306,3.024,0.685,3.231,0.995
		c0.417,0.625,12.837,74.669,12.042,76.822c-0.147,0.399-0.547,1.21-1.1,2.27c-0.322,0.618-0.699,1.321-1.107,2.075
		c-0.594,1.097-1.257,2.301-1.931,3.51c-0.631,1.135-1.27,2.275-1.868,3.334c-1.233,2.188-2.286,4.034-2.717,4.787
		c-0.134,0.235-0.208,0.364-0.208,0.364l0.248-0.349l2.719-3.818l1.96-2.754l4.057-5.702l1.845-2.592L304.897,317.893z"/>
	<g>
		<g>
			<g>
				<defs>
					<path id="SVGID_1_" d="M270.523,177.29c3.236-2.258,9.955-9.876,5.96-13.913c-3.423-3.46-15.081-7.632-19.708-7.558
						c0,0-1.177-0.271-2.261,0.606c-0.171,0.138-0.339,0.303-0.5,0.503c-1.186,1.472-2.11,5.392-2.357,7.387
						c-0.09,0.723-0.162,1.606-0.183,2.525c-0.038,1.614,0.08,3.338,0.53,4.499C254.195,176.978,266.32,180.223,270.523,177.29z"/>
				</defs>
				<clipPath id="SVGID_2_">
					<use xlink:href="#SVGID_1_"  overflow="visible"/>
				</clipPath>
				
					<rect x="261.575" y="147.869" transform="matrix(-0.9313 -0.3643 0.3643 -0.9313 449.4464 418.497)" clip-path="url(#SVGID_2_)" fill="#D1E2E4" width="5.236" height="37.98"/>
			</g>
		</g>
	</g>
	<g>
		<g>
			<g>
				<defs>
					<path id="SVGID_3_" d="M293.665,154.138c-5.637,0.692-5.087,10.835-3.947,14.612c1.481,4.907,13.007,9.877,18.221,6.809
						c0.964-0.567,1.996-1.654,2.899-2.803c0.677-0.862,1.282-1.757,1.728-2.493c0.856-1.411,2.158-4.125,2.587-6.096
						c0.094-0.429,0.145-0.823,0.142-1.161c-0.018-1.891-1.479-2.583-1.479-2.583C310.229,157.497,298.496,153.545,293.665,154.138z
						"/>
				</defs>
				<clipPath id="SVGID_4_">
					<use xlink:href="#SVGID_3_"  overflow="visible"/>
				</clipPath>
				
					<rect x="298.232" y="145.819" transform="matrix(-0.9093 -0.4161 0.4161 -0.9093 505.8407 439.8572)" clip-path="url(#SVGID_4_)" fill="#D1E2E4" width="5.236" height="37.979"/>
			</g>
		</g>
	</g>
	<g>
		<polygon fill="#CECCCF" points="293.568,333.811 293.569,333.81 293.568,333.81 		"/>
		<path fill="#EAEAEA" d="M388.524,226.54c-0.952,1.451-1.89,3.732-2.229,7.267c-0.777,8.114-9.562,38.84-15.73,45.318
			c-6.169,6.477-9.87,0.925-17.889-5.86c-6.891-5.831-27.011-14.468-26.412-24.23c0.22-3.581-5.973,10.043-7.151,19.913
			c-1.178,9.87,1.795,36.086,2.769,41.33c0.975,5.243-0.049,8.019-4.058,7.212c-4.01-0.808-2.776,6.976-7.944,11.553v3.483
			c15.189-3.411,19.253-9.112,19.253-9.112c-3.36-13.214-6.375-27.086-6.964-40.772c-0.336-7.783,0.894-15.278,2.9-22.615
			c11.624,7.995,23.171,16.103,34.925,23.905c22.497,14.933,29.908-56.914,31.02-56.95
			C391.013,226.981,390.052,226.811,388.524,226.54z"/>
	</g>
	<path fill="#EAEAEA" d="M270.044,322.407l-33.007-34.516l17.593-41.089c-1.216-0.006-5.052,3.378-5.052,3.378
		c-1.353,2.707-11.731,29.483-14.665,33.355c-2.932,3.871-5.783,4.489-5.783,4.489s3.302,0.06,7.136,3.895
		c3.24,3.24,22.9,27.729,29.471,34.576L270.044,322.407z"/>
	<path fill="#EAEAEA" d="M264.95,306.81c-0.707-8.574-1.827-6.958-2.737-21.99c-0.946-15.625-6.367-38.013-7.583-38.018
		c-1.216-0.006-5.052,3.378-5.052,3.378c-0.272,0.546-0.915,2.078-1.786,4.193c0.611,1.449,1.057,2.5,1.242,2.898
		c8.401,18.082,12.558,36.686,9.919,56.815c-0.177,1.342-0.394,2.669-0.631,3.992c1.622,1.911,3.137,3.671,4.462,5.173l7.491,2.638
		c1.778-1.648,3.809-3.544,3.668-3.964C273.72,321.248,265.657,315.385,264.95,306.81z"/>
	<g>
		<g>
			<g>
				
					<line fill="none" stroke="#FFA826" stroke-width="6" stroke-linecap="round" stroke-linejoin="round" x1="60.555" y1="448.795" x2="65.219" y2="446.502"/>
				
					<polyline fill="none" stroke="#FFA826" stroke-width="6" stroke-linecap="round" stroke-linejoin="round" stroke-dasharray="12.5322,12.5322" points="
					74.96,441.714 156.278,401.738 265.518,349.604 				"/>
				<polyline fill="none" stroke="#FFA826" stroke-width="6" stroke-linecap="round" stroke-linejoin="round" points="
					270.416,347.266 275.105,345.028 279.316,348.075 				"/>
				
					<polyline fill="none" stroke="#FFA826" stroke-width="6" stroke-linecap="round" stroke-linejoin="round" stroke-dasharray="11.3591,11.3591" points="
					287.285,353.843 339.063,391.312 377.869,421.598 				"/>
				<polyline fill="none" stroke="#FFA826" stroke-width="6" stroke-linecap="round" stroke-linejoin="round" points="
					381.746,424.625 385.843,427.822 390.935,426.786 				"/>
				
					<line fill="none" stroke="#FFA826" stroke-width="6" stroke-linecap="round" stroke-linejoin="round" stroke-dasharray="12.7914,12.7914" x1="401.791" y1="424.576" x2="439.787" y2="416.843"/>
				<polyline fill="none" stroke="#FFA826" stroke-width="6" stroke-linecap="round" stroke-linejoin="round" points="
					445.215,415.738 450.307,414.702 452.586,410.031 				"/>
				
					<line fill="none" stroke="#FFA826" stroke-width="6" stroke-linecap="round" stroke-linejoin="round" stroke-dasharray="10.2968,10.2968" x1="456.494" y1="402.015" x2="477.996" y2="357.93"/>
				<polyline fill="none" stroke="#FFA826" stroke-width="6" stroke-linecap="round" stroke-linejoin="round" points="
					479.951,353.922 482.229,349.252 487.209,350.736 				"/>
				
					<line fill="none" stroke="#FFA826" stroke-width="6" stroke-linecap="round" stroke-linejoin="round" stroke-dasharray="13.2723,13.2723" x1="498.225" y1="354.022" x2="536.779" y2="365.52"/>
				
					<line fill="none" stroke="#FFA826" stroke-width="6" stroke-linecap="round" stroke-linejoin="round" x1="542.286" y1="367.163" x2="547.267" y2="368.649"/>
			</g>
		</g>
		
			<polyline fill="none" stroke="#C6C6C6" stroke-width="4" stroke-linecap="round" stroke-miterlimit="10" stroke-dasharray="0,6" points="
			58.15,448.519 80.142,369.306 120.906,301.709 158.56,403.26 174.385,342.059 233.525,287.484 194.311,438.631 296.277,447.789 
			274.563,342.025 399.23,291.827 415.289,358.76 384.862,430.644 488.529,290.337 453.323,414.67 548.43,369.063 520.476,448.93 		
			"/>
		
			<polyline fill="none" stroke="#C6C6C6" stroke-width="4" stroke-linecap="round" stroke-miterlimit="10" stroke-dasharray="0,6" points="
			550.689,368.649 490.976,290.299 401.216,287.636 338.461,393.371 296.277,447.789 177.957,344.687 76.787,368.268 
			157.728,401.634 		"/>
		
			<polyline fill="none" stroke="#D6D6D6" stroke-width="4" stroke-linecap="round" stroke-miterlimit="10" stroke-dasharray="0,6" points="
			120.146,304.751 233.867,285.354 273.042,345.448 415.289,358.76 482.229,349.252 518.742,451.182 384.482,428.362 
			297.003,450.421 		"/>
		
			<polyline fill="none" stroke="#C6C6C6" stroke-width="4" stroke-linecap="round" stroke-miterlimit="10" stroke-dasharray="0,6" points="
			158.687,401.738 195.453,440.913 60.555,448.795 		"/>
		<g>
			<circle fill="#FFFFFF" cx="59.918" cy="448.189" r="19.062"/>
			<g>
				<circle fill="#FFA927" cx="59.704" cy="448.074" r="15.309"/>
				<g>
					<g>
						<path fill="#3A2E10" d="M59.704,464.183c-8.883,0-16.109-7.227-16.109-16.109c0-8.883,7.226-16.109,16.109-16.109
							s16.109,7.226,16.109,16.109S68.586,464.183,59.704,464.183z M59.704,433.564c-8.001,0-14.51,6.509-14.51,14.51
							c0,8.001,6.509,14.51,14.51,14.51s14.51-6.509,14.51-14.51C74.214,440.073,67.704,433.564,59.704,433.564z"/>
					</g>
				</g>
				<g>
					<g>
						<path fill="#3A2E10" d="M59.706,459.023c-3.516,0-6.793-1.742-8.763-4.659l1.325-0.895c1.673,2.476,4.453,3.955,7.438,3.955
							c3.004,0,5.796-1.494,7.467-3.997l1.33,0.888C66.535,457.264,63.246,459.023,59.706,459.023z"/>
					</g>
				</g>
				<circle fill="#3A2E10" cx="52.929" cy="446.781" r="2.468"/>
				<circle fill="#3A2E10" cx="66.479" cy="446.781" r="2.468"/>
			</g>
		</g>
		<g>
			<circle fill="#FFFFFF" cx="156.851" cy="399.99" r="20.886"/>
			<g>
				<circle fill="#FFA927" cx="156.616" cy="399.865" r="16.775"/>
				<g>
					<g>
						<path fill="#3A2E10" d="M156.616,417.515c-9.732,0-17.65-7.918-17.65-17.65c0-9.732,7.918-17.65,17.65-17.65
							c9.732,0,17.65,7.918,17.65,17.65C174.266,409.597,166.349,417.515,156.616,417.515z M156.616,383.966
							c-8.767,0-15.898,7.132-15.898,15.898c0,8.767,7.131,15.898,15.898,15.898s15.898-7.132,15.898-15.898
							C172.514,391.098,165.382,383.966,156.616,383.966z"/>
					</g>
				</g>
				<g>
					<g>
						<path fill="#3A2E10" d="M156.619,411.862c-3.853,0-7.442-1.908-9.602-5.105l1.452-0.98c1.833,2.714,4.88,4.333,8.15,4.333
							c3.293,0,6.351-1.637,8.181-4.38l1.458,0.973C164.101,409.934,160.498,411.862,156.619,411.862z"/>
					</g>
				</g>
				<circle fill="#3A2E10" cx="149.193" cy="398.448" r="2.704"/>
				<circle fill="#3A2E10" cx="164.04" cy="398.448" r="2.704"/>
			</g>
		</g>
		<g>
			<circle fill="#FFFFFF" cx="212.9" cy="373.261" r="14.893"/>
			<g>
				<circle fill="#FFA927" cx="212.732" cy="373.171" r="11.961"/>
				<g>
					<g>
						<path fill="#3A2E10" d="M212.732,385.757c-6.939,0-12.585-5.646-12.585-12.585c0-6.94,5.646-12.585,12.585-12.585
							c6.94,0,12.585,5.646,12.585,12.585S219.673,385.757,212.732,385.757z M212.732,361.835c-6.251,0-11.336,5.086-11.336,11.336
							s5.085,11.336,11.336,11.336c6.251,0,11.336-5.086,11.336-11.336S218.983,361.835,212.732,361.835z"/>
					</g>
				</g>
				<g>
					<g>
						<path fill="#3A2E10" d="M212.734,381.726c-2.747,0-5.307-1.361-6.847-3.64l1.035-0.699c1.307,1.935,3.479,3.09,5.812,3.09
							c2.348,0,4.529-1.168,5.833-3.123l1.039,0.694C218.069,380.35,215.501,381.726,212.734,381.726z"/>
					</g>
				</g>
				<circle fill="#3A2E10" cx="207.44" cy="372.161" r="1.928"/>
				<circle fill="#3A2E10" cx="218.026" cy="372.161" r="1.928"/>
			</g>
		</g>
		<g>
			<circle fill="#FFFFFF" cx="275.697" cy="347.447" r="22.383"/>
			<g>
				<circle fill="#FFA927" cx="275.445" cy="347.313" r="17.976"/>
				<g>
					<g>
						<path fill="#3A2E10" d="M275.445,366.229c-10.43,0-18.915-8.485-18.915-18.915s8.485-18.915,18.915-18.915
							c10.43,0,18.916,8.485,18.916,18.915S285.875,366.229,275.445,366.229z M275.445,330.276c-9.395,0-17.037,7.643-17.037,17.038
							c0,9.395,7.642,17.038,17.037,17.038c9.395,0,17.038-7.643,17.038-17.038C292.483,337.919,284.84,330.276,275.445,330.276z"/>
					</g>
				</g>
				<g>
					<g>
						<path fill="#3A2E10" d="M275.448,360.17c-4.129,0-7.976-2.045-10.29-5.47l1.556-1.051c1.964,2.908,5.229,4.644,8.734,4.644
							c3.529,0,6.806-1.755,8.768-4.693l1.562,1.042C283.467,358.104,279.605,360.17,275.448,360.17z"/>
					</g>
				</g>
				<circle fill="#3A2E10" cx="267.49" cy="345.795" r="2.898"/>
				<circle fill="#3A2E10" cx="283.4" cy="345.795" r="2.898"/>
			</g>
		</g>
		<g>
			<circle fill="#FFFFFF" cx="385.757" cy="428.305" r="16.923"/>
			<g>
				<circle fill="#FFA927" cx="385.567" cy="428.203" r="13.592"/>
				<g>
					<g>
						<path fill="#3A2E10" d="M385.567,442.504c-7.886,0-14.301-6.415-14.301-14.302c0-7.886,6.415-14.302,14.301-14.302
							c7.886,0,14.302,6.415,14.302,14.302C399.869,436.089,393.453,442.504,385.567,442.504z M385.567,415.321
							c-7.103,0-12.881,5.779-12.881,12.882c0,7.103,5.779,12.881,12.881,12.881c7.103,0,12.882-5.779,12.882-12.881
							C398.449,421.1,392.671,415.321,385.567,415.321z"/>
					</g>
				</g>
				<g>
					<g>
						<path fill="#3A2E10" d="M385.569,437.924c-3.122,0-6.031-1.546-7.78-4.137l1.176-0.795c1.485,2.199,3.954,3.511,6.604,3.511
							c2.668,0,5.146-1.327,6.629-3.549l1.18,0.788C391.632,436.361,388.712,437.924,385.569,437.924z"/>
					</g>
				</g>
				<circle fill="#3A2E10" cx="379.553" cy="427.055" r="2.191"/>
				<circle fill="#3A2E10" cx="391.582" cy="427.055" r="2.191"/>
			</g>
		</g>
		<g>
			<circle fill="#FFFFFF" cx="479.642" cy="350.15" r="15.436"/>
			<g>
				<circle fill="#FFA927" cx="479.469" cy="350.057" r="12.397"/>
				<g>
					<g>
						<path fill="#3A2E10" d="M479.469,363.102c-7.193,0-13.045-5.852-13.045-13.045c0-7.193,5.852-13.045,13.045-13.045
							c7.193,0,13.045,5.852,13.045,13.045C492.514,357.25,486.662,363.102,479.469,363.102z M479.469,338.307
							c-6.479,0-11.75,5.271-11.75,11.75s5.271,11.75,11.75,11.75c6.479,0,11.75-5.271,11.75-11.75S485.948,338.307,479.469,338.307
							z"/>
					</g>
				</g>
				<g>
					<g>
						<path fill="#3A2E10" d="M479.471,358.924c-2.848,0-5.501-1.41-7.097-3.773l1.073-0.725c1.355,2.006,3.606,3.203,6.024,3.203
							c2.434,0,4.694-1.21,6.046-3.237l1.077,0.719C485.001,357.499,482.338,358.924,479.471,358.924z"/>
					</g>
				</g>
				<circle fill="#3A2E10" cx="473.982" cy="349.01" r="1.998"/>
				<circle fill="#3A2E10" cx="484.955" cy="349.01" r="1.998"/>
			</g>
		</g>
		<g>
			<circle fill="#FFFFFF" cx="340.231" cy="392.122" r="9.595"/>
			<g>
				<circle fill="#FFA927" cx="340.123" cy="392.064" r="7.706"/>
				<g>
					<g>
						<path fill="#3A2E10" d="M340.123,400.173c-4.471,0-8.108-3.638-8.108-8.108s3.638-8.108,8.108-8.108s8.108,3.638,8.108,8.108
							S344.593,400.173,340.123,400.173z M340.123,384.761c-4.027,0-7.303,3.276-7.303,7.304c0,4.027,3.276,7.304,7.303,7.304
							c4.026,0,7.304-3.276,7.304-7.304S344.15,384.761,340.123,384.761z"/>
					</g>
				</g>
				<g>
					<g>
						<path fill="#3A2E10" d="M340.123,397.575c-1.77,0-3.419-0.876-4.411-2.345l0.667-0.45c0.842,1.246,2.241,1.991,3.744,1.991
							c1.512,0,2.918-0.752,3.758-2.012l0.67,0.447C343.561,396.689,341.906,397.575,340.123,397.575z"/>
					</g>
				</g>
				<circle fill="#3A2E10" cx="336.713" cy="391.413" r="1.242"/>
				<circle fill="#3A2E10" cx="343.532" cy="391.413" r="1.242"/>
			</g>
		</g>
		<g>
			<circle fill="#FFFFFF" cx="542.683" cy="364.949" r="17.833"/>
			<g>
				<circle fill="#FFA927" cx="542.482" cy="364.842" r="14.323"/>
				<g>
					<g>
						<path fill="#3A2E10" d="M542.482,379.912c-8.31,0-15.07-6.761-15.07-15.071c0-8.31,6.761-15.07,15.07-15.07
							c8.31,0,15.071,6.761,15.071,15.07C557.553,373.151,550.792,379.912,542.482,379.912z M542.482,351.268
							c-7.485,0-13.574,6.09-13.574,13.574c0,7.485,6.09,13.574,13.574,13.574s13.574-6.09,13.574-13.574
							C556.057,357.357,549.967,351.268,542.482,351.268z"/>
					</g>
				</g>
				<g>
					<g>
						<path fill="#3A2E10" d="M542.484,375.085c-3.289,0-6.355-1.629-8.198-4.359l1.239-0.838c1.565,2.317,4.167,3.7,6.959,3.7
							c2.811,0,5.423-1.398,6.985-3.74l1.245,0.831C548.873,373.439,545.797,375.085,542.484,375.085z"/>
					</g>
				</g>
				<circle fill="#3A2E10" cx="536.144" cy="363.632" r="2.309"/>
				<circle fill="#3A2E10" cx="548.82" cy="363.632" r="2.309"/>
			</g>
		</g>
		<g>
			<circle fill="#FFFFFF" cx="448.854" cy="408.569" r="20.901"/>
			<g>
				<circle fill="#FFA927" cx="448.619" cy="408.443" r="16.787"/>
				<g>
					<g>
						<path fill="#3A2E10" d="M448.619,426.107c-9.739,0-17.663-7.924-17.663-17.663c0-9.739,7.924-17.663,17.663-17.663
							s17.663,7.924,17.663,17.663C466.282,418.183,458.358,426.107,448.619,426.107z M448.619,392.534
							c-8.773,0-15.909,7.138-15.909,15.91c0,8.773,7.137,15.91,15.909,15.91c8.773,0,15.91-7.138,15.91-15.91
							C464.529,399.671,457.392,392.534,448.619,392.534z"/>
					</g>
				</g>
				<g>
					<g>
						<path fill="#3A2E10" d="M448.621,420.45c-3.856,0-7.448-1.91-9.609-5.108l1.453-0.981c1.834,2.715,4.883,4.337,8.156,4.337
							c3.295,0,6.355-1.639,8.187-4.383l1.458,0.973C456.109,418.519,452.503,420.45,448.621,420.45z"/>
					</g>
				</g>
				<circle fill="#3A2E10" cx="441.189" cy="407.025" r="2.706"/>
				<circle fill="#3A2E10" cx="456.047" cy="407.025" r="2.706"/>
			</g>
		</g>
		<polygon opacity="0.6" fill="#FFFFFF" enable-background="new    " points="100.341,420.258 94.835,422.997 96.182,425.704 
			101.687,422.965 102.618,424.836 107.986,418.143 99.41,418.387 		"/>
		<polygon opacity="0.6" fill="#FFFFFF" enable-background="new    " points="235.706,356.437 230.201,359.176 231.548,361.883 
			237.053,359.144 237.984,361.015 243.352,354.322 234.776,354.566 		"/>
		<polygon opacity="0.6" fill="#FFFFFF" enable-background="new    " points="366.472,402.479 361.648,398.667 359.773,401.039 
			364.598,404.852 363.302,406.491 371.645,408.494 367.768,400.84 		"/>
		<polygon opacity="0.6" fill="#FFFFFF" enable-background="new    " points="513.119,349.215 507.391,346.979 506.291,349.795 
			512.019,352.032 511.259,353.978 519.823,353.456 513.878,347.269 		"/>
		<g>
			<circle fill="#FFFFFF" cx="121.451" cy="307.381" r="16.342"/>
			<g>
				<circle fill="#FF5A27" cx="121.447" cy="307.422" r="12.742"/>
				<g>
					<g>
						<path fill="#3A2E10" d="M121.447,320.83c-7.393,0-13.407-6.014-13.407-13.407s6.014-13.407,13.407-13.407
							c7.393,0,13.407,6.014,13.407,13.407S128.84,320.83,121.447,320.83z M121.447,295.346c-6.659,0-12.077,5.417-12.077,12.077
							s5.417,12.077,12.077,12.077c6.659,0,12.077-5.417,12.077-12.077C133.523,300.763,128.106,295.346,121.447,295.346z"/>
					</g>
				</g>
				<circle fill="#3A2E10" cx="115.808" cy="304.766" r="2.054"/>
				<circle fill="#3A2E10" cx="127.086" cy="304.766" r="2.054"/>
				<ellipse fill="#3A2E10" cx="121.447" cy="313.209" rx="2.789" ry="3.363"/>
			</g>
		</g>
		<g>
			<circle fill="#FFFFFF" cx="233.585" cy="287.778" r="14.284"/>
			<g>
				<circle fill="#FF5A27" cx="233.581" cy="287.814" r="11.138"/>
				<g>
					<g>
						<path fill="#3A2E10" d="M233.581,299.534c-6.462,0-11.719-5.257-11.719-11.719c0-6.462,5.257-11.719,11.719-11.719
							s11.719,5.257,11.719,11.719C245.3,294.276,240.043,299.534,233.581,299.534z M233.581,277.258
							c-5.821,0-10.556,4.735-10.556,10.556c0,5.821,4.736,10.556,10.556,10.556c5.821,0,10.556-4.735,10.556-10.556
							C244.137,281.993,239.402,277.258,233.581,277.258z"/>
					</g>
				</g>
				<circle fill="#3A2E10" cx="228.652" cy="285.492" r="1.795"/>
				<circle fill="#3A2E10" cx="238.51" cy="285.492" r="1.795"/>
				<ellipse fill="#3A2E10" cx="233.581" cy="292.872" rx="2.438" ry="2.94"/>
			</g>
		</g>
		<g>
			<circle fill="#FFFFFF" cx="80.584" cy="369.607" r="12.227"/>
			<g>
				<circle fill="#FF5A27" cx="80.581" cy="369.638" r="9.534"/>
				<g>
					<g>
						<path fill="#3A2E10" d="M80.581,379.669c-5.532,0-10.031-4.5-10.031-10.031c0-5.532,4.5-10.031,10.031-10.031
							c5.532,0,10.031,4.5,10.031,10.031C90.613,375.169,86.113,379.669,80.581,379.669z M80.581,360.602
							c-4.983,0-9.036,4.053-9.036,9.036c0,4.983,4.053,9.036,9.036,9.036c4.983,0,9.036-4.053,9.036-9.036
							C89.617,364.655,85.564,360.602,80.581,360.602z"/>
					</g>
				</g>
				<circle fill="#3A2E10" cx="76.363" cy="367.65" r="1.536"/>
				<circle fill="#3A2E10" cx="84.8" cy="367.65" r="1.536"/>
				<ellipse fill="#3A2E10" cx="80.581" cy="373.966" rx="2.086" ry="2.516"/>
			</g>
		</g>
		<g>
			<circle fill="#FFFFFF" cx="176.571" cy="345.375" r="12.227"/>
			<g>
				<circle fill="#FF5A27" cx="176.569" cy="345.406" r="9.534"/>
				<g>
					<g>
						<path fill="#3A2E10" d="M176.568,355.438c-5.532,0-10.031-4.5-10.031-10.031c0-5.532,4.5-10.031,10.031-10.031
							c5.532,0,10.031,4.5,10.031,10.031S182.1,355.438,176.568,355.438z M176.568,336.371c-4.983,0-9.036,4.053-9.036,9.036
							c0,4.983,4.053,9.036,9.036,9.036c4.983,0,9.036-4.053,9.036-9.036C185.605,340.424,181.551,336.371,176.568,336.371z"/>
					</g>
				</g>
				<circle fill="#3A2E10" cx="172.35" cy="343.419" r="1.536"/>
				<circle fill="#3A2E10" cx="180.787" cy="343.419" r="1.536"/>
				<ellipse fill="#3A2E10" cx="176.569" cy="349.736" rx="2.086" ry="2.516"/>
			</g>
		</g>
		<g>
			<circle fill="#FFFFFF" cx="140.418" cy="354.624" r="6.28"/>
			<g>
				<circle fill="#FF5A27" cx="140.417" cy="354.64" r="4.897"/>
				<g>
					<g>
						<path fill="#3A2E10" d="M140.417,359.793c-2.842,0-5.152-2.312-5.152-5.152c0-2.841,2.312-5.152,5.152-5.152
							s5.152,2.312,5.152,5.152C145.569,357.481,143.257,359.793,140.417,359.793z M140.417,349.999
							c-2.559,0-4.641,2.082-4.641,4.641c0,2.559,2.082,4.641,4.641,4.641s4.641-2.082,4.641-4.641
							C145.057,352.081,142.976,349.999,140.417,349.999z"/>
					</g>
				</g>
				<circle fill="#3A2E10" cx="138.25" cy="353.619" r="0.789"/>
				<circle fill="#3A2E10" cx="142.584" cy="353.619" r="0.789"/>
				<ellipse fill="#3A2E10" cx="140.417" cy="356.864" rx="1.072" ry="1.292"/>
			</g>
		</g>
		<g>
			<circle fill="#FFFFFF" cx="288.657" cy="444.131" r="14.226"/>
			<g>
				<circle fill="#FF5A27" cx="288.654" cy="444.167" r="11.092"/>
				<g>
					<g>
						<path fill="#3A2E10" d="M288.654,455.839c-6.436,0-11.672-5.236-11.672-11.672s5.236-11.672,11.672-11.672
							s11.672,5.236,11.672,11.672S295.09,455.839,288.654,455.839z M288.654,433.655c-5.797,0-10.513,4.716-10.513,10.513
							c0,5.797,4.716,10.513,10.513,10.513s10.513-4.716,10.513-10.513C299.167,438.37,294.451,433.655,288.654,433.655z"/>
					</g>
				</g>
				<circle fill="#3A2E10" cx="283.745" cy="441.855" r="1.788"/>
				<circle fill="#3A2E10" cx="293.563" cy="441.855" r="1.788"/>
				<ellipse fill="#3A2E10" cx="288.654" cy="449.205" rx="2.428" ry="2.927"/>
			</g>
		</g>
		<g>
			<circle fill="#FFFFFF" cx="195.654" cy="435.009" r="15.996"/>
			<g>
				<circle fill="#FF5A27" cx="195.65" cy="435.05" r="12.473"/>
				<g>
					<g>
						<path fill="#3A2E10" d="M195.65,448.174c-7.237,0-13.124-5.888-13.124-13.124c0-7.236,5.888-13.124,13.124-13.124
							s13.124,5.888,13.124,13.124C208.774,442.286,202.887,448.174,195.65,448.174z M195.65,423.228
							c-6.518,0-11.821,5.303-11.821,11.821c0,6.518,5.303,11.821,11.821,11.821c6.518,0,11.821-5.303,11.821-11.821
							C207.472,428.532,202.169,423.228,195.65,423.228z"/>
					</g>
				</g>
				<circle fill="#3A2E10" cx="190.131" cy="432.45" r="2.01"/>
				<circle fill="#3A2E10" cx="201.17" cy="432.45" r="2.01"/>
				<ellipse fill="#3A2E10" cx="195.65" cy="440.714" rx="2.73" ry="3.292"/>
			</g>
		</g>
		<g>
			<circle fill="#FFFFFF" cx="397.222" cy="292.682" r="12.567"/>
			<g>
				<circle fill="#FF5A27" cx="397.218" cy="292.714" r="9.799"/>
				<g>
					<g>
						<path fill="#3A2E10" d="M397.218,303.025c-5.685,0-10.311-4.625-10.311-10.311c0-5.686,4.625-10.311,10.311-10.311
							c5.685,0,10.311,4.625,10.311,10.311C407.529,298.399,402.904,303.025,397.218,303.025z M397.218,283.426
							c-5.121,0-9.287,4.166-9.287,9.287s4.166,9.287,9.287,9.287s9.287-4.166,9.287-9.287
							C406.506,287.593,402.34,283.426,397.218,283.426z"/>
					</g>
				</g>
				<circle fill="#3A2E10" cx="392.882" cy="290.671" r="1.58"/>
				<circle fill="#3A2E10" cx="401.555" cy="290.671" r="1.58"/>
				<ellipse fill="#3A2E10" cx="397.218" cy="297.163" rx="2.144" ry="2.586"/>
			</g>
		</g>
		<g>
			<circle fill="#FFFFFF" cx="361.818" cy="354.868" r="12.338"/>
			<g>
				<circle fill="#FF5A27" cx="361.816" cy="354.9" r="9.621"/>
				<g>
					<g>
						<path fill="#3A2E10" d="M361.816,365.023c-5.582,0-10.123-4.541-10.123-10.123s4.541-10.123,10.123-10.123
							s10.123,4.541,10.123,10.123C371.939,360.482,367.398,365.023,361.816,365.023z M361.816,345.781
							c-5.028,0-9.118,4.091-9.118,9.118c0,5.028,4.091,9.118,9.118,9.118c5.028,0,9.118-4.091,9.118-9.118
							C370.934,349.872,366.843,345.781,361.816,345.781z"/>
					</g>
				</g>
				<circle fill="#3A2E10" cx="357.558" cy="352.894" r="1.551"/>
				<circle fill="#3A2E10" cx="366.074" cy="352.894" r="1.551"/>
				<ellipse fill="#3A2E10" cx="361.816" cy="359.269" rx="2.105" ry="2.539"/>
			</g>
		</g>
		<g>
			<circle fill="#FFFFFF" cx="413.123" cy="359.271" r="10.509"/>
			<g>
				<circle fill="#FF5A27" cx="413.121" cy="359.298" r="8.195"/>
				<g>
					<g>
						<path fill="#3A2E10" d="M413.121,367.921c-4.755,0-8.623-3.868-8.623-8.623c0-4.755,3.868-8.623,8.623-8.623
							s8.623,3.868,8.623,8.623C421.744,364.053,417.876,367.921,413.121,367.921z M413.121,351.531
							c-4.283,0-7.767,3.484-7.767,7.767c0,4.283,3.484,7.767,7.767,7.767s7.767-3.484,7.767-7.767
							C420.888,355.015,417.404,351.531,413.121,351.531z"/>
					</g>
				</g>
				<circle fill="#3A2E10" cx="409.495" cy="357.589" r="1.321"/>
				<circle fill="#3A2E10" cx="416.747" cy="357.589" r="1.321"/>
				<ellipse fill="#3A2E10" cx="413.121" cy="363.019" rx="1.794" ry="2.163"/>
			</g>
		</g>
		<g>
			<circle fill="#FFFFFF" cx="440.285" cy="355.06" r="7.309"/>
			<g>
				<circle fill="#FF5A27" cx="440.283" cy="355.079" r="5.7"/>
				<g>
					<g>
						<path fill="#3A2E10" d="M440.283,361.075c-3.307,0-5.997-2.69-5.997-5.997s2.69-5.997,5.997-5.997
							c3.307,0,5.997,2.69,5.997,5.997C446.28,358.385,443.59,361.075,440.283,361.075z M440.283,349.677
							c-2.979,0-5.402,2.423-5.402,5.402c0,2.979,2.423,5.402,5.402,5.402c2.978,0,5.402-2.423,5.402-5.402
							C445.685,352.1,443.262,349.677,440.283,349.677z"/>
					</g>
				</g>
				<circle fill="#3A2E10" cx="437.761" cy="353.89" r="0.919"/>
				<circle fill="#3A2E10" cx="442.806" cy="353.89" r="0.919"/>
				<ellipse fill="#3A2E10" cx="440.283" cy="357.667" rx="1.247" ry="1.504"/>
			</g>
		</g>
		<g>
			<circle fill="#FFFFFF" cx="488.112" cy="294.536" r="9.068"/>
			<g>
				<circle fill="#FF5A27" cx="488.109" cy="294.559" r="7.071"/>
				<g>
					<g>
						<path fill="#3A2E10" d="M488.109,301.999c-4.103,0-7.44-3.338-7.44-7.44c0-4.103,3.338-7.44,7.44-7.44
							c4.103,0,7.44,3.338,7.44,7.44S492.212,301.999,488.109,301.999z M488.109,287.857c-3.695,0-6.702,3.006-6.702,6.702
							s3.006,6.702,6.702,6.702c3.695,0,6.701-3.006,6.701-6.702C494.811,290.863,491.805,287.857,488.109,287.857z"/>
					</g>
				</g>
				<circle fill="#3A2E10" cx="484.98" cy="293.085" r="1.14"/>
				<circle fill="#3A2E10" cx="491.239" cy="293.085" r="1.14"/>
				<ellipse fill="#3A2E10" cx="488.109" cy="297.77" rx="1.548" ry="1.866"/>
			</g>
		</g>
		<g>
			<circle fill="#FFFFFF" cx="516.663" cy="449.342" r="12.908"/>
			<g>
				<circle fill="#FF5A27" cx="516.659" cy="449.375" r="10.065"/>
				<g>
					<g>
						<path fill="#3A2E10" d="M516.66,459.966c-5.84,0-10.591-4.751-10.591-10.591c0-5.84,4.751-10.591,10.591-10.591
							c5.84,0,10.591,4.751,10.591,10.591C527.251,455.215,522.5,459.966,516.66,459.966z M516.66,439.835
							c-5.26,0-9.539,4.279-9.539,9.539c0,5.26,4.279,9.539,9.539,9.539c5.26,0,9.539-4.279,9.539-9.539
							C526.2,444.114,521.92,439.835,516.66,439.835z"/>
					</g>
				</g>
				<circle fill="#3A2E10" cx="512.206" cy="447.277" r="1.622"/>
				<circle fill="#3A2E10" cx="521.114" cy="447.277" r="1.622"/>
				<ellipse fill="#3A2E10" cx="516.659" cy="453.946" rx="2.203" ry="2.656"/>
			</g>
		</g>
	</g>
</g>
</svg>
