<?xml version="1.0" encoding="utf-8"?>
<!-- Generator: Adobe Illustrator 17.0.0, SVG Export Plug-In . SVG Version: 6.00 Build 0)  -->
<!DOCTYPE svg PUBLIC "-//W3C//DTD SVG 1.1//EN" "http://www.w3.org/Graphics/SVG/1.1/DTD/svg11.dtd">
<svg version="1.1" id="Слой_1" xmlns="http://www.w3.org/2000/svg" xmlns:xlink="http://www.w3.org/1999/xlink" x="0px" y="0px"
	 width="600px" height="465.576px" viewBox="0 0 600 465.576" enable-background="new 0 0 600 465.576" xml:space="preserve">
<g>
	<path opacity="0.1" fill="#040404" enable-background="new    " d="M545.952,249.848c1.301-5.542,1.996-11.336,1.996-17.299h-3.622
		l-2.133-3.372l0.007-25.32h-0.007c0-1.81,0-3.973,0-5.243c-0.01,0.029-0.026,0.057-0.036,0.086c0.023-0.219,0.036-0.439,0.036-0.66
		c0-7.369-12.569-13.396-28.488-13.907l-30.388-48.048c5.442-1.657,9.403-6.712,9.403-12.696c0-7.331-5.943-13.272-13.273-13.272
		c-6.203,0-11.396,4.26-12.852,10.011l-121.356,18.494v-3.361v-2.012c0,0-2.693-12.558-12.319-16.634
		c2.766-1.742,4.573-5.173,4.573-11.332c0-10.111-10.863-23.739-10.863-23.739s-10.866,13.627-10.866,23.737
		c0,6.158,1.807,9.588,4.572,11.332c-9.627,4.075-12.317,16.634-12.317,16.634v2.012v9.033l-133.732,20.38
		c-2.41-3.342-6.327-5.526-10.763-5.526c-7.331,0-13.272,5.942-13.272,13.272c0,6.305,4.401,11.573,10.296,12.925l-21.486,33.115
		H116.44v34.863L98.105,281.58h-3.1c0,24.434,11.585,46.029,29.309,59.085c11.186,8.24,24.816,13.08,39.525,13.08
		c38.016,0,68.835-32.309,68.835-72.165h-3.626l-13.003-20.56v-42.562h-26.918l-21.206-33.53c5.059-1.779,8.709-6.526,8.857-12.157
		l131.239-20v17.895v0.402c0.486,0.336,0.914,0.684,1.316,1.035c1.549,1.838,3.914,5.171,3.914,8.421h0.321
		c-1.487,1.852-2.373,3.455-2.373,3.455c2.316-5.021-2.985-11.888-10.964-8.523s1.348,18.853,1.348,18.853s-2.032,0.357-3.52,2.078
		c-2.766-5.033-6.37-9.823-11.061-13.922c-23.13-20.212-41.903,11.411-41.903,11.411c-3.529-0.331-8.16,2.084-9.589,3.262
		c-1.43,1.176-2.273,2.924-1.389,4.068c0.884,1.144,2.329,0.831,4.187-0.493c1.858-1.324,5.392-1.145,5.392-1.145
		s-2.354,1.247-4.354,3.011c-2,1.763-3.992,4.105-2.961,5.392c1.03,1.287,2.912,1.406,4.48-0.207c1.568-1.613,5.77-3.587,5.77-3.587
		c-0.963,0.989-5.734,6.19-3.178,7.962c2.555,1.772,6.778-4.331,7.793-5.227c0.365-0.323,0.837-0.693,1.323-1.103
		c0.427,0.392,1.581,1.459,2.912,2.753c0.963-0.987-0.299-4.39-0.679-5.345c0.626-1.464,11.6-26.39,27.524-12.865
		c7.656,6.502,11.319,18.471,13.347,29.763c-4.252,11.557-7.525,22.931-6.609,25.344c0.739,1.948,5.002,4.943,9.934,7.691
		c0.911,2.814,1.464,5.757,1.745,8.72c-0.404,0.466-0.819,0.95-1.235,1.448c0,0,0.591,0.614,1.423,1.452
		c0.087,2.24,0.042,4.469-0.105,6.643c-0.462,0.27-0.935,0.542-1.407,0.803c0,0,0.477,0.83,1.143,2.187
		c-0.499,4.589-1.375,8.8-2.225,12.147c-30.137,10.69-52.168-15.632-52.168-15.632s1.789-2.11,0.232-4.909
		c-1.557-2.798-5.689-2.965-5.689-2.965s-6.454-12.266-8.201-13.109c-1.747-0.843-5.59,0.982,1.373,11.603
		c0,0-5.95-0.224-4.491,4.618c0,0-4.077,2.453-1.825,5.499c1.65,2.232,6.346,6.271,10.4,8.544c0.042,1.307,0.557,2.111,0.557,2.111
		c21.057,17.007,39.641,20.276,54.676,17.526c-4.638,4.728-9.87,11.862-10.686,20.547c-1.511,16.072,11.039,44.963,23.115,55.424
		c0,0,0.35,0.014,0.885-0.134c-0.001,0.073-0.005,0.144-0.005,0.216v21.846c-0.348,0.573-0.578,0.921-0.578,0.921
		s0.216,0.196,0.578,0.487v2.883h-12.573c-7.632,0-13.971,5.456-15.381,12.674h-27.758c-10.01,0-18.122,8.114-18.122,18.123v0.185
		h187.901v-0.185c0-10.009-8.115-18.123-18.123-18.123h-27.756c-1.407-7.218-7.748-12.674-15.379-12.674h-12.574v-26.138
		c0-6.87-3.822-12.846-9.457-15.919v-27.405c3.812,2.367,8.657,3.652,14.861,2.884c23.833-2.95,33.273-39.184,33.273-39.184
		s7.878-0.323,11.235,1.859s6.775,6.588,6.775,6.588s4.634-2.566,5.46-5.614c0,0-13.473-11.223-19.842-12.153l-2.769,1.088
		l0.131-3.654c0,0-4.717-3.508-7.617-3.166c-2.9,0.342-2.565,8.797-2.565,8.797c1.061,13.868-11.269,31.826-24.094,36.214
		c-7.115,2.435-11.95-3.296-14.848-8.88v-21.547c1.215-6.076,2.252-14.634,1.797-25.226c-0.252-2.923-0.907-5.757-1.797-8.43
		v-22.421c14.668-4.682,16.262-20.539,16.262-20.539s6.072-0.085,5.809-4.192c-0.263-4.107-5.114-2.682-5.114-2.682
		s7.828-4.091,5.386-8.177c-2.443-4.087-7.783,1.844-7.783,1.844c-1.582-7.77-8.184-12.551-14.56-15.42v-10.027h2.715
		c0-3.249,2.366-6.583,3.917-8.421c0.401-0.351,0.829-0.699,1.316-1.035v-0.402V147.1L467.2,128.513
		c1.56,3.723,4.772,6.572,8.717,7.659l-48.127,74.175c-6.185,2.551-10.07,6.234-10.07,10.331c0,0.222,0.014,0.441,0.036,0.66
		c-0.01-0.029-0.026-0.057-0.036-0.086c0,1.125,0,2.953,0,4.614l-4.336,6.682h-3.105c0,24.435,11.585,46.03,29.309,59.085
		c11.186,8.24,24.816,13.08,39.526,13.08c31.946,0,58.804-22.815,66.569-53.751l0.546-0.158L545.952,249.848z M116.44,262.387
		v16.962v2.232h-12.454L116.44,262.387z M223.211,281.582h-7.165v-2.232v-9.096L223.211,281.582z M144.942,218.46l19.419-29.929
		l18.929,29.929H144.942z M301.326,203.339c0.384,0.086,0.767,0.159,1.14,0.221c-0.19,0.408-0.382,0.826-0.574,1.248
		C301.71,204.319,301.521,203.829,301.326,203.339z M290.221,322.137c0.816-10.333,9.058-17.901,13.095-21.018
		c2.925,2.003,8.294,3.259,12.648,4.458v54.394c-3.028,1.652-5.53,4.144-7.199,7.161
		C302.962,359.751,288.825,339.797,290.221,322.137z M479.639,139.499l28.273,44.705c-15.14,0.854-26.86,6.719-26.86,13.835
		c0,0.222,0.014,0.441,0.036,0.66c-0.01-0.029-0.026-0.057-0.036-0.086c0,1.251,0,3.368,0,5.162h-0.031l0.006,9.314l-5.224,1.514
		c-4.953-4.646-15.407-7.853-27.513-7.871c-4.714,0.007-9.176,0.499-13.161,1.368L479.639,139.499z"/>
	
		<rect x="115.127" y="100.788" transform="matrix(-0.9886 0.1507 -0.1507 -0.9886 614.3972 164.628)" fill="#A3A3A3" width="371.668" height="9.613"/>
	<g>
		<g>
			<circle fill="#FFFFFF" cx="481.132" cy="79.269" r="15.22"/>
			<circle fill="#CCCBC9" cx="481.132" cy="79.269" r="10.012"/>
		</g>
		<g>
			<path fill="#FFFFFF" d="M555.265,212.141c-0.937,0-1.855-0.467-2.393-1.317L481.353,97.742l-72.635,111.948
				c-0.85,1.311-2.601,1.684-3.913,0.834c-1.311-0.85-1.684-2.602-0.833-3.912l75.038-115.653c0.525-0.808,1.433-1.29,2.389-1.289
				c0.964,0.006,1.859,0.502,2.374,1.317l73.879,116.813c0.835,1.321,0.441,3.068-0.879,3.903
				C556.305,211.999,555.782,212.141,555.265,212.141z"/>
		</g>
		<g>
			<polygon fill="#D9A728" points="553.077,210.975 553.087,171.537 482.937,171.443 482.963,211.722 			"/>
			<g>
				<path fill="#BF902D" d="M518.025,188.676c-19.37,0.029-35.052,7.174-35.052,15.988c0,8.814,15.682,15.965,35.052,15.99
					c19.369-0.025,35.053-7.176,35.053-15.99C553.079,195.85,537.395,188.704,518.025,188.676z"/>
				<path fill="#FDD903" d="M518.025,191.344c-16.139,0.018-29.204,5.338-29.204,11.895s13.065,11.874,29.204,11.896
					c16.138-0.022,29.203-5.34,29.203-11.896C547.229,196.682,534.163,191.362,518.025,191.344z"/>
				<path fill="#D4B629" d="M518.025,215.366l-0.029-0.231v-0.235h0.029c0.46,0,0.917-0.003,1.371-0.015l0.008,0.467
					C518.946,215.364,518.487,215.365,518.025,215.366z M516.587,215.352c-0.472-0.012-0.944-0.026-1.41-0.045l0.022-0.466
					c0.462,0.021,0.929,0.034,1.397,0.044L516.587,215.352z M520.812,215.312l-0.017-0.466c0.469-0.02,0.937-0.042,1.401-0.07
					l0.026,0.466C521.757,215.269,521.289,215.293,520.812,215.312z M513.767,215.238c-0.472-0.03-0.939-0.063-1.405-0.1
					l0.036-0.463c0.463,0.035,0.928,0.069,1.398,0.097L513.767,215.238z M523.628,215.143l-0.036-0.466
					c0.469-0.035,0.934-0.077,1.396-0.124l0.046,0.46C524.571,215.064,524.103,215.106,523.628,215.143z M510.957,215.01
					c-0.469-0.048-0.938-0.101-1.402-0.158l0.061-0.461c0.457,0.058,0.921,0.111,1.389,0.156L510.957,215.01z M526.435,214.861
					l-0.056-0.462c0.469-0.057,0.931-0.119,1.388-0.184l0.068,0.46C527.375,214.74,526.908,214.804,526.435,214.861z
					 M508.16,214.665c-0.472-0.07-0.935-0.141-1.392-0.22l0.075-0.46c0.457,0.08,0.917,0.151,1.384,0.219L508.16,214.665z
					 M529.227,214.454l-0.075-0.459c0.463-0.077,0.924-0.161,1.374-0.251l0.092,0.459
					C530.16,214.291,529.696,214.373,529.227,214.454z M505.376,214.189c-0.468-0.087-0.927-0.187-1.382-0.286l0.103-0.455
					c0.448,0.099,0.908,0.195,1.37,0.285L505.376,214.189z M531.996,213.915l-0.1-0.454c0.462-0.106,0.916-0.211,1.362-0.325
					l0.113,0.454C532.922,213.703,532.462,213.811,531.996,213.915z M502.625,213.577c-0.464-0.116-0.919-0.242-1.366-0.366
					l0.128-0.448c0.441,0.129,0.892,0.248,1.348,0.364L502.625,213.577z M534.735,213.226l-0.125-0.45
					c0.456-0.127,0.902-0.261,1.339-0.401l0.14,0.443C535.648,212.959,535.197,213.097,534.735,213.226z M499.906,212.801
					c-0.457-0.145-0.905-0.295-1.339-0.454l0.158-0.437c0.431,0.155,0.872,0.303,1.321,0.447L499.906,212.801z M537.428,212.365
					l-0.157-0.437c0.447-0.159,0.882-0.327,1.305-0.499l0.176,0.431C538.322,212.034,537.881,212.202,537.428,212.365z
					 M497.247,211.839c-0.441-0.179-0.878-0.37-1.298-0.566l0.195-0.42c0.413,0.191,0.846,0.377,1.276,0.553L497.247,211.839z
					 M540.048,211.297l-0.195-0.423c0.429-0.199,0.851-0.407,1.248-0.619l0.218,0.413
					C540.915,210.883,540.487,211.093,540.048,211.297z M494.681,210.639c-0.429-0.226-0.844-0.464-1.233-0.708l0.248-0.396
					c0.379,0.236,0.787,0.471,1.203,0.693L494.681,210.639z M542.55,209.966l-0.243-0.396c0.406-0.251,0.794-0.511,1.149-0.776
					l0.276,0.376C543.365,209.437,542.968,209.704,542.55,209.966z M492.269,209.133c-0.399-0.297-0.77-0.6-1.102-0.902l0.313-0.347
					c0.322,0.294,0.679,0.588,1.066,0.876L492.269,209.133z M544.841,208.268l-0.315-0.344c0.354-0.321,0.675-0.653,0.956-0.984
					l0.356,0.299C545.545,207.588,545.208,207.933,544.841,208.268z M490.176,207.193c-0.325-0.387-0.602-0.786-0.825-1.187
					l0.404-0.227c0.212,0.374,0.473,0.75,0.776,1.117L490.176,207.193z M546.671,206.059l-0.406-0.229
					c0.231-0.406,0.413-0.821,0.533-1.232l0.447,0.128C547.114,205.176,546.919,205.625,546.671,206.059z M488.788,204.667
					c-0.132-0.471-0.199-0.952-0.199-1.429l0.465-0.016v0.016c0,0.435,0.061,0.872,0.183,1.304L488.788,204.667z M547.461,203.286
					l-0.465-0.008l0.233,0.003l-0.233-0.042c0-0.427-0.057-0.856-0.176-1.278l0.448-0.122c0.127,0.461,0.192,0.931,0.192,1.401
					V203.286z M489.243,201.907l-0.445-0.129c0.128-0.448,0.319-0.898,0.569-1.336l0.405,0.23
					C489.543,201.078,489.365,201.492,489.243,201.907z M546.305,200.722c-0.207-0.376-0.467-0.752-0.769-1.118l0.358-0.296
					c0.321,0.387,0.598,0.787,0.82,1.188L546.305,200.722z M490.55,199.56l-0.357-0.299c0.292-0.349,0.625-0.696,0.995-1.032
					l0.311,0.344C491.15,198.897,490.828,199.228,490.55,199.56z M544.591,198.613c-0.324-0.299-0.679-0.591-1.063-0.88l0.275-0.373
					c0.397,0.298,0.769,0.604,1.104,0.91L544.591,198.613z M492.57,197.701l-0.274-0.377c0.364-0.269,0.76-0.538,1.179-0.795
					l0.244,0.396C493.311,197.177,492.926,197.438,492.57,197.701z M542.38,196.954c-0.377-0.234-0.782-0.467-1.203-0.694
					l0.218-0.41c0.431,0.232,0.846,0.469,1.233,0.711L542.38,196.954z M494.923,196.232l-0.22-0.41
					c0.407-0.216,0.833-0.426,1.271-0.631l0.197,0.424C495.74,195.814,495.319,196.025,494.923,196.232z M539.932,195.64
					c-0.415-0.194-0.841-0.383-1.279-0.559l0.179-0.43c0.442,0.179,0.877,0.37,1.298,0.567L539.932,195.64z M497.448,195.059
					l-0.176-0.429c0.43-0.177,0.869-0.343,1.322-0.506l0.16,0.437C498.305,194.719,497.872,194.889,497.448,195.059z
					 M537.351,194.58c-0.428-0.155-0.872-0.306-1.322-0.451l0.145-0.443c0.458,0.146,0.901,0.299,1.336,0.454L537.351,194.58z
					 M500.074,194.113l-0.145-0.448c0.444-0.139,0.896-0.278,1.355-0.408l0.129,0.45
					C500.957,193.837,500.512,193.971,500.074,194.113z M534.692,193.721c-0.441-0.125-0.89-0.246-1.352-0.361l0.115-0.454
					c0.464,0.118,0.918,0.241,1.363,0.367L534.692,193.721z M502.764,193.343l-0.114-0.447c0.451-0.114,0.908-0.223,1.375-0.325
					l0.101,0.454C503.664,193.123,503.211,193.232,502.764,193.343z M531.98,193.038c-0.448-0.102-0.905-0.201-1.369-0.289
					l0.091-0.456c0.466,0.09,0.928,0.188,1.38,0.288L531.98,193.038z M505.496,192.737l-0.09-0.456
					c0.457-0.087,0.92-0.173,1.388-0.252l0.078,0.46C506.407,192.566,505.948,192.65,505.496,192.737z M529.235,192.497
					c-0.454-0.078-0.917-0.151-1.383-0.22l0.068-0.46c0.47,0.069,0.934,0.144,1.395,0.22L529.235,192.497z M508.255,192.27
					l-0.068-0.461c0.461-0.068,0.927-0.129,1.399-0.188l0.056,0.463C509.175,192.14,508.711,192.201,508.255,192.27z
					 M526.466,192.09c-0.459-0.056-0.924-0.11-1.391-0.159l0.044-0.46c0.475,0.046,0.939,0.099,1.402,0.158L526.466,192.09z
					 M511.035,191.928l-0.048-0.464c0.465-0.044,0.931-0.088,1.403-0.128l0.04,0.467
					C511.96,191.838,511.493,191.881,511.035,191.928z M523.679,191.806c-0.461-0.039-0.927-0.071-1.397-0.101l0.027-0.461
					c0.476,0.028,0.944,0.061,1.408,0.099L523.679,191.806z M513.826,191.703l-0.029-0.464c0.467-0.029,0.936-0.051,1.408-0.069
					l0.018,0.464C514.754,191.651,514.288,191.676,513.826,191.703z M520.882,191.637c-0.463-0.02-0.93-0.034-1.397-0.044
					l0.009-0.467c0.474,0.01,0.943,0.025,1.411,0.044L520.882,191.637z M516.626,191.593l-0.013-0.467
					c0.467-0.011,0.939-0.014,1.411-0.014h0.061v0.465h-0.059C517.557,191.577,517.089,191.581,516.626,191.593z"/>
			</g>
			<path fill="#BF902D" d="M518.025,177.387c-19.37,0.026-35.052,7.175-35.052,15.989s15.682,15.959,35.052,15.988
				c19.369-0.029,35.053-5.36,35.053-15.988C553.079,184.562,537.395,177.413,518.025,177.387z"/>
			<path fill="#FDD903" d="M518.025,179.74c-16.139,0.02-29.204,5.337-29.204,11.895c0,6.557,13.065,11.876,29.204,11.896
				c16.138-0.02,29.203-5.339,29.203-11.896C547.229,185.077,534.163,179.76,518.025,179.74z"/>
			<path fill="#D4B629" d="M518.025,203.764l-0.029-0.233v-0.232h0.029c0.46,0,0.917-0.007,1.371-0.016l0.008,0.466
				C518.946,203.759,518.487,203.763,518.025,203.764z M516.587,203.749c-0.472-0.01-0.944-0.027-1.41-0.046l0.022-0.464
				c0.462,0.02,0.929,0.033,1.397,0.042L516.587,203.749z M520.812,203.707l-0.017-0.466c0.469-0.018,0.937-0.04,1.401-0.068
				l0.026,0.466C521.757,203.666,521.289,203.689,520.812,203.707z M513.767,203.634c-0.472-0.029-0.939-0.061-1.405-0.099
				l0.036-0.465c0.463,0.035,0.928,0.07,1.398,0.1L513.767,203.634z M523.628,203.542l-0.036-0.467
				c0.469-0.038,0.934-0.081,1.396-0.126l0.046,0.464C524.571,203.46,524.103,203.502,523.628,203.542z M510.957,203.408
				c-0.469-0.048-0.938-0.101-1.402-0.159l0.061-0.46c0.457,0.055,0.921,0.106,1.389,0.154L510.957,203.408z M526.435,203.258
				l-0.056-0.465c0.469-0.056,0.931-0.117,1.388-0.184l0.068,0.46C527.375,203.14,526.908,203.201,526.435,203.258z M508.16,203.06
				c-0.472-0.068-0.935-0.142-1.392-0.221l0.075-0.457c0.457,0.076,0.917,0.151,1.384,0.218L508.16,203.06z M529.227,202.851
				l-0.075-0.458c0.463-0.079,0.924-0.162,1.374-0.251l0.092,0.458C530.16,202.687,529.696,202.77,529.227,202.851z
				 M505.376,202.588c-0.468-0.093-0.927-0.187-1.382-0.288l0.103-0.457c0.448,0.102,0.908,0.194,1.37,0.287L505.376,202.588z
				 M531.996,202.312l-0.1-0.455c0.462-0.103,0.916-0.209,1.362-0.322l0.113,0.452C532.922,202.101,532.462,202.208,531.996,202.312
				z M502.625,201.973c-0.464-0.116-0.919-0.24-1.366-0.366l0.128-0.448c0.441,0.127,0.892,0.248,1.348,0.364L502.625,201.973z
				 M534.735,201.624l-0.125-0.448c0.456-0.13,0.902-0.265,1.339-0.402l0.14,0.444C535.648,201.354,535.197,201.492,534.735,201.624
				z M499.906,201.196c-0.457-0.146-0.905-0.297-1.339-0.454l0.158-0.438c0.431,0.153,0.872,0.306,1.321,0.449L499.906,201.196z
				 M537.428,200.763l-0.157-0.439c0.447-0.158,0.882-0.327,1.305-0.498l0.176,0.431
				C538.322,200.43,537.881,200.598,537.428,200.763z M497.247,200.235c-0.441-0.178-0.878-0.37-1.298-0.565l0.195-0.422
				c0.413,0.193,0.846,0.381,1.276,0.557L497.247,200.235z M540.048,199.693l-0.195-0.421c0.429-0.203,0.851-0.406,1.248-0.619
				l0.218,0.413C540.915,199.278,540.487,199.49,540.048,199.693z M494.681,199.039c-0.429-0.228-0.844-0.467-1.233-0.708
				l0.248-0.396c0.379,0.235,0.787,0.469,1.203,0.692L494.681,199.039z M542.55,198.362l-0.243-0.396
				c0.406-0.254,0.794-0.512,1.149-0.774l0.276,0.377C543.365,197.836,542.968,198.102,542.55,198.362z M492.269,197.531
				c-0.399-0.294-0.77-0.599-1.102-0.905l0.313-0.346c0.322,0.296,0.679,0.589,1.066,0.876L492.269,197.531z M544.841,196.664
				l-0.315-0.345c0.354-0.322,0.675-0.651,0.956-0.985l0.356,0.3C545.545,195.982,545.208,196.331,544.841,196.664z
				 M490.176,195.593c-0.325-0.392-0.602-0.789-0.825-1.188l0.404-0.228c0.212,0.375,0.473,0.751,0.776,1.118L490.176,195.593z
				 M546.671,194.457l-0.406-0.231c0.231-0.405,0.413-0.822,0.533-1.233l0.447,0.13
				C547.114,193.572,546.919,194.021,546.671,194.457z M488.788,193.066c-0.132-0.473-0.199-0.951-0.199-1.431l0.465-0.014v0.014
				c0,0.435,0.061,0.874,0.183,1.304L488.788,193.066z M547.461,191.682l-0.465-0.007l0.233,0.004l-0.233-0.043
				c0-0.427-0.057-0.855-0.176-1.277l0.448-0.124c0.127,0.461,0.192,0.931,0.192,1.401V191.682z M489.243,190.304l-0.445-0.126
				c0.128-0.453,0.319-0.9,0.569-1.34l0.405,0.231C489.543,189.475,489.365,189.891,489.243,190.304z M546.305,189.116
				c-0.207-0.371-0.467-0.75-0.769-1.117l0.358-0.296c0.321,0.389,0.598,0.788,0.82,1.188L546.305,189.116z M490.55,187.958
				l-0.357-0.3c0.292-0.347,0.625-0.696,0.995-1.031l0.311,0.343C491.15,187.292,490.828,187.622,490.55,187.958z M544.591,187.008
				c-0.324-0.297-0.679-0.592-1.063-0.876l0.275-0.377c0.397,0.298,0.769,0.605,1.104,0.911L544.591,187.008z M492.57,186.097
				l-0.274-0.377c0.364-0.267,0.76-0.537,1.179-0.795l0.244,0.396C493.311,185.574,492.926,185.835,492.57,186.097z M542.38,185.353
				c-0.377-0.237-0.782-0.471-1.203-0.694l0.218-0.41c0.431,0.229,0.846,0.467,1.233,0.711L542.38,185.353z M494.923,184.632
				l-0.22-0.413c0.407-0.213,0.833-0.427,1.271-0.63l0.197,0.426C495.74,184.211,495.319,184.419,494.923,184.632z M539.932,184.038
				c-0.415-0.196-0.841-0.383-1.279-0.562l0.179-0.431c0.442,0.183,0.877,0.372,1.298,0.567L539.932,184.038z M497.448,183.454
				l-0.176-0.431c0.43-0.171,0.869-0.343,1.322-0.505l0.16,0.439C498.305,183.116,497.872,183.285,497.448,183.454z
				 M537.351,182.977c-0.428-0.156-0.872-0.306-1.322-0.453l0.145-0.444c0.458,0.148,0.901,0.298,1.336,0.459L537.351,182.977z
				 M500.074,182.508l-0.145-0.444c0.444-0.142,0.896-0.276,1.355-0.409l0.129,0.448
				C500.957,182.233,500.512,182.367,500.074,182.508z M534.692,182.12c-0.441-0.126-0.89-0.249-1.352-0.365l0.115-0.451
				c0.464,0.117,0.918,0.241,1.363,0.365L534.692,182.12z M502.764,181.743l-0.114-0.451c0.451-0.114,0.908-0.223,1.375-0.325
				l0.101,0.454C503.664,181.523,503.211,181.631,502.764,181.743z M531.98,181.434c-0.448-0.1-0.905-0.196-1.369-0.29l0.091-0.455
				c0.466,0.092,0.928,0.188,1.38,0.29L531.98,181.434z M505.496,181.135l-0.09-0.457c0.457-0.09,0.92-0.173,1.388-0.255
				l0.078,0.461C506.407,180.962,505.948,181.046,505.496,181.135z M529.235,180.894c-0.454-0.077-0.917-0.15-1.383-0.219
				l0.068-0.462c0.47,0.07,0.934,0.145,1.395,0.222L529.235,180.894z M508.255,180.667l-0.068-0.461
				c0.461-0.066,0.927-0.131,1.399-0.188l0.056,0.46C509.175,180.537,508.711,180.599,508.255,180.667z M526.466,180.486
				c-0.459-0.055-0.924-0.109-1.391-0.158l0.044-0.462c0.475,0.048,0.939,0.1,1.402,0.158L526.466,180.486z M511.035,180.324
				l-0.048-0.463c0.465-0.048,0.931-0.09,1.403-0.128l0.04,0.464C511.96,180.234,511.493,180.278,511.035,180.324z M523.679,180.202
				c-0.461-0.038-0.927-0.074-1.397-0.1l0.027-0.465c0.476,0.029,0.944,0.063,1.408,0.101L523.679,180.202z M513.826,180.1
				l-0.029-0.463c0.467-0.029,0.936-0.053,1.408-0.071l0.018,0.464C514.754,180.048,514.288,180.072,513.826,180.1z
				 M520.882,180.034c-0.463-0.02-0.93-0.034-1.397-0.044l0.009-0.467c0.474,0.01,0.943,0.025,1.411,0.043L520.882,180.034z
				 M516.626,179.987l-0.013-0.467c0.467-0.01,0.939-0.016,1.411-0.016h0.061v0.468h-0.059
				C517.557,179.974,517.089,179.977,516.626,179.987z"/>
			<g>
				<path fill="#BF902D" d="M518.025,168.617c-19.37,0.026-35.052,7.177-35.052,15.99s15.682,15.96,35.052,15.989
					c19.369-0.029,35.053-7.176,35.053-15.989C553.079,175.794,537.395,168.644,518.025,168.617z"/>
				<path fill="#FDD903" d="M518.025,171.287c-16.139,0.018-29.204,5.336-29.204,11.894c0,6.557,13.065,11.878,29.204,11.898
					c16.138-0.021,29.203-5.341,29.203-11.898C547.229,176.623,534.163,171.305,518.025,171.287z"/>
				<path fill="#D4B629" d="M518.025,195.309l-0.029-0.23v-0.234h0.029c0.46-0.003,0.917-0.007,1.371-0.016l0.008,0.467
					C518.946,195.303,518.487,195.309,518.025,195.309z M516.587,195.296c-0.472-0.011-0.944-0.027-1.41-0.042l0.022-0.469
					c0.462,0.02,0.929,0.034,1.397,0.042L516.587,195.296z M520.812,195.253l-0.017-0.465c0.469-0.018,0.937-0.044,1.401-0.069
					l0.026,0.465C521.757,195.21,521.289,195.234,520.812,195.253z M513.767,195.181c-0.472-0.029-0.939-0.063-1.405-0.098
					l0.036-0.467c0.463,0.037,0.928,0.071,1.398,0.099L513.767,195.181z M523.628,195.086l-0.036-0.465
					c0.469-0.037,0.934-0.08,1.396-0.123l0.046,0.461C524.571,195.005,524.103,195.048,523.628,195.086z M510.957,194.952
					c-0.469-0.048-0.938-0.1-1.402-0.157l0.061-0.463c0.457,0.056,0.921,0.107,1.389,0.158L510.957,194.952z M526.435,194.802
					l-0.056-0.462c0.469-0.055,0.931-0.12,1.388-0.184l0.068,0.46C527.375,194.685,526.908,194.744,526.435,194.802z
					 M508.16,194.606c-0.472-0.068-0.935-0.143-1.392-0.219l0.075-0.461c0.457,0.081,0.917,0.153,1.384,0.219L508.16,194.606z
					 M529.227,194.397l-0.075-0.46c0.463-0.077,0.924-0.163,1.374-0.251l0.092,0.458
					C530.16,194.234,529.696,194.318,529.227,194.397z M505.376,194.135c-0.468-0.093-0.927-0.19-1.382-0.29l0.103-0.455
					c0.448,0.1,0.908,0.198,1.37,0.289L505.376,194.135z M531.996,193.857l-0.1-0.454c0.462-0.106,0.916-0.212,1.362-0.323
					l0.113,0.452C532.922,193.648,532.462,193.755,531.996,193.857z M502.625,193.518c-0.464-0.114-0.919-0.238-1.366-0.364
					l0.128-0.448c0.441,0.124,0.892,0.248,1.348,0.363L502.625,193.518z M534.735,193.169l-0.125-0.449
					c0.456-0.127,0.902-0.262,1.339-0.402l0.14,0.442C535.648,192.901,535.197,193.039,534.735,193.169z M499.906,192.743
					c-0.457-0.146-0.905-0.299-1.339-0.454l0.158-0.436c0.431,0.154,0.872,0.302,1.321,0.448L499.906,192.743z M537.428,192.307
					l-0.157-0.436c0.447-0.16,0.882-0.328,1.305-0.499l0.176,0.433C538.322,191.978,537.881,192.147,537.428,192.307z
					 M497.247,191.781c-0.441-0.179-0.878-0.37-1.298-0.565l0.195-0.423c0.413,0.194,0.846,0.379,1.276,0.558L497.247,191.781z
					 M540.048,191.24l-0.195-0.424c0.429-0.196,0.851-0.406,1.248-0.616l0.218,0.412
					C540.915,190.824,540.487,191.036,540.048,191.24z M494.681,190.583c-0.429-0.229-0.844-0.466-1.233-0.708l0.248-0.396
					c0.379,0.236,0.787,0.469,1.203,0.692L494.681,190.583z M542.55,189.908l-0.243-0.398c0.406-0.248,0.794-0.511,1.149-0.774
					l0.276,0.377C543.365,189.384,542.968,189.649,542.55,189.908z M492.269,189.076c-0.399-0.296-0.77-0.602-1.102-0.904
					l0.313-0.345c0.322,0.296,0.679,0.59,1.066,0.876L492.269,189.076z M544.841,188.209l-0.315-0.343
					c0.354-0.324,0.675-0.652,0.956-0.986l0.356,0.299C545.545,187.53,545.208,187.877,544.841,188.209z M490.176,187.136
					c-0.325-0.386-0.602-0.787-0.825-1.183l0.404-0.232c0.212,0.377,0.473,0.753,0.776,1.118L490.176,187.136z M546.671,186.002
					l-0.406-0.23c0.231-0.405,0.413-0.821,0.533-1.233l0.447,0.131C547.114,185.115,546.919,185.566,546.671,186.002z
					 M488.788,184.61c-0.132-0.468-0.199-0.951-0.199-1.429l0.465-0.015v0.015c0,0.435,0.061,0.873,0.183,1.306L488.788,184.61z
					 M547.461,183.228l-0.465-0.008l0.233,0.005l-0.233-0.044c0-0.427-0.057-0.855-0.176-1.277l0.448-0.125
					c0.127,0.462,0.192,0.934,0.192,1.401V183.228z M489.243,181.85l-0.445-0.128c0.128-0.448,0.319-0.9,0.569-1.337l0.405,0.229
					C489.543,181.022,489.365,181.437,489.243,181.85z M546.305,180.663c-0.207-0.373-0.467-0.751-0.769-1.117l0.358-0.297
					c0.321,0.388,0.598,0.789,0.82,1.188L546.305,180.663z M490.55,179.504l-0.357-0.3c0.292-0.349,0.625-0.696,0.995-1.031
					l0.311,0.343C491.15,178.837,490.828,179.169,490.55,179.504z M544.591,178.554c-0.324-0.295-0.679-0.591-1.063-0.879
					l0.275-0.375c0.397,0.298,0.769,0.602,1.104,0.911L544.591,178.554z M492.57,177.642l-0.274-0.372
					c0.364-0.269,0.76-0.54,1.179-0.799l0.244,0.396C493.311,177.12,492.926,177.381,492.57,177.642z M542.38,176.898
					c-0.377-0.235-0.782-0.469-1.203-0.696l0.218-0.409c0.431,0.229,0.846,0.468,1.233,0.708L542.38,176.898z M494.923,176.176
					l-0.22-0.41c0.407-0.216,0.833-0.429,1.271-0.631l0.197,0.421C495.74,175.757,495.319,175.964,494.923,176.176z
					 M539.932,175.584c-0.415-0.196-0.841-0.383-1.279-0.562l0.179-0.431c0.442,0.182,0.877,0.371,1.298,0.57L539.932,175.584z
					 M497.448,175.001l-0.176-0.43c0.43-0.172,0.869-0.343,1.322-0.506l0.16,0.437C498.305,174.665,497.872,174.83,497.448,175.001z
					 M537.351,174.521c-0.428-0.155-0.872-0.303-1.322-0.45l0.145-0.444c0.458,0.149,0.901,0.299,1.336,0.457L537.351,174.521z
					 M500.074,174.054l-0.145-0.443c0.444-0.142,0.896-0.277,1.355-0.409l0.129,0.449
					C500.957,173.778,500.512,173.914,500.074,174.054z M534.692,173.665c-0.441-0.126-0.89-0.248-1.352-0.363l0.115-0.453
					c0.464,0.116,0.918,0.24,1.363,0.366L534.692,173.665z M502.764,173.289l-0.114-0.451c0.451-0.113,0.908-0.223,1.375-0.326
					l0.101,0.454C503.664,173.068,503.211,173.176,502.764,173.289z M531.98,172.976c-0.448-0.1-0.905-0.192-1.369-0.285
					l0.091-0.456c0.466,0.089,0.928,0.189,1.38,0.288L531.98,172.976z M505.496,172.681l-0.09-0.459
					c0.457-0.088,0.92-0.171,1.388-0.253l0.078,0.46C506.407,172.508,505.948,172.593,505.496,172.681z M529.235,172.439
					c-0.454-0.078-0.917-0.148-1.383-0.218l0.068-0.46c0.47,0.069,0.934,0.142,1.395,0.221L529.235,172.439z M508.255,172.21
					l-0.068-0.46c0.461-0.068,0.927-0.131,1.399-0.188l0.056,0.463C509.175,172.082,508.711,172.145,508.255,172.21z
					 M526.466,172.033c-0.459-0.057-0.924-0.107-1.391-0.158l0.044-0.463c0.475,0.048,0.939,0.101,1.402,0.16L526.466,172.033z
					 M511.035,171.869l-0.048-0.463c0.465-0.049,0.931-0.089,1.403-0.128l0.04,0.464
					C511.96,171.782,511.493,171.823,511.035,171.869z M523.679,171.747c-0.461-0.035-0.927-0.068-1.397-0.098l0.027-0.467
					c0.476,0.028,0.944,0.06,1.408,0.1L523.679,171.747z M513.826,171.648l-0.029-0.467c0.467-0.028,0.936-0.053,1.408-0.073
					l0.018,0.467C514.754,171.595,514.288,171.617,513.826,171.648z M520.882,171.577c-0.463-0.016-0.93-0.031-1.397-0.042
					l0.009-0.467c0.474,0.01,0.943,0.025,1.411,0.044L520.882,171.577z M516.626,171.532l-0.013-0.465
					c0.467-0.007,0.939-0.013,1.411-0.015h0.061v0.467h-0.059C517.557,171.519,517.089,171.522,516.626,171.532z"/>
			</g>
			<g>
				<path fill="#BF902D" d="M518.025,160.479c-19.37,0.029-35.052,7.174-35.052,15.991c0,8.811,15.682,15.961,35.052,15.984
					c19.369-0.023,35.053-7.172,35.053-15.984C553.079,167.654,537.395,160.508,518.025,160.479z"/>
				<path fill="#FDD903" d="M518.025,163.146c-16.139,0.022-29.204,5.339-29.204,11.895c0,6.56,13.065,11.877,29.204,11.898
					c16.138-0.021,29.203-5.337,29.203-11.898C547.229,168.485,534.163,163.167,518.025,163.146z"/>
				<path fill="#D4B629" d="M518.025,187.171l-0.029-0.233v-0.231h0.029c0.46-0.003,0.917-0.01,1.371-0.016l0.008,0.464
					C518.946,187.164,518.487,187.171,518.025,187.171z M516.587,187.154c-0.472-0.01-0.944-0.024-1.41-0.043l0.022-0.465
					c0.462,0.019,0.929,0.035,1.397,0.044L516.587,187.154z M520.812,187.115l-0.017-0.467c0.469-0.019,0.937-0.042,1.401-0.068
					l0.026,0.463C521.757,187.073,521.289,187.094,520.812,187.115z M513.767,187.04c-0.472-0.029-0.939-0.062-1.405-0.097
					l0.036-0.465c0.463,0.035,0.928,0.068,1.398,0.099L513.767,187.04z M523.628,186.945l-0.036-0.463
					c0.469-0.038,0.934-0.08,1.396-0.126l0.046,0.462C524.571,186.866,524.103,186.909,523.628,186.945z M510.957,186.813
					c-0.469-0.045-0.938-0.099-1.402-0.157l0.061-0.462c0.457,0.055,0.921,0.108,1.389,0.157L510.957,186.813z M526.435,186.665
					l-0.056-0.463c0.469-0.058,0.931-0.119,1.388-0.188l0.068,0.461C527.375,186.543,526.908,186.606,526.435,186.665z
					 M508.16,186.467c-0.472-0.068-0.935-0.14-1.392-0.221l0.075-0.457c0.457,0.076,0.917,0.149,1.384,0.218L508.16,186.467z
					 M529.227,186.258l-0.075-0.46c0.463-0.081,0.924-0.163,1.374-0.248l0.092,0.457
					C530.16,186.094,529.696,186.179,529.227,186.258z M505.376,185.993c-0.468-0.088-0.927-0.186-1.382-0.289l0.103-0.454
					c0.448,0.1,0.908,0.198,1.37,0.288L505.376,185.993z M531.996,185.718l-0.1-0.454c0.462-0.101,0.916-0.211,1.362-0.322
					l0.113,0.452C532.922,185.508,532.462,185.616,531.996,185.718z M502.625,185.379c-0.464-0.115-0.919-0.237-1.366-0.364
					l0.128-0.448c0.441,0.126,0.892,0.248,1.348,0.364L502.625,185.379z M534.735,185.029l-0.125-0.448
					c0.456-0.13,0.902-0.265,1.339-0.402l0.14,0.442C535.648,184.763,535.197,184.9,534.735,185.029z M499.906,184.605
					c-0.457-0.149-0.905-0.299-1.339-0.454l0.158-0.441c0.431,0.154,0.872,0.306,1.321,0.451L499.906,184.605z M537.428,184.169
					l-0.157-0.438c0.447-0.163,0.882-0.327,1.305-0.5l0.176,0.432C538.322,183.836,537.881,184.006,537.428,184.169z
					 M497.247,183.642c-0.441-0.179-0.878-0.371-1.298-0.566l0.195-0.422c0.413,0.193,0.846,0.377,1.276,0.557L497.247,183.642z
					 M540.048,183.101l-0.195-0.424c0.429-0.2,0.851-0.409,1.248-0.615l0.218,0.409C540.915,182.685,540.487,182.9,540.048,183.101z
					 M494.681,182.443c-0.429-0.229-0.844-0.465-1.233-0.71l0.248-0.396c0.379,0.238,0.787,0.471,1.203,0.695L494.681,182.443z
					 M542.55,181.765l-0.243-0.395c0.406-0.251,0.794-0.511,1.149-0.773l0.276,0.377
					C543.365,181.244,542.968,181.511,542.55,181.765z M492.269,180.939c-0.399-0.297-0.77-0.602-1.102-0.906l0.313-0.343
					c0.322,0.293,0.679,0.588,1.066,0.876L492.269,180.939z M544.841,180.072l-0.315-0.344c0.354-0.324,0.675-0.653,0.956-0.983
					l0.356,0.299C545.545,179.39,545.208,179.738,544.841,180.072z M490.176,178.998c-0.325-0.39-0.602-0.787-0.825-1.186
					l0.404-0.228c0.212,0.374,0.473,0.749,0.776,1.114L490.176,178.998z M546.671,177.862l-0.406-0.229
					c0.231-0.406,0.413-0.821,0.533-1.233l0.447,0.129C547.114,176.977,546.919,177.425,546.671,177.862z M488.788,176.472
					c-0.132-0.469-0.199-0.952-0.199-1.431l0.465-0.014v0.014c0,0.435,0.061,0.875,0.183,1.304L488.788,176.472z M547.461,175.089
					l-0.465-0.008l0.233,0.004l-0.233-0.045c0-0.424-0.057-0.856-0.176-1.276l0.448-0.126c0.127,0.461,0.192,0.932,0.192,1.401
					V175.089z M489.243,173.711l-0.445-0.128c0.128-0.449,0.319-0.902,0.569-1.336l0.405,0.229
					C489.543,172.883,489.365,173.296,489.243,173.711z M546.305,172.525c-0.207-0.377-0.467-0.753-0.769-1.12l0.358-0.295
					c0.321,0.389,0.598,0.787,0.82,1.189L546.305,172.525z M490.55,171.363l-0.357-0.301c0.292-0.344,0.625-0.694,0.995-1.03
					l0.311,0.344C491.15,170.701,490.828,171.03,490.55,171.363z M544.591,170.416c-0.324-0.299-0.679-0.593-1.063-0.88l0.275-0.373
					c0.397,0.297,0.769,0.603,1.104,0.907L544.591,170.416z M492.57,169.503l-0.274-0.373c0.364-0.273,0.76-0.539,1.179-0.798
					l0.244,0.396C493.311,168.981,492.926,169.242,492.57,169.503z M542.38,168.759c-0.377-0.235-0.782-0.469-1.203-0.696
					l0.218-0.41c0.431,0.23,0.846,0.471,1.233,0.708L542.38,168.759z M494.923,168.037l-0.22-0.409
					c0.407-0.217,0.833-0.428,1.271-0.633l0.197,0.424C495.74,167.617,495.319,167.826,494.923,168.037z M539.932,167.445
					c-0.415-0.196-0.841-0.383-1.279-0.56l0.179-0.43c0.442,0.179,0.877,0.369,1.298,0.565L539.932,167.445z M497.448,166.862
					l-0.176-0.43c0.43-0.174,0.869-0.343,1.322-0.507l0.16,0.44C498.305,166.525,497.872,166.69,497.448,166.862z M537.351,166.382
					c-0.428-0.154-0.872-0.306-1.322-0.452l0.145-0.441c0.458,0.147,0.901,0.299,1.336,0.455L537.351,166.382z M500.074,165.913
					l-0.145-0.442c0.444-0.142,0.896-0.279,1.355-0.409l0.129,0.448C500.957,165.64,500.512,165.773,500.074,165.913z
					 M534.692,165.526c-0.441-0.126-0.89-0.248-1.352-0.364l0.115-0.451c0.464,0.118,0.918,0.241,1.363,0.369L534.692,165.526z
					 M502.764,165.15l-0.114-0.452c0.451-0.116,0.908-0.223,1.375-0.325l0.101,0.454
					C503.664,164.929,503.211,165.037,502.764,165.15z M531.98,164.838c-0.448-0.098-0.905-0.194-1.369-0.286l0.091-0.456
					c0.466,0.092,0.928,0.189,1.38,0.289L531.98,164.838z M505.496,164.544l-0.09-0.46c0.457-0.089,0.92-0.174,1.388-0.251
					l0.078,0.458C506.407,164.37,505.948,164.454,505.496,164.544z M529.235,164.3c-0.454-0.078-0.917-0.151-1.383-0.22l0.068-0.46
					c0.47,0.068,0.934,0.143,1.395,0.219L529.235,164.3z M508.255,164.073l-0.068-0.46c0.461-0.069,0.927-0.13,1.399-0.187
					l0.056,0.461C509.175,163.945,508.711,164.009,508.255,164.073z M526.466,163.894c-0.459-0.057-0.924-0.111-1.391-0.159
					l0.044-0.462c0.475,0.048,0.939,0.101,1.402,0.16L526.466,163.894z M511.035,163.731l-0.048-0.462
					c0.465-0.051,0.931-0.09,1.403-0.129l0.04,0.465C511.96,163.643,511.493,163.684,511.035,163.731z M523.679,163.606
					c-0.461-0.036-0.927-0.068-1.397-0.096l0.027-0.467c0.476,0.032,0.944,0.063,1.408,0.1L523.679,163.606z M513.826,163.508
					l-0.029-0.465c0.467-0.032,0.936-0.052,1.408-0.074l0.018,0.467C514.754,163.456,514.288,163.478,513.826,163.508z
					 M520.882,163.44c-0.463-0.022-0.93-0.032-1.397-0.044l0.009-0.465c0.474,0.008,0.943,0.023,1.411,0.043L520.882,163.44z
					 M516.626,163.394l-0.013-0.466c0.467-0.01,0.939-0.016,1.411-0.016h0.061v0.467h-0.059
					C517.557,163.38,517.089,163.385,516.626,163.394z"/>
			</g>
			<g>
				<path fill="#FACA47" d="M518.025,148.876c-19.37,0.029-35.052,7.175-35.052,15.99c0,8.813,15.682,15.961,35.052,15.987
					c19.369-0.026,35.053-7.174,35.053-15.987C553.079,156.05,537.395,148.904,518.025,148.876z"/>
				<g>
					<path fill="#DDB250" d="M546.691,212.181c-1.83,1.127-3.978,2.139-6.387,3.016c-1.967,0.712-4.107,1.333-6.386,1.849
						c-2.029,0.46-4.161,0.837-6.387,1.117c-2.06,0.256-4.195,0.434-6.386,0.524c-1.027,0.038-2.066,0.062-3.118,0.062
						c-1.103,0-2.195-0.024-3.268-0.069c-2.193-0.093-4.327-0.274-6.388-0.538c-2.225-0.284-4.36-0.667-6.386-1.13
						c-2.282-0.522-4.42-1.15-6.388-1.874c-2.412-0.886-4.56-1.912-6.384-3.049c-3.156-1.967-5.343-4.266-6.237-6.763
						c0,2.154,0,6.55,0,8.556c1.019,2.335,3.193,4.518,6.237,6.419c1.832,1.145,3.981,2.18,6.384,3.087
						c1.973,0.738,4.113,1.389,6.388,1.928c2.03,0.483,4.164,0.879,6.386,1.175c2.064,0.277,4.198,0.473,6.388,0.569
						c1.079,0.048,2.166,0.072,3.268,0.075c1.048-0.003,2.089-0.025,3.118-0.069c2.19-0.096,4.326-0.282,6.386-0.553
						c2.222-0.293,4.357-0.683,6.387-1.162c2.277-0.534,4.417-1.177,6.386-1.91c2.401-0.892,4.549-1.916,6.387-3.047
						c3.12-1.922,5.351-4.14,6.388-6.512c0-2.006,0-6.403,0-8.556C552.168,207.86,549.925,210.193,546.691,212.181z"/>
					<path fill="#DDB250" d="M546.691,201.839c-1.83,1.124-3.978,2.137-6.387,3.013c-1.967,0.711-4.107,1.335-6.386,1.852
						c-2.029,0.459-4.161,0.836-6.387,1.117c-2.06,0.256-4.195,0.435-6.386,0.522c-1.027,0.042-2.066,0.066-3.118,0.066
						c-1.103,0-2.195-0.026-3.268-0.071c-2.193-0.095-4.327-0.274-6.388-0.538c-2.225-0.283-4.36-0.665-6.386-1.129
						c-2.282-0.522-4.42-1.153-6.388-1.873c-2.412-0.887-4.56-1.912-6.384-3.051c-3.156-1.968-5.343-4.269-6.237-6.763
						c0,2.154,0,6.55,0,8.558c1.019,2.333,3.193,4.518,6.237,6.418c1.832,1.145,3.981,2.181,6.384,3.085
						c1.973,0.743,4.113,1.388,6.388,1.927c2.03,0.485,4.164,0.879,6.386,1.179c2.064,0.276,4.198,0.467,6.388,0.568
						c1.079,0.047,2.166,0.075,3.268,0.075c1.048,0,2.089-0.025,3.118-0.069c2.19-0.093,4.326-0.28,6.386-0.555
						c2.222-0.29,4.357-0.685,6.387-1.16c2.277-0.533,4.417-1.175,6.386-1.908c2.401-0.892,4.549-1.918,6.387-3.051
						c3.12-1.922,5.351-4.138,6.388-6.508c0-2.008,0-6.512,0-8.666C552.168,197.406,549.925,199.848,546.691,201.839z"/>
					<path fill="#DDB250" d="M546.691,192.122c-1.83,1.127-3.978,2.139-6.387,3.013c-1.967,0.718-4.107,1.338-6.386,1.852
						c-2.029,0.46-4.161,0.838-6.387,1.118c-2.06,0.257-4.195,0.433-6.386,0.523c-1.027,0.042-2.066,0.064-3.118,0.065
						c-1.103-0.001-2.195-0.025-3.268-0.071c-2.193-0.093-4.327-0.275-6.388-0.538c-2.225-0.283-4.36-0.666-6.386-1.13
						c-2.282-0.521-4.42-1.15-6.388-1.871c-2.412-0.889-4.56-1.913-6.384-3.053c-3.156-1.967-5.343-4.267-6.237-6.761
						c0,2.155,0,6.551,0,8.556c1.019,2.335,3.193,4.52,6.237,6.42c1.832,1.143,3.981,2.181,6.384,3.086
						c1.973,0.741,4.113,1.388,6.388,1.929c2.03,0.48,4.164,0.878,6.386,1.175c2.064,0.277,4.198,0.471,6.388,0.569
						c1.079,0.047,2.166,0.074,3.268,0.074c1.048,0,2.089-0.025,3.118-0.068c2.19-0.094,4.326-0.28,6.386-0.552
						c2.222-0.293,4.357-0.686,6.387-1.162c2.277-0.532,4.417-1.175,6.386-1.907c2.401-0.894,4.549-1.921,6.387-3.049
						c3.12-1.919,5.351-4.138,6.388-6.514c0-2.005,0-6.4,0-8.556C552.168,187.802,549.925,190.136,546.691,192.122z"/>
					<path fill="#DDB250" d="M546.691,182.409c-1.83,1.125-3.978,2.139-6.387,3.016c-1.967,0.713-4.107,1.333-6.386,1.852
						c-2.029,0.459-4.161,0.834-6.387,1.115c-2.06,0.258-4.195,0.434-6.386,0.523c-1.027,0.041-2.066,0.065-3.118,0.067
						c-1.103-0.002-2.195-0.026-3.268-0.071c-2.193-0.093-4.327-0.274-6.388-0.539c-2.225-0.283-4.36-0.666-6.386-1.13
						c-2.282-0.521-4.42-1.151-6.388-1.873c-2.412-0.887-4.56-1.915-6.384-3.051c-3.156-1.968-5.343-4.269-6.237-6.763
						c0,2.154,0,6.549,0,8.559c1.019,2.332,3.193,4.518,6.237,6.419c1.832,1.143,3.981,2.181,6.384,3.083
						c1.973,0.74,4.113,1.388,6.388,1.93c2.03,0.48,4.164,0.876,6.386,1.175c2.064,0.275,4.198,0.471,6.388,0.568
						c1.079,0.048,2.166,0.074,3.268,0.077c1.048-0.003,2.089-0.027,3.118-0.071c2.19-0.093,4.326-0.283,6.386-0.552
						c2.222-0.293,4.357-0.686,6.387-1.163c2.277-0.535,4.417-1.177,6.386-1.908c2.401-0.894,4.549-1.92,6.387-3.052
						c3.12-1.919,5.351-4.138,6.388-6.508c0-2.01,0-6.405,0-8.559C552.168,178.089,549.925,180.422,546.691,182.409z"/>
					<path fill="#DDB250" d="M546.691,172.38c-1.83,1.124-3.978,2.139-6.387,3.015c-1.967,0.716-4.107,1.337-6.386,1.852
						c-2.029,0.46-4.161,0.838-6.387,1.116c-2.06,0.259-4.195,0.435-6.386,0.525c-1.027,0.043-2.066,0.064-3.118,0.064
						c-1.103,0-2.195-0.023-3.268-0.069c-2.193-0.093-4.327-0.274-6.388-0.539c-2.225-0.283-4.36-0.666-6.386-1.128
						c-2.282-0.525-4.42-1.152-6.388-1.874c-2.412-0.888-4.56-1.913-6.384-3.051c-3.156-1.968-5.343-4.268-6.237-6.763
						c0,2.154,0,6.55,0,8.559c1.019,2.333,3.193,4.519,6.237,6.417c1.832,1.144,3.981,2.181,6.384,3.087
						c1.973,0.742,4.113,1.388,6.388,1.929c2.03,0.481,4.164,0.878,6.386,1.174c2.064,0.277,4.198,0.472,6.388,0.57
						c1.079,0.047,2.166,0.073,3.268,0.074c1.048-0.002,2.089-0.024,3.118-0.069c2.19-0.093,4.326-0.28,6.386-0.554
						c2.222-0.292,4.357-0.685,6.387-1.162c2.277-0.532,4.417-1.174,6.386-1.908c2.401-0.892,4.549-1.917,6.387-3.048
						c3.12-1.922,5.351-4.14,6.388-6.51c0-2.009,0-6.405,0-8.559C552.168,168.061,549.925,170.393,546.691,172.38z"/>
				</g>
			</g>
			<path fill="#DDB250" d="M518.147,176.202h-0.004c-15.046-0.016-31.037-4.385-31.037-12.452c0-8.064,15.991-12.434,31.037-12.45
				c15.051,0.015,31.041,4.386,31.041,12.45C549.185,171.817,533.194,176.186,518.147,176.202z M518.144,154.758
				c-16.126,0.019-27.368,4.753-27.368,8.992c0,4.24,11.241,8.974,27.37,8.993c16.128-0.018,27.37-4.753,27.37-8.993
				C545.516,159.512,534.274,154.777,518.144,154.758z"/>
			<g>
				<path fill="#DDB250" d="M539.75,164.3h-5.023c-0.158,1.616-1.11,3.186-2.274,4.102l-6.185-0.723
					c1.216-1.014,2.326-2.438,2.326-4.007c0-1.375-1.163-2.316-3.279-2.316c-2.009,0-3.278,0.772-4.6,2.558
					c-1.903,2.582-4.548,4.343-9.677,4.343c-4.653,0-8.301-1.497-9.412-4.078h-5.024v-2.365h4.653
					c0.159-1.617,0.899-2.703,1.745-3.5l5.976,0.7c-0.583,0.627-1.799,1.737-1.799,3.474c0,1.568,1.481,2.076,2.96,2.076
					c1.746,0,2.855-0.846,4.548-2.895c2.22-2.872,5.129-4.03,9.887-4.03c4.706,0,8.725,1.52,9.784,4.295h5.393L539.75,164.3
					L539.75,164.3z"/>
			</g>
		</g>
		<g>
			<polygon fill="#D9A728" points="480.458,236.933 480.469,197.494 410.319,197.4 410.345,237.68 			"/>
			<g>
				<path fill="#BF902D" d="M445.408,214.633c-19.37,0.029-35.052,7.174-35.052,15.988c0,8.814,15.682,15.966,35.052,15.989
					c19.369-0.023,35.053-7.175,35.053-15.989C480.461,221.808,464.776,214.663,445.408,214.633z"/>
				<path fill="#FDD903" d="M445.408,217.302c-16.139,0.018-29.204,5.337-29.204,11.895c0,6.556,13.065,11.874,29.204,11.896
					c16.138-0.022,29.203-5.34,29.203-11.896C474.61,222.639,461.545,217.32,445.408,217.302z"/>
				<path fill="#D4B629" d="M445.408,241.324l-0.029-0.231v-0.235h0.029c0.46,0,0.918-0.003,1.37-0.015l0.008,0.467
					C446.328,241.321,445.869,241.322,445.408,241.324z M443.968,241.31c-0.472-0.012-0.945-0.026-1.41-0.044l0.021-0.466
					c0.462,0.02,0.929,0.034,1.397,0.043L443.968,241.31z M448.195,241.268l-0.017-0.465c0.468-0.021,0.937-0.042,1.401-0.071
					l0.026,0.465C449.139,241.228,448.671,241.25,448.195,241.268z M441.149,241.196c-0.472-0.031-0.94-0.064-1.404-0.1l0.036-0.463
					c0.463,0.036,0.928,0.07,1.397,0.097L441.149,241.196z M451.01,241.101l-0.035-0.467c0.469-0.035,0.934-0.077,1.396-0.123
					l0.046,0.46C451.952,241.022,451.484,241.064,451.01,241.101z M438.339,240.967c-0.469-0.047-0.937-0.1-1.402-0.158l0.061-0.462
					c0.457,0.058,0.92,0.11,1.389,0.156L438.339,240.967z M453.817,240.818l-0.056-0.463c0.468-0.056,0.931-0.119,1.388-0.184
					l0.068,0.46C454.756,240.698,454.29,240.763,453.817,240.818z M435.542,240.623c-0.472-0.071-0.935-0.141-1.392-0.219
					l0.075-0.46c0.458,0.079,0.917,0.151,1.385,0.219L435.542,240.623z M456.609,240.412l-0.075-0.459
					c0.463-0.078,0.924-0.16,1.374-0.252l0.092,0.46C457.542,240.249,457.079,240.332,456.609,240.412z M432.758,240.146
					c-0.468-0.087-0.926-0.186-1.382-0.286l0.103-0.455c0.448,0.099,0.908,0.194,1.369,0.285L432.758,240.146z M459.378,239.872
					l-0.099-0.453c0.461-0.106,0.916-0.212,1.361-0.325l0.113,0.454C460.304,239.661,459.844,239.768,459.378,239.872z
					 M430.006,239.535c-0.463-0.116-0.918-0.242-1.366-0.366l0.128-0.448c0.441,0.128,0.892,0.247,1.349,0.364L430.006,239.535z
					 M462.116,239.184l-0.125-0.451c0.456-0.127,0.903-0.26,1.34-0.4l0.14,0.443C463.029,238.917,462.579,239.055,462.116,239.184z
					 M427.288,238.758c-0.456-0.145-0.904-0.296-1.339-0.454l0.158-0.437c0.431,0.155,0.872,0.303,1.322,0.448L427.288,238.758z
					 M464.809,238.324l-0.158-0.438c0.447-0.158,0.882-0.327,1.304-0.499l0.175,0.431
					C465.703,237.992,465.262,238.16,464.809,238.324z M424.629,237.796c-0.441-0.179-0.879-0.37-1.298-0.566l0.195-0.42
					c0.414,0.191,0.846,0.378,1.276,0.553L424.629,237.796z M467.429,237.255l-0.195-0.424c0.43-0.199,0.852-0.407,1.248-0.619
					l0.218,0.413C468.297,236.841,467.868,237.05,467.429,237.255z M422.063,236.598c-0.429-0.227-0.844-0.464-1.233-0.708
					l0.248-0.395c0.379,0.236,0.787,0.471,1.203,0.692L422.063,236.598z M469.932,235.923l-0.243-0.396
					c0.407-0.252,0.794-0.511,1.15-0.776l0.276,0.375C470.746,235.395,470.35,235.662,469.932,235.923z M419.652,235.091
					c-0.399-0.298-0.771-0.6-1.102-0.902l0.313-0.347c0.321,0.295,0.679,0.589,1.066,0.877L419.652,235.091z M472.222,234.226
					l-0.314-0.345c0.354-0.321,0.675-0.653,0.956-0.984l0.356,0.299C472.927,233.546,472.59,233.892,472.222,234.226z
					 M417.558,233.152c-0.325-0.388-0.602-0.786-0.826-1.187l0.404-0.226c0.212,0.373,0.473,0.75,0.776,1.117L417.558,233.152z
					 M474.053,232.018l-0.406-0.23c0.23-0.406,0.412-0.821,0.533-1.231l0.448,0.128C474.496,231.133,474.3,231.582,474.053,232.018z
					 M416.171,230.626c-0.132-0.471-0.2-0.952-0.2-1.429l0.466-0.016v0.016c0,0.435,0.06,0.872,0.183,1.304L416.171,230.626z
					 M474.842,229.243l-0.465-0.007l0.233,0.002l-0.233-0.042c0-0.427-0.057-0.856-0.175-1.279l0.448-0.121
					c0.127,0.461,0.191,0.931,0.191,1.401L474.842,229.243L474.842,229.243z M416.625,227.865l-0.445-0.128
					c0.128-0.448,0.319-0.898,0.57-1.336l0.404,0.23C416.924,227.035,416.746,227.451,416.625,227.865z M473.688,226.68
					c-0.208-0.376-0.467-0.752-0.769-1.119l0.356-0.295c0.322,0.387,0.599,0.787,0.821,1.188L473.688,226.68z M417.931,225.517
					l-0.357-0.299c0.292-0.349,0.625-0.695,0.995-1.033l0.311,0.344C418.532,224.855,418.21,225.186,417.931,225.517z
					 M471.973,224.57c-0.324-0.298-0.68-0.59-1.064-0.88l0.275-0.373c0.397,0.298,0.769,0.603,1.103,0.91L471.973,224.57z
					 M419.952,223.659l-0.275-0.377c0.364-0.269,0.76-0.538,1.18-0.795l0.244,0.396
					C420.693,223.135,420.308,223.396,419.952,223.659z M469.762,222.912c-0.377-0.235-0.782-0.467-1.203-0.694l0.218-0.41
					c0.431,0.231,0.846,0.469,1.233,0.711L469.762,222.912z M422.305,222.191l-0.22-0.41c0.407-0.216,0.833-0.426,1.271-0.631
					l0.197,0.424C423.121,221.772,422.701,221.982,422.305,222.191z M467.313,221.598c-0.415-0.194-0.841-0.383-1.278-0.559
					l0.179-0.43c0.442,0.179,0.877,0.37,1.298,0.567L467.313,221.598z M424.83,221.016l-0.175-0.43
					c0.43-0.176,0.869-0.343,1.322-0.506l0.16,0.436C425.688,220.677,425.253,220.846,424.83,221.016z M464.733,220.537
					c-0.428-0.156-0.871-0.306-1.321-0.451l0.145-0.442c0.458,0.145,0.901,0.299,1.336,0.454L464.733,220.537z M427.456,220.071
					l-0.145-0.448c0.444-0.139,0.895-0.278,1.355-0.408l0.129,0.45C428.34,219.795,427.894,219.929,427.456,220.071z
					 M462.075,219.68c-0.441-0.126-0.891-0.246-1.352-0.361l0.115-0.453c0.464,0.117,0.918,0.24,1.363,0.366L462.075,219.68z
					 M430.146,219.301l-0.113-0.447c0.451-0.115,0.908-0.224,1.374-0.326l0.102,0.454
					C431.046,219.081,430.592,219.19,430.146,219.301z M459.361,218.996c-0.448-0.102-0.905-0.202-1.368-0.289l0.091-0.457
					c0.466,0.09,0.929,0.188,1.381,0.289L459.361,218.996z M432.878,218.694l-0.09-0.456c0.457-0.087,0.92-0.173,1.388-0.251
					l0.078,0.46C433.788,218.524,433.33,218.609,432.878,218.694z M456.616,218.456c-0.454-0.079-0.916-0.151-1.382-0.221
					l0.068-0.461c0.47,0.069,0.934,0.145,1.395,0.221L456.616,218.456z M435.637,218.227l-0.068-0.461
					c0.461-0.068,0.927-0.129,1.399-0.188l0.056,0.463C436.557,218.097,436.093,218.16,435.637,218.227z M453.848,218.048
					c-0.459-0.057-0.924-0.111-1.391-0.159l0.045-0.46c0.475,0.046,0.938,0.099,1.402,0.158L453.848,218.048z M438.416,217.884
					l-0.048-0.464c0.464-0.043,0.931-0.087,1.402-0.128l0.041,0.467C439.342,217.795,438.875,217.838,438.416,217.884z
					 M451.062,217.763c-0.461-0.039-0.927-0.072-1.398-0.102l0.027-0.461c0.476,0.028,0.943,0.061,1.408,0.098L451.062,217.763z
					 M441.208,217.662l-0.029-0.464c0.467-0.029,0.936-0.051,1.408-0.069l0.018,0.464
					C442.135,217.609,441.67,217.632,441.208,217.662z M448.263,217.595c-0.463-0.021-0.93-0.035-1.397-0.046l0.01-0.466
					c0.474,0.009,0.942,0.024,1.41,0.043L448.263,217.595z M444.007,217.55l-0.012-0.466c0.467-0.011,0.94-0.014,1.411-0.014h0.061
					v0.465h-0.059C444.939,217.535,444.471,217.538,444.007,217.55z"/>
			</g>
			<path fill="#BF902D" d="M445.408,203.345c-19.37,0.026-35.052,7.175-35.052,15.989s15.682,15.959,35.052,15.989
				c19.369-0.03,35.053-5.36,35.053-15.989C480.461,210.521,464.776,203.372,445.408,203.345z"/>
			<path fill="#FDD903" d="M445.408,205.698c-16.139,0.02-29.204,5.337-29.204,11.895c0,6.557,13.065,11.876,29.204,11.896
				c16.138-0.02,29.203-5.339,29.203-11.896C474.61,211.035,461.545,205.717,445.408,205.698z"/>
			<path fill="#D4B629" d="M445.408,229.721l-0.029-0.233v-0.233h0.029c0.46,0,0.918-0.006,1.37-0.015l0.008,0.465
				C446.328,229.717,445.869,229.72,445.408,229.721z M443.968,229.707c-0.472-0.01-0.945-0.027-1.41-0.045l0.021-0.464
				c0.462,0.019,0.929,0.033,1.397,0.042L443.968,229.707z M448.195,229.665l-0.017-0.466c0.468-0.018,0.937-0.04,1.401-0.069
				l0.026,0.466C449.139,229.623,448.671,229.648,448.195,229.665z M441.149,229.592c-0.472-0.029-0.94-0.061-1.404-0.099
				l0.036-0.465c0.463,0.036,0.928,0.07,1.397,0.1L441.149,229.592z M451.01,229.5l-0.035-0.467c0.469-0.038,0.934-0.08,1.396-0.126
				l0.046,0.465C451.952,229.417,451.484,229.46,451.01,229.5z M438.339,229.366c-0.469-0.048-0.937-0.101-1.402-0.159l0.061-0.46
				c0.457,0.055,0.92,0.106,1.389,0.154L438.339,229.366z M453.817,229.217l-0.056-0.465c0.468-0.056,0.931-0.117,1.388-0.184
				l0.068,0.46C454.756,229.097,454.29,229.159,453.817,229.217z M435.542,229.018c-0.472-0.068-0.935-0.142-1.392-0.22l0.075-0.457
				c0.458,0.076,0.917,0.151,1.385,0.218L435.542,229.018z M456.609,228.808l-0.075-0.457c0.463-0.08,0.924-0.163,1.374-0.252
				l0.092,0.459C457.542,228.645,457.079,228.728,456.609,228.808z M432.758,228.546c-0.468-0.093-0.926-0.186-1.382-0.288
				l0.103-0.457c0.448,0.103,0.908,0.195,1.369,0.288L432.758,228.546z M459.378,228.271l-0.099-0.455
				c0.461-0.103,0.916-0.21,1.361-0.322l0.113,0.452C460.304,228.059,459.844,228.166,459.378,228.271z M430.006,227.931
				c-0.463-0.116-0.918-0.24-1.366-0.366l0.128-0.448c0.441,0.127,0.892,0.247,1.349,0.363L430.006,227.931z M462.116,227.582
				l-0.125-0.448c0.456-0.13,0.903-0.265,1.34-0.402l0.14,0.444C463.029,227.312,462.579,227.451,462.116,227.582z M427.288,227.155
				c-0.456-0.146-0.904-0.298-1.339-0.454l0.158-0.438c0.431,0.152,0.872,0.306,1.322,0.449L427.288,227.155z M464.809,226.72
				l-0.158-0.438c0.447-0.159,0.882-0.328,1.304-0.498l0.175,0.431C465.703,226.388,465.262,226.556,464.809,226.72z
				 M424.629,226.192c-0.441-0.177-0.879-0.369-1.298-0.564l0.195-0.422c0.414,0.193,0.846,0.381,1.276,0.557L424.629,226.192z
				 M467.429,225.651l-0.195-0.422c0.43-0.202,0.852-0.405,1.248-0.619l0.218,0.412
				C468.297,225.236,467.868,225.449,467.429,225.651z M422.063,224.996c-0.429-0.228-0.844-0.467-1.233-0.708l0.248-0.396
				c0.379,0.235,0.787,0.469,1.203,0.692L422.063,224.996z M469.932,224.319l-0.243-0.396c0.407-0.254,0.794-0.512,1.15-0.774
				l0.276,0.376C470.746,223.793,470.35,224.06,469.932,224.319z M419.652,223.488c-0.399-0.294-0.771-0.599-1.102-0.904
				l0.313-0.345c0.321,0.295,0.679,0.589,1.066,0.876L419.652,223.488z M472.222,222.623l-0.314-0.345
				c0.354-0.322,0.675-0.651,0.956-0.985l0.356,0.299C472.927,221.94,472.59,222.288,472.222,222.623z M417.558,221.55
				c-0.325-0.392-0.602-0.789-0.826-1.188l0.404-0.228c0.212,0.375,0.473,0.751,0.776,1.118L417.558,221.55z M474.053,220.415
				l-0.406-0.232c0.23-0.405,0.412-0.822,0.533-1.233l0.448,0.13C474.496,219.53,474.3,219.978,474.053,220.415z M416.171,219.023
				c-0.132-0.472-0.2-0.951-0.2-1.431l0.466-0.013v0.013c0,0.435,0.06,0.874,0.183,1.304L416.171,219.023z M474.842,217.639
				l-0.465-0.008l0.233,0.005l-0.233-0.044c0-0.427-0.057-0.855-0.175-1.277l0.448-0.124c0.127,0.461,0.191,0.931,0.191,1.401
				L474.842,217.639L474.842,217.639z M416.625,216.262l-0.445-0.127c0.128-0.452,0.319-0.9,0.57-1.34l0.404,0.231
				C416.924,215.434,416.746,215.848,416.625,216.262z M473.688,215.075c-0.208-0.371-0.467-0.75-0.769-1.117l0.356-0.296
				c0.322,0.389,0.599,0.787,0.821,1.189L473.688,215.075z M417.931,213.916l-0.357-0.3c0.292-0.347,0.625-0.696,0.995-1.031
				l0.311,0.342C418.532,213.25,418.21,213.581,417.931,213.916z M471.973,212.965c-0.324-0.297-0.68-0.591-1.064-0.876l0.275-0.377
				c0.397,0.299,0.769,0.606,1.103,0.911L471.973,212.965z M419.952,212.055l-0.275-0.377c0.364-0.267,0.76-0.537,1.18-0.796
				l0.244,0.396C420.693,211.533,420.308,211.793,419.952,212.055z M469.762,211.31c-0.377-0.236-0.782-0.471-1.203-0.694
				l0.218-0.41c0.431,0.228,0.846,0.467,1.233,0.711L469.762,211.31z M422.305,210.59l-0.22-0.413
				c0.407-0.213,0.833-0.427,1.271-0.63l0.197,0.426C423.121,210.168,422.701,210.377,422.305,210.59z M467.313,209.996
				c-0.415-0.196-0.841-0.383-1.278-0.562l0.179-0.431c0.442,0.183,0.877,0.372,1.298,0.567L467.313,209.996z M424.83,209.413
				l-0.175-0.431c0.43-0.171,0.869-0.343,1.322-0.506l0.16,0.439C425.688,209.073,425.253,209.242,424.83,209.413z M464.733,208.934
				c-0.428-0.156-0.871-0.306-1.321-0.452l0.145-0.444c0.458,0.149,0.901,0.298,1.336,0.458L464.733,208.934z M427.456,208.465
				l-0.145-0.443c0.444-0.142,0.895-0.276,1.355-0.409l0.129,0.448C428.34,208.191,427.894,208.325,427.456,208.465z
				 M462.075,208.078c-0.441-0.126-0.891-0.249-1.352-0.365l0.115-0.45c0.464,0.116,0.918,0.24,1.363,0.365L462.075,208.078z
				 M430.146,207.701l-0.113-0.451c0.451-0.113,0.908-0.223,1.374-0.325l0.102,0.453
				C431.046,207.482,430.592,207.589,430.146,207.701z M459.361,207.392c-0.448-0.1-0.905-0.196-1.368-0.289l0.091-0.455
				c0.466,0.091,0.929,0.188,1.381,0.29L459.361,207.392z M432.878,207.093l-0.09-0.457c0.457-0.09,0.92-0.173,1.388-0.254
				l0.078,0.461C433.788,206.92,433.33,207.005,432.878,207.093z M456.616,206.851c-0.454-0.076-0.916-0.149-1.382-0.218
				l0.068-0.463c0.47,0.069,0.934,0.145,1.395,0.222L456.616,206.851z M435.637,206.625l-0.068-0.461
				c0.461-0.066,0.927-0.131,1.399-0.188l0.056,0.461C436.557,206.496,436.093,206.557,435.637,206.625z M453.848,206.444
				c-0.459-0.055-0.924-0.109-1.391-0.157l0.045-0.463c0.475,0.048,0.938,0.1,1.402,0.158L453.848,206.444z M438.416,206.28
				l-0.048-0.462c0.464-0.048,0.931-0.09,1.402-0.128l0.041,0.464C439.342,206.193,438.875,206.235,438.416,206.28z
				 M451.062,206.161c-0.461-0.039-0.927-0.074-1.398-0.1l0.027-0.466c0.476,0.029,0.943,0.063,1.408,0.101L451.062,206.161z
				 M441.208,206.058l-0.029-0.463c0.467-0.03,0.936-0.053,1.408-0.071l0.018,0.464C442.135,206.006,441.67,206.029,441.208,206.058
				z M448.263,205.991c-0.463-0.02-0.93-0.035-1.397-0.045l0.01-0.467c0.474,0.01,0.942,0.025,1.41,0.043L448.263,205.991z
				 M444.007,205.944l-0.012-0.467c0.467-0.01,0.94-0.015,1.411-0.015h0.061v0.467h-0.059
				C444.939,205.931,444.471,205.935,444.007,205.944z"/>
			<g>
				<path fill="#BF902D" d="M445.408,194.576c-19.37,0.026-35.052,7.177-35.052,15.989s15.682,15.961,35.052,15.99
					c19.369-0.029,35.053-7.177,35.053-15.99C480.461,201.752,464.776,194.601,445.408,194.576z"/>
				<path fill="#FDD903" d="M445.408,197.244c-16.139,0.018-29.204,5.337-29.204,11.894c0,6.558,13.065,11.878,29.204,11.898
					c16.138-0.02,29.203-5.34,29.203-11.898C474.61,202.581,461.545,197.262,445.408,197.244z"/>
				<path fill="#D4B629" d="M445.408,221.266l-0.029-0.23v-0.234h0.029c0.46-0.003,0.918-0.007,1.37-0.016l0.008,0.466
					C446.328,221.262,445.869,221.266,445.408,221.266z M443.968,221.252c-0.472-0.01-0.945-0.026-1.41-0.042l0.021-0.468
					c0.462,0.02,0.929,0.034,1.397,0.042L443.968,221.252z M448.195,221.211l-0.017-0.464c0.468-0.018,0.937-0.044,1.401-0.069
					l0.026,0.464C449.139,221.167,448.671,221.193,448.195,221.211z M441.149,221.138c-0.472-0.029-0.94-0.063-1.404-0.099
					l0.036-0.467c0.463,0.036,0.928,0.071,1.397,0.099L441.149,221.138z M451.01,221.045l-0.035-0.465
					c0.469-0.037,0.934-0.08,1.396-0.122l0.046,0.461C451.952,220.962,451.484,221.006,451.01,221.045z M438.339,220.91
					c-0.469-0.048-0.937-0.1-1.402-0.156l0.061-0.464c0.457,0.056,0.92,0.108,1.389,0.158L438.339,220.91z M453.817,220.76
					l-0.056-0.462c0.468-0.055,0.931-0.12,1.388-0.184l0.068,0.46C454.756,220.643,454.29,220.702,453.817,220.76z M435.542,220.564
					c-0.472-0.068-0.935-0.144-1.392-0.219l0.075-0.461c0.458,0.08,0.917,0.152,1.385,0.219L435.542,220.564z M456.609,220.355
					l-0.075-0.46c0.463-0.076,0.924-0.162,1.374-0.251l0.092,0.458C457.542,220.191,457.079,220.277,456.609,220.355z
					 M432.758,220.092c-0.468-0.092-0.926-0.189-1.382-0.289l0.103-0.455c0.448,0.1,0.908,0.197,1.369,0.288L432.758,220.092z
					 M459.378,219.815l-0.099-0.453c0.461-0.105,0.916-0.212,1.361-0.323l0.113,0.452
					C460.304,219.605,459.844,219.712,459.378,219.815z M430.006,219.476c-0.463-0.114-0.918-0.238-1.366-0.364l0.128-0.448
					c0.441,0.124,0.892,0.248,1.349,0.363L430.006,219.476z M462.116,219.126l-0.125-0.448c0.456-0.126,0.903-0.262,1.34-0.402
					l0.14,0.442C463.029,218.86,462.579,218.997,462.116,219.126z M427.288,218.701c-0.456-0.146-0.904-0.299-1.339-0.455
					l0.158-0.436c0.431,0.154,0.872,0.302,1.322,0.447L427.288,218.701z M464.809,218.265l-0.158-0.437
					c0.447-0.16,0.882-0.327,1.304-0.499l0.175,0.433C465.703,217.936,465.262,218.104,464.809,218.265z M424.629,217.738
					c-0.441-0.179-0.879-0.37-1.298-0.566l0.195-0.422c0.414,0.195,0.846,0.379,1.276,0.558L424.629,217.738z M467.429,217.198
					l-0.195-0.424c0.43-0.196,0.852-0.405,1.248-0.617l0.218,0.412C468.297,216.782,467.868,216.994,467.429,217.198z
					 M422.063,216.541c-0.429-0.23-0.844-0.467-1.233-0.708l0.248-0.396c0.379,0.236,0.787,0.469,1.203,0.692L422.063,216.541z
					 M469.932,215.866l-0.243-0.397c0.407-0.248,0.794-0.511,1.15-0.774l0.276,0.377
					C470.746,215.341,470.35,215.608,469.932,215.866z M419.652,215.034c-0.399-0.296-0.771-0.602-1.102-0.904l0.313-0.346
					c0.321,0.296,0.679,0.59,1.066,0.877L419.652,215.034z M472.222,214.167l-0.314-0.342c0.354-0.325,0.675-0.653,0.956-0.986
					l0.356,0.299C472.927,213.487,472.59,213.834,472.222,214.167z M417.558,213.094c-0.325-0.386-0.602-0.788-0.826-1.183
					l0.404-0.232c0.212,0.377,0.473,0.753,0.776,1.118L417.558,213.094z M474.053,211.959l-0.406-0.23
					c0.23-0.405,0.412-0.82,0.533-1.232l0.448,0.13C474.496,211.074,474.3,211.525,474.053,211.959z M416.171,210.567
					c-0.132-0.468-0.2-0.951-0.2-1.429l0.466-0.014v0.014c0,0.436,0.06,0.873,0.183,1.306L416.171,210.567z M474.842,209.186
					l-0.465-0.009l0.233,0.005l-0.233-0.044c0-0.426-0.057-0.854-0.175-1.277l0.448-0.125c0.127,0.462,0.191,0.934,0.191,1.401
					L474.842,209.186L474.842,209.186z M416.625,207.809l-0.445-0.129c0.128-0.448,0.319-0.9,0.57-1.337l0.404,0.229
					C416.924,206.979,416.746,207.394,416.625,207.809z M473.688,206.62c-0.208-0.374-0.467-0.751-0.769-1.117l0.356-0.296
					c0.322,0.387,0.599,0.789,0.821,1.188L473.688,206.62z M417.931,205.462l-0.357-0.3c0.292-0.349,0.625-0.696,0.995-1.032
					l0.311,0.343C418.532,204.796,418.21,205.126,417.931,205.462z M471.973,204.512c-0.324-0.295-0.68-0.591-1.064-0.879
					l0.275-0.375c0.397,0.298,0.769,0.602,1.103,0.911L471.973,204.512z M419.952,203.599l-0.275-0.371
					c0.364-0.27,0.76-0.54,1.18-0.799l0.244,0.396C420.693,203.077,420.308,203.339,419.952,203.599z M469.762,202.856
					c-0.377-0.236-0.782-0.469-1.203-0.696l0.218-0.409c0.431,0.229,0.846,0.468,1.233,0.708L469.762,202.856z M422.305,202.135
					l-0.22-0.41c0.407-0.216,0.833-0.428,1.271-0.631l0.197,0.421C423.121,201.715,422.701,201.921,422.305,202.135z
					 M467.313,201.542c-0.415-0.196-0.841-0.383-1.278-0.561l0.179-0.431c0.442,0.182,0.877,0.371,1.298,0.569L467.313,201.542z
					 M424.83,200.958l-0.175-0.43c0.43-0.173,0.869-0.343,1.322-0.506l0.16,0.436C425.688,200.623,425.253,200.787,424.83,200.958z
					 M464.733,200.479c-0.428-0.155-0.871-0.304-1.321-0.45l0.145-0.444c0.458,0.149,0.901,0.299,1.336,0.457L464.733,200.479z
					 M427.456,200.011l-0.145-0.443c0.444-0.141,0.895-0.277,1.355-0.409l0.129,0.449
					C428.34,199.735,427.894,199.871,427.456,200.011z M462.075,199.623c-0.441-0.125-0.891-0.248-1.352-0.363l0.115-0.453
					c0.464,0.115,0.918,0.24,1.363,0.366L462.075,199.623z M430.146,199.246l-0.113-0.451c0.451-0.113,0.908-0.223,1.374-0.325
					l0.102,0.454C431.046,199.026,430.592,199.134,430.146,199.246z M459.361,198.935c-0.448-0.1-0.905-0.193-1.368-0.285
					l0.091-0.456c0.466,0.089,0.929,0.188,1.381,0.287L459.361,198.935z M432.878,198.639l-0.09-0.457
					c0.457-0.088,0.92-0.172,1.388-0.253l0.078,0.459C433.788,198.465,433.33,198.55,432.878,198.639z M456.616,198.396
					c-0.454-0.079-0.916-0.149-1.382-0.219l0.068-0.46c0.47,0.07,0.934,0.142,1.395,0.222L456.616,198.396z M435.637,198.168
					l-0.068-0.46c0.461-0.068,0.927-0.132,1.399-0.188l0.056,0.463C436.557,198.04,436.093,198.102,435.637,198.168z
					 M453.848,197.99c-0.459-0.056-0.924-0.107-1.391-0.158l0.045-0.463c0.475,0.048,0.938,0.101,1.402,0.16L453.848,197.99z
					 M438.416,197.827l-0.048-0.463c0.464-0.049,0.931-0.089,1.402-0.128l0.041,0.465
					C439.342,197.74,438.875,197.781,438.416,197.827z M451.062,197.705c-0.461-0.035-0.927-0.068-1.398-0.098l0.027-0.466
					c0.476,0.028,0.943,0.06,1.408,0.1L451.062,197.705z M441.208,197.605l-0.029-0.466c0.467-0.028,0.936-0.053,1.408-0.072
					l0.018,0.467C442.135,197.552,441.67,197.576,441.208,197.605z M448.263,197.535c-0.463-0.016-0.93-0.032-1.397-0.042
					l0.01-0.467c0.474,0.01,0.942,0.026,1.41,0.046L448.263,197.535z M444.007,197.489l-0.012-0.465
					c0.467-0.008,0.94-0.014,1.411-0.015h0.061v0.467h-0.059C444.939,197.477,444.471,197.48,444.007,197.489z"/>
			</g>
			<g>
				<path fill="#BF902D" d="M445.408,186.437c-19.37,0.029-35.052,7.174-35.052,15.99c0,8.812,15.682,15.961,35.052,15.984
					c19.369-0.023,35.053-7.172,35.053-15.984C480.461,193.611,464.776,186.466,445.408,186.437z"/>
				<path fill="#FDD903" d="M445.408,189.104c-16.139,0.022-29.204,5.338-29.204,11.895c0,6.56,13.065,11.877,29.204,11.898
					c16.138-0.022,29.203-5.337,29.203-11.898C474.61,194.442,461.545,189.125,445.408,189.104z"/>
				<path fill="#D4B629" d="M445.408,213.129l-0.029-0.233v-0.232h0.029c0.46-0.003,0.918-0.01,1.37-0.016l0.008,0.464
					C446.328,213.123,445.869,213.129,445.408,213.129z M443.968,213.112c-0.472-0.01-0.945-0.024-1.41-0.043l0.021-0.465
					c0.462,0.018,0.929,0.034,1.397,0.043L443.968,213.112z M448.195,213.072l-0.017-0.467c0.468-0.019,0.937-0.042,1.401-0.068
					l0.026,0.463C449.139,213.03,448.671,213.053,448.195,213.072z M441.149,212.997c-0.472-0.029-0.94-0.061-1.404-0.097
					l0.036-0.464c0.463,0.035,0.928,0.068,1.397,0.098L441.149,212.997z M451.01,212.904l-0.035-0.464
					c0.469-0.037,0.934-0.08,1.396-0.126l0.046,0.461C451.952,212.823,451.484,212.866,451.01,212.904z M438.339,212.77
					c-0.469-0.044-0.937-0.099-1.402-0.157l0.061-0.461c0.457,0.055,0.92,0.107,1.389,0.156L438.339,212.77z M453.817,212.622
					l-0.056-0.463c0.468-0.058,0.931-0.118,1.388-0.188l0.068,0.461C454.756,212.501,454.29,212.563,453.817,212.622z
					 M435.542,212.425c-0.472-0.068-0.935-0.14-1.392-0.22l0.075-0.458c0.458,0.076,0.917,0.149,1.385,0.219L435.542,212.425z
					 M456.609,212.215l-0.075-0.46c0.463-0.081,0.924-0.163,1.374-0.249l0.092,0.457
					C457.542,212.053,457.079,212.138,456.609,212.215z M432.758,211.951c-0.468-0.087-0.926-0.186-1.382-0.289l0.103-0.454
					c0.448,0.1,0.908,0.197,1.369,0.287L432.758,211.951z M459.378,211.675l-0.099-0.454c0.461-0.102,0.916-0.211,1.361-0.322
					l0.113,0.452C460.304,211.466,459.844,211.573,459.378,211.675z M430.006,211.336c-0.463-0.116-0.918-0.238-1.366-0.364
					l0.128-0.449c0.441,0.126,0.892,0.248,1.349,0.364L430.006,211.336z M462.116,210.985l-0.125-0.447
					c0.456-0.13,0.903-0.266,1.34-0.402l0.14,0.442C463.029,210.721,462.579,210.857,462.116,210.985z M427.288,210.561
					c-0.456-0.148-0.904-0.298-1.339-0.453l0.158-0.441c0.431,0.154,0.872,0.306,1.322,0.45L427.288,210.561z M464.809,210.128
					l-0.158-0.439c0.447-0.162,0.882-0.327,1.304-0.499l0.175,0.432C465.703,209.794,465.262,209.963,464.809,210.128z
					 M424.629,209.601c-0.441-0.18-0.879-0.371-1.298-0.566l0.195-0.422c0.414,0.194,0.846,0.378,1.276,0.557L424.629,209.601z
					 M467.429,209.059l-0.195-0.423c0.43-0.199,0.852-0.409,1.248-0.615l0.218,0.409
					C468.297,208.642,467.868,208.857,467.429,209.059z M422.063,208.401c-0.429-0.229-0.844-0.465-1.233-0.71l0.248-0.396
					c0.379,0.237,0.787,0.471,1.203,0.695L422.063,208.401z M469.932,207.723l-0.243-0.395c0.407-0.251,0.794-0.511,1.15-0.774
					l0.276,0.377C470.746,207.202,470.35,207.469,469.932,207.723z M419.652,206.896c-0.399-0.297-0.771-0.602-1.102-0.907
					l0.313-0.343c0.321,0.293,0.679,0.589,1.066,0.876L419.652,206.896z M472.222,206.029l-0.314-0.344
					c0.354-0.323,0.675-0.653,0.956-0.984L473.22,205C472.927,205.348,472.59,205.696,472.222,206.029z M417.558,204.956
					c-0.325-0.39-0.602-0.787-0.826-1.186l0.404-0.228c0.212,0.374,0.473,0.749,0.776,1.115L417.558,204.956z M474.053,203.821
					l-0.406-0.23c0.23-0.405,0.412-0.821,0.533-1.233l0.448,0.129C474.496,202.935,474.3,203.384,474.053,203.821z M416.171,202.429
					c-0.132-0.47-0.2-0.952-0.2-1.431l0.466-0.014v0.014c0,0.435,0.06,0.875,0.183,1.304L416.171,202.429z M474.842,201.047
					l-0.465-0.008l0.233,0.004l-0.233-0.045c0-0.423-0.057-0.856-0.175-1.276l0.448-0.125c0.127,0.461,0.191,0.932,0.191,1.401
					L474.842,201.047L474.842,201.047z M416.625,199.669l-0.445-0.128c0.128-0.449,0.319-0.902,0.57-1.336l0.404,0.229
					C416.924,198.84,416.746,199.253,416.625,199.669z M473.688,198.483c-0.208-0.377-0.467-0.753-0.769-1.12l0.356-0.295
					c0.322,0.389,0.599,0.787,0.821,1.189L473.688,198.483z M417.931,197.321l-0.357-0.301c0.292-0.344,0.625-0.694,0.995-1.03
					l0.311,0.344C418.532,196.658,418.21,196.988,417.931,197.321z M471.973,196.373c-0.324-0.299-0.68-0.592-1.064-0.879
					l0.275-0.373c0.397,0.297,0.769,0.603,1.103,0.907L471.973,196.373z M419.952,195.461l-0.275-0.373
					c0.364-0.272,0.76-0.539,1.18-0.798l0.244,0.396C420.693,194.938,420.308,195.2,419.952,195.461z M469.762,194.717
					c-0.377-0.235-0.782-0.469-1.203-0.696l0.218-0.409c0.431,0.229,0.846,0.47,1.233,0.708L469.762,194.717z M422.305,193.995
					l-0.22-0.409c0.407-0.217,0.833-0.428,1.271-0.633l0.197,0.424C423.121,193.576,422.701,193.784,422.305,193.995z
					 M467.313,193.403c-0.415-0.196-0.841-0.382-1.278-0.56l0.179-0.43c0.442,0.179,0.877,0.369,1.298,0.565L467.313,193.403z
					 M424.83,192.819l-0.175-0.43c0.43-0.174,0.869-0.342,1.322-0.507l0.16,0.44C425.688,192.483,425.253,192.649,424.83,192.819z
					 M464.733,192.341c-0.428-0.154-0.871-0.306-1.321-0.453l0.145-0.441c0.458,0.147,0.901,0.299,1.336,0.455L464.733,192.341z
					 M427.456,191.871l-0.145-0.443c0.444-0.142,0.895-0.278,1.355-0.409l0.129,0.448
					C428.34,191.597,427.894,191.731,427.456,191.871z M462.075,191.484c-0.441-0.127-0.891-0.248-1.352-0.364l0.115-0.45
					c0.464,0.118,0.918,0.241,1.363,0.369L462.075,191.484z M430.146,191.107l-0.113-0.452c0.451-0.116,0.908-0.222,1.374-0.325
					l0.102,0.454C431.046,190.886,430.592,190.995,430.146,191.107z M459.361,190.795c-0.448-0.098-0.905-0.194-1.368-0.286
					l0.091-0.456c0.466,0.092,0.929,0.189,1.381,0.289L459.361,190.795z M432.878,190.501l-0.09-0.46
					c0.457-0.089,0.92-0.175,1.388-0.251l0.078,0.458C433.788,190.328,433.33,190.412,432.878,190.501z M456.616,190.258
					c-0.454-0.078-0.916-0.151-1.382-0.22l0.068-0.46c0.47,0.068,0.934,0.144,1.395,0.219L456.616,190.258z M435.637,190.03
					l-0.068-0.46c0.461-0.069,0.927-0.13,1.399-0.186l0.056,0.461C436.557,189.902,436.093,189.966,435.637,190.03z
					 M453.848,189.852c-0.459-0.058-0.924-0.112-1.391-0.159l0.045-0.462c0.475,0.048,0.938,0.101,1.402,0.16L453.848,189.852z
					 M438.416,189.688l-0.048-0.461c0.464-0.052,0.931-0.091,1.402-0.13l0.041,0.465C439.342,189.6,438.875,189.642,438.416,189.688
					z M451.062,189.565c-0.461-0.036-0.927-0.068-1.398-0.097l0.027-0.467c0.476,0.032,0.943,0.062,1.408,0.101L451.062,189.565z
					 M441.208,189.466l-0.029-0.465c0.467-0.032,0.936-0.052,1.408-0.074l0.018,0.467
					C442.135,189.413,441.67,189.436,441.208,189.466z M448.263,189.398c-0.463-0.022-0.93-0.033-1.397-0.045l0.01-0.465
					c0.474,0.008,0.942,0.023,1.41,0.043L448.263,189.398z M444.007,189.352l-0.012-0.466c0.467-0.009,0.94-0.016,1.411-0.016h0.061
					v0.467h-0.059C444.939,189.338,444.471,189.342,444.007,189.352z"/>
			</g>
			<g>
				<path fill="#FACA47" d="M445.408,174.833c-19.37,0.029-35.052,7.175-35.052,15.99c0,8.811,15.682,15.96,35.052,15.986
					c19.369-0.026,35.053-7.175,35.053-15.986C480.461,182.008,464.776,174.862,445.408,174.833z"/>
				<g>
					<path fill="#DDB250" d="M474.073,238.138c-1.829,1.127-3.977,2.138-6.387,3.016c-1.967,0.713-4.107,1.334-6.387,1.85
						c-2.028,0.46-4.161,0.837-6.387,1.117c-2.06,0.255-4.195,0.434-6.387,0.523c-1.027,0.037-2.067,0.062-3.118,0.062
						c-1.104,0-2.195-0.025-3.268-0.069c-2.192-0.092-4.328-0.274-6.388-0.538c-2.225-0.283-4.36-0.667-6.386-1.129
						c-2.282-0.523-4.42-1.15-6.388-1.874c-2.412-0.886-4.559-1.912-6.384-3.05c-3.156-1.967-5.343-4.265-6.237-6.763
						c0,2.154,0,6.55,0,8.557c1.019,2.335,3.193,4.518,6.237,6.419c1.832,1.145,3.981,2.18,6.384,3.085
						c1.973,0.738,4.113,1.39,6.388,1.929c2.03,0.483,4.164,0.879,6.386,1.175c2.064,0.278,4.198,0.473,6.388,0.57
						c1.079,0.048,2.166,0.073,3.268,0.075c1.048-0.003,2.089-0.025,3.118-0.069c2.189-0.095,4.326-0.282,6.387-0.553
						c2.222-0.293,4.357-0.683,6.387-1.162c2.276-0.534,4.417-1.177,6.387-1.91c2.401-0.892,4.548-1.916,6.387-3.046
						c3.12-1.922,5.35-4.141,6.388-6.512c0-2.007,0-6.404,0-8.557C479.55,233.817,477.307,236.152,474.073,238.138z"/>
					<path fill="#DDB250" d="M474.073,227.797c-1.829,1.123-3.977,2.137-6.387,3.012c-1.967,0.711-4.107,1.335-6.387,1.852
						c-2.028,0.459-4.161,0.836-6.387,1.117c-2.06,0.256-4.195,0.435-6.387,0.522c-1.027,0.042-2.067,0.066-3.118,0.066
						c-1.104,0-2.195-0.027-3.268-0.072c-2.192-0.095-4.328-0.274-6.388-0.538c-2.225-0.284-4.36-0.665-6.386-1.129
						c-2.282-0.521-4.42-1.152-6.388-1.872c-2.412-0.887-4.559-1.913-6.384-3.051c-3.156-1.968-5.343-4.269-6.237-6.763
						c0,2.154,0,6.55,0,8.558c1.019,2.333,3.193,4.518,6.237,6.418c1.832,1.144,3.981,2.181,6.384,3.085
						c1.973,0.742,4.113,1.388,6.388,1.927c2.03,0.485,4.164,0.879,6.386,1.178c2.064,0.276,4.198,0.468,6.388,0.568
						c1.079,0.048,2.166,0.075,3.268,0.075c1.048,0,2.089-0.024,3.118-0.069c2.189-0.093,4.326-0.28,6.387-0.555
						c2.222-0.29,4.357-0.685,6.387-1.16c2.276-0.533,4.417-1.175,6.387-1.909c2.401-0.892,4.548-1.917,6.387-3.051
						c3.12-1.921,5.35-4.138,6.388-6.508c0-2.008,0-6.513,0-8.666C479.55,223.364,477.307,225.806,474.073,227.797z"/>
					<path fill="#DDB250" d="M474.073,218.08c-1.829,1.126-3.977,2.138-6.387,3.013c-1.967,0.718-4.107,1.338-6.387,1.852
						c-2.028,0.46-4.161,0.838-6.387,1.117c-2.06,0.258-4.195,0.433-6.387,0.523c-1.027,0.042-2.067,0.064-3.118,0.065
						c-1.104-0.001-2.195-0.025-3.268-0.07c-2.192-0.093-4.328-0.275-6.388-0.539c-2.225-0.283-4.36-0.666-6.386-1.13
						c-2.282-0.521-4.42-1.15-6.388-1.871c-2.412-0.889-4.559-1.913-6.384-3.053c-3.156-1.967-5.343-4.267-6.237-6.761
						c0,2.155,0,6.55,0,8.556c1.019,2.335,3.193,4.52,6.237,6.42c1.832,1.143,3.981,2.181,6.384,3.085
						c1.973,0.741,4.113,1.389,6.388,1.93c2.03,0.479,4.164,0.878,6.386,1.175c2.064,0.277,4.198,0.472,6.388,0.569
						c1.079,0.046,2.166,0.074,3.268,0.074c1.048,0,2.089-0.024,3.118-0.068c2.189-0.094,4.326-0.28,6.387-0.552
						c2.222-0.293,4.357-0.687,6.387-1.163c2.276-0.532,4.417-1.175,6.387-1.906c2.401-0.893,4.548-1.921,6.387-3.049
						c3.12-1.919,5.35-4.137,6.388-6.514c0-2.005,0-6.4,0-8.556C479.55,213.76,477.307,216.093,474.073,218.08z"/>
					<path fill="#DDB250" d="M474.073,208.366c-1.829,1.125-3.977,2.139-6.387,3.017c-1.967,0.713-4.107,1.333-6.387,1.852
						c-2.028,0.459-4.161,0.834-6.387,1.115c-2.06,0.258-4.195,0.434-6.387,0.523c-1.027,0.041-2.067,0.066-3.118,0.068
						c-1.104-0.002-2.195-0.027-3.268-0.072c-2.192-0.093-4.328-0.274-6.388-0.539c-2.225-0.283-4.36-0.666-6.386-1.13
						c-2.282-0.521-4.42-1.151-6.388-1.873c-2.412-0.887-4.559-1.914-6.384-3.051c-3.156-1.969-5.343-4.269-6.237-6.764
						c0,2.154,0,6.551,0,8.56c1.019,2.333,3.193,4.518,6.237,6.419c1.832,1.143,3.981,2.18,6.384,3.083
						c1.973,0.74,4.113,1.388,6.388,1.93c2.03,0.479,4.164,0.876,6.386,1.175c2.064,0.276,4.198,0.471,6.388,0.568
						c1.079,0.048,2.166,0.074,3.268,0.077c1.048-0.003,2.089-0.026,3.118-0.071c2.189-0.093,4.326-0.283,6.387-0.552
						c2.222-0.293,4.357-0.686,6.387-1.163c2.276-0.534,4.417-1.176,6.387-1.907c2.401-0.894,4.548-1.922,6.387-3.053
						c3.12-1.918,5.35-4.138,6.388-6.507c0-2.009,0-6.405,0-8.56C479.55,204.046,477.307,206.38,474.073,208.366z"/>
					<path fill="#DDB250" d="M474.073,198.337c-1.829,1.124-3.977,2.139-6.387,3.014c-1.967,0.717-4.107,1.338-6.387,1.852
						c-2.028,0.46-4.161,0.838-6.387,1.116c-2.06,0.259-4.195,0.435-6.387,0.525c-1.027,0.044-2.067,0.065-3.118,0.065
						c-1.104,0-2.195-0.023-3.268-0.069c-2.192-0.094-4.328-0.274-6.388-0.539c-2.225-0.282-4.36-0.665-6.386-1.129
						c-2.282-0.525-4.42-1.151-6.388-1.874c-2.412-0.888-4.559-1.913-6.384-3.051c-3.156-1.968-5.343-4.268-6.237-6.763
						c0,2.154,0,6.55,0,8.559c1.019,2.333,3.193,4.519,6.237,6.417c1.832,1.143,3.981,2.181,6.384,3.086
						c1.973,0.742,4.113,1.388,6.388,1.93c2.03,0.48,4.164,0.878,6.386,1.174c2.064,0.277,4.198,0.472,6.388,0.57
						c1.079,0.046,2.166,0.073,3.268,0.074c1.048-0.001,2.089-0.024,3.118-0.069c2.189-0.092,4.326-0.28,6.387-0.554
						c2.222-0.291,4.357-0.685,6.387-1.162c2.276-0.532,4.417-1.174,6.387-1.908c2.401-0.892,4.548-1.917,6.387-3.048
						c3.12-1.923,5.35-4.141,6.388-6.51c0-2.009,0-6.405,0-8.559C479.55,194.019,477.307,196.351,474.073,198.337z"/>
				</g>
			</g>
			<path fill="#DDB250" d="M445.529,202.161h-0.003c-15.047-0.017-31.038-4.385-31.038-12.452c0-8.064,15.991-12.435,31.038-12.45
				c15.05,0.015,31.041,4.386,31.041,12.45C476.567,197.775,460.576,202.143,445.529,202.161z M445.526,180.716
				c-16.126,0.018-27.368,4.753-27.368,8.992c0,4.239,11.241,8.974,27.37,8.992c16.128-0.018,27.37-4.753,27.37-8.992
				C472.898,185.469,461.656,180.735,445.526,180.716z"/>
			<g>
				<path fill="#DDB250" d="M467.132,190.258h-5.023c-0.159,1.616-1.11,3.186-2.273,4.102l-6.186-0.723
					c1.215-1.014,2.326-2.438,2.326-4.006c0-1.375-1.163-2.317-3.279-2.317c-2.009,0-3.277,0.773-4.599,2.559
					c-1.903,2.582-4.548,4.343-9.677,4.343c-4.653,0-8.301-1.497-9.412-4.077h-5.023v-2.365h4.654
					c0.158-1.617,0.898-2.703,1.744-3.499l5.976,0.7c-0.583,0.627-1.799,1.738-1.799,3.475c0,1.568,1.481,2.075,2.961,2.075
					c1.746,0,2.855-0.846,4.547-2.895c2.22-2.872,5.129-4.03,9.887-4.03c4.706,0,8.726,1.52,9.784,4.296h5.393v2.362H467.132z"/>
			</g>
		</g>
		<g>
			
				<rect x="420.502" y="182.487" transform="matrix(-0.9605 0.2784 -0.2784 -0.9605 1012.4094 283.5614)" fill="#FFFFFF" width="131.139" height="62.351"/>
			<g>
				<path fill="none" d="M538.993,186.422c-6.615,1.917-13.531-1.89-15.448-8.505c-0.046-0.159-0.074-0.319-0.113-0.478
					l-88.226,25.569c0.048,0.147,0.106,0.287,0.151,0.437c1.916,6.615-1.891,13.531-8.505,15.448
					c-0.091,0.027-0.183,0.04-0.272,0.065l6.45,22.254c0.089-0.028,0.174-0.065,0.264-0.091c6.615-1.917,13.53,1.89,15.447,8.505
					c0.025,0.086,0.038,0.171,0.061,0.256l88.205-25.563c-0.023-0.075-0.054-0.146-0.076-0.222
					c-1.916-6.614,1.891-13.53,8.506-15.447c0.052-0.016,0.105-0.023,0.156-0.038l-6.447-22.242
					C539.094,186.385,539.046,186.407,538.993,186.422z"/>
				<path fill="#60BA78" d="M523.135,172.987l-90.049,26.098l-15.502,4.492l4.563,15.742l6.943,23.958l4.507,15.55l15.571-4.513
					l89.889-26.051l15.468-4.483l-4.511-15.564l-6.919-23.874l-4.582-15.81L523.135,172.987z M545.592,208.612
					c-0.052,0.015-0.104,0.023-0.156,0.038c-6.615,1.917-10.424,8.833-8.506,15.447c0.023,0.075,0.053,0.146,0.076,0.222
					l-88.205,25.563c-0.023-0.086-0.035-0.171-0.061-0.256c-1.917-6.615-8.833-10.423-15.447-8.505
					c-0.091,0.026-0.176,0.062-0.264,0.091l-6.45-22.254c0.09-0.025,0.182-0.038,0.272-0.065c6.615-1.917,10.422-8.833,8.505-15.448
					c-0.044-0.151-0.102-0.291-0.151-0.437l88.227-25.569c0.04,0.159,0.067,0.319,0.113,0.478
					c1.917,6.615,8.833,10.423,15.448,8.505c0.052-0.015,0.1-0.036,0.151-0.052L545.592,208.612z"/>
			</g>
			<g>
				<circle fill="#60BA78" cx="486.054" cy="213.677" r="20.19"/>
				<g>
					<g>
						<path fill="#FFFFFF" d="M488.49,229.486l-1.028-3.547c-2.534,0.613-5.155,0.645-6.813,0.234l-0.145-4.692
							c1.817,0.405,4.247,0.551,6.674-0.153c2.128-0.616,3.346-1.861,2.913-3.356c-0.411-1.418-1.865-1.967-4.898-2.101
							c-4.385-0.186-7.653-1.263-8.703-4.885c-0.952-3.285,0.618-6.533,4.385-8.475l-1.027-3.547l3.659-1.06l0.953,3.287
							c2.534-0.614,4.365-0.576,5.771-0.338l0.14,4.534c-1.09-0.13-3.057-0.491-5.745,0.289c-2.426,0.704-2.908,1.976-2.605,3.022
							c0.357,1.232,1.891,1.636,5.412,1.912c4.898,0.28,7.284,1.814,8.259,5.175c0.963,3.323-0.567,6.843-4.644,8.834l1.104,3.808
							L488.49,229.486z"/>
					</g>
				</g>
			</g>
		</g>
		<g>
			<path fill="#D9D8D6" d="M524.222,204.436c-6.681,38.689-40.4,68.119-80.997,68.119c-2.63,0-5.227-0.129-7.794-0.37
				c12.826,9.448,28.455,14.998,45.321,14.998c43.59,0,78.928-37.047,78.928-82.747L524.222,204.436L524.222,204.436z"/>
			<path fill="#FFFFFF" d="M524.222,204.436H401.823c0,28.018,13.284,52.779,33.607,67.748c2.566,0.242,5.164,0.37,7.794,0.37
				C483.821,272.554,517.54,243.124,524.222,204.436z"/>
		</g>
	</g>
	<g>
		<rect x="293.679" y="144.093" fill="#FFFFFF" width="24.452" height="206.457"/>
		<g>
			<g>
				<path fill="#D9D8D6" d="M328.973,368.794c0-11.477-9.303-20.78-20.78-20.78h-4.576c-11.478,0-20.779,9.303-20.779,20.78v30.2
					h46.136V368.794z"/>
			</g>
		</g>
		<g>
			<path fill="#CCCCCC" d="M343.391,398.763h-74.971c-8.833,0-16.164,6.37-17.688,14.763h110.346
				C359.557,405.134,352.224,398.763,343.391,398.763z"/>
		</g>
		<g>
			<path fill="#BCBCBC" d="M413.633,434.076c0-11.477-9.304-20.78-20.78-20.78H218.956c-11.477,0-20.779,9.303-20.779,20.78v0.213
				h215.456L413.633,434.076L413.633,434.076z"/>
		</g>
		<path fill="#D9D8D6" d="M310.65,70.659c-0.084-0.023-0.165-0.048-0.25-0.07c-0.165-0.041-0.338-0.074-0.504-0.11
			c-1.214-0.273-2.5-0.435-3.876-0.435c-0.04,0-0.077,0.004-0.114,0.004c-0.041,0-0.078-0.004-0.115-0.004
			c-1.376,0-2.662,0.163-3.875,0.435c-0.169,0.036-0.338,0.069-0.505,0.11c-0.084,0.022-0.169,0.048-0.254,0.07
			c-13.055,3.397-16.589,19.915-16.589,19.915v2.307v40.601v0.46c0.558,0.385,1.048,0.784,1.509,1.187
			c1.776,2.107,4.488,5.929,4.488,9.655h30.68c0-3.726,2.713-7.548,4.492-9.655c0.46-0.403,0.95-0.802,1.509-1.187v-0.46v-40.6
			v-2.307C327.244,90.574,323.705,74.055,310.65,70.659z"/>
		<circle fill="#FFFFFF" cx="305.905" cy="107.414" r="4.845"/>
		<path fill="#D9D8D6" d="M318.362,58.507c0,11.594-5.577,14.764-12.457,14.764c-6.88,0-12.457-3.17-12.457-14.764
			c0-11.593,12.457-27.219,12.457-27.219S318.362,46.915,318.362,58.507z"/>
	</g>
	<g>
		<path fill="#FFFFFF" d="M193.757,268.362c-0.937,0-1.854-0.467-2.393-1.317l-71.518-113.081L47.21,265.912
			c-0.85,1.311-2.601,1.684-3.912,0.834c-1.311-0.85-1.684-2.601-0.833-3.912l75.038-115.653c0.525-0.808,1.433-1.29,2.389-1.289
			c0.964,0.006,1.858,0.502,2.374,1.317l73.879,116.813c0.834,1.32,0.441,3.068-0.879,3.903
			C194.797,268.22,194.275,268.361,193.757,268.362z"/>
		<g>
			<rect x="64.899" y="188.281" fill="#FFFFFF" width="114.21" height="69.817"/>
			<polygon fill="#BCBCBC" points="64.899,258.098 64.899,312.405 179.109,309.302 179.109,258.098 			"/>
		</g>
		<g>
			<circle fill="#FFFFFF" cx="118.886" cy="135.49" r="15.219"/>
			<circle fill="#CCCBC9" cx="118.886" cy="135.49" r="10.012"/>
		</g>
		<g>
			<rect x="74.737" y="308.671" fill="#EBA8A0" width="8.742" height="7.507"/>
			<rect x="74.737" y="319.594" fill="#83CFEE" width="8.742" height="7.507"/>
			<rect x="125.88" y="308.671" fill="#C8DB57" width="8.74" height="7.507"/>
			<rect x="125.88" y="319.594" fill="#F3BC5A" width="8.74" height="7.506"/>
			<rect x="88.202" y="311.018" fill="#C0C0C0" width="10.275" height="3.049"/>
			<rect x="88.202" y="322.278" fill="#C0C0C0" width="10.275" height="2.816"/>
			<rect x="138.292" y="311.018" fill="#C0C0C0" width="10.276" height="3.049"/>
			<rect x="138.292" y="322.278" fill="#C0C0C0" width="10.276" height="2.817"/>
			<g>
				<g>
					<path fill="#8A8387" d="M73.527,249.785v54.429h12.539h85.168h3.629v-54.429L73.527,249.785L73.527,249.785z M136.055,252.301
						h15.783v10.237h-15.783V252.301z M97.258,252.301h15.775v10.237H97.258V252.301z M93.609,301.668h-0.028h-4.45H84.9h-6.636
						h-1.307v-2.235v-3.739v-2.205v-1.377v-0.043h11.286c-0.023,0.014-0.044,0.028-0.068,0.043h5.319
						c0.022-0.016,0.043-0.029,0.066-0.043h0.049V301.668z M93.609,288.534c-0.132,0.088-0.265,0.177-0.399,0.267v0.74h-1.115
						h-14.66h-0.479l-0.006-10.964h0.486v-0.029h15.775v0.029h0.399L93.609,288.534L93.609,288.534z M93.621,276.037H76.957v-10.974
						h16.664V276.037z M93.621,262.538H76.957V252.3h16.664V262.538z M113.032,301.668H97.258v-9.6h15.775V301.668z
						 M113.071,289.542h-0.044h-15.63h-0.1V286.1c-0.014,0.008-0.026,0.016-0.038,0.025v-7.548h0.038v-0.029h15.775V289.542z
						 M113.071,276.021h-0.637c-0.008,0.006-0.017,0.01-0.024,0.016H97.258v-10.964h15.769v0.711h0.044
						C113.071,265.784,113.071,276.021,113.071,276.021z M132.437,301.668h-15.781v-9.6h15.782L132.437,301.668L132.437,301.668z
						 M132.437,289.542h-15.781v-10.797h0.004v-0.196h15.775v4.525h0.002V289.542z M132.437,276.037h-15.693l-0.088-0.014v-10.961
						h15.782C132.437,265.062,132.437,276.037,132.437,276.037z M132.437,262.538h-15.781V252.3h15.782L132.437,262.538
						L132.437,262.538z M151.838,301.668h-15.783v-9.6h15.783V301.668z M151.924,288.811h-0.086v0.731h-15.783v-5.475l0.095,0.026
						v-2.715l-0.095-0.026v-2.774h0.095v-0.002h15.774V288.811z M151.838,276.037h-2.76h-13.024v-10.974h15.783v0.578V276.037z
						 M171.234,301.668h-15.769v-9.6h15.769V301.668z M171.234,289.542h-15.769v-10.964h15.769V289.542z M171.488,275.34
						l0.005,0.709l-0.259-0.012h-15.769v-10.974h3.056l-0.035,0.042h4.252l0.035-0.042h8.461v0.042h0.254V275.34z M171.488,262.538
						h-0.254v0.008h-6.268l0.006-0.008H160.7h-4.987h-0.248V252.3h0.248h13.821h1.954V262.538z"/>
				</g>
			</g>
			<polygon fill="#EBA8A0" points="76.827,301.032 75.512,299.334 95.079,284.377 106.021,289.671 124.953,276.202 134.381,284.416 
				148.348,262.424 173.351,285.26 171.889,286.838 148.792,265.741 134.86,287.682 124.818,278.936 106.234,292.158 
				95.336,286.885 			"/>
			<polygon fill="#83CFEE" points="143.992,283.822 122.947,269.61 109.226,275.469 101.123,274.498 86.74,281.09 75.756,283.618 
				75.269,281.529 86.038,279.052 100.774,272.297 108.909,273.273 123.182,267.176 144.135,281.325 172.849,266.331 
				173.853,268.229 			"/>
			<polygon fill="#C8DB57" points="104.83,296.857 86.076,286.154 75.222,291.592 74.251,289.68 86.142,283.719 104.903,294.427 
				124.572,284.707 140.39,292.888 161.139,280.732 173.068,277.507 173.634,279.574 161.984,282.725 140.457,295.337 
				124.548,287.111 			"/>
			<polygon fill="#F3BC5A" points="75.736,295.217 74.801,293.285 103.556,279.602 109.735,281.909 138.396,258.725 148.731,269.77 
				172.745,253.605 173.955,255.376 148.41,272.576 138.19,261.656 110.136,284.349 103.657,281.93 			"/>
			<rect x="73.527" y="253.917" fill="#8A8387" width="3.43" height="48.45"/>
			<rect x="171.168" y="249.785" fill="#8A8387" width="3.696" height="54.429"/>
		</g>
		<g>
			<path fill="#D9D8D6" d="M162.719,260.658c-6.681,38.689-40.4,68.119-80.997,68.119c-2.63,0-5.228-0.129-7.794-0.37
				c12.826,9.448,28.454,14.998,45.32,14.998c43.59,0,78.928-37.047,78.928-82.747H162.719z"/>
			<path fill="#FFFFFF" d="M162.719,260.658H40.322c0,28.018,13.284,52.779,33.607,67.748c2.566,0.241,5.164,0.37,7.794,0.37
				C122.319,328.777,156.039,299.347,162.719,260.658z"/>
		</g>
	</g>
	<g>
		<path fill="#355672" d="M84.309,231.389h-4.326v-25.957h8.999c5.394,0,9.748,4.355,9.748,9.719c0,3.778-2.135,7.038-5.25,8.652
			l4.529,7.585H92.24l-3.864-6.49h-4.067V231.389z M88.982,209.758h-4.672v10.816h4.672c2.999,0,5.421-2.423,5.421-5.422
			C94.403,212.181,91.981,209.758,88.982,209.758z"/>
		<path fill="#355672" d="M115.325,205.433c7.153,0,12.979,5.825,12.979,12.979c0,7.152-5.825,12.979-12.979,12.979
			c-7.182,0-12.979-5.826-12.979-12.979C102.347,211.258,108.144,205.433,115.325,205.433z M115.325,209.758
			c-4.788,0-8.652,3.866-8.652,8.652c0,4.787,3.864,8.652,8.652,8.652c4.759,0,8.652-3.866,8.652-8.652
			C123.978,213.624,120.084,209.758,115.325,209.758z"/>
		<path fill="#355672" d="M138.416,205.433v25.957h-4.327v-25.957H138.416z"/>
		<path fill="#355672" d="M148.517,212.642l-4.327-1.442c0-2.74,3.23-5.767,7.21-5.767c3.981,0,7.21,3.23,7.21,7.21
			c0,3.288-2.219,6.086-5.249,6.952c-0.289,0.087-0.519,0.346-0.519,0.692v2.451h-4.325v-4.325c0-1.587,1.297-2.884,2.884-2.884
			c1.585,0,2.884-1.298,2.884-2.885c0-1.587-1.298-2.884-2.884-2.884C149.812,209.758,148.517,211.056,148.517,212.642z
			 M148.517,227.064h4.325v4.325h-4.325V227.064z"/>
	</g>
	<g>
		<g>
			<g>
				<path fill="#464B4C" d="M314.228,291.495c0,0,6.223,25.383,20.927,20.352c14.705-5.032,28.843-25.623,27.626-41.524
					c0,0,7.04,6.084,10.541,7.172c0,0-10.824,41.547-38.152,44.93c-27.328,3.382-31.696-27.934-34.027-31.096
					c-2.331-3.162-18.751-4.554-23.278-9.358c-4.527-4.804,13.83-11.699,21.234-5.188
					C306.504,283.295,313.009,282.659,314.228,291.495z"/>
				<path fill="#382B19" d="M373.323,277.495c0,0,9.033-0.37,12.883,2.132c3.85,2.502,7.768,7.554,7.768,7.554
					s5.314-2.942,6.261-6.437c0,0-15.448-12.87-22.751-13.935l-3.175,1.247l0.15-4.189c0,0-5.41-4.022-8.735-3.63
					c-3.325,0.392-2.941,10.087-2.941,10.087S367.42,277.283,373.323,277.495z"/>
			</g>
			<g>
				<path fill="#464B4C" d="M276.13,274.362c0,0-19.073,12.358-20.806,30.787c-1.733,18.429,12.658,51.557,26.504,63.55
					c0,0,4.231,0.19,6.375-6.555c0,0-26.05-29.575-24.042-54.984c1.245-15.755,17.544-25.906,17.544-25.906
					S290.887,273.504,276.13,274.362z"/>
				<path fill="#382B19" d="M284.737,372.234c0,0,3.243,8.438,2.106,12.887c-1.137,4.449-4.668,9.779-4.668,9.779
					s4.49,4.092,8.104,3.869c0,0,7.243-18.757,5.914-26.016l-2.199-2.609l4.017-1.2c0,0,2.077-6.413,0.641-9.437
					c-1.436-3.024-10.497,0.445-10.497,0.445S283.047,366.575,284.737,372.234z"/>
			</g>
			<g>
				<path fill="#464B4C" d="M304.759,215.885c0,0,13.928,14.716,15.432,32.147c1.101,25.605-5.401,40.867-5.401,40.867
					s-17.141,1.483-30.414-5.047l-0.218-5.118l-2.452,2.521c0,0-8.102-2.973-10.883-6.168c0,0,10.752-28.387,2.652-49.138
					C265.375,205.197,297.64,210.502,304.759,215.885z"/>
				<path fill="#676B6B" d="M280.782,233.055c0,0-2.963,3.056-5.975,6.659c0,0,4.123,4.28,6.42,6.244c0,0-3.309,2.179-6.522,3.96
					c0,0,6.332,10.998,6.096,19.633c0,0,5.233-4.825,4.314-11.539C284.195,251.296,281.651,235.741,280.782,233.055z"/>
				<path fill="#E5E5E5" d="M285.639,233.558l-1.715,4.228l-1.033-6.901l-4.974-0.866c0,0,6.409,14.534,7.373,30.19
					C285.289,260.211,297.794,233.106,285.639,233.558z"/>
				<polygon fill="#FFFFFF" points="284.036,232.063 278.31,234.934 275.695,228.171 				"/>
				<path fill="#676B6B" d="M291.065,235.387c0,0,12.131,6.916,14.639,8.374l-10.354,7.101l5.828,7.138l-21.213,12.733
					C279.965,270.731,289.255,259.091,291.065,235.387z"/>
				<path fill="#FFFFFF" d="M302.356,217.606c0,0,1.696-0.087,2.267,6.605c-1.821,6.91-16.846,17.323-16.846,17.323l-2.139-7.976
					L302.356,217.606z"/>
				<path fill="#141414" d="M286.054,238.246c0,0-2.785-0.754-3.456-0.322l-0.178,3.155l4.044,0.605L286.054,238.246z"/>
				<path fill="#141414" d="M285.64,241.418c0,0,2.582,5.909,2.901,9.59c0,0-2.665,8.438-3.058,9.39c0,0-2.547-15.086-2.873-16.319
					l0.874-3.192L285.64,241.418z"/>
			</g>
		</g>
		<g>
			<path fill="#464B4C" d="M283.218,212.612c0,0,3.77-42.428-22.752-65.603s-48.047,13.084-48.047,13.084s7.618,3.769,11.094,10.789
				c0,0,12.786-30.804,31.593-14.831s16.605,60.718,19.948,64.955C278.398,225.243,283.037,219.009,283.218,212.612z"/>
			<path fill="#FFDCB8" d="M201.424,163.832c1.639-1.349,6.949-4.118,10.996-3.739c4.013,0.377,12.49,7.318,11.125,10.703
				c0.434,1.085,1.89,5.002,0.783,6.136c-1.527-1.484-2.85-2.708-3.339-3.158c-0.557,0.469-1.098,0.894-1.517,1.265
				c-1.163,1.028-6.006,8.026-8.936,5.993c-2.93-2.032,2.541-7.995,3.645-9.129c0,0-4.819,2.264-6.617,4.113
				c-1.798,1.849-3.956,1.713-5.136,0.237c-1.182-1.476,1.103-4.161,3.396-6.182c2.293-2.022,4.992-3.452,4.992-3.452
				s-4.053-0.204-6.183,1.313c-2.129,1.517-3.788,1.877-4.801,0.564C198.817,167.185,199.784,165.182,201.424,163.832z"/>
		</g>
		<g>
			<path fill="#FFDCB8" d="M213.647,248.429c0,0,2.052-2.42,0.267-5.628c-1.786-3.209-6.522-3.4-6.522-3.4s-7.4-14.065-9.404-15.032
				c-2.003-0.967-6.41,1.125,1.574,13.305c0,0-6.823-0.257-5.149,5.295c0,0-4.674,2.813-2.093,6.305
				c2.582,3.492,11.673,10.861,16.516,11.647C213.68,261.707,213.647,248.429,213.647,248.429z"/>
			<path fill="#464B4C" d="M310.385,228.293c4.349-1.807,9.448,12.036,2.883,22.822c-6.565,10.786-48.856,58.456-108.384,10.377
				c0,0-4.174-6.512,8.764-13.064c0,0,28.21,33.716,65.789,15.421C317.014,245.555,295.323,234.553,310.385,228.293z"/>
		</g>
		<g>
			<path fill="#FFDCB8" d="M327.33,171.579c0,0-30.969,62.113-33.68,63.892c-2.711,1.779-28.752-10.791-30.819-16.234
				c-2.065-5.443,14.465-50.691,21.562-58.998C291.49,151.933,321.994,163.446,327.33,171.579z"/>
			<path fill="#725C2B" d="M308.178,214.142c0,0-2.764-16.812,6.205-25.719c0,0-14.378,3.189-15.552-0.652
				c-1.175-3.841,3.519-6.144,3.519-6.144s-26.896,0.581-25.867-4.174c1.028-4.755,5.705-5.867,5.705-5.867
				s-11.569-0.212-10.643-5.199c0.925-4.988,5.639-5.799,5.639-5.799s-10.694-17.759-1.545-21.617s15.228,4.015,12.572,9.773
				c0,0,8.975-16.291,18.543-7.969s-1.844,10.472-3.826,10.997c0,0,28.159,3.835,31.896,22.189c0,0,6.123-6.801,8.924-2.114
				c2.801,4.686-6.175,9.377-6.175,9.377s5.561-1.633,5.864,3.075s-6.661,4.807-6.661,4.807S334.292,214.026,308.178,214.142z"/>
			<path fill="#FFDCB8" d="M304.8,208.873c0,0,6.087-5.25,10.353-2.574c4.266,2.676,0.685,13.421-3.274,14.969
				c-3.957,1.548-6.857,0.494-8.59-4.282C301.555,212.209,304.8,208.873,304.8,208.873z"/>
			<path fill="#CB8F5E" d="M284.867,190.299c0,0-1.056,5.515-3.036,6.205c-1.98,0.691-7.831-2.709-7.776,1.269
				c0.055,3.979,7.677,3.541,7.677,3.541s-10.709,1.595-9.571-4.284c1.138-5.879,7.11-1.707,8.128-2.025
				C281.308,194.688,283.717,193.107,284.867,190.299z"/>
			
				<ellipse transform="matrix(-0.4532 0.8914 -0.8914 -0.4532 604.4609 22.6173)" fill="#190F08" cx="295.294" cy="196.699" rx="3.635" ry="2.285"/>
			
				<ellipse transform="matrix(-0.4532 0.8914 -0.8914 -0.4532 573.6899 25.7324)" fill="#190F08" cx="278.953" cy="188.819" rx="3.635" ry="2.285"/>
			<path fill="#493918" d="M303.181,192.083c0,0-3.081-5.285-7.881-4.721C295.3,187.363,302.448,185.483,303.181,192.083z"/>
			<path fill="#493918" d="M286.384,183.08c0,0-3.604-3.393-9.052-0.108C277.332,182.971,282.74,176.401,286.384,183.08z"/>
			<g>
				<path fill="#DA9089" d="M294.836,218.604c-3.189,4.536-7.905,8.743-14.082,7.596c-1.491-0.277-2.754-0.782-3.833-1.448
					C283.037,216.849,290.859,217.552,294.836,218.604z"/>
				<path fill="#753427" d="M299.747,209.022c0,0-1.664,4.962-4.912,9.581c-3.977-1.053-11.799-1.755-17.915,6.147
					c-7.94-4.906-5.569-18.815-5.569-18.815C278.505,207.661,299.747,209.022,299.747,209.022z"/>
			</g>
		</g>
	</g>
</g>
</svg>
