<?xml version="1.0" encoding="utf-8"?>
<!-- Generator: Adobe Illustrator 21.1.0, SVG Export Plug-In . SVG Version: 6.00 Build 0)  -->
<svg version="1.1" id="Слой_1" xmlns="http://www.w3.org/2000/svg" xmlns:xlink="http://www.w3.org/1999/xlink" x="0px" y="0px"
	 viewBox="0 0 522.2 522.2" style="enable-background:new 0 0 522.2 522.2;" xml:space="preserve">
<style type="text/css">
	.st0{opacity:0.39;}
	.st1{opacity:0.52;clip-path:url(#SVGID_2_);}
	.st2{fill:#FFFFFF;}
	.st3{fill:#727272;}
	.st4{fill:none;}
	.st5{fill:#666666;}
	.st6{fill:#4B4B4B;}
	.st7{fill:none;stroke:#666666;stroke-width:2;stroke-linecap:round;stroke-miterlimit:10;}
	.st8{fill:none;stroke:#666666;stroke-width:0.75;stroke-miterlimit:10;}
	.st9{fill:#99BFB2;}
	.st10{fill:#313533;}
	.st11{fill:#C2E2D7;}
	.st12{fill:#C1272D;}
	.st13{fill:#FBB03B;}
	.st14{fill:#8CC63F;}
	.st15{fill:#CFD1D9;}
	.st16{fill:#AEB8BF;}
	.st17{fill:#3CC66D;}
	.st18{fill:#F9A716;}
	.st19{fill:#63B6E5;}
	.st20{fill:#DD5B5B;}
	.st21{fill:#7B939D;}
	.st22{fill:#727CBA;}
	.st23{opacity:0.98;}
	.st24{fill:#F48967;}
	.st25{fill:none;stroke:#000000;stroke-width:1.5186;stroke-linecap:round;stroke-miterlimit:10;}
	.st26{fill:#232323;}
	.st27{fill:#171929;}
	.st28{fill:#FFB287;}
	.st29{fill:#4C4C4C;}
	.st30{fill:#47231C;}
	.st31{fill:#4A2021;}
	.st32{fill:#B26314;}
	.st33{fill:#DBFFEF;}
	.st34{opacity:0.28;fill:#23263F;}
	.st35{fill:#94D8FF;}
	.st36{fill:#F98A10;}
	.st37{fill:#C9D1D1;}
	.st38{fill:#23263F;}
	.st39{fill:#F93419;}
	.st40{fill:#D1240C;}
</style>
<g>
	<g class="st0">
		<defs>
			<circle id="SVGID_1_" class="st0" cx="261.1" cy="261.1" r="261.1"/>
		</defs>
		<clipPath id="SVGID_2_">
			<use xlink:href="#SVGID_1_"  style="overflow:visible;"/>
		</clipPath>
		<g class="st1">
			<polygon class="st2" points="167,173.8 164.5,173.8 164.5,175.8 169.5,175.8 169.5,171.8 167,171.8 			"/>
			<rect x="147" y="173.8" class="st2" width="7.5" height="2"/>
			<rect x="-98" y="173.8" class="st2" width="7.5" height="2"/>
			<rect x="112" y="173.8" class="st2" width="7.5" height="2"/>
			<rect x="129.5" y="173.8" class="st2" width="7.5" height="2"/>
			<rect x="7" y="173.8" class="st2" width="7.5" height="2"/>
			<rect x="-80.5" y="173.8" class="st2" width="7.5" height="2"/>
			<rect x="-63" y="173.8" class="st2" width="7.5" height="2"/>
			<rect x="77" y="173.8" class="st2" width="7.5" height="2"/>
			<rect x="59.5" y="173.8" class="st2" width="7.5" height="2"/>
			<rect x="-28" y="173.8" class="st2" width="7.5" height="2"/>
			<rect x="94.5" y="173.8" class="st2" width="7.5" height="2"/>
			<rect x="-45.5" y="173.8" class="st2" width="7.5" height="2"/>
			<rect x="42" y="173.8" class="st2" width="7.5" height="2"/>
			<rect x="24.5" y="173.8" class="st2" width="7.5" height="2"/>
			<rect x="-10.5" y="173.8" class="st2" width="7.5" height="2"/>
			<rect x="167" y="55.7" class="st2" width="2.5" height="6.2"/>
			<rect x="167" y="84.7" class="st2" width="2.5" height="6.2"/>
			<rect x="167" y="70.2" class="st2" width="2.5" height="6.2"/>
			<rect x="167" y="99.2" class="st2" width="2.5" height="6.2"/>
			<rect x="167" y="113.7" class="st2" width="2.5" height="6.2"/>
			<rect x="167" y="12.1" class="st2" width="2.5" height="6.2"/>
			<rect x="167" y="26.6" class="st2" width="2.5" height="6.2"/>
			<rect x="167" y="41.1" class="st2" width="2.5" height="6.2"/>
			<rect x="167" y="157.3" class="st2" width="2.5" height="6.2"/>
			<rect x="167" y="142.8" class="st2" width="2.5" height="6.2"/>
			<rect x="167" y="-2.3" class="st2" width="2.5" height="6.1"/>
			<rect x="167" y="128.2" class="st2" width="2.5" height="6.2"/>
			<rect x="466" y="173.8" class="st2" width="7.5" height="2"/>
			<rect x="413.5" y="173.8" class="st2" width="7.5" height="2"/>
			<rect x="448.5" y="173.8" class="st2" width="7.5" height="2"/>
			<rect x="431" y="173.8" class="st2" width="7.5" height="2"/>
			<rect x="396" y="173.8" class="st2" width="7.5" height="2"/>
			<rect x="378.5" y="173.8" class="st2" width="7.5" height="2"/>
			<rect x="343.5" y="173.8" class="st2" width="7.5" height="2"/>
			<rect x="361" y="173.8" class="st2" width="7.5" height="2"/>
			<rect x="326" y="173.8" class="st2" width="7.5" height="2"/>
			<rect x="308.5" y="173.8" class="st2" width="7.5" height="2"/>
			<rect x="501" y="173.8" class="st2" width="7.5" height="2"/>
			<rect x="483.5" y="173.8" class="st2" width="7.5" height="2"/>
			<rect x="518.5" y="173.8" class="st2" width="7.5" height="2"/>
			<rect x="536" y="173.8" class="st2" width="7.5" height="2"/>
			<rect x="553.5" y="173.8" class="st2" width="5.7" height="2"/>
			<polygon class="st2" points="293.5,175.8 298.5,175.8 298.5,173.8 296,173.8 296,171.8 293.5,171.8 			"/>
			<rect x="293.5" y="26.6" class="st2" width="2.5" height="6.2"/>
			<rect x="293.5" y="113.7" class="st2" width="2.5" height="6.2"/>
			<rect x="293.5" y="99.2" class="st2" width="2.5" height="6.2"/>
			<rect x="293.5" y="84.7" class="st2" width="2.5" height="6.2"/>
			<rect x="293.5" y="55.7" class="st2" width="2.5" height="6.2"/>
			<rect x="293.5" y="70.2" class="st2" width="2.5" height="6.2"/>
			<rect x="293.5" y="157.3" class="st2" width="2.5" height="6.2"/>
			<rect x="293.5" y="128.2" class="st2" width="2.5" height="6.2"/>
			<rect x="293.5" y="-2.3" class="st2" width="2.5" height="6.1"/>
			<rect x="293.5" y="12.1" class="st2" width="2.5" height="6.2"/>
			<rect x="293.5" y="41.1" class="st2" width="2.5" height="6.2"/>
			<rect x="293.5" y="142.8" class="st2" width="2.5" height="6.2"/>
			<rect x="437" y="412" class="st2" width="7.5" height="2"/>
			<rect x="472" y="412" class="st2" width="7.5" height="2"/>
			<rect x="454.5" y="412" class="st2" width="7.5" height="2"/>
			<rect x="419.5" y="412" class="st2" width="7.5" height="2"/>
			<rect x="384.5" y="412" class="st2" width="7.5" height="2"/>
			<rect x="367" y="412" class="st2" width="7.5" height="2"/>
			<rect x="349.5" y="412" class="st2" width="7.5" height="2"/>
			<rect x="314.5" y="412" class="st2" width="7.5" height="2"/>
			<rect x="489.5" y="412" class="st2" width="7.5" height="2"/>
			<rect x="402" y="412" class="st2" width="7.5" height="2"/>
			<rect x="332" y="412" class="st2" width="7.5" height="2"/>
			<rect x="542" y="412" class="st2" width="7.5" height="2"/>
			<rect x="297" y="412" class="st2" width="7.5" height="2"/>
			<rect x="227" y="412" class="st2" width="7.5" height="2"/>
			<rect x="524.5" y="412" class="st2" width="7.5" height="2"/>
			<rect x="507" y="412" class="st2" width="7.5" height="2"/>
			<rect x="244.5" y="412" class="st2" width="7.5" height="2"/>
			<rect x="262" y="412" class="st2" width="7.5" height="2"/>
			<rect x="279.5" y="412" class="st2" width="7.5" height="2"/>
			<polygon class="st2" points="212,414.1 217,414.1 217,412 214.5,412 214.5,410 212,410 			"/>
			<rect x="212" y="192.3" class="st2" width="2.5" height="6.2"/>
			<rect x="212" y="177.7" class="st2" width="2.5" height="6.2"/>
			<rect x="212" y="235.8" class="st2" width="2.5" height="6.2"/>
			<rect x="212" y="221.3" class="st2" width="2.5" height="6.2"/>
			<rect x="212" y="148.7" class="st2" width="2.5" height="6.2"/>
			<rect x="212" y="134.2" class="st2" width="2.5" height="6.2"/>
			<rect x="212" y="163.2" class="st2" width="2.5" height="6.2"/>
			<rect x="212" y="105.2" class="st2" width="2.5" height="6.2"/>
			<rect x="212" y="250.3" class="st2" width="2.5" height="6.2"/>
			<rect x="212" y="119.7" class="st2" width="2.5" height="6.2"/>
			<rect x="212" y="366.4" class="st2" width="2.5" height="6.2"/>
			<rect x="212" y="351.9" class="st2" width="2.5" height="6.2"/>
			<rect x="212" y="264.8" class="st2" width="2.5" height="6.2"/>
			<rect x="212" y="381" class="st2" width="2.5" height="6.2"/>
			<rect x="212" y="337.4" class="st2" width="2.5" height="6.2"/>
			<rect x="212" y="395.5" class="st2" width="2.5" height="6.2"/>
			<rect x="212" y="279.4" class="st2" width="2.5" height="6.2"/>
			<rect x="212" y="293.9" class="st2" width="2.5" height="6.2"/>
			<rect x="212" y="308.4" class="st2" width="2.5" height="6.2"/>
			<rect x="212" y="322.9" class="st2" width="2.5" height="6.2"/>
			<rect x="212" y="206.8" class="st2" width="2.5" height="6.2"/>
			<polygon class="st2" points="217,92.8 212,92.8 212,96.9 214.5,96.9 214.5,94.8 217,94.8 			"/>
			<rect x="244.5" y="92.8" class="st2" width="7.5" height="2"/>
			<rect x="227" y="92.8" class="st2" width="7.5" height="2"/>
			<rect x="542" y="92.8" class="st2" width="7.5" height="2"/>
			<rect x="314.5" y="92.8" class="st2" width="7.5" height="2"/>
			<rect x="262" y="92.8" class="st2" width="7.5" height="2"/>
			<rect x="297" y="92.8" class="st2" width="7.5" height="2"/>
			<rect x="524.5" y="92.8" class="st2" width="7.5" height="2"/>
			<rect x="279.5" y="92.8" class="st2" width="7.5" height="2"/>
			<rect x="332" y="92.8" class="st2" width="7.5" height="2"/>
			<rect x="367" y="92.8" class="st2" width="7.5" height="2"/>
			<rect x="402" y="92.8" class="st2" width="7.5" height="2"/>
			<rect x="384.5" y="92.8" class="st2" width="7.5" height="2"/>
			<rect x="472" y="92.8" class="st2" width="7.5" height="2"/>
			<rect x="489.5" y="92.8" class="st2" width="7.5" height="2"/>
			<rect x="454.5" y="92.8" class="st2" width="7.5" height="2"/>
			<rect x="419.5" y="92.8" class="st2" width="7.5" height="2"/>
			<rect x="349.5" y="92.8" class="st2" width="7.5" height="2"/>
			<rect x="507" y="92.8" class="st2" width="7.5" height="2"/>
			<rect x="437" y="92.8" class="st2" width="7.5" height="2"/>
			<rect x="19" y="365.4" class="st2" width="7.5" height="2"/>
			<rect x="1.5" y="365.4" class="st2" width="7.5" height="2"/>
			<rect x="-86" y="365.4" class="st2" width="7.5" height="2"/>
			<rect x="-16" y="365.4" class="st2" width="7.5" height="2"/>
			<rect x="-103.5" y="365.4" class="st2" width="7.5" height="2"/>
			<rect x="-68.5" y="365.4" class="st2" width="7.5" height="2"/>
			<rect x="-33.5" y="365.4" class="st2" width="7.5" height="2"/>
			<rect x="-51" y="365.4" class="st2" width="7.5" height="2"/>
			<rect x="36.5" y="365.4" class="st2" width="7.5" height="2"/>
			<rect x="89.1" y="365.4" class="st2" width="7.5" height="2"/>
			<rect x="71.6" y="365.4" class="st2" width="7.5" height="2"/>
			<rect x="54" y="365.4" class="st2" width="7.5" height="2"/>
			<polygon class="st2" points="111.5,365.4 106.6,365.4 106.6,367.4 109,367.4 109,369.5 111.5,369.5 			"/>
			<rect x="109" y="421.3" class="st2" width="2.5" height="6.2"/>
			<rect x="109" y="450.3" class="st2" width="2.5" height="5.5"/>
			<rect x="109" y="392.3" class="st2" width="2.5" height="6.2"/>
			<rect x="109" y="377.8" class="st2" width="2.5" height="6.2"/>
			<rect x="109" y="406.8" class="st2" width="2.5" height="6.2"/>
			<rect x="109" y="435.8" class="st2" width="2.5" height="6.2"/>
		</g>
	</g>
	<g>
		<rect x="16.9" y="452.4" class="st3" width="484.2" height="5.2"/>
		<g>
			<g>
				<polygon class="st4" points="119,317.3 122.8,313.5 122.8,321.2 				"/>
				<polygon class="st4" points="119,304.7 122.8,300.9 122.8,308.5 				"/>
				<polygon class="st4" points="119,292 122.8,288.2 122.8,295.9 				"/>
				<polygon class="st4" points="119,355.3 122.8,351.5 122.8,359.1 				"/>
				<polygon class="st4" points="119,330 122.8,326.2 122.8,333.8 				"/>
				<polygon class="st4" points="119,254.1 122.8,250.3 122.8,257.9 				"/>
				<polygon class="st4" points="119,190.8 122.8,187 122.8,194.7 				"/>
				<polygon class="st4" points="119,241.4 122.8,237.6 122.8,245.3 				"/>
				<polygon class="st4" points="119,367.9 122.8,364.1 122.8,371.8 				"/>
				<polygon class="st4" points="119,203.5 122.8,199.7 122.8,207.3 				"/>
				<polygon class="st4" points="119,228.8 122.8,225 122.8,232.6 				"/>
				<polygon class="st4" points="119,216.1 122.8,212.3 122.8,220 				"/>
				<polygon class="st4" points="119,380.6 122.8,376.8 122.8,384.4 				"/>
				<polygon class="st4" points="122.8,270.6 119,266.7 122.8,262.9 122.8,264.5 				"/>
				<polygon class="st4" points="119,178.2 122.8,174.4 122.8,182 				"/>
				<polygon class="st4" points="119,393.2 122.8,389.4 122.8,397.1 				"/>
				<polygon class="st4" points="122.8,346.5 119,342.6 122.8,338.8 122.8,340.4 				"/>
				<polygon class="st4" points="103.2,158.7 100,155.5 105.9,155.5 105.9,156 				"/>
				<polygon class="st4" points="130,157.3 129.5,155.5 131.7,155.5 				"/>
				<polygon class="st4" points="96.9,165.1 91.9,160.1 96.4,155.5 97.3,155.5 101.9,160.1 				"/>
				<polygon class="st4" points="116.3,393.2 113.1,396.4 113.1,390 				"/>
				<polygon class="st4" points="141.1,158.7 138,155.5 144.3,155.5 				"/>
				<polygon class="st4" points="139.8,160.1 134.8,165.1 130.9,161.1 130.5,159.4 134.4,155.5 135.3,155.5 				"/>
				<polygon class="st4" points="191.4,158.3 185,164.7 180.4,160.1 184.9,155.5 186.6,155.5 				"/>
				<polygon class="st4" points="152.5,160.1 147.5,165.1 142.5,160.1 147,155.5 147.9,155.5 				"/>
				<polygon class="st4" points="94.4,165.2 86.7,165.2 90.5,161.4 				"/>
				<polygon class="st4" points="84,165.2 83.7,165.2 83.7,155.5 84.7,155.5 89.2,160.1 				"/>
				<polygon class="st4" points="87.4,155.5 93.7,155.5 90.5,158.7 				"/>
				<polygon class="st4" points="105.9,164.1 105.9,165.2 99.4,165.2 103.2,161.4 				"/>
				<polygon class="st4" points="166.4,161.4 170.3,165.2 162.6,165.2 				"/>
				<polygon class="st4" points="153.8,161.4 157.6,165.2 150,165.2 				"/>
				<polygon class="st4" points="153.8,158.7 150.6,155.5 157,155.5 				"/>
				<polygon class="st4" points="131.7,164.7 132.3,165.2 131.9,165.2 				"/>
				<polygon class="st4" points="187.2,165.2 193.1,159.3 203.3,165.2 				"/>
				<polygon class="st4" points="141.1,161.4 145,165.2 137.3,165.2 				"/>
				<polygon class="st4" points="179.1,161.4 182.9,165.2 175.3,165.2 				"/>
				<polygon class="st4" points="166.4,158.7 163.3,155.5 169.6,155.5 				"/>
				<polygon class="st4" points="165.1,160.1 160.1,165.1 155.1,160.1 159.7,155.5 160.6,155.5 				"/>
				<polygon class="st4" points="177.8,160.1 172.8,165.1 167.8,160.1 172.3,155.5 173.2,155.5 				"/>
				<polygon class="st4" points="179.1,158.7 175.9,155.5 182.3,155.5 				"/>
				<polygon class="st4" points="119,279.4 122.8,275.6 122.8,283.2 				"/>
				<polygon class="st4" points="116.3,228.8 113.1,232 113.1,225.6 				"/>
				<polygon class="st4" points="116.3,178.2 113.1,181.4 113.1,175 				"/>
				<polygon class="st4" points="113.1,247.3 117.7,242.8 122.7,247.8 117.7,252.8 113.1,248.2 113.1,248 				"/>
				<polygon class="st4" points="122.4,172.1 117.7,176.9 113.1,172.3 113.1,172.1 				"/>
				<polygon class="st4" points="116.3,190.8 113.1,194 113.1,187.7 				"/>
				<polygon class="st4" points="116.3,203.5 113.1,206.7 113.1,200.3 				"/>
				<polygon class="st4" points="116.3,216.1 113.1,219.3 113.1,213 				"/>
				<polygon class="st4" points="117.7,381.9 122.7,386.9 117.7,391.9 113.1,387.4 113.1,386.4 				"/>
				<polygon class="st4" points="117.7,204.8 122.7,209.8 117.7,214.8 113.1,210.3 113.1,209.4 				"/>
				<polygon class="st4" points="113.1,263.6 116.3,266.7 113.1,269.9 113.1,264.5 				"/>
				<polygon class="st4" points="117.7,192.2 122.7,197.2 117.7,202.2 113.1,197.6 113.1,196.7 				"/>
				<polygon class="st4" points="117.7,179.5 122.7,184.5 117.7,189.5 113.1,185 113.1,184.1 				"/>
				<polygon class="st4" points="109.6,134.6 120.3,134.6 115.5,140.6 				"/>
				<polygon class="st4" points="113.1,323.2 117.7,318.7 122.7,323.7 117.7,328.7 113.1,324.1 113.1,323.9 				"/>
				<polygon class="st4" points="104.5,160.1 105.9,158.7 105.9,161.5 				"/>
				<polygon class="st4" points="108.8,148.9 108.8,136.5 114.3,142 				"/>
				<polygon class="st4" points="116.9,141.9 121.8,135.7 125.3,150.1 125.1,150.1 				"/>
				<polygon class="st4" points="122.4,150.1 110.2,150.1 115.7,143.4 				"/>
				<polygon class="st4" points="120.5,397.4 117.7,394.6 114.8,397.4 				"/>
				<polygon class="st4" points="113.1,339.4 116.3,342.6 113.1,345.8 113.1,340.4 				"/>
				<polygon class="st4" points="117.7,217.5 122.7,222.5 117.7,227.5 113.1,222.9 113.1,222 				"/>
				<polygon class="st4" points="117.7,331.3 122.7,336.3 117.7,341.3 113.1,336.8 113.1,335.8 				"/>
				<polygon class="st4" points="116.3,330 113.1,333.2 113.1,326.8 				"/>
				<polygon class="st4" points="116.3,304.7 113.1,307.9 113.1,301.5 				"/>
				<polygon class="st4" points="116.3,317.3 113.1,320.5 113.1,314.1 				"/>
				<polygon class="st4" points="117.7,306 122.7,311 117.7,316 113.1,311.5 113.1,310.5 				"/>
				<polygon class="st4" points="117.7,344 122.7,349 117.7,353.9 113.1,349.4 113.1,348.5 				"/>
				<polygon class="st4" points="116.3,380.6 113.1,383.8 113.1,377.4 				"/>
				<polygon class="st4" points="117.7,369.3 122.7,374.3 117.7,379.2 113.1,374.7 113.1,373.8 				"/>
				<polygon class="st4" points="117.7,230.1 122.7,235.1 117.7,240.1 113.1,235.6 113.1,234.7 				"/>
				<polygon class="st4" points="117.7,356.6 122.7,361.6 117.7,366.6 113.1,362.1 113.1,361.1 				"/>
				<polygon class="st4" points="116.3,367.9 113.1,371.1 113.1,364.7 				"/>
				<polygon class="st4" points="116.3,355.3 113.1,358.5 113.1,352.1 				"/>
				<polygon class="st4" points="117.7,255.4 122.7,260.4 117.7,265.4 113.1,260.9 113.1,260 				"/>
				<polygon class="st4" points="116.3,241.4 113.1,244.6 113.1,238.3 				"/>
				<polygon class="st4" points="117.7,268.1 122.7,273.1 117.7,278.1 113.1,273.5 113.1,272.6 				"/>
				<polygon class="st4" points="116.3,254.1 113.1,257.3 113.1,250.9 				"/>
				<polygon class="st4" points="117.7,293.4 122.7,298.4 117.7,303.4 113.1,298.8 113.1,297.9 				"/>
				<polygon class="st4" points="116.3,292 113.1,295.2 113.1,288.9 				"/>
				<polygon class="st4" points="117.7,280.7 122.7,285.7 117.7,290.7 113.1,286.2 113.1,285.3 				"/>
				<polygon class="st4" points="116.3,279.4 113.1,282.6 113.1,276.2 				"/>
				<polygon class="st5" points="132.3,165.2 137.3,165.2 145,165.2 150,165.2 157.6,165.2 162.6,165.2 170.3,165.2 175.3,165.2 
					182.9,165.2 187.2,165.2 203.3,165.2 193.1,159.3 191.4,158.3 186.6,155.5 184.9,155.5 182.3,155.5 175.9,155.5 173.2,155.5 
					172.3,155.5 169.6,155.5 163.3,155.5 160.6,155.5 159.7,155.5 157,155.5 150.6,155.5 147.9,155.5 147,155.5 144.3,155.5 
					138,155.5 135.3,155.5 134.4,155.5 131.7,155.5 129.5,155.5 128.7,151.9 186.6,151.9 209.5,165.2 209.5,168.8 132.8,168.8 
					131.9,165.2 				"/>
				<polygon class="st5" points="105.9,151.9 105.9,155.5 100,155.5 97.3,155.5 96.4,155.5 93.7,155.5 87.4,155.5 84.7,155.5 
					83.7,155.5 83.7,165.2 84,165.2 86.7,165.2 94.4,165.2 99.4,165.2 105.9,165.2 105.9,168.8 80.1,168.8 80.1,167.7 80.1,165.2 
					80.1,155.5 80.1,153.7 80.1,151.9 				"/>
				<polygon class="st5" points="125.1,150.1 122.4,150.1 115.7,143.4 110.2,150.1 108.8,150.1 108.8,148.9 114.3,142 108.8,136.5 
					108.8,134.6 109.6,134.6 115.5,140.6 120.3,134.6 121.5,134.6 121.8,135.7 116.9,141.9 				"/>
				<path class="st6" d="M191.4,158.3l-6.4,6.4l-4.6-4.6l4.5-4.5h-2.7l-3.2,3.2l-3.2-3.2h-2.7l4.5,4.5l-5,5l-5-5l4.5-4.5h-2.7
					l-3.2,3.2l-3.2-3.2h-2.7l4.5,4.5l-5,5l-5-5l4.5-4.5H157l-3.2,3.2l-3.2-3.2h-2.7l4.5,4.5l-5,5l-5-5l4.5-4.5h-2.7l-3.2,3.2
					l-3.2-3.2h-2.7l4.5,4.5l-5,5l-3.9-3.9l-0.4-1.7l3.9-3.9h-2.7l-1.7,1.7l-0.4-1.7l-0.9-3.6l-4.9-20.2h-17.8V156l-2.7,2.7l-3.2-3.2
					h-2.7l4.5,4.5l-5,5l-5-5l4.5-4.5h-2.7l-3.2,3.2l-3.2-3.2h-2.7l4.5,4.5l-5.2,5.2h2.7l3.8-3.8l3.8,3.8h5l3.8-3.8l2.7,2.7v7.9h16.5
					l-4.8,4.8l-4.5-4.5v2.7l3.2,3.2l-3.2,3.2v2.7l4.5-4.5l5,5l-5,5l-4.5-4.5v2.7l3.2,3.2l-3.2,3.2v2.7l4.5-4.5l5,5l-5,5l-4.5-4.5
					v2.7l3.2,3.2l-3.2,3.2v2.7l4.5-4.5l5,5l-5,5l-4.5-4.5v2.7l3.2,3.2l-3.2,3.2v2.7l4.5-4.5l5,5l-5,5l-4.5-4.5v2.7l3.2,3.2l-3.2,3.2
					v2.7l4.5-4.5l5,5l-5,5l-4.5-4.5v2.7l3.2,3.2l-3.2,3.2v2.7l4.5-4.5l5,5l-5,5l-4.5-4.5v2.7l3.2,3.2l-3.2,3.2v2.7l4.5-4.5l5,5l-5,5
					l-4.5-4.5v2.7l3.2,3.2l-3.2,3.2v2.7l4.5-4.5l5,5l-5,5l-4.5-4.5v2.7l3.2,3.2l-3.2,3.2v2.7l4.5-4.5l5,5l-5,5l-4.5-4.5v2.7l3.2,3.2
					l-3.2,3.2v2.7l4.5-4.5l5,5l-5,5l-4.5-4.5v2.7l3.2,3.2l-3.2,3.2v2.7l4.5-4.5l5,5l-5,5l-4.5-4.5v2.7l3.2,3.2l-3.2,3.2v2.7l4.5-4.5
					l5,5l-5,5l-4.5-4.5v2.7l3.2,3.2l-3.2,3.2v2.7l4.5-4.5l5,5l-5,5l-4.5-4.5v2.7l3.2,3.2l-3.2,3.2v2.7l4.5-4.5l5,5l-5,5l-4.5-4.5
					v2.7l3.2,3.2l-3.2,3.2v2.7l4.5-4.5l5,5l-5,5l-4.5-4.5v2.7l3.2,3.2l-3.2,3.2v2.7l4.5-4.5l5,5l-5,5l-4.5-4.5v2.7l3.2,3.2l-3.2,3.2
					v2.7l4.5-4.5l5,5l-5,5l-4.5-4.5v2.7l3.2,3.2l-3.2,3.2v1h1.6l2.9-2.9l2.9,2.9h2.3v-0.4l-3.8-3.8l3.8-3.8v-5l-3.8-3.8l3.8-3.8v-5
					l-3.8-3.8l3.8-3.8v-5l-3.8-3.8l3.8-3.8v-5l-3.8-3.8l3.8-3.8v-5L119,330l3.8-3.8v-5l-3.8-3.8l3.8-3.8v-5l-3.8-3.8l3.8-3.8v-5
					L119,292l3.8-3.8v-5l-3.8-3.8l3.8-3.8v-5l-3.8-3.8l3.8-3.8v-5l-3.8-3.8l3.8-3.8V248h1.4l-0.9-0.9l-0.5,0.5v-2.3l-3.8-3.8
					l3.8-3.8v-5l-3.8-3.8l3.8-3.8v-5l-3.8-3.8l3.8-3.8v-5l-3.8-3.8l3.8-3.8v-5l-3.8-3.8l3.8-3.8v-5l-3.8-3.8l3.8-3.8v-2.3h10.7
					l-0.8-3.3l-0.9-3.6l-0.1-0.6l0.6,0.6h5l3.8-3.8l3.8,3.8h5l3.8-3.8l3.8,3.8h5l3.8-3.8l3.8,3.8h5l3.8-3.8l3.8,3.8h4.2l5.9-5.9
					L191.4,158.3z M105.9,161.5l-1.4-1.4l1.4-1.4V161.5z M118.3,168c-3.5,0-6.3-2.8-6.3-6.3c0-3.5,2.8-6.3,6.3-6.3
					c3.5,0,6.3,2.8,6.3,6.3C124.6,165.1,121.8,168,118.3,168z M108.8,150.1v-15.5h12.8l0.3,1.1l3.5,14.4H108.8z"/>
				<circle class="st5" cx="118.3" cy="161.6" r="6.3"/>
				<path class="st5" d="M113.1,397.4V172.1h-3.6v225.4H113.1z M112,247.1l0.9,0.9h-1.8L112,247.1z"/>
				<polygon class="st6" points="112,247.1 112.9,248 111.1,248 				"/>
				<polygon class="st5" points="126.4,397.4 126.4,172.1 122.8,172.1 122.8,247.6 123.3,247.1 124.2,248 122.8,248 122.8,397.4 
									"/>
			</g>
			<g>
				<path class="st7" d="M173.9,202.3c0,2.1,1.7,3.9,3.9,3.9s3.9-1.7,3.9-3.9c0-2.1-1.7-3.9-3.9-3.9v-3"/>
				<rect x="175.1" y="194.4" class="st6" width="5.3" height="2.2"/>
				<rect x="173" y="192.2" class="st6" width="9.6" height="2.2"/>
				<rect x="175.1" y="170.6" class="st6" width="5.3" height="2.2"/>
				<rect x="173" y="168.4" class="st6" width="9.6" height="2.2"/>
				<rect x="176.4" y="172.7" class="st5" width="2.6" height="19.4"/>
				<line class="st8" x1="177.8" y1="228.3" x2="177.8" y2="205.2"/>
			</g>
		</g>
		<g>
			<polygon class="st4" points="119,372.3 122.8,368.4 122.8,376.1 			"/>
			<polygon class="st4" points="119,359.6 122.8,355.8 122.8,363.5 			"/>
			<polygon class="st4" points="119,347 122.8,343.2 122.8,350.8 			"/>
			<polygon class="st4" points="119,410.2 122.8,406.4 122.8,414.1 			"/>
			<polygon class="st4" points="119,384.9 122.8,381.1 122.8,388.8 			"/>
			<polygon class="st4" points="120.9,307.1 119,309 122.8,312.9 122.8,307.1 			"/>
			<polygon class="st4" points="119,422.9 122.8,419 122.8,426.7 			"/>
			<polygon class="st4" points="119,435.5 122.8,431.7 122.8,439.4 			"/>
			<polygon class="st4" points="122.8,325.5 119,321.7 122.8,317.9 122.8,319.5 			"/>
			<polygon class="st4" points="119,448.2 122.8,444.3 122.8,452 			"/>
			<polygon class="st4" points="122.8,401.4 119,397.6 122.8,393.7 122.8,395.4 			"/>
			<polygon class="st4" points="116.3,448.2 113.1,451.4 113.1,445 			"/>
			<polygon class="st4" points="119,334.3 122.8,330.5 122.8,338.2 			"/>
			<polygon class="st4" points="117.7,436.9 122.7,441.8 117.7,446.8 113.1,442.3 113.1,441.4 			"/>
			<polygon class="st4" points="113.1,318.5 116.3,321.7 113.1,324.9 113.1,319.5 			"/>
			<polygon class="st4" points="117.7,247.1 122.7,252.1 117.7,257.1 113.1,252.6 113.1,251.7 			"/>
			<polygon class="st4" points="113.1,378.1 117.7,373.6 122.7,378.6 117.7,383.6 113.1,379.1 113.1,378.8 			"/>
			<polygon class="st4" points="120.5,452.4 117.7,449.5 114.8,452.4 			"/>
			<polygon class="st4" points="113.1,394.4 116.3,397.6 113.1,400.8 113.1,395.4 			"/>
			<polygon class="st4" points="117.7,386.3 122.7,391.3 117.7,396.2 113.1,391.7 113.1,390.8 			"/>
			<polygon class="st4" points="116.3,384.9 113.1,388.1 113.1,381.7 			"/>
			<polygon class="st4" points="116.3,359.6 113.1,362.8 113.1,356.4 			"/>
			<polygon class="st4" points="116.3,372.3 113.1,375.5 113.1,369.1 			"/>
			<polygon class="st4" points="117.7,361 122.7,366 117.7,370.9 113.1,366.4 113.1,365.5 			"/>
			<polygon class="st4" points="117.7,398.9 122.7,403.9 117.7,408.9 113.1,404.4 113.1,403.4 			"/>
			<polygon class="st4" points="116.3,435.5 113.1,438.7 113.1,432.3 			"/>
			<polygon class="st4" points="117.7,424.2 122.7,429.2 117.7,434.2 113.1,429.7 113.1,428.7 			"/>
			<polygon class="st4" points="117.7,411.6 122.7,416.6 117.7,421.5 113.1,417 113.1,416.1 			"/>
			<polygon class="st4" points="116.3,422.9 113.1,426.1 113.1,419.7 			"/>
			<polygon class="st4" points="116.3,410.2 113.1,413.4 113.1,407 			"/>
			<polygon class="st4" points="117.7,310.4 122.7,315.4 117.7,320.4 113.1,315.8 113.1,314.9 			"/>
			<polygon class="st4" points="117.7,323 122.7,328 117.7,333 113.1,328.5 113.1,327.5 			"/>
			<polygon class="st4" points="113.1,307.1 113.1,312.2 116.3,309 114.4,307.1 			"/>
			<polygon class="st4" points="117.7,348.3 122.7,353.3 117.7,358.3 113.1,353.8 113.1,352.8 			"/>
			<polygon class="st4" points="116.3,347 113.1,350.2 113.1,343.8 			"/>
			<polygon class="st4" points="117.7,335.7 122.7,340.7 117.7,345.6 113.1,341.1 113.1,340.2 			"/>
			<polygon class="st4" points="116.3,334.3 113.1,337.5 113.1,331.1 			"/>
			<polygon class="st6" points="120.9,307.1 118.2,307.1 117.7,307.7 117.1,307.1 114.4,307.1 116.3,309 113.1,312.2 113.1,314.9 
				117.7,310.4 122.7,315.4 117.7,320.4 113.1,315.8 113.1,318.5 116.3,321.7 113.1,324.9 113.1,327.5 117.7,323 122.7,328 
				117.7,333 113.1,328.5 113.1,331.1 116.3,334.3 113.1,337.5 113.1,340.2 117.7,335.7 122.7,340.7 117.7,345.6 113.1,341.1 
				113.1,343.8 116.3,347 113.1,350.2 113.1,352.8 117.7,348.3 122.7,353.3 117.7,358.3 113.1,353.8 113.1,356.4 116.3,359.6 
				113.1,362.8 113.1,365.5 117.7,361 122.7,366 117.7,370.9 113.1,366.4 113.1,369.1 116.3,372.3 113.1,375.5 113.1,378.1 
				117.7,373.6 122.7,378.6 117.7,383.6 113.1,379.1 113.1,381.7 116.3,384.9 113.1,388.1 113.1,390.8 117.7,386.3 122.7,391.3 
				117.7,396.2 113.1,391.7 113.1,394.4 116.3,397.6 113.1,400.8 113.1,403.4 117.7,398.9 122.7,403.9 117.7,408.9 113.1,404.4 
				113.1,407 116.3,410.2 113.1,413.4 113.1,416.1 117.7,411.6 122.7,416.6 117.7,421.5 113.1,417 113.1,419.7 116.3,422.9 
				113.1,426.1 113.1,428.7 117.7,424.2 122.7,429.2 117.7,434.2 113.1,429.7 113.1,432.3 116.3,435.5 113.1,438.7 113.1,441.4 
				117.7,436.9 122.7,441.8 117.7,446.8 113.1,442.3 113.1,445 116.3,448.2 113.1,451.4 113.1,452.4 114.8,452.4 117.7,449.5 
				120.5,452.4 122.8,452.4 122.8,452 119,448.2 122.8,444.3 122.8,439.4 119,435.5 122.8,431.7 122.8,426.7 119,422.9 122.8,419 
				122.8,414.1 119,410.2 122.8,406.4 122.8,401.4 119,397.6 122.8,393.7 122.8,388.8 119,384.9 122.8,381.1 122.8,376.1 119,372.3 
				122.8,368.4 122.8,363.5 119,359.6 122.8,355.8 122.8,350.8 119,347 122.8,343.2 122.8,338.2 119,334.3 122.8,330.5 122.8,325.5 
				119,321.7 122.8,317.9 122.8,312.9 119,309 			"/>
			<rect x="109.5" y="307.1" class="st5" width="3.6" height="145.3"/>
			<rect x="122.8" y="307.1" class="st5" width="3.6" height="145.3"/>
		</g>
		<rect x="85.5" y="350.4" class="st9" width="231.1" height="16.2"/>
		<g>
			<path class="st3" d="M339.1,388.5c0,7.2-6.6,13-14.7,13H73.9c-8.1,0-14.7-5.8-14.7-13V236.8c0-7.2,6.6-13,14.7-13h250.5
				c8.1,0,14.7,5.8,14.7,13V388.5z"/>
			<path class="st10" d="M59.2,366.6v21.9c0,7.2,6.6,13,14.7,13h250.5c8.1,0,14.7-5.8,14.7-13v-21.9H59.2z"/>
			<rect x="68.8" y="231.8" class="st11" width="260.6" height="134.8"/>
			<polygon class="st3" points="223.6,401.5 174.7,401.5 161.7,448.1 236.5,448.1 			"/>
			<path class="st10" d="M258.7,448.1c0,2.3-2.1,4.2-4.8,4.2H144.4c-2.6,0-4.8-1.9-4.8-4.2l0,0c0-2.3,2.1-4.2,4.8-4.2h109.5
				C256.5,443.9,258.7,445.8,258.7,448.1L258.7,448.1z"/>
		</g>
		<g>
			<g>
				<g>
					<polygon class="st2" points="183.4,352.3 180.6,352.3 180.6,351 182,351 182,349.8 183.4,349.8 					"/>
				</g>
				<g>
					<path class="st2" d="M174.9,352.3h-4.3V351h4.3V352.3z M164.9,352.3h-4.3V351h4.3V352.3z M154.9,352.3h-4.3V351h4.3V352.3z
						 M144.8,352.3h-4.3V351h4.3V352.3z M134.8,352.3h-4.3V351h4.3V352.3z M124.8,352.3h-4.3V351h4.3V352.3z M114.8,352.3h-4.3V351
						h4.3V352.3z M104.8,352.3h-4.3V351h4.3V352.3z M94.8,352.3h-4.3V351h4.3V352.3z"/>
				</g>
				<g>
					<polygon class="st2" points="84.7,352.3 82,352.3 82,349.8 83.4,349.8 83.4,351 84.7,351 					"/>
				</g>
				<g>
					<path class="st2" d="M83.4,345.1H82v-3.5h1.4V345.1z M83.4,336.9H82v-3.5h1.4V336.9z M83.4,328.7H82v-3.5h1.4V328.7z
						 M83.4,320.5H82V317h1.4V320.5z M83.4,312.3H82v-3.5h1.4V312.3z"/>
				</g>
				<g>
					<polygon class="st2" points="83.4,304.1 82,304.1 82,301.6 84.7,301.6 84.7,302.8 83.4,302.8 					"/>
				</g>
				<g>
					<path class="st2" d="M174.9,302.8h-4.3v-1.2h4.3V302.8z M164.9,302.8h-4.3v-1.2h4.3V302.8z M154.9,302.8h-4.3v-1.2h4.3V302.8z
						 M144.8,302.8h-4.3v-1.2h4.3V302.8z M134.8,302.8h-4.3v-1.2h4.3V302.8z M124.8,302.8h-4.3v-1.2h4.3V302.8z M114.8,302.8h-4.3
						v-1.2h4.3V302.8z M104.8,302.8h-4.3v-1.2h4.3V302.8z M94.8,302.8h-4.3v-1.2h4.3V302.8z"/>
				</g>
				<g>
					<polygon class="st2" points="183.4,304.1 182,304.1 182,302.8 180.6,302.8 180.6,301.6 183.4,301.6 					"/>
				</g>
				<g>
					<path class="st2" d="M183.4,345.1H182v-3.5h1.4V345.1z M183.4,336.9H182v-3.5h1.4V336.9z M183.4,328.7H182v-3.5h1.4V328.7z
						 M183.4,320.5H182V317h1.4V320.5z M183.4,312.3H182v-3.5h1.4V312.3z"/>
				</g>
			</g>
			<g>
				<g>
					<polygon class="st2" points="316.3,352.3 313.5,352.3 313.5,351 314.9,351 314.9,349.8 316.3,349.8 					"/>
				</g>
				<g>
					<path class="st2" d="M307.8,352.3h-4.3V351h4.3V352.3z M297.8,352.3h-4.3V351h4.3V352.3z M287.8,352.3h-4.3V351h4.3V352.3z
						 M277.8,352.3h-4.3V351h4.3V352.3z M267.7,352.3h-4.3V351h4.3V352.3z M257.7,352.3h-4.3V351h4.3V352.3z M247.7,352.3h-4.3V351
						h4.3V352.3z M237.7,352.3h-4.3V351h4.3V352.3z M227.7,352.3h-4.3V351h4.3V352.3z"/>
				</g>
				<g>
					<polygon class="st2" points="217.7,352.3 214.9,352.3 214.9,349.8 216.3,349.8 216.3,351 217.7,351 					"/>
				</g>
				<g>
					<path class="st2" d="M216.3,345.1h-1.4v-3.5h1.4V345.1z M216.3,336.9h-1.4v-3.5h1.4V336.9z M216.3,328.7h-1.4v-3.5h1.4V328.7z
						 M216.3,320.5h-1.4V317h1.4V320.5z M216.3,312.3h-1.4v-3.5h1.4V312.3z"/>
				</g>
				<g>
					<polygon class="st2" points="216.3,304.1 214.9,304.1 214.9,301.6 217.7,301.6 217.7,302.8 216.3,302.8 					"/>
				</g>
				<g>
					<path class="st2" d="M307.8,302.8h-4.3v-1.2h4.3V302.8z M297.8,302.8h-4.3v-1.2h4.3V302.8z M287.8,302.8h-4.3v-1.2h4.3V302.8z
						 M277.8,302.8h-4.3v-1.2h4.3V302.8z M267.7,302.8h-4.3v-1.2h4.3V302.8z M257.7,302.8h-4.3v-1.2h4.3V302.8z M247.7,302.8h-4.3
						v-1.2h4.3V302.8z M237.7,302.8h-4.3v-1.2h4.3V302.8z M227.7,302.8h-4.3v-1.2h4.3V302.8z"/>
				</g>
				<g>
					<polygon class="st2" points="316.3,304.1 314.9,304.1 314.9,302.8 313.5,302.8 313.5,301.6 316.3,301.6 					"/>
				</g>
				<g>
					<path class="st2" d="M316.3,345.1h-1.4v-3.5h1.4V345.1z M316.3,336.9h-1.4v-3.5h1.4V336.9z M316.3,328.7h-1.4v-3.5h1.4V328.7z
						 M316.3,320.5h-1.4V317h1.4V320.5z M316.3,312.3h-1.4v-3.5h1.4V312.3z"/>
				</g>
			</g>
		</g>
		<path class="st6" d="M142.1,256.8c0-1.7,0.3-3.2,0.9-4.7c0.6-1.5,1.5-2.8,2.6-3.8c1.1-1.1,2.4-2,3.8-2.6c1.5-0.6,3-0.9,4.7-0.9
			c1.7,0,3.2,0.3,4.7,0.9c1.5,0.6,2.8,1.5,3.8,2.6c1.1,1.1,2,2.4,2.6,3.8c0.6,1.5,0.9,3,0.9,4.7c0,1.7-0.3,3.2-0.9,4.7
			c-0.6,1.5-1.5,2.8-2.6,3.8c-1.1,1.1-2.4,2-3.8,2.6c-1.5,0.6-3,0.9-4.7,0.9c-1.7,0-3.2-0.3-4.7-0.9c-1.5-0.6-2.8-1.5-3.8-2.6
			c-1.1-1.1-2-2.4-2.6-3.8C142.4,260,142.1,258.5,142.1,256.8z M149.3,256.8c0,0.7,0.1,1.3,0.4,1.9c0.3,0.6,0.6,1.1,1,1.5
			c0.4,0.4,0.9,0.8,1.5,1c0.6,0.3,1.2,0.4,1.9,0.4c0.7,0,1.3-0.1,1.9-0.4c0.6-0.3,1.1-0.6,1.5-1c0.4-0.4,0.8-0.9,1-1.5
			c0.3-0.6,0.4-1.2,0.4-1.9c0-0.7-0.1-1.3-0.4-1.9c-0.3-0.6-0.6-1.1-1-1.5c-0.4-0.4-0.9-0.8-1.5-1c-0.6-0.3-1.2-0.4-1.9-0.4
			c-0.7,0-1.3,0.1-1.9,0.4c-0.6,0.3-1.1,0.6-1.5,1c-0.4,0.4-0.8,0.9-1,1.5C149.4,255.5,149.3,256.1,149.3,256.8z"/>
		<path class="st6" d="M177.6,222.1l5.4,2.7l1.7,10.8l3.9-7.9l6.5,3.2l-10.2,20.6l-5.4-2.7l-1.7-10.7l-3.9,7.9l-6.5-3.2L177.6,222.1
			z"/>
		<path class="st6" d="M193.7,245.3h7.7v17h6.3v6h-14V245.3z"/>
		<path class="st6" d="M210.8,245.3h7.8v23h-7.8V245.3z"/>
		<path class="st6" d="M222.8,245.3h6l6.3,8.9v-8.9h7.2v23h-6.1l-6.3-8.8v8.8h-7.2V245.3z"/>
		<path class="st6" d="M246.6,245.3h13.5v6H254v2.6h6.1v5.7H254v2.7h6.4v6h-13.8V245.3z"/>
		<path class="st5" d="M141.6,281.8c0-1.3,0.2-2.5,0.7-3.5c0.5-1,1.1-1.9,1.8-2.7c0.8-0.7,1.7-1.3,2.7-1.7c1-0.4,2.1-0.6,3.3-0.6
			c0.9,0,1.7,0.1,2.5,0.3c0.7,0.2,1.3,0.4,1.9,0.6c0.6,0.3,1.1,0.5,1.6,0.8l-2.5,4.5c-0.3-0.2-0.5-0.4-0.8-0.6
			c-0.3-0.1-0.6-0.3-1-0.4c-0.4-0.1-0.8-0.2-1.3-0.2c-0.5,0-1,0.1-1.4,0.3c-0.4,0.2-0.8,0.4-1.1,0.7c-0.3,0.3-0.6,0.7-0.7,1.1
			c-0.2,0.4-0.3,0.9-0.3,1.3c0,0.5,0.1,0.9,0.3,1.3c0.2,0.4,0.4,0.8,0.8,1.1c0.3,0.3,0.7,0.6,1.1,0.7c0.4,0.2,0.9,0.3,1.4,0.3
			c0.5,0,1-0.1,1.4-0.2c0.4-0.1,0.7-0.3,1-0.4c0.3-0.2,0.6-0.4,0.8-0.6l2.5,4.5c-0.4,0.4-1,0.7-1.6,0.9c-0.5,0.2-1.1,0.4-1.9,0.6
			c-0.7,0.2-1.6,0.3-2.5,0.3c-1.3,0-2.4-0.2-3.5-0.6c-1.1-0.4-2-1-2.8-1.7c-0.8-0.7-1.4-1.6-1.8-2.7
			C141.9,284.3,141.6,283.1,141.6,281.8z"/>
		<path class="st5" d="M161.8,281.8c0-1.2,0.2-2.3,0.7-3.3c0.4-1,1.1-1.9,1.8-2.7c0.8-0.8,1.7-1.4,2.7-1.8c1-0.4,2.1-0.7,3.3-0.7
			s2.3,0.2,3.3,0.7c1,0.4,1.9,1.1,2.7,1.8c0.8,0.8,1.4,1.7,1.8,2.7c0.4,1,0.7,2.1,0.7,3.3c0,1.2-0.2,2.3-0.7,3.3
			c-0.4,1-1.1,1.9-1.8,2.7c-0.8,0.8-1.7,1.4-2.7,1.8c-1,0.4-2.1,0.7-3.3,0.7s-2.3-0.2-3.3-0.7c-1-0.4-1.9-1.1-2.7-1.8
			c-0.8-0.8-1.4-1.7-1.8-2.7C162,284.1,161.8,283,161.8,281.8z M166.9,281.8c0,0.5,0.1,0.9,0.3,1.3c0.2,0.4,0.4,0.8,0.7,1.1
			c0.3,0.3,0.7,0.6,1.1,0.7c0.4,0.2,0.9,0.3,1.3,0.3c0.5,0,0.9-0.1,1.3-0.3c0.4-0.2,0.8-0.4,1.1-0.7c0.3-0.3,0.6-0.7,0.7-1.1
			c0.2-0.4,0.3-0.9,0.3-1.3c0-0.5-0.1-0.9-0.3-1.3c-0.2-0.4-0.4-0.8-0.7-1.1c-0.3-0.3-0.7-0.6-1.1-0.7c-0.4-0.2-0.9-0.3-1.3-0.3
			c-0.5,0-0.9,0.1-1.3,0.3c-0.4,0.2-0.8,0.4-1.1,0.7c-0.3,0.3-0.6,0.7-0.7,1.1C167,280.9,166.9,281.4,166.9,281.8z"/>
		<path class="st5" d="M191.6,290.1c-1,0-1.9-0.1-2.8-0.4c-0.8-0.3-1.5-0.6-2.1-1.2c-0.6-0.5-1-1.2-1.3-2c-0.3-0.8-0.5-1.7-0.5-2.8
			v-10.3h5.2v10.1c0,0.6,0.1,1,0.4,1.3c0.2,0.3,0.6,0.4,1.2,0.4c0.6,0,0.9-0.1,1.2-0.4c0.2-0.3,0.4-0.7,0.4-1.3v-10.1h5.2v10.3
			c0,1.1-0.2,2-0.5,2.8c-0.3,0.8-0.8,1.4-1.4,2c-0.6,0.5-1.3,0.9-2.1,1.2C193.5,290,192.6,290.1,191.6,290.1z"/>
		<path class="st5" d="M206.1,273.7h5.6c1,0,2,0.1,2.9,0.4c0.9,0.3,1.6,0.7,2.3,1.2c0.6,0.5,1.2,1.2,1.5,2c0.4,0.8,0.5,1.7,0.5,2.7
			c0,0.8-0.1,1.5-0.3,2.1c-0.2,0.6-0.5,1-0.8,1.4c-0.3,0.4-0.7,0.8-1.1,1.1l3,5.3h-6.1l-2.4-4.1v4.1h-5.2V273.7z M211.3,281.7h0.3
			c0.6,0,1.1-0.1,1.6-0.4c0.4-0.3,0.6-0.7,0.6-1.4c0-0.6-0.2-1.1-0.6-1.4c-0.4-0.3-1-0.4-1.6-0.4h-0.3V281.7z"/>
		<path class="st5" d="M229.1,284.9c0.4,0.1,0.7,0.2,1.1,0.3c0.3,0.1,0.7,0.1,1.1,0.2c0.4,0,0.8,0.1,1.3,0.1c0.7,0,1.1-0.3,1.1-0.8
			c0-0.2-0.1-0.4-0.3-0.6c-0.2-0.2-0.5-0.5-0.9-0.7c-0.3-0.3-0.7-0.6-1.1-0.9c-0.4-0.3-0.8-0.7-1.1-1.1c-0.3-0.4-0.6-0.9-0.9-1.4
			c-0.2-0.5-0.3-1.1-0.3-1.8c0-0.8,0.1-1.4,0.4-2c0.3-0.6,0.7-1.1,1.1-1.5c0.5-0.4,1.1-0.7,1.7-0.9c0.7-0.2,1.4-0.3,2.1-0.3
			c0.4,0,0.8,0,1.2,0.1c0.4,0,0.7,0.1,1,0.1c0.4,0,0.7,0.1,1,0.1v4.5c-0.1,0-0.3,0-0.4,0c-0.1,0-0.3,0-0.4,0c-0.2,0-0.3,0-0.5,0
			c-0.1,0-0.2,0-0.4,0c-0.1,0-0.3,0-0.4,0.1c-0.1,0-0.2,0.1-0.3,0.2c-0.1,0.1-0.1,0.2-0.1,0.3c0,0.1,0.1,0.3,0.3,0.5
			c0.2,0.2,0.5,0.4,0.8,0.7c0.3,0.3,0.7,0.6,1,0.9c0.4,0.3,0.7,0.7,1,1.2c0.3,0.4,0.6,0.9,0.8,1.5c0.2,0.6,0.3,1.2,0.3,1.8
			c0,0.7-0.1,1.4-0.3,2c-0.2,0.6-0.6,1.2-1.1,1.6c-0.5,0.5-1.1,0.8-1.8,1.1c-0.7,0.3-1.6,0.4-2.6,0.4c-0.6,0-1.2,0-1.7-0.1
			c-0.5-0.1-1-0.1-1.4-0.2c-0.5-0.1-0.9-0.2-1.3-0.3V284.9z"/>
		<path class="st5" d="M250.7,273.7h9.5v4.2h-4.4v1.8h4.3v4h-4.3v1.9h4.5v4.2h-9.7V273.7z"/>
		<g>
			<polygon class="st4" points="391,300.3 386.4,295.6 386.4,304.9 			"/>
			<polygon class="st4" points="391,284.8 386.4,280.2 386.4,289.5 			"/>
			<polygon class="st4" points="391,269.4 386.4,264.7 386.4,274.1 			"/>
			<polygon class="st4" points="391,346.5 386.4,341.9 386.4,351.2 			"/>
			<polygon class="st4" points="391,315.7 386.4,311 386.4,320.4 			"/>
			<polygon class="st4" points="391,223.1 386.4,218.5 386.4,227.8 			"/>
			<polygon class="st4" points="391,146 386.4,141.3 386.4,150.7 			"/>
			<polygon class="st4" points="391,207.7 386.4,203 386.4,212.4 			"/>
			<polygon class="st4" points="391,362 386.4,357.3 386.4,366.6 			"/>
			<polygon class="st4" points="391,161.4 386.4,156.8 386.4,166.1 			"/>
			<polygon class="st4" points="391,192.3 386.4,187.6 386.4,197 			"/>
			<polygon class="st4" points="391,176.9 386.4,172.2 386.4,181.5 			"/>
			<polygon class="st4" points="394.3,439.1 398.2,443 398.2,435.2 			"/>
			<polygon class="st4" points="391,377.4 386.4,372.7 386.4,382.1 			"/>
			<polygon class="st4" points="386.4,243.2 391,238.6 386.4,233.9 386.4,235.9 			"/>
			<polygon class="st4" points="391,130.6 386.4,125.9 386.4,135.2 			"/>
			<polygon class="st4" points="394.3,408.2 398.2,412.1 398.2,404.4 			"/>
			<polygon class="st4" points="392.7,409.9 386.6,416 392.7,422 398.2,416.5 398.2,415.4 			"/>
			<polygon class="st4" points="392.7,425.3 386.6,431.4 392.7,437.5 398.2,431.9 398.2,430.8 			"/>
			<polygon class="st4" points="391,392.8 386.4,388.1 386.4,397.5 			"/>
			<polygon class="st4" points="391,408.2 386.4,403.6 386.4,412.9 			"/>
			<polygon class="st4" points="391,439.1 386.4,434.4 386.4,443.8 			"/>
			<polygon class="st4" points="386.4,428.3 391,423.7 386.4,419 386.4,421 			"/>
			<polygon class="st4" points="386.4,335.8 391,331.1 386.4,326.4 386.4,328.4 			"/>
			<polygon class="st4" points="410.3,106.8 414.2,102.9 407,102.9 407,103.5 			"/>
			<polygon class="st4" points="377.7,105 378.2,102.9 375.6,102.9 			"/>
			<polygon class="st4" points="418,114.5 424.1,108.5 418.6,102.9 417.5,102.9 411.9,108.5 			"/>
			<polygon class="st4" points="394.3,392.8 398.2,396.7 398.2,388.9 			"/>
			<polygon class="st4" points="364,106.8 367.9,102.9 360.1,102.9 			"/>
			<polygon class="st4" points="365.7,108.5 371.7,114.5 376.5,109.8 377,107.7 372.3,102.9 371.2,102.9 			"/>
			<polygon class="st4" points="302.8,106.3 310.5,114.1 316.1,108.5 310.6,102.9 308.6,102.9 			"/>
			<polygon class="st4" points="350.2,108.5 356.3,114.5 362.4,108.5 356.9,102.9 355.8,102.9 			"/>
			<polygon class="st4" points="421.1,114.8 430.4,114.8 425.7,110.1 			"/>
			<polygon class="st4" points="433.7,114.8 434.1,114.8 434.1,102.9 432.9,102.9 427.4,108.5 			"/>
			<polygon class="st4" points="429.6,102.9 421.8,102.9 425.7,106.8 			"/>
			<polygon class="st4" points="407,113.4 407,114.8 415,114.8 410.3,110.1 			"/>
			<polygon class="st4" points="333.2,110.1 328.5,114.8 337.9,114.8 			"/>
			<polygon class="st4" points="348.6,110.1 343.9,114.8 353.3,114.8 			"/>
			<polygon class="st4" points="348.6,106.8 352.5,102.9 344.7,102.9 			"/>
			<polygon class="st4" points="375.5,114.1 374.8,114.8 375.3,114.8 			"/>
			<polygon class="st4" points="307.9,114.8 300.7,107.5 288.2,114.8 			"/>
			<polygon class="st4" points="364,110.1 359.4,114.8 368.7,114.8 			"/>
			<polygon class="st4" points="317.8,110.1 313.1,114.8 322.4,114.8 			"/>
			<polygon class="st4" points="333.2,106.8 337.1,102.9 329.3,102.9 			"/>
			<polygon class="st4" points="334.8,108.5 340.9,114.5 347,108.5 341.5,102.9 340.3,102.9 			"/>
			<polygon class="st4" points="319.4,108.5 325.5,114.5 331.6,108.5 326,102.9 324.9,102.9 			"/>
			<polygon class="st4" points="317.8,106.8 321.6,102.9 313.9,102.9 			"/>
			<polygon class="st4" points="391,254 386.4,249.3 386.4,258.7 			"/>
			<polygon class="st4" points="394.3,192.3 398.2,196.2 398.2,188.4 			"/>
			<polygon class="st4" points="394.3,130.6 398.2,134.5 398.2,126.7 			"/>
			<polygon class="st4" points="398.2,214.9 392.7,209.3 386.6,215.4 392.7,221.5 398.2,216 398.2,215.7 			"/>
			<polygon class="st4" points="386.8,123.1 392.7,128.9 398.2,123.4 398.2,123.1 			"/>
			<polygon class="st4" points="394.3,146 398.2,149.9 398.2,142.1 			"/>
			<polygon class="st4" points="394.3,161.4 398.2,165.3 398.2,157.5 			"/>
			<polygon class="st4" points="394.3,176.9 398.2,180.7 398.2,173 			"/>
			<polygon class="st4" points="392.7,379 386.6,385.1 392.7,391.2 398.2,385.7 398.2,384.5 			"/>
			<polygon class="st4" points="392.7,163.1 386.6,169.1 392.7,175.2 398.2,169.7 398.2,168.6 			"/>
			<polygon class="st4" points="398.2,234.7 394.3,238.6 398.2,242.4 398.2,235.9 			"/>
			<polygon class="st4" points="392.7,147.6 386.6,153.7 392.7,159.8 398.2,154.3 398.2,153.1 			"/>
			<polygon class="st4" points="392.7,132.2 386.6,138.3 392.7,144.4 398.2,138.9 398.2,137.7 			"/>
			<polygon class="st4" points="402.5,77.4 389.4,77.4 395.3,84.7 			"/>
			<polygon class="st4" points="398.2,307.4 392.7,301.9 386.6,308 392.7,314.1 398.2,308.5 398.2,308.2 			"/>
			<polygon class="st4" points="408.7,108.5 407,106.7 407,110.2 			"/>
			<polygon class="st4" points="403.5,94.9 403.5,79.7 396.7,86.5 			"/>
			<polygon class="st4" points="393.6,86.3 387.6,78.8 383.3,96.4 383.6,96.4 			"/>
			<polygon class="st4" points="386.9,96.4 401.7,96.4 395.1,88.1 			"/>
			<polygon class="st4" points="398.2,400 392.7,394.4 386.6,400.5 392.7,406.6 398.2,401.1 398.2,400.8 			"/>
			<polygon class="st4" points="398.2,327.2 394.3,331.1 398.2,335 398.2,328.4 			"/>
			<polygon class="st4" points="398.2,419.8 394.3,423.7 398.2,427.6 398.2,421 			"/>
			<polygon class="st4" points="392.7,178.5 386.6,184.6 392.7,190.7 398.2,185.1 398.2,184 			"/>
			<polygon class="st4" points="392.7,317.3 386.6,323.4 392.7,329.5 398.2,324 398.2,322.8 			"/>
			<polygon class="st4" points="394.3,315.7 398.2,319.6 398.2,311.8 			"/>
			<polygon class="st4" points="394.3,284.8 398.2,288.7 398.2,280.9 			"/>
			<polygon class="st4" points="394.3,300.3 398.2,304.1 398.2,296.4 			"/>
			<polygon class="st4" points="392.7,286.5 386.6,292.5 392.7,298.6 398.2,293.1 398.2,292 			"/>
			<polygon class="st4" points="392.7,332.7 386.6,338.8 392.7,344.9 398.2,339.4 398.2,338.3 			"/>
			<polygon class="st4" points="394.3,377.4 398.2,381.3 398.2,373.5 			"/>
			<polygon class="st4" points="392.7,363.6 386.6,369.7 392.7,375.8 398.2,370.2 398.2,369.1 			"/>
			<polygon class="st4" points="392.7,193.9 386.6,200 392.7,206.1 398.2,200.6 398.2,199.4 			"/>
			<polygon class="st4" points="392.7,348.2 386.6,354.3 392.7,360.3 398.2,354.8 398.2,353.7 			"/>
			<polygon class="st4" points="394.3,362 398.2,365.9 398.2,358.1 			"/>
			<polygon class="st4" points="394.3,346.5 398.2,350.4 398.2,342.7 			"/>
			<polygon class="st4" points="392.7,224.8 386.6,230.8 392.7,236.9 398.2,231.4 398.2,230.3 			"/>
			<polygon class="st4" points="394.3,207.7 398.2,211.6 398.2,203.8 			"/>
			<polygon class="st4" points="392.7,240.2 386.6,246.3 392.7,252.4 398.2,246.8 398.2,245.7 			"/>
			<polygon class="st4" points="394.3,223.1 398.2,227 398.2,219.2 			"/>
			<polygon class="st4" points="392.7,271 386.6,277.1 392.7,283.2 398.2,277.7 398.2,276.6 			"/>
			<polygon class="st4" points="394.3,269.4 398.2,273.3 398.2,265.5 			"/>
			<polygon class="st4" points="392.7,255.6 386.6,261.7 392.7,267.8 398.2,262.3 398.2,261.1 			"/>
			<polygon class="st4" points="394.3,254 398.2,257.9 398.2,250.1 			"/>
			<polygon class="st5" points="374.8,114.8 368.7,114.8 359.4,114.8 353.3,114.8 343.9,114.8 337.9,114.8 328.5,114.8 322.4,114.8 
				313.1,114.8 307.9,114.8 288.2,114.8 300.7,107.5 302.8,106.3 308.6,102.9 310.6,102.9 313.9,102.9 321.6,102.9 324.9,102.9 
				326,102.9 329.3,102.9 337.1,102.9 340.3,102.9 341.5,102.9 344.7,102.9 352.5,102.9 355.8,102.9 356.9,102.9 360.1,102.9 
				367.9,102.9 371.2,102.9 372.3,102.9 375.6,102.9 378.2,102.9 379.3,98.5 308.6,98.5 280.7,114.8 280.7,119.2 374.3,119.2 
				375.3,114.8 			"/>
			<polygon class="st5" points="407,98.5 407,102.9 414.2,102.9 417.5,102.9 418.6,102.9 421.8,102.9 429.6,102.9 432.9,102.9 
				434.1,102.9 434.1,114.8 433.7,114.8 430.4,114.8 421.1,114.8 415,114.8 407,114.8 407,119.2 438.5,119.2 438.5,117.8 
				438.5,114.8 438.5,102.9 438.5,100.7 438.5,98.5 			"/>
			<polygon class="st5" points="383.6,96.4 386.9,96.4 395.1,88.1 401.7,96.4 403.5,96.4 403.5,94.9 396.7,86.5 403.5,79.7 
				403.5,77.4 402.5,77.4 395.3,84.7 389.4,77.4 387.9,77.4 387.6,78.8 393.6,86.3 			"/>
			<path class="st6" d="M407,113.4l3.3-3.3l4.7,4.7h6.1l4.7-4.7l4.7,4.7h3.3l-6.3-6.3l5.5-5.5h-3.3l-3.9,3.9l-3.9-3.9h-3.3l5.5,5.5
				l-6.1,6.1l-6.1-6.1l5.5-5.5h-3.3l-3.9,3.9l-3.3-3.3v-0.5v-4.4V74h-21.8l-6,24.6l-1.1,4.4l-0.5,2.1l-2.1-2.1h-3.3l4.7,4.7
				l-0.5,2.1l-4.8,4.8l-6.1-6.1l5.5-5.5h-3.3l-3.9,3.9l-3.9-3.9h-3.3l5.5,5.5l-6.1,6.1l-6.1-6.1l5.5-5.5h-3.3l-3.9,3.9l-3.9-3.9
				h-3.3l5.5,5.5l-6.1,6.1l-6.1-6.1l5.5-5.5h-3.3l-3.9,3.9l-3.9-3.9H326l5.5,5.5l-6.1,6.1l-6.1-6.1l5.5-5.5h-3.3l-3.9,3.9l-3.9-3.9
				h-3.3l5.5,5.5l-5.6,5.6l-7.7-7.7l-2.1,1.2l7.2,7.2h5.2l4.7-4.7l4.7,4.7h6.1l4.7-4.7l4.7,4.7h6.1l4.7-4.7l4.7,4.7h6.1l4.7-4.7
				l4.7,4.7h6.1l0.7-0.7l-0.2,0.7l-1.1,4.4l-1,4h8.7h4.4v2.8l4.7,4.7l-4.7,4.7v6.1l4.7,4.7l-4.7,4.7v6.1l4.7,4.7l-4.7,4.7v6.1
				l4.7,4.7l-4.7,4.7v6.1l4.7,4.7l-4.7,4.7v6.1l4.7,4.7l-4.7,4.7v2.8l-0.6-0.6l-1.1,1.1h1.7v2.8l4.7,4.7l-4.7,4.7v6.1l4.7,4.7
				l-4.7,4.7v6.1l4.7,4.7l-4.7,4.7v6.1l4.7,4.7l-4.7,4.7v6.1l4.7,4.7l-4.7,4.7v6.1l4.7,4.7l-4.7,4.7v3.3v2.8l4.7,4.7l-4.7,4.7v6.1
				l4.7,4.7l-4.7,4.7v6.1l4.7,4.7l-4.7,4.7v6.1l4.7,4.7l-4.7,4.7v6.1l4.7,4.7l-4.7,4.7v6.1l4.7,4.7l-4.7,4.7v3.3v2.8l4.7,4.7
				l-4.7,4.7v6.1l4.7,4.7l-4.7,4.7v6.1l4.7,4.7l-4.7,4.7v6.1l2.5,2.5h3.3l-5.6-5.6l6.1-6.1l5.5,5.5V443l-3.9-3.9l3.9-3.9v-3.3
				l-5.5,5.5l-6.1-6.1l6.1-6.1l5.5,5.5v-3.3l-3.9-3.9l3.9-3.9v-3.3l-5.5,5.5l-6.1-6.1l6.1-6.1l5.5,5.5v-3.3l-3.9-3.9l3.9-3.9v-3.3
				l-5.5,5.5l-6.1-6.1l6.1-6.1l5.5,5.5v-3.3l-3.9-3.9l3.9-3.9v-3.3l-5.5,5.5l-6.1-6.1l6.1-6.1l5.5,5.5v-3.3l-3.9-3.9l3.9-3.9v-3.3
				l-5.5,5.5l-6.1-6.1l6.1-6.1l5.5,5.5v-3.3l-3.9-3.9l3.9-3.9v-3.3l-5.5,5.5l-6.1-6.1l6.1-6.1l5.5,5.5v-3.3l-3.9-3.9l3.9-3.9v-3.3
				l-5.5,5.5l-6.1-6.1l6.1-6.1l5.5,5.5V335l-3.9-3.9l3.9-3.9V324l-5.5,5.5l-6.1-6.1l6.1-6.1l5.5,5.5v-3.3l-3.9-3.9l3.9-3.9v-3.3
				l-5.5,5.5l-6.1-6.1l6.1-6.1l5.5,5.5v-3.3l-3.9-3.9l3.9-3.9v-3.3l-5.5,5.5l-6.1-6.1l6.1-6.1l5.5,5.5v-3.3l-3.9-3.9l3.9-3.9v-3.3
				l-5.5,5.5l-6.1-6.1l6.1-6.1l5.5,5.5v-3.3l-3.9-3.9l3.9-3.9v-3.3l-5.5,5.5l-6.1-6.1l6.1-6.1l5.5,5.5v-3.3l-3.9-3.9l3.9-3.9v-3.3
				l-5.5,5.5l-6.1-6.1l6.1-6.1l5.5,5.5v-3.3l-3.9-3.9l3.9-3.9v-3.3l-5.5,5.5l-6.1-6.1l6.1-6.1l5.5,5.5V227l-3.9-3.9l3.9-3.9V216
				l-5.5,5.5l-6.1-6.1l6.1-6.1l5.5,5.5v-3.3l-3.9-3.9l3.9-3.9v-3.3l-5.5,5.5l-6.1-6.1l6.1-6.1l5.5,5.5v-3.3l-3.9-3.9l3.9-3.9v-3.3
				l-5.5,5.5l-6.1-6.1l6.1-6.1l5.5,5.5v-3.3l-3.9-3.9l3.9-3.9v-3.3l-5.5,5.5l-6.1-6.1l6.1-6.1l5.5,5.5v-3.3l-3.9-3.9l3.9-3.9v-3.3
				l-5.5,5.5l-6.1-6.1l6.1-6.1l5.5,5.5v-3.3l-3.9-3.9l3.9-3.9v-3.3l-5.5,5.5l-6.1-6.1l6.1-6.1l5.5,5.5v-3.3l-3.9-3.9l3.9-3.9v-3.3
				l-5.5,5.5l-5.8-5.8h11.3h4.4h4.4v-4v-4.4V113.4z M387.6,78.8l0.3-1.4h1.5h13.1h1v2.3v15.2v1.5h-1.8h-14.9h-3.3h-0.3L387.6,78.8z
				 M384.2,110.4c0-4.3,3.5-7.7,7.7-7.7c4.3,0,7.7,3.5,7.7,7.7c0,4.3-3.5,7.7-7.7,7.7C387.6,118.1,384.2,114.6,384.2,110.4z
				 M408.7,108.5l-1.7,1.7v-3.4L408.7,108.5z"/>
			<circle class="st5" cx="391.9" cy="110.4" r="7.7"/>
			<path class="st5" d="M398.2,123.1v0.3v3.3v7.8v3.3v1.1v3.3v7.8v3.3v1.1v3.3v7.8v3.3v1.1v3.3v7.8v3.3v1.1v3.3v7.8v3.3v1.1v3.3v7.8
				v3.3v0.8v0.3v3.3v7.8v3.3v1.1v3.3v1.2v6.6v3.3v1.1v3.3v7.8v3.3v1.1v3.3v7.8v3.3v1.1v3.3v7.8v3.3v1.1v3.3v7.8v3.3v0.8v0.3v3.3v7.8
				v3.3v1.1v3.3v1.2v6.6v3.3v1.1v3.3v7.8v3.3v1.1v3.3v7.8v3.3v1.1v3.3v7.8v3.3v1.1v3.3v7.8v3.3v0.8v0.3v3.3v7.8v3.3v1.1v3.3v1.2v6.6
				v3.3v1.1v3.3v7.8v3.3v1.1v3.3v1.8h4.4V421v-20.2v-72.4v-20.2v-72.4v-20.2v-92.6H398.2z M398.5,215.7l1.1-1.1l1.1,1.1H398.5z"/>
			<polygon class="st6" points="399.6,214.6 398.5,215.7 400.6,215.7 			"/>
			<polygon class="st6" points="393.2,452.4 396.4,452.4 398.2,450.6 398.2,447.4 			"/>
			<polygon class="st5" points="386.4,443.8 386.4,434.4 386.4,428.3 386.4,421 386.4,419 386.4,412.9 386.4,403.6 386.4,400.8 
				386.4,397.5 386.4,388.1 386.4,382.1 386.4,372.7 386.4,366.6 386.4,357.3 386.4,351.2 386.4,341.9 386.4,335.8 386.4,328.4 
				386.4,326.4 386.4,320.4 386.4,311 386.4,308.2 386.4,304.9 386.4,295.6 386.4,289.5 386.4,280.2 386.4,274.1 386.4,264.7 
				386.4,258.7 386.4,249.3 386.4,243.2 386.4,235.9 386.4,233.9 386.4,227.8 386.4,218.5 386.4,215.7 384.7,215.7 385.8,214.6 
				386.4,215.2 386.4,212.4 386.4,203 386.4,197 386.4,187.6 386.4,181.5 386.4,172.2 386.4,166.1 386.4,156.8 386.4,150.7 
				386.4,141.3 386.4,135.2 386.4,125.9 386.4,123.1 382,123.1 382,215.7 382,235.9 382,308.2 382,328.4 382,400.8 382,421 
				382,452.4 386.4,452.4 386.4,449.8 			"/>
		</g>
		<g>
			<polygon class="st8" points="282.8,186.4 319.4,163.9 356,186.4 			"/>
			<path class="st7" d="M314.6,160.3c0,2.6,2.1,4.7,4.7,4.7s4.7-2.1,4.7-4.7s-2.1-4.7-4.7-4.7v-3.6"/>
			<rect x="316.1" y="150.6" class="st6" width="6.5" height="2.7"/>
			<rect x="313.6" y="147.9" class="st6" width="11.7" height="2.7"/>
			<rect x="316.1" y="121.6" class="st6" width="6.5" height="2.7"/>
			<rect x="313.6" y="118.9" class="st6" width="11.7" height="2.7"/>
			<rect x="317.8" y="124.3" class="st5" width="3.2" height="23.7"/>
		</g>
		<g>
			<g>
				<path class="st2" d="M360.7,249.1c0,0.8-0.6,1.4-1.4,1.4h-83.1c-0.8,0-1.4-0.6-1.4-1.4V181c0-0.8,0.6-1.4,1.4-1.4h83.1
					c0.8,0,1.4,0.6,1.4,1.4V249.1z"/>
				<path class="st5" d="M360.7,185.6V181c0-0.8-0.6-1.4-1.4-1.4h-83.1c-0.8,0-1.4,0.6-1.4,1.4v4.5H360.7z"/>
				<circle class="st12" cx="278" cy="182.6" r="1.5"/>
				<circle class="st13" cx="283" cy="182.6" r="1.5"/>
				<circle class="st14" cx="288" cy="182.6" r="1.5"/>
				<rect x="274.8" y="185.6" class="st15" width="85.9" height="8.6"/>
				<g>
					<rect x="281.8" y="187.8" class="st16" width="21.5" height="4.5"/>
					<rect x="307" y="187.8" class="st16" width="21.5" height="4.5"/>
					<rect x="332.2" y="187.8" class="st16" width="21.5" height="4.5"/>
				</g>
				<g>
					<rect x="281.8" y="199" class="st17" width="21.5" height="14.5"/>
					<rect x="307" y="199" class="st18" width="21.5" height="14.5"/>
					<rect x="332.2" y="199" class="st19" width="21.5" height="14.5"/>
				</g>
				<rect x="281.8" y="216.2" class="st16" width="21.5" height="1.2"/>
				<rect x="281.8" y="219.2" class="st16" width="21.5" height="1.2"/>
				<rect x="281.8" y="222.2" class="st16" width="21.5" height="1.2"/>
				<rect x="307" y="216.2" class="st16" width="21.5" height="1.2"/>
				<rect x="307" y="219.2" class="st16" width="21.5" height="1.2"/>
				<rect x="307" y="222.2" class="st16" width="21.5" height="1.2"/>
				<rect x="332.2" y="216.2" class="st16" width="21.5" height="1.2"/>
				<rect x="332.2" y="219.2" class="st16" width="21.5" height="1.2"/>
				<rect x="332.2" y="222.2" class="st16" width="21.5" height="1.2"/>
				<g>
					<rect x="281.8" y="226.1" class="st20" width="21.5" height="14.5"/>
					<rect x="307" y="226.1" class="st21" width="21.5" height="14.5"/>
					<rect x="332.2" y="226.1" class="st22" width="21.5" height="14.5"/>
				</g>
				<rect x="281.8" y="243.4" class="st16" width="21.5" height="1.2"/>
				<rect x="281.8" y="246.4" class="st16" width="21.5" height="1.2"/>
				<rect x="307" y="243.4" class="st16" width="21.5" height="1.2"/>
				<rect x="307" y="246.4" class="st16" width="21.5" height="1.2"/>
				<rect x="332.2" y="243.4" class="st16" width="21.5" height="1.2"/>
				<rect x="332.2" y="246.4" class="st16" width="21.5" height="1.2"/>
			</g>
		</g>
		<g class="st23">
			<g>
				<path class="st24" d="M79.6,423.4v3.2c0,0.2-0.2,0.4-0.3,0.4c-0.1,0-0.2-0.1-0.3-0.2c-0.1,0.1-0.2,0.2-0.3,0.2
					c-0.2,0-0.3-0.2-0.3-0.4c0,0.2-0.2,0.4-0.3,0.4c-0.1,0-0.3-0.1-0.3-0.2c-0.1,0.1-0.2,0.2-0.3,0.2c-0.1,0-0.2-0.1-0.3-0.1
					c0-0.1-0.1-0.1-0.1-0.2v-3.2c0-0.2,0.2-0.4,0.3-0.4c0.1,0,0.3,0.1,0.3,0.2c0.1-0.1,0.2-0.2,0.3-0.2c0.2,0,0.3,0.2,0.3,0.4
					c0-0.2,0.2-0.4,0.3-0.4c0.1,0,0.3,0.1,0.3,0.2c0.1-0.1,0.2-0.2,0.3-0.2C79.4,423,79.6,423.2,79.6,423.4z"/>
				<path class="st25" d="M76,427.5L76,427.5c0-1,0.8-1.8,1.8-1.8h0.3c1,0,1.8,0.8,1.8,1.8l0,0"/>
				<g>
					<polygon class="st26" points="81.4,438.1 81.4,427.5 73.9,427.5 73.6,431.5 73.9,431.5 73.9,438.1 					"/>
				</g>
				<path class="st10" d="M75.2,436.8c0,0.7-0.6,1.3-1.3,1.3l0,0c-0.7,0-1.3-0.6-1.3-1.3v-7.9c0-0.7,0.6-1.3,1.3-1.3l0,0
					c0.7,0,1.3,0.6,1.3,1.3V436.8z"/>
				<path class="st24" d="M79.6,425.7v0.9c0,0.2-0.2,0.4-0.3,0.4c-0.1,0-0.2-0.1-0.3-0.2c-0.1,0.1-0.2,0.2-0.3,0.2
					c-0.2,0-0.3-0.2-0.3-0.4c0,0.2-0.2,0.4-0.3,0.4c-0.1,0-0.3-0.1-0.3-0.2c-0.1,0.1-0.2,0.2-0.3,0.2c-0.1,0-0.2-0.1-0.3-0.1v-0.9
					c0-0.2,0.2-0.4,0.3-0.4c0.1,0,0.3,0.1,0.3,0.2c0.1-0.1,0.2-0.2,0.3-0.2c0.2,0,0.3,0.2,0.3,0.4c0-0.2,0.2-0.4,0.3-0.4
					c0.1,0,0.2,0.1,0.3,0.2c0.1-0.1,0.2-0.2,0.3-0.2C79.4,425.5,79.5,425.6,79.6,425.7z"/>
				<rect x="78.3" y="427.5" class="st27" width="1.2" height="10.6"/>
			</g>
			<path class="st26" d="M80.5,423.4v-22.3c0-1.1-0.9-2.1-1.9-2.1c-1.1,0-1.9,0.9-1.9,2.1v22.3H80.5z"/>
			<path class="st28" d="M77.9,388.8l1.8,5.1c0.1,0.3,0.2,0.5,0.4,0.8c0.3,0.5,0.9,0.6,1.4,0.8c0.2,0.2,0.4,0.3,0.6,0.4
				c0.3,0.1,0.6,0.2,0.9,0.3c0.5,0.2,1,0.2,1.5,0.1c0.1,0,0.2-0.1,0.3-0.1c0.1,0,0.2,0,0.3-0.1c0.5-0.2,0.8-0.4,1.2-0.7
				c0.7-0.6,1.2-1.5,1.3-2.5c0-0.2,0-0.4,0-0.6c0-0.2,0-0.4-0.1-0.6c0-0.1-0.1-0.2-0.1-0.4l-0.3-0.8l0.3-0.3c0,0,0.1-0.1,0.1-0.2
				c0-0.1,0-0.1-0.1-0.2l-0.9-1l-0.9-2.6c-0.1-0.4-0.3-0.7-0.6-1.1c-1.2-0.9-2.8-1.2-4.5-0.6c-0.1,0-0.2,0.1-0.3,0.1
				c-0.1,0-0.2,0-0.3,0.1c-0.2,0.1-0.3,0.1-0.5,0.2c-0.4,0.2-0.8,0.4-1.1,0.7C77.6,386.5,77.5,387.6,77.9,388.8z"/>
			<path class="st28" d="M78.3,425.6c0,0.2,0.2,0.3,0.3,0.3l0,0c0.2,0,0.3-0.2,0.3-0.3l-0.1-1.1c0-0.2-0.2-0.3-0.3-0.3l0,0
				c-0.2,0-0.3,0.2-0.3,0.3L78.3,425.6z"/>
			<path class="st28" d="M84.7,398.1c0,0.7-0.9,1.2-2,1.2l0,0c-1.1,0-2-0.5-2-1.2v-3.7c0-0.7,0.9-1.2,2-1.2l0,0c1.1,0,2,0.5,2,1.2
				V398.1z"/>
			<path class="st29" d="M88.3,419.8v29.7h-3.9v-23.2c0-0.6-0.7-1-1.3-1c-0.2,0-0.3,0-0.5,0.1c-0.1,0-0.2,0.1-0.2,0.2
				c-0.2,0.2-0.3,0.4-0.3,0.7v23.2h-3.7v-29.7H88.3z"/>
			<path class="st10" d="M87.4,419.8v29.7h-3.2v-23.2c0-0.6-0.5-1-1-1c-0.2,0,0.1-0.1,0,0c-0.1-0.1-0.8,0-1,0
				c-0.3,0-0.5,0.1-0.7,0.3c-0.2,0.2-0.3,0.4-0.3,0.7v23.2h-3v-29.7H87.4z"/>
			<path class="st28" d="M83.8,385.4c-1.2-0.9-2.8-1.2-4.5-0.6c-0.2,0.1-0.3,0.1-0.5,0.2c-0.4,0.2-0.8,0.4-1.1,0.7c0,0,0,0,0,0
				c-0.6,0.9-0.7,2.1-0.3,3.2l1.5,4.3l1.7-0.6l1.3,3.7c0.7,0.2,1.4,0.1,2-0.1c0.4-0.2,0.8-0.4,1.2-0.7c1.1-1,1.6-2.6,1.1-4.1
				l-1.8-5.1C84.2,386.1,84.1,385.7,83.8,385.4z"/>
			<ellipse class="st30" cx="82.3" cy="390.4" rx="0" ry="0.1"/>
			<path class="st10" d="M89.1,400.3v20.4c0,0,0,2.2,0,2.2l-11-0.1c0,0,0-0.1,0-0.1l-0.2-18.7l-0.1,0c0,0-1-2.2-0.6-4.2
				c0.4-0.9,2.1-1.3,3.4-1.5c1-0.2,1.8-0.2,1.8-0.2l0,0.2c0.4-0.1,0.8-0.1,1.2-0.1c0.7,0,1.4,0.1,2,0.4c0,0,0.6,0.1,1.3,0.3
				C87.7,399.2,88.7,399.6,89.1,400.3z"/>
			<path class="st26" d="M78.6,449.4h1.6h0.9c0.1,0.4,1.4,0.7,1.9,0.8l2.9,0.5c0.1,0.2,0.1,0.4,0.1,0.5c0,0.7-0.7,0.8-1.5,0.8h-2.5
				h-0.9l-0.6-0.7v0.7h-1.9c-0.7,0-0.8,0.1-0.8-0.7C77.8,450.6,77.9,449.4,78.6,449.4z"/>
			<rect x="77.7" y="451.3" width="2.8" height="0.7"/>
			<rect x="81.2" y="451.6" width="4.8" height="0.5"/>
			<polygon points="81.2,451.6 80.5,451.3 81.2,452 			"/>
			<path class="st29" d="M84.5,449.4h1.6h0.9c0.1,0.4,1.4,0.7,1.9,0.8l2.9,0.5c0.1,0.2,0.1,0.4,0.1,0.5c0,0.7-0.8,0.8-1.5,0.8H88
				h-0.9l-0.6-0.7v0.7h-1.9c-0.7,0-0.8,0.1-0.8-0.7C83.7,450.6,83.8,449.4,84.5,449.4z"/>
			<path class="st29" d="M84.5,449.4h1.6h0.6c-0.1,1.2,5.2,1.6,5.2,1.6c0.1,0.2,0.1,0.1,0.1,0.3c0,0.7-0.8,0.8-1.5,0.8H88h-0.9
				l-0.6-0.7v0.7h-1.9c-0.7,0-0.8,0.1-0.8-0.7C83.7,450.6,83.8,449.4,84.5,449.4z"/>
			<rect x="83.6" y="451.3" width="2.8" height="0.7"/>
			<rect x="87.1" y="451.6" width="4.8" height="0.5"/>
			<polygon points="87.1,451.6 86.4,451.3 87.1,452 			"/>
			<path class="st26" d="M85.2,398.5c-1.9,0.2-3.7,0.2-5.4,0l1-1.2c1.3,0.3,2.6,0.2,3.9,0L85.2,398.5z"/>
			<path class="st26" d="M82.6,415.2c0,0.4-0.3,0.8-0.7,0.8H78c-0.4,0-0.7-0.3-0.7-0.8l0,0c0-0.4,0.3-0.8,0.7-0.8h3.8
				C82.2,414.4,82.6,414.7,82.6,415.2L82.6,415.2z"/>
			<polygon class="st26" points="78.1,422.9 87.4,425.5 87.4,423 			"/>
			<path class="st31" d="M77.7,384.8c-0.4,0.1-0.7,0.3-1,0.5c-0.2,1.2-1.5,8.8,4.7,10.6l0.3-0.1c0.4-0.1,0.8-0.5,1-0.9
				c0.2-0.4,0.2-0.9,0.1-1.3l-0.9-2.6l1.5-0.5l-1.1-3.1l1.4-0.8l0-0.1C82.8,383.9,80.1,383.9,77.7,384.8z"/>
			<path class="st28" d="M83,390.4c0.1,0.3-0.1,0.7-0.4,0.8l0,0c-0.3,0.1-0.7-0.1-0.8-0.4l-0.1-0.3c-0.1-0.3,0.1-0.7,0.4-0.8l0,0
				c0.3-0.1,0.7,0.1,0.8,0.4L83,390.4z"/>
			<path class="st32" d="M92.5,399.8l-2.8,8.2c-0.2,0.5-0.2,1-0.1,1.5c0.1,0.5,0.3,1,0.6,1.4l3.7,5.1l0.8-9.5L92.5,399.8z"/>
			<path class="st26" d="M89.9,423.5c0,0,0-0.1,0-0.1v-22c0-0.9-0.7-1.6-1.6-1.6c-0.9,0-1.6,0.7-1.6,1.6v22c0,0,0,0.1,0,0.1H89.9z"
				/>
			<g>
				<rect x="93.5" y="427.5" class="st27" width="1.2" height="10.6"/>
			</g>
			<path class="st24" d="M101.8,389.4l-0.9-1l-1-2.6c-0.1-0.4-0.3-0.7-0.6-1c-1.2-0.9-2.9-1.1-4.5-0.5c-0.1,0-0.2,0.1-0.3,0.1
				c-0.1,0-0.2,0-0.3,0.1c-0.2,0.1-0.3,0.1-0.5,0.2c-0.4,0.2-0.8,0.5-1.1,0.8c0,0,0,0,0,0c-0.5,0.9-0.7,2.1-0.3,3.2l1.9,5
				c0.1,0.3,0.2,0.5,0.4,0.7c0.3,0.5,0.9,0.6,1.4,0.8c0.2,0.2,0.4,0.3,0.7,0.4c0.3,0.1,0.6,0.2,0.9,0.3c0.5,0.2,1,0.2,1.5,0
				c0.1,0,0.2-0.1,0.3-0.1c0.1,0,0.2,0,0.3-0.1c0.4-0.2,0.8-0.4,1.2-0.7c1.1-1,1.6-2.6,1-4.1l-0.3-0.8l0.3-0.3
				c0.1,0,0.1-0.1,0.1-0.2C101.9,389.5,101.8,389.5,101.8,389.4z"/>
			<path class="st33" d="M88.8,409.1l1.1,2.2l1-0.5l0.1-0.1c0.1,0,0.1-0.1,0.2-0.1l2.8-1.4l-1-2.2l-0.8,0.4L88.8,409.1z"/>
			<path class="st34" d="M91.3,410.7l2.8-1.4l-1-2.2l-0.8,0.4C92.7,407.8,92.6,409.9,91.3,410.7z"/>
			
				<ellipse transform="matrix(0.893 -0.4501 0.4501 0.893 -175.0727 84.1524)" class="st35" cx="89.4" cy="410.2" rx="0.9" ry="1.3"/>
			<path class="st35" d="M89.8,411.1c0.1,0,0.1,0,0.2,0c0.2-0.1,0.2-0.3,0.2-0.4c0-0.2,0-0.5-0.2-0.8c-0.2-0.4-0.5-0.7-0.8-0.7
				c-0.1,0-0.1,0-0.2,0c-0.3,0.1-0.3,0.7-0.1,1.1C89.2,410.8,89.5,411.1,89.8,411.1L89.8,411.1z"/>
			<polygon class="st33" points="89,411.7 90.1,414 94.3,411.9 93.2,409.6 93.1,409.6 92.3,410.1 			"/>
			<path class="st34" d="M91.1,413.5l3.4-1.7l-1-2.4l-1.2,0.6C92.5,410.8,92.3,412.8,91.1,413.5z"/>
			
				<ellipse transform="matrix(0.893 -0.4501 0.4501 0.893 -176.2527 84.5079)" class="st35" cx="89.6" cy="412.9" rx="0.9" ry="1.3"/>
			<path class="st35" d="M90,413.7c0.1,0,0.1,0,0.2,0c0.2-0.1,0.2-0.3,0.2-0.4c0-0.2,0-0.5-0.2-0.8c-0.2-0.4-0.5-0.7-0.8-0.7
				c-0.1,0-0.1,0-0.2,0c-0.3,0.1-0.3,0.7-0.1,1.1C89.4,413.5,89.7,413.7,90,413.7L90,413.7z"/>
			<path class="st28" d="M93.5,425.6c0,0.2,0.2,0.3,0.3,0.3l0,0c0.2,0,0.3-0.2,0.3-0.3l-0.1-1.1c0-0.2-0.2-0.3-0.3-0.3l0,0
				c-0.2,0-0.3,0.2-0.3,0.3L93.5,425.6z"/>
			<path class="st24" d="M100,398.1c0,0.7-0.9,1.2-2,1.2l0,0c-1.1,0-2-0.5-2-1.2v-3.7c0-0.7,0.9-1.2,2-1.2l0,0c1.1,0,2,0.5,2,1.2
				V398.1z"/>
			<path class="st29" d="M103.6,419.7v29.7h-3.9v-23.2c0-0.6-0.7-1-1.3-1c-0.2,0-0.3,0-0.5,0.1c-0.1,0-0.2,0.1-0.2,0.2
				c-0.2,0.2-0.3,0.4-0.3,0.7v23.2h-3.7v-29.7H103.6z"/>
			<path class="st10" d="M102.6,419.7v29.7h-3.2v-23.2c0-0.6-0.5-1-1-1c-0.2,0,0.1-0.1,0,0c-0.1-0.1-0.8,0-1,0
				c-0.3,0-0.5,0.1-0.7,0.3c-0.2,0.2-0.3,0.4-0.3,0.7v23.2h-3v-29.7H102.6z"/>
			<path class="st24" d="M98.3,385.2c-1.2-0.9-2.9-1.1-4.5-0.5c-0.2,0.1-0.3,0.1-0.5,0.2c-0.4,0.2-0.8,0.5-1.1,0.8c0,0,0,0,0,0
				c-0.5,0.9-0.7,2.1-0.3,3.2l1.6,4.3l1.6-0.6l1.4,3.7c0.7,0.1,1.4,0.1,2-0.2c0.4-0.2,0.8-0.4,1.2-0.7c1.1-1,1.6-2.6,1-4.1l-1.9-5
				C98.7,385.8,98.5,385.5,98.3,385.2z"/>
			<ellipse class="st30" cx="96.9" cy="390.1" rx="0" ry="0.1"/>
			<path class="st36" d="M104.4,400.3v20.4c0,0,0,2.2,0,2.2l-11-0.1c0,0,0-0.1,0-0.1L93.1,404l-0.1,0c0,0-1-2.2-0.6-4.3
				c0.4-0.9,2.1-1.3,3.4-1.5c1-0.2,1.8-0.2,1.8-0.2l0,0.2c0.4-0.1,0.8-0.1,1.2-0.1c0.7,0,1.4,0.1,2,0.4c0,0,0.6,0.1,1.3,0.3
				C103,399.2,104,399.5,104.4,400.3z"/>
			<path class="st26" d="M93.9,449.4h1.6h0.9c0.1,0.4,1.4,0.7,1.9,0.8l2.9,0.5c0.1,0.2,0.1,0.4,0.1,0.5c0,0.7-0.8,0.8-1.5,0.8h-2.5
				h-0.9l-0.6-0.7v0.7h-1.9c-0.7,0-0.8,0.1-0.8-0.7C93,450.6,93.1,449.4,93.9,449.4z"/>
			<rect x="92.9" y="451.3" width="2.8" height="0.7"/>
			<rect x="96.4" y="451.5" width="4.8" height="0.5"/>
			<polygon points="96.4,451.5 95.8,451.3 96.4,452 			"/>
			<path class="st29" d="M99.8,449.4h1.6h0.9c0.1,0.4,1.4,0.7,1.9,0.8l2.9,0.5c0.1,0.2,0.1,0.4,0.1,0.5c0,0.7-0.8,0.8-1.5,0.8h-2.5
				h-0.9l-0.6-0.7v0.7h-1.9c-0.7,0-0.8,0.1-0.8-0.7C98.9,450.6,99,449.4,99.8,449.4z"/>
			<path class="st29" d="M99.8,449.4h1.6h0.6c-0.1,1.2,5.2,1.6,5.2,1.6c0.1,0.2,0.1,0.1,0.1,0.3c0,0.7-0.8,0.8-1.5,0.8h-2.5h-0.9
				l-0.6-0.7v0.7h-1.9c-0.7,0-0.8,0.1-0.8-0.7C98.9,450.6,99,449.4,99.8,449.4z"/>
			<rect x="98.8" y="451.3" width="2.8" height="0.7"/>
			<rect x="102.3" y="451.5" width="4.8" height="0.5"/>
			<polygon points="102.3,451.5 101.7,451.3 102.3,452 			"/>
			<path class="st31" d="M94.3,383.8c-2.3,0.9-3.7,2.9-3.2,5.4c0.3,1.4,1.4,4.9,3.5,6.1c0.7,0.4,1.4,0.3,2.1,0.1l1.8-0.7
				c0.4-0.2,0.8-0.5,1-0.9c0.2-0.4,0.2-0.9,0-1.3l-1-2.6l1.5-0.5l-1.2-3.1l1.4-0.8l0-0.1C99.4,382.9,96.7,383,94.3,383.8z"/>
			<path class="st24" d="M99.7,389.3c0.1,0.3,0,0.7-0.4,0.8l0,0c-0.3,0.1-0.7,0-0.8-0.4l-0.1-0.3c-0.1-0.3,0-0.7,0.4-0.8l0,0
				c0.3-0.1,0.7,0,0.8,0.4L99.7,389.3z"/>
			<path class="st32" d="M100.5,398.4c-1.9,0.2-3.7,0.2-5.4,0l1-1.2c1.3,0.3,2.6,0.2,3.9,0L100.5,398.4z"/>
			<g>
				<g>
					<path class="st24" d="M119.7,410.7c-0.1,0.1-0.2,0.1-0.4,0c-0.1,0-0.1-0.1-0.2-0.1l-1.3,0.7l-1.2-2.4l1.3-0.7c0,0,0-0.1,0-0.2
						c0-0.1,0-0.2,0-0.2l0.5-1.3c0-0.1,0.1-0.1,0.2-0.2c0,0,0,0,0,0c0,0,0,0,0,0l1-0.5c0.2-0.1,0.4,0,0.5,0.2c0.1,0.2,0,0.4-0.1,0.5
						l-0.8,0.4l0,0.4l0.6-0.3l0,0l1.8-1c0.2-0.1,0.4,0,0.5,0.1c0.1,0.2,0,0.4-0.1,0.5l-1.8,1l0.1,0.1l2-1c0.2-0.1,0.4,0,0.5,0.2
						c0.1,0.2,0,0.4-0.1,0.5l-2,1.1l0.1,0.1l1.7-0.9c0.2-0.1,0.4,0,0.5,0.2c0.1,0.2,0,0.4-0.1,0.5l-1.7,0.9l0.1,0.1l1.5-0.8
						c0.2-0.1,0.4,0,0.5,0.2c0.1,0.2,0,0.4-0.1,0.5l-1.5,0.8l0,0L119.7,410.7z"/>
					<path class="st24" d="M91.1,425.4"/>
					<path class="st24" d="M90,425.4l0,0.7l0,0l0.1,2.1c0,0.2-0.1,0.4-0.3,0.4c-0.2,0-0.4-0.1-0.4-0.3l-0.1-2.1l-0.1,0l0.1,2.3
						c0,0.2-0.1,0.4-0.3,0.4c-0.2,0-0.4-0.1-0.4-0.3l-0.1-2.3l-0.1,0l0.1,2c0,0.2-0.1,0.4-0.3,0.4c-0.2,0-0.4-0.1-0.4-0.3l-0.1-2
						l-0.1,0l0.1,1.6c0,0.2-0.1,0.4-0.3,0.4c-0.2,0-0.4-0.1-0.4-0.3l-0.1-1.6l0,0l-0.1-1.6c0-0.1,0.2-1.3,0.2-1.3l2.7,0.2l0,0.5
						L90,425.4z"/>
					<polygon class="st37" points="117.4,408.6 117.5,408.9 118.6,410.9 117.8,411.3 117.8,411.3 116.6,409 					"/>
					
						<rect x="117.2" y="409" transform="matrix(0.8851 -0.4654 0.4654 0.8851 -177.332 101.8771)" class="st37" width="0.9" height="2.3"/>
				</g>
				<path class="st36" d="M115.2,409.4c-2.4,1.3-5.5,0.4-6.8-2l-3.7-6.7c0-0.1-0.1-0.2-0.1-0.2c-0.4-0.8-1.4-1.1-2.1-0.6
					c-0.8,0.4-1,1.4-0.6,2.1l0,0l0,0l3.8,6.9c2.2,4,7.1,5.5,11.1,3.3l1.3-0.7l-1.5-2.8L115.2,409.4z"/>
				<path class="st36" d="M115,410.1c-2.4,1.3-5.7-0.1-7.1-2.5l-3.7-6.7c0-0.1-0.1-0.2-0.1-0.2c-0.4-0.8-1.4-1.1-2.1-0.6
					c-0.8,0.4-1,1.4-0.6,2.1l0,0l0,0l3.8,6.9c2.2,4,7.1,5.5,11.1,3.3l1.7-0.9l-1.2-2.3L115,410.1z"/>
			</g>
			<polygon class="st38" points="93.4,422.8 102.6,425.5 102.6,423 			"/>
			<g>
				<path class="st39" d="M100.6,385.8C100.6,385.7,100.6,385.7,100.6,385.8c-0.5-1.3-1.4-2.4-2.7-2.9c-0.5-0.2-2-0.7-4,0
					c-1.6,0.6-2.6,2-3.1,3.3c-0.5,1.3-0.4,2.7,0.1,3.9l0.1,0.1L100.6,385.8z"/>
			</g>
			<path class="st40" d="M101.3,385.7c0.1,0.2,0,0.4-0.2,0.5l-10.5,4.4c-0.2,0.1-0.4,0-0.5-0.2l0,0c-0.1-0.2,0-0.4,0.2-0.5l10.5-4.4
				C101,385.4,101.2,385.5,101.3,385.7L101.3,385.7z"/>
			<g>
				<path class="st39" d="M86,385.9C86,385.9,86,385.9,86,385.9c-0.4-1.3-1.4-2.4-2.7-2.9c-0.5-0.2-2-0.8-4-0.1
					c-1.6,0.6-2.7,2-3.2,3.3c-0.5,1.3-0.5,2.7,0,3.9l0.1,0.1L86,385.9z"/>
			</g>
			<path class="st40" d="M86.7,385.8c0.1,0.2,0,0.4-0.2,0.5L76,390.5c-0.2,0.1-0.4,0-0.5-0.3l0,0c-0.1-0.2,0-0.4,0.2-0.5l10.6-4.2
				C86.4,385.5,86.7,385.6,86.7,385.8L86.7,385.8z"/>
			<path class="st2" d="M85.7,391.5c0.3,0.6,1,0.9,1.6,0.7c0-0.2,0-0.4-0.1-0.6c0-0.1-0.1-0.2-0.1-0.4l-0.1-0.2L85.7,391.5z"/>
			<ellipse transform="matrix(0.9444 -0.3288 0.3288 0.9444 -123.2227 49.6919)" cx="85.3" cy="389.2" rx="0.4" ry="0.4"/>
		</g>
	</g>
</g>
</svg>
