<?xml version="1.0" encoding="utf-8"?>
<!-- Generator: Adobe Illustrator 17.0.0, SVG Export Plug-In . SVG Version: 6.00 Build 0)  -->
<!DOCTYPE svg PUBLIC "-//W3C//DTD SVG 1.1//EN" "http://www.w3.org/Graphics/SVG/1.1/DTD/svg11.dtd">
<svg version="1.1" xmlns="http://www.w3.org/2000/svg" xmlns:xlink="http://www.w3.org/1999/xlink" x="0px" y="0px" width="550px"
	 height="340.863px" viewBox="0 0 550 340.863" enable-background="new 0 0 550 340.863" xml:space="preserve">
<g id="Background">
</g>
<g id="Objects">
	<g>
		<polygon fill="#B2B2B2" points="493.93,80.331 493.93,63.929 474.664,63.929 474.664,84.586 486.178,84.586 486.178,100.988 
			505.443,100.988 505.443,80.331 		"/>
		<path fill="#B2B2B2" d="M461.023,131.54l-4.725-8.087c-2.307-3.947-7.181-5.095-10.887-2.565
			c-1.337,0.913-2.338,2.182-2.965,3.614c-5.979-10.601-20.159-11.329-20.159-11.329c-1.818-8.956-8.578-12.675-13.836-13.561
			c-34.54-5.822-50.139,8.36-62.971,8.635c-20.906,0.448-24.172-5.072-24.172-5.072c-3.123,8.86,1.332,16.184,1.332,16.184
			c-6.842-0.286-8.66-5.17-8.66-5.17c2.766,13.164,9.077,21.774,16.52,27.39c0.553,0.469,1.59,1.292,3.113,2.27
			c-0.855,5.496-3.397,21.755-3.585,21.941c0,0-0.172,0.935-0.432,2.394l-4.795,3.427c-3.806,2.967-5.373,3.436-4.772,5.598
			c0.043,0.157,0.63,1.09,0.757,1.194c2.691,2.188,3.773,2.243,6.687,2.894c-0.158,1.186-0.277,2.227-0.334,3.008
			c-0.185,2.548-0.22,5.976,0.065,9.662c0.063,1.466,0.211,3.572,0.551,6.081c0.454,3.358,1.718,6.177,1.718,6.177l0.054-0.009
			c1.129,3.314,2.712,6.257,4.894,8.311c5.69,5.356,14.8,7.939,25.515,8.128l0.88,5.869c-0.718,0.355-1.402,0.784-2.054,1.275
			c-7.359,0.182-15.334,6.424-16.419,21.874c-0.744,10.587-4.515,61.297-11.136,62.846c-8.414,1.969-69.901-29.81-69.901-29.81
			l-0.033,0.057l-0.543-0.276c-0.022-0.123-0.057-0.243-0.121-0.354l-2.176-3.765c-0.391-0.676-1.441-0.815-2.346-0.311
			c-0.655,0.366-1.048,0.968-1.07,1.529l-2.06-1.046c-3.822-1.94-8.523-0.469-10.501,3.286c-1.977,3.754-0.482,8.369,3.34,10.31
			l7.83,3.974l-0.059,0.104c0,0,73.172,49.171,90.33,40.005c0.685-0.366,1.364-0.841,2.037-1.411v1.435h26.671h2.713v0.001h14.8
			h46.715h32.506h4.526c0.398-4.393,0.148-9.879,0.148-16.712v-42.43c0-9.44-1.719-18.952-5.227-27.431
			c18.783-7.686,37.135-17.328,40.836-26.318c8.052-19.556-48.499-93.892-48.499-93.892L461.023,131.54z M484.187,214.025
			c-0.63,4.362-19.214,9.416-36.469,13.196c-6.112-3.275-13.32-5.163-21.663-5.163l-0.517,0.041
			c-2.158,0.162-4.234,0.396-6.241,0.691c-0.833-0.944-1.705-1.743-2.619-2.384l-1.118-7.46c-0.018-0.119-0.043-0.234-0.071-0.349
			l0.435-0.01c10.134-7.588,17.351-15.289,22.411-22.827c5.306-7.905,8.237-15.631,9.651-22.866
			c1.945-9.96,1.019-18.987-0.532-26.257c0.039,0.008,0.078,0.012,0.117,0.015l0.324,0.555l-0.056,0.041
			C447.839,141.249,485.535,204.694,484.187,214.025z"/>
		<path fill="#B2B2B2" d="M294.468,93.072H14.333C6.449,93.072,0,99.416,0,107.17v70.58v79.368c0,7.753,6.449,14.098,14.333,14.098
			h103.282l-12.378,22.056H74.017c-4.195,0-7.627,3.376-7.627,7.502c0,3.997,3.221,7.291,7.236,7.492
			c0.13,0.006,0.26,0.01,0.391,0.01h22.799h109.344h5.824h22.799c4.195,0,7.627-3.376,7.627-7.502h0
			c0-4.126-3.432-7.502-7.627-7.502h-26.956h-4.264l-12.378-22.056h19.091h84.192c7.883,0,14.333-6.344,14.333-14.098V107.17
			C308.8,99.416,302.351,93.072,294.468,93.072z"/>
		<g>
			<path fill-rule="evenodd" clip-rule="evenodd" fill="#EA4335" d="M495.872,290.703L495.872,290.703
				c-1.711,0-3.098,1.386-3.098,3.097c0,1.712,1.387,3.099,3.098,3.099l0,0v2.723l0,0c-3.215,0-5.821-2.607-5.821-5.822
				c0-3.215,2.606-5.821,5.821-5.821l0,0V290.703z M537.527,286.137c0.918,9.156-9.416,20.612-20.033,20.612
				c-6.531,0-12.956-4.337-16.72-9.807c-1.035,1.612-2.843,2.681-4.903,2.681V296.9c1.712,0,3.098-1.388,3.098-3.099
				c0-1.711-1.386-3.097-3.098-3.097v-2.723c0.543,0,1.069,0.075,1.567,0.215c-0.05-0.695-0.044-1.383,0.023-2.058H537.527z"/>
			<path fill-rule="evenodd" clip-rule="evenodd" fill="#FCB200" d="M493.656,304.861c2.493,1.359,5.419,2.502,8.662,3.368h29.529
				c3.244-0.866,6.169-2.009,8.662-3.368H493.656z"/>
			<path fill-rule="evenodd" clip-rule="evenodd" fill="#E2E2E2" d="M522.449,274.951c7.681-27.09-15.415-29.29,2.614-61.939
				C516.516,243.049,540.826,249.604,522.449,274.951z"/>
			<path fill-rule="evenodd" clip-rule="evenodd" fill="#E4F4F7" d="M511.923,278.145c5.867-20.69-11.774-22.371,1.996-47.307
				C507.391,253.779,525.958,258.786,511.923,278.145z"/>
		</g>
		<polygon fill-rule="evenodd" clip-rule="evenodd" fill="#A0A0A0" points="550,330.415 2.043,330.415 2.061,340.791 
			538.577,340.791 		"/>
		<rect x="1.059" y="308.47" fill-rule="evenodd" clip-rule="evenodd" fill="#E2E2E2" width="548.887" height="21.859"/>
		<g>
			<path fill="#B2B2B2" d="M215.03,17.001l-3.078-0.515l-0.452,2.615l-15.091-2.526l-1.483,27.399
				c0.101,4.308,3.292,7.94,7.611,8.663l24.318,4.07l1.309-34.817l-13.587-2.274L215.03,17.001z"/>
			<g>
				<path fill="#FAF9B3" d="M236.3,54.157l-24.318-4.138c-4.318-0.735-7.51-4.428-7.611-8.807l1.483-27.855l31.755,5.404
					L236.3,54.157z"/>
				<g>
					<g>
						<path fill="#FAF9B3" d="M209.034,19.993c7.17,1.22,14.34,2.44,21.51,3.66c1.892,0.322,2.702-2.569,0.798-2.893
							c-7.17-1.22-14.34-2.44-21.51-3.66C207.939,16.778,207.129,19.669,209.034,19.993L209.034,19.993z"/>
					</g>
				</g>
				<g>
					<path fill="#DDDA9B" d="M234.21,23.428c-8.256-1.646-16.512-3.292-24.768-4.938c-1.027-0.205-1.297,1.396-0.272,1.6
						c8.256,1.646,16.512,3.292,24.768,4.938C234.965,25.232,235.235,23.632,234.21,23.428z"/>
					<path fill="#DDDA9B" d="M208.621,23.315c5.945,1.253,11.89,2.505,17.835,3.758c1.025,0.216,1.294-1.385,0.272-1.6
						c-5.945-1.253-11.89-2.505-17.835-3.758C207.868,21.499,207.6,23.099,208.621,23.315z"/>
					<path fill="#DDDA9B" d="M228.817,29.322c-6.834-1.404-13.668-2.808-20.502-4.212c-1.026-0.211-1.295,1.39-0.272,1.6
						c6.834,1.404,13.668,2.808,20.502,4.212C229.571,31.132,229.84,29.532,228.817,29.322z"/>
				</g>
				
					<rect x="220.515" y="14.011" transform="matrix(0.1678 -0.9858 0.9858 0.1678 169.8971 232.3936)" fill="#B3B3B3" width="4.147" height="3.122"/>
			</g>
		</g>
		<g>
			<rect x="484.109" y="61.189" fill="#FAF9B3" width="19.265" height="21.002"/>
			<rect x="495.623" y="77.864" fill="#E2564A" width="19.265" height="21.002"/>
		</g>
		<g>
			<g>
				<path fill="#FFFFFF" d="M469.58,95.617l-31.527,2.871c-5.598,0.51-10.773-3.021-12.339-8.42l-5.946-35.166l41.168-3.749
					L469.58,95.617z"/>
			</g>
			<g>
				<path fill="#E6E6E6" d="M458.647,60.498c-10.753,1.046-21.506,2.091-32.259,3.137c-1.338,0.13-1.074,2.196,0.26,2.067
					c10.753-1.046,21.506-2.091,32.259-3.137C460.245,62.434,459.982,60.368,458.647,60.498z"/>
				<path fill="#E6E6E6" d="M427.172,69.866c7.768-0.67,15.536-1.34,23.304-2.01c1.34-0.116,1.075-2.182-0.26-2.066
					c-7.768,0.67-15.536,1.34-23.304,2.01C425.572,67.915,425.837,69.981,427.172,69.866z"/>
				<path fill="#E6E6E6" d="M454.212,69.741c-8.916,0.814-17.832,1.629-26.748,2.444c-1.339,0.122-1.075,2.188,0.26,2.066
					c8.916-0.815,17.832-1.629,26.749-2.444C455.811,71.685,455.547,69.619,454.212,69.741z"/>
			</g>
			<rect x="451.169" y="50.067" fill="#B3B3B3" width="4.006" height="5.323"/>
		</g>
		<g>
			<path fill="#B3B3B3" d="M501.555,65.658c-5.2,0.037-10.399,0.075-15.599,0.112c-0.647,0.005-0.61,1.006,0.036,1.002
				c5.2-0.037,10.399-0.075,15.599-0.112C502.238,66.656,502.201,65.654,501.555,65.658z"/>
			<path fill="#B3B3B3" d="M486.064,68.792c3.753,0.014,7.505,0.028,11.258,0.042c0.647,0.002,0.609-0.999-0.035-1.002
				c-3.753-0.014-7.505-0.028-11.258-0.042C485.381,67.787,485.419,68.789,486.064,68.792z"/>
			<path fill="#B3B3B3" d="M499.031,69.898c-4.309,0.006-8.618,0.012-12.927,0.018c-0.647,0.001-0.609,1.003,0.035,1.002
				c4.309-0.006,8.618-0.012,12.927-0.018C499.713,70.899,499.676,69.897,499.031,69.898z"/>
		</g>
		<g>
			<path fill="#E6E6E6" d="M513.417,83.618c-5.2,0.037-10.399,0.075-15.599,0.112c-0.647,0.005-0.61,1.006,0.036,1.002
				c5.2-0.037,10.399-0.075,15.599-0.112C514.099,84.615,514.062,83.613,513.417,83.618z"/>
			<path fill="#E6E6E6" d="M497.925,86.751c3.753,0.014,7.505,0.028,11.258,0.042c0.647,0.002,0.609-0.999-0.035-1.002
				c-3.753-0.014-7.505-0.028-11.258-0.042C497.243,85.747,497.281,86.749,497.925,86.751z"/>
			<path fill="#E6E6E6" d="M510.892,87.858c-4.309,0.006-8.618,0.012-12.927,0.018c-0.647,0.001-0.609,1.003,0.035,1.002
				c4.309-0.006,8.618-0.012,12.927-0.018C511.575,88.858,511.537,87.857,510.892,87.858z"/>
		</g>
		<polygon fill="#B2B2B2" points="355.293,37.49 355.293,5.365 317.56,5.365 317.56,45.825 340.112,45.825 340.112,77.95 
			377.844,77.95 377.844,37.49 		"/>
		<g>
			<rect x="336.06" y="0" fill="#FAF9B3" width="37.733" height="41.134"/>
			<rect x="358.611" y="32.66" fill="#E2564A" width="37.733" height="41.134"/>
		</g>
		<g>
			<path fill="#B3B3B3" d="M370.229,8.753c-10.184,0.073-20.368,0.147-30.552,0.22c-1.267,0.009-1.194,1.971,0.07,1.962
				c10.184-0.073,20.368-0.147,30.552-0.22C371.566,10.706,371.493,8.744,370.229,8.753z"/>
			<path fill="#B3B3B3" d="M339.887,14.89c7.35,0.027,14.699,0.054,22.049,0.081c1.268,0.005,1.193-1.957-0.07-1.962
				c-7.35-0.027-14.699-0.054-22.049-0.081C338.55,12.923,338.625,14.885,339.887,14.89z"/>
			<path fill="#B3B3B3" d="M365.285,17.057c-8.44,0.011-16.879,0.023-25.319,0.035c-1.267,0.002-1.194,1.964,0.07,1.962
				c8.44-0.012,16.879-0.023,25.319-0.035C366.622,19.017,366.548,17.055,365.285,17.057z"/>
		</g>
		<g>
			<path fill="#E6E6E6" d="M393.461,43.928c-10.184,0.073-20.368,0.147-30.552,0.22c-1.267,0.009-1.194,1.971,0.07,1.962
				c10.184-0.073,20.368-0.147,30.552-0.22C394.798,45.881,394.725,43.919,393.461,43.928z"/>
			<path fill="#E6E6E6" d="M363.12,50.065c7.35,0.027,14.699,0.054,22.049,0.081c1.268,0.005,1.193-1.957-0.07-1.962
				c-7.35-0.027-14.699-0.054-22.049-0.081C361.783,48.098,361.857,50.06,363.12,50.065z"/>
			<path fill="#E6E6E6" d="M388.517,52.232c-8.44,0.011-16.879,0.023-25.319,0.035c-1.267,0.002-1.194,1.964,0.07,1.962
				c8.44-0.012,16.879-0.023,25.319-0.035C389.854,54.193,389.78,52.231,388.517,52.232z"/>
		</g>
		<path fill-rule="evenodd" clip-rule="evenodd" fill="#2E3332" d="M436.262,301.477c7.404-2.966,12.361-4.01,14.005-4.01h12.133
			c1.645,0,2.978,1.795,2.978,4.01v5.246c0,2.214-1.333,4.01-2.978,4.01h-35.19c-1.645,0-2.978-1.795-2.978-4.01L436.262,301.477z"
			/>
		<g>
			<g>
				<path fill-rule="evenodd" clip-rule="evenodd" fill="#808281" d="M204.118,299.18c0,0.623-0.505,1.128-1.128,1.128h-10.692
					c-0.623,0-1.128-0.505-1.128-1.128l0,0c0-0.623,0.505-1.128,1.128-1.128h10.692C203.614,298.053,204.118,298.558,204.118,299.18
					L204.118,299.18z"/>
				<path fill-rule="evenodd" clip-rule="evenodd" fill="#808281" d="M221.161,299.18c0,0.623-0.505,1.128-1.128,1.128h-10.692
					c-0.623,0-1.128-0.505-1.128-1.128l0,0c0-0.623,0.505-1.128,1.128-1.128h10.692C220.656,298.053,221.161,298.558,221.161,299.18
					L221.161,299.18z"/>
				<path fill-rule="evenodd" clip-rule="evenodd" fill="#808281" d="M238.203,299.18c0,0.623-0.505,1.128-1.128,1.128h-10.692
					c-0.623,0-1.128-0.505-1.128-1.128l0,0c0-0.623,0.505-1.128,1.128-1.128h10.692C237.698,298.053,238.203,298.558,238.203,299.18
					L238.203,299.18z"/>
				<path fill-rule="evenodd" clip-rule="evenodd" fill="#808281" d="M255.245,299.18c0,0.623-0.505,1.128-1.128,1.128h-10.692
					c-0.623,0-1.128-0.505-1.128-1.128l0,0c0-0.623,0.505-1.128,1.128-1.128h10.692C254.741,298.053,255.245,298.558,255.245,299.18
					L255.245,299.18z"/>
				<path fill-rule="evenodd" clip-rule="evenodd" fill="#808281" d="M272.288,299.18c0,0.623-0.505,1.128-1.128,1.128h-10.692
					c-0.623,0-1.128-0.505-1.128-1.128l0,0c0-0.623,0.505-1.128,1.128-1.128h10.692C271.783,298.053,272.288,298.558,272.288,299.18
					L272.288,299.18z"/>
				<path fill-rule="evenodd" clip-rule="evenodd" fill="#808281" d="M289.33,299.18c0,0.623-0.505,1.128-1.128,1.128H277.51
					c-0.623,0-1.128-0.505-1.128-1.128l0,0c0-0.623,0.505-1.128,1.128-1.128h10.692C288.825,298.053,289.33,298.558,289.33,299.18
					L289.33,299.18z"/>
				<path fill-rule="evenodd" clip-rule="evenodd" fill="#808281" d="M306.372,299.18c0,0.623-0.505,1.128-1.128,1.128h-10.692
					c-0.623,0-1.128-0.505-1.128-1.128l0,0c0-0.623,0.505-1.128,1.128-1.128h10.692C305.868,298.053,306.372,298.558,306.372,299.18
					L306.372,299.18z"/>
			</g>
			<path fill-rule="evenodd" clip-rule="evenodd" fill="#2E3332" d="M322.902,304.219c0,2.214-1.795,4.01-4.01,4.01h-128.64
				c-2.214,0-4.01-1.795-4.01-4.01v-0.38c0-2.214,1.795-4.01,4.01-4.01h128.64c2.214,0,4.01,1.795,4.01,4.01V304.219z"/>
		</g>
		<g>
			<g>
				<path fill="#473D2D" d="M453.881,127.316c-4.317-14.568-21.815-15.479-21.815-15.479c-1.818-9.105-8.579-12.886-13.836-13.787
					c-34.54-5.919-50.139,8.499-62.971,8.779c-20.906,0.455-24.172-5.157-24.172-5.157c-3.123,9.007,1.332,16.454,1.332,16.454
					c-6.842-0.291-8.66-5.256-8.66-5.256c2.766,13.383,9.077,22.137,16.52,27.847c0.553,0.477,1.59,1.314,3.113,2.308
					c6.111,3.987,19.999,10.462,41.408,5.992c0,0,0.173,24.35,2.726,30.351c0.741,1.742,2.285,2.766,4.246,3.303l0.003-0.065
					c0.235-5.552,4.442-9.882,9.398-9.672c4.955,0.21,8.783,4.882,8.548,10.434l-0.142,3.351c-0.235,5.552-4.443,9.882-9.399,9.672
					c-1.284-0.055-2.492-0.411-3.573-1.002l-1.809,8.412l13.358,9.523l16.638-0.396l0.908-0.022
					c10.134-7.715,17.351-15.543,22.411-23.208c5.306-8.036,8.237-15.891,9.651-23.247
					C461.048,149.363,456.152,134.977,453.881,127.316z"/>
				<path fill="#FFDEBD" d="M394.799,203.801l1.809-8.412c1.082,0.591,2.289,0.948,3.573,1.002c4.956,0.21,9.164-4.12,9.399-9.672
					l0.142-3.351c0.235-5.552-3.593-10.223-8.548-10.434c-4.956-0.21-9.164,4.12-9.398,9.672l-0.003,0.065
					c-1.961-0.537-3.506-1.562-4.246-3.303c-2.554-6.001-2.726-30.351-2.726-30.351c-21.409,4.469-35.297-2.005-41.408-5.992
					c-0.855,5.587-3.397,22.117-3.586,22.307c0,0-0.172,0.95-0.431,2.434l-4.795,3.484c-3.806,3.016-5.373,3.493-4.772,5.691
					c0.043,0.16,0.63,1.109,0.757,1.214c2.691,2.224,3.773,2.28,6.687,2.942c-0.158,1.206-0.277,2.264-0.334,3.058
					c-0.185,2.591-0.22,6.076,0.065,9.823c-0.061-1.436-0.044-2.268-0.044-2.268l2.012-0.371c5.904-0.764,10.4,0.172,11.645,6.025
					c0.527,4.09-3.83,8.028-9.734,8.792l-1.556,0.274c1.129,3.369,2.712,6.361,4.894,8.45c6.024,5.765,15.882,8.371,27.42,8.274
					v7.054l37.267-2.276v-4.552h15.907v-10.449l-16.638,0.396L394.799,203.801z M350.144,157.709l-0.49,4.046
					c-0.18,1.49-1.532,2.551-3.019,2.37c-1.487-0.182-2.546-1.535-2.366-3.025l0.49-4.046c0.18-1.49,1.532-2.551,3.018-2.37
					C349.265,154.865,350.325,156.219,350.144,157.709z"/>
				<path fill="#DA7976" d="M350.596,197.363c-1.245-5.853-5.741-6.789-11.645-6.025l-2.012,0.371c0,0-0.017,0.832,0.044,2.268
					c0.063,1.491,0.211,3.631,0.551,6.182c0.454,3.414,1.718,6.28,1.718,6.28l0.054-0.01l1.556-0.274
					C346.767,205.391,351.124,201.453,350.596,197.363z"/>
				<path d="M347.778,154.685c-1.487-0.18-2.838,0.881-3.018,2.37l-0.49,4.046c-0.181,1.49,0.878,2.843,2.366,3.025
					c1.487,0.181,2.839-0.881,3.019-2.37l0.49-4.046C350.325,156.219,349.265,154.865,347.778,154.685z"/>
			</g>
			<g>
				<g>
					<path fill-rule="evenodd" clip-rule="evenodd" fill="#FFDEBD" d="M458.477,141.734c2.306,4.013,7.181,5.18,10.887,2.607l0,0
						c3.706-2.573,4.841-7.912,2.534-11.925l-5.821-10.128c-2.307-4.013-7.181-5.18-10.887-2.608l0,0
						c-3.707,2.573-4.841,7.912-2.535,11.925L458.477,141.734z"/>
					<path fill-rule="evenodd" clip-rule="evenodd" fill="#FFDEBD" d="M452.41,135.109c-0.446,1.051-0.218,2.194,0.509,2.555
						l4.053,2.008c0.728,0.36,1.68-0.199,2.126-1.249l0,0c0.446-1.05,0.219-2.194-0.509-2.554l-4.052-2.008
						C453.809,133.5,452.858,134.06,452.41,135.109L452.41,135.109z"/>
				</g>
				<path fill-rule="evenodd" clip-rule="evenodd" fill="#4F4F4F" d="M409.349,256.462c-2.057-8.63,3.079-20.102,20.798-23.248
					c10.842-1.926,62.759-11.38,63.82-18.844c1.348-9.486-36.348-73.988-36.348-73.988l13.285-9.947
					c0,0,56.551,75.575,48.499,95.456c-7.714,19.048-79.063,40.978-85.325,41.773C426.981,268.565,413.792,275.105,409.349,256.462z
					"/>
			</g>
			<path fill-rule="evenodd" clip-rule="evenodd" fill="#FFFFFF" d="M371.027,232.034c0.323,2.191,2.361,3.705,4.552,3.382
				l47.931-7.068c2.191-0.323,3.705-2.361,3.382-4.552l-1.552-10.523c-0.323-2.191-2.361-3.705-4.552-3.382l-47.931,7.068
				c-2.191,0.323-3.705,2.361-3.382,4.552L371.027,232.034z"/>
			<path fill-rule="evenodd" clip-rule="evenodd" fill="#4F4F4F" d="M426.158,220.646c-2.421-1.616-46.131,4.336-54.992,8.195
				c-11.076,4.824-14.484,27.359-14.484,27.359s-0.968,25.452-0.968,28.184v56.276h29.385v0.001h61.516
				C446.678,333.423,447.171,234.68,426.158,220.646z"/>
			<g>
				<g>
					<path fill-rule="evenodd" clip-rule="evenodd" fill="#CE4C48" d="M483.794,323.671v-43.137c0-28.666-15.31-57.998-47.96-57.998
						l-0.517,0.042c-39.575,3.023-53.427,29.29-53.427,57.956v37.057c0,9.063-0.535,16.766,0.495,23.069h2.713v0.001h98.548
						C484.044,336.195,483.794,330.618,483.794,323.671z"/>
					<path fill-rule="evenodd" clip-rule="evenodd" fill="#333333" d="M479.12,340.661c4.021-6.648,2.637-16.467,2.637-29.556
						v-27.928c0-27.043-12.221-54.865-39.246-54.865h-1.821c-32.759,2.853-43.285,27.822-43.285,54.865v10.461
						c0,24.255-0.83,38.59,2.494,47.024H479.12z"/>
				</g>
				<g>
					<path fill-rule="evenodd" clip-rule="evenodd" fill="#4D4D4D" d="M456.05,340.591v-21.346c0-7.349-5.962-13.309-13.315-13.309
						c-7.352,0-13.312,5.96-13.312,13.309v21.346H456.05z"/>
					<path fill-rule="evenodd" clip-rule="evenodd" fill="#666666" d="M459.747,340.66v-21.389c0-7.364-5.96-13.336-13.31-13.336
						c-7.354,0-13.316,5.972-13.316,13.336v21.389H459.747z"/>
				</g>
			</g>
			<g>
				<g>
					<path fill-rule="evenodd" clip-rule="evenodd" fill="#FFDEBD" d="M272.383,286.974c3.822,1.972,5.317,6.665,3.34,10.481l0,0
						c-1.978,3.817-6.679,5.312-10.5,3.34l-9.646-4.977c-3.822-1.973-5.317-6.665-3.34-10.482l0,0
						c1.978-3.817,6.679-5.312,10.501-3.34L272.383,286.974z"/>
					<path fill-rule="evenodd" clip-rule="evenodd" fill="#FFDEBD" d="M265.867,281.505c0.905-0.513,1.955-0.371,2.345,0.316
						l2.176,3.827c0.391,0.687-0.026,1.66-0.93,2.173l0,0c-0.904,0.513-1.954,0.372-2.345-0.316l-2.177-3.827
						C264.546,282.991,264.963,282.019,265.867,281.505L265.867,281.505z"/>
				</g>
				<path fill-rule="evenodd" clip-rule="evenodd" fill="#4F4F4F" d="M353.219,340.863c0.156-0.072,0.309-0.147,0.458-0.227
					c16.438-8.927,29.664-80.42,29.808-86.613c0.164-7.019,4.847-20.413-12.337-23.429c-7.955-1.396-17.81,4.461-19.025,22.05
					c-0.744,10.763-4.515,62.318-11.136,63.893c-8.414,2.002-69.901-30.306-69.901-30.306l-7.739,13.733
					c0,0,50.845,34.736,77.705,40.899H353.219z"/>
			</g>
		</g>
		<g>
			<polygon fill-rule="evenodd" clip-rule="evenodd" fill="#4E5151" points="193.566,257.88 134.124,257.88 106.261,308.355 
				221.429,308.355 			"/>
			<path fill-rule="evenodd" clip-rule="evenodd" fill="#1D2120" d="M303.913,89.566H23.778c-7.883,0-14.333,6.45-14.333,14.333
				v152.446c0,7.883,6.449,14.333,14.333,14.333h280.135c7.883,0,14.333-6.45,14.333-14.333V103.899
				C318.246,96.016,311.796,89.566,303.913,89.566z"/>
			<path fill-rule="evenodd" clip-rule="evenodd" fill="#808281" d="M26.849,259.872c-1.025,0-1.862-0.836-1.862-1.861
				s0.836-1.862,1.862-1.862c1.025,0,1.861,0.836,1.861,1.862S27.874,259.872,26.849,259.872z"/>
			<path fill-rule="evenodd" clip-rule="evenodd" fill="#808281" d="M34.116,259.872c-1.025,0-1.862-0.836-1.862-1.861
				s0.836-1.862,1.862-1.862c1.025,0,1.862,0.836,1.862,1.862S35.141,259.872,34.116,259.872z"/>
			<path fill-rule="evenodd" clip-rule="evenodd" fill="#808281" d="M41.383,259.872c-1.025,0-1.861-0.836-1.861-1.861
				s0.836-1.862,1.861-1.862c1.025,0,1.861,0.836,1.861,1.862S42.408,259.872,41.383,259.872z"/>
			<path fill-rule="evenodd" clip-rule="evenodd" fill="#808281" d="M244.228,293.101H83.462c-4.195,0-7.627,3.432-7.627,7.627l0,0
				c0,4.195,3.432,7.627,7.627,7.627h160.766c4.195,0,7.627-3.432,7.627-7.627l0,0C251.855,296.533,248.423,293.101,244.228,293.101
				z"/>
			<path fill-rule="evenodd" clip-rule="evenodd" fill="#595959" d="M217.272,293.101H83.462c-4.195,0-7.627,3.432-7.627,7.627l0,0
				c0,4.195,3.432,7.627,7.627,7.627h132.143L217.272,293.101z"/>
		</g>
		<path fill-rule="evenodd" clip-rule="evenodd" fill="#2E3332" d="M9.445,175.655v80.69c0,7.883,6.449,14.333,14.333,14.333
			h195.944l14.973-137.072l-11.444-35.679l-51.001-2.024L9.445,175.655z"/>
		<path fill-rule="evenodd" clip-rule="evenodd" fill="#1D2120" d="M75.836,300.727c0,4.195,3.431,7.627,7.627,7.627h160.766
			c4.195,0,7.627-3.432,7.627-7.627H75.836z"/>
		<g>
			<path fill-rule="evenodd" clip-rule="evenodd" fill="#545657" d="M246.823,269.486"/>
			<path fill-rule="evenodd" clip-rule="evenodd" fill="#545657" d="M246.823,267.214"/>
		</g>
		<polygon fill-rule="evenodd" clip-rule="evenodd" fill="#FFFFFF" points="223.251,97.926 168.117,97.926 18.957,97.926 
			18.957,165.795 18.957,245.084 308.733,245.084 308.733,97.926 		"/>
		<path fill-rule="evenodd" clip-rule="evenodd" fill="#090A0A" d="M75.836,300.727c0,4.195,3.431,7.627,7.627,7.627h132.143
			l0.833-7.627H75.836z"/>
		
			<rect x="36.885" y="158.889" fill="none" stroke="#C4C4C4" stroke-width="3" stroke-miterlimit="10" width="254.333" height="34.254"/>
		<g opacity="0.8">
			<path fill="#4285F4" d="M114.632,134.336c-2.081-0.697-3.767-1.692-5.059-2.984c-1.292-1.291-1.937-2.892-1.937-4.801
				c0-1.873,0.67-3.482,2.011-4.829c1.34-1.347,2.965-2.02,4.875-2.02c1.885,0,3.501,0.667,4.847,2.001
				c0.759,0.734,1.395,1.904,1.91,3.507l-3.452,1.359c-0.416-1.126-0.796-1.86-1.138-2.203c-0.6-0.588-1.322-0.881-2.167-0.881
				c-0.857,0-1.585,0.297-2.185,0.89c-0.6,0.594-0.9,1.319-0.9,2.175c0,0.857,0.3,1.585,0.9,2.185
				c0.673,0.661,1.603,1.267,2.791,1.818c2.301,0.747,4.253,1.922,5.857,3.525c1.799,1.775,2.699,3.929,2.699,6.463
				c0,2.534-0.897,4.698-2.69,6.49c-1.793,1.793-3.951,2.69-6.472,2.69c-2.534,0-4.694-0.9-6.481-2.699
				c-1.432-1.432-2.338-3.409-2.718-5.931l3.69-1.34c0.232,2.167,0.802,3.703,1.708,4.609c1.053,1.053,2.32,1.579,3.801,1.579
				c1.481,0,2.748-0.526,3.801-1.579c1.053-1.053,1.579-2.326,1.579-3.819c0-1.481-0.527-2.748-1.579-3.801
				C117.319,135.738,116.089,134.936,114.632,134.336z"/>
			<path fill="#EA4335" d="M131.74,145.132c0.636,0.563,1.793,0.845,3.47,0.845c1.812,0,3.36-0.637,4.645-1.91
				c0.159-0.172,0.483-0.551,0.973-1.138l3.8,1.359c-0.93,1.285-1.603,2.136-2.019,2.552c-2.044,2.044-4.511,3.066-7.4,3.066
				c-2.876,0-5.337-1.022-7.381-3.066c-2.044-2.044-3.066-4.51-3.066-7.399c0-2.889,1.022-5.355,3.066-7.399
				c2.044-2.044,4.505-3.066,7.381-3.066c2.472,0,4.639,0.747,6.5,2.24c0.306,0.257,0.606,0.533,0.9,0.826
				c0.122,0.123,0.471,0.508,1.047,1.157l-1.91,1.928L131.74,145.132z M138.093,133.381c-0.429-0.33-1.389-0.496-2.883-0.496
				c-1.799,0-3.339,0.64-4.618,1.919c-1.279,1.279-1.919,2.825-1.919,4.636c0,1.481,0.165,2.442,0.496,2.883L138.093,133.381z"/>
			<path fill="#FBBC05" d="M163.527,131.839v-1.322h3.819v18.912h-3.819v-2.368c-1.836,1.898-3.966,2.846-6.389,2.846
				c-2.889,0-5.352-1.019-7.39-3.057c-2.038-2.038-3.057-4.501-3.057-7.39c0-2.888,1.019-5.352,3.057-7.39
				c2.038-2.038,4.501-3.057,7.39-3.057C159.561,129.011,161.691,129.954,163.527,131.839z M163.527,140.854v-2.791
				c-0.22-1.187-0.808-2.265-1.763-3.232c-1.285-1.273-2.827-1.91-4.627-1.91c-1.812,0-3.357,0.637-4.636,1.91
				c-1.279,1.273-1.919,2.815-1.919,4.627c0,1.799,0.64,3.339,1.919,4.618c1.279,1.279,2.824,1.919,4.636,1.919
				c1.799,0,3.342-0.637,4.627-1.91C162.719,143.119,163.307,142.042,163.527,140.854z"/>
			<path fill="#4285F4" d="M175.164,133.069c1.42-1.922,3.164-2.931,5.233-3.03v3.948c-1.383,0.074-2.485,0.52-3.305,1.34
				c-1.237,1.224-1.879,2.681-1.928,4.37v9.713h-3.801v-18.893h3.801V133.069z"/>
			<path fill="#34A853" d="M198.545,142.929l3.8,1.359c-0.93,1.285-1.603,2.136-2.019,2.552c-2.044,2.044-4.511,3.066-7.4,3.066
				c-2.876,0-5.337-1.022-7.381-3.066c-2.044-2.044-3.066-4.51-3.066-7.399c0-2.889,1.022-5.355,3.066-7.399
				c2.044-2.044,4.505-3.066,7.381-3.066c2.889,0,5.355,1.022,7.4,3.066c0.416,0.416,1.089,1.255,2.019,2.515l-3.8,1.395
				c-0.49-0.6-0.82-0.985-0.992-1.157c-1.273-1.273-2.815-1.909-4.627-1.909c-1.799,0-3.339,0.64-4.618,1.919
				c-1.279,1.279-1.919,2.825-1.919,4.636c0,1.799,0.639,3.339,1.919,4.618c1.279,1.279,2.818,1.919,4.618,1.919
				c1.812,0,3.36-0.637,4.645-1.91C197.731,143.896,198.055,143.516,198.545,142.929z"/>
			<path fill="#EA4335" d="M205.62,120.033h3.819v12.522c1.065-2.044,2.607-3.066,4.627-3.066c2.02,0,3.632,0.725,4.838,2.176
				c1.205,1.451,1.827,3.271,1.864,5.462v12.283h-3.801v-12.137c0-1.089-0.309-2.022-0.927-2.8
				c-0.618-0.777-1.595-1.166-2.929-1.166c-1.579,0-2.803,0.845-3.672,2.534v13.568h-3.819V120.033z"/>
		</g>
		<g>
			<path fill="#4F4F4F" d="M54.258,169.903v1.452h-4.595v3.431h4.595v1.452h-4.595v3.431h4.595v1.459h-6.047v-11.225H54.258z"/>
			<path fill="#4F4F4F" d="M56.188,181.128v-11.225h1.452v9.765h4.013v1.459H56.188z"/>
			<path fill="#4F4F4F" d="M65.139,179.493c0.243,0.215,0.685,0.323,1.326,0.323c0.692,0,1.284-0.243,1.775-0.73
				c0.061-0.066,0.185-0.211,0.372-0.435l1.452,0.519c-0.355,0.491-0.613,0.816-0.772,0.975c-0.781,0.781-1.724,1.171-2.827,1.171
				c-1.099,0-2.039-0.39-2.82-1.171c-0.781-0.781-1.172-1.724-1.172-2.827c0-1.104,0.391-2.046,1.172-2.827
				c0.781-0.781,1.721-1.172,2.82-1.172c0.945,0,1.773,0.286,2.484,0.856c0.117,0.098,0.231,0.203,0.344,0.316
				c0.047,0.047,0.18,0.194,0.4,0.442l-0.73,0.736L65.139,179.493z M67.567,175.003c-0.164-0.126-0.531-0.189-1.102-0.189
				c-0.687,0-1.275,0.244-1.764,0.733c-0.489,0.489-0.733,1.079-0.733,1.771c0,0.566,0.063,0.933,0.19,1.101L67.567,175.003z"/>
			<path fill="#4F4F4F" d="M78.005,174.414v-0.505h1.459v7.226h-1.459v-0.905c-0.702,0.725-1.515,1.087-2.441,1.087
				c-1.104,0-2.045-0.389-2.824-1.168c-0.779-0.779-1.168-1.72-1.168-2.824c0-1.104,0.389-2.045,1.168-2.824
				c0.779-0.779,1.72-1.168,2.824-1.168C76.49,173.334,77.304,173.694,78.005,174.414z M78.005,177.859v-1.066
				c-0.084-0.454-0.309-0.865-0.673-1.235c-0.491-0.487-1.08-0.73-1.768-0.73c-0.692,0-1.283,0.243-1.771,0.73
				c-0.489,0.487-0.733,1.076-0.733,1.768c0,0.688,0.244,1.276,0.733,1.764c0.489,0.489,1.079,0.733,1.771,0.733
				c0.688,0,1.277-0.243,1.768-0.73C77.696,178.724,77.921,178.312,78.005,177.859z"/>
			<path fill="#4F4F4F" d="M83.029,174.884c0.542-0.734,1.209-1.12,1.999-1.157v1.508c-0.529,0.028-0.95,0.199-1.263,0.512
				c-0.472,0.468-0.718,1.024-0.736,1.669v3.711h-1.452v-7.219h1.452V174.884z"/>
			<path fill="#4F4F4F" d="M88.044,175.845v5.283h-1.459v-7.219h1.459v0.842c0.304-0.823,0.914-1.235,1.831-1.235
				c0.781,0,1.402,0.277,1.863,0.831c0.46,0.554,0.698,1.25,0.712,2.087v4.693h-1.452v-4.637c0-0.416-0.152-0.773-0.456-1.07
				c-0.304-0.297-0.667-0.446-1.088-0.446c-0.416,0-0.776,0.145-1.08,0.435C88.206,175.584,88.096,175.728,88.044,175.845z"/>
			<path fill="#4F4F4F" d="M96.141,171.236c0.201,0.196,0.301,0.437,0.301,0.723c0,0.285-0.1,0.526-0.301,0.722
				c-0.201,0.196-0.442,0.295-0.723,0.295c-0.276,0-0.515-0.098-0.716-0.295c-0.201-0.196-0.301-0.437-0.301-0.722
				c0-0.286,0.1-0.526,0.301-0.723c0.201-0.196,0.44-0.295,0.716-0.295C95.698,170.942,95.939,171.04,96.141,171.236z
				 M96.147,173.909v7.219h-1.452v-7.219H96.147z"/>
			<path fill="#4F4F4F" d="M99.83,175.845v5.283h-1.459v-7.219h1.459v0.842c0.304-0.823,0.914-1.235,1.831-1.235
				c0.781,0,1.402,0.277,1.863,0.831c0.46,0.554,0.698,1.25,0.712,2.087v4.693h-1.452v-4.637c0-0.416-0.152-0.773-0.456-1.07
				c-0.304-0.297-0.667-0.446-1.088-0.446c-0.416,0-0.776,0.145-1.08,0.435C99.992,175.584,99.882,175.728,99.83,175.845z"/>
			<path fill="#4F4F4F" d="M112.626,174.407v-0.498h1.459v5.367c0,1.403-0.381,2.486-1.143,3.248
				c-0.781,0.688-1.724,1.031-2.827,1.031c-1.104,0-2.046-0.344-2.827-1.031c-0.159-0.159-0.414-0.482-0.765-0.968l1.445-0.519
				c0.187,0.224,0.314,0.37,0.379,0.435c0.491,0.486,1.08,0.73,1.768,0.73c1.155,0,1.955-0.758,2.399-2.273
				c-0.454,0.879-1.232,1.319-2.336,1.319c-1.104,0-2.045-0.379-2.824-1.137c-0.779-0.758-1.168-1.688-1.168-2.792
				c0-1.104,0.389-2.045,1.168-2.824c0.779-0.779,1.72-1.168,2.824-1.168C111.109,173.327,111.925,173.687,112.626,174.407z
				 M112.62,176.758c-0.089-0.444-0.313-0.847-0.673-1.207c-0.487-0.491-1.076-0.737-1.768-0.737c-0.692,0-1.283,0.245-1.771,0.737
				c-0.489,0.491-0.733,1.08-0.733,1.768c0,0.692,0.244,1.283,0.733,1.771c0.489,0.489,1.079,0.733,1.771,0.733
				c0.692,0,1.281-0.243,1.768-0.73c0.36-0.36,0.585-0.758,0.673-1.193V176.758z"/>
			<path fill="#4F4F4F" d="M122.778,169.903v11.225h-1.452v-11.225H122.778z"/>
			<path fill="#4F4F4F" d="M126.489,175.845v5.283h-1.459v-7.219h1.459v0.842c0.304-0.823,0.914-1.235,1.831-1.235
				c0.781,0,1.402,0.277,1.863,0.831c0.46,0.554,0.698,1.25,0.712,2.087v4.693h-1.452v-4.637c0-0.416-0.152-0.773-0.456-1.07
				c-0.304-0.297-0.667-0.446-1.088-0.446c-0.416,0-0.776,0.145-1.08,0.435C126.65,175.584,126.54,175.728,126.489,175.845z"/>
			<path fill="#4F4F4F" d="M134.48,179.577c0.173,0.168,0.379,0.253,0.617,0.253c0.239,0,0.443-0.084,0.614-0.253
				s0.256-0.376,0.256-0.624c0-0.239-0.084-0.442-0.253-0.611c-0.117-0.117-0.367-0.297-0.751-0.54
				c-0.524-0.285-0.895-0.538-1.115-0.758c-0.383-0.383-0.575-0.844-0.575-1.382c0-0.543,0.192-1.007,0.575-1.393
				c0.383-0.386,0.846-0.579,1.389-0.579s0.994,0.182,1.354,0.547c0.257,0.257,0.421,0.545,0.491,0.863l-1.41,0.407
				c-0.033-0.117-0.066-0.194-0.098-0.231c-0.084-0.084-0.196-0.126-0.337-0.126c-0.14,0-0.261,0.05-0.361,0.151
				c-0.101,0.101-0.151,0.221-0.151,0.362c0,0.14,0.049,0.259,0.147,0.358c0.089,0.084,0.29,0.227,0.603,0.428
				c0.58,0.318,1.001,0.608,1.263,0.87c0.454,0.458,0.681,1.003,0.681,1.634c0,0.645-0.226,1.196-0.677,1.652
				c-0.452,0.456-1,0.684-1.645,0.684c-0.641,0-1.188-0.229-1.642-0.687c-0.313-0.314-0.519-0.704-0.617-1.172l1.445-0.309
				C134.325,179.337,134.391,179.489,134.48,179.577z"/>
			<path fill="#4F4F4F" d="M140.19,173.909v-2.708h1.452v2.708h1.298v1.452h-1.298v5.767h-1.452v-5.767h-1.298v-1.452H140.19z"/>
			<path fill="#4F4F4F" d="M146.083,174.884c0.542-0.734,1.209-1.12,1.999-1.157v1.508c-0.529,0.028-0.95,0.199-1.263,0.512
				c-0.472,0.468-0.718,1.024-0.736,1.669v3.711h-1.452v-7.219h1.452V174.884z"/>
			<path fill="#4F4F4F" d="M152.692,181.226c-0.912,0-1.646-0.278-2.203-0.835c-0.557-0.556-0.842-1.253-0.856-2.09v-4.392h1.459
				v4.336c0,0.416,0.152,0.774,0.456,1.073c0.304,0.299,0.683,0.449,1.137,0.449c0.416,0,0.777-0.148,1.084-0.445
				c0.306-0.297,0.46-0.656,0.46-1.077v-4.336h1.452v4.392c-0.014,0.837-0.297,1.534-0.849,2.09
				C154.275,180.948,153.562,181.226,152.692,181.226z"/>
			<path fill="#4F4F4F" d="M163.502,178.651l1.452,0.519c-0.355,0.491-0.613,0.816-0.772,0.975
				c-0.781,0.781-1.724,1.171-2.827,1.171c-1.099,0-2.039-0.39-2.82-1.171c-0.781-0.781-1.172-1.724-1.172-2.827
				c0-1.104,0.391-2.046,1.172-2.827c0.781-0.781,1.721-1.172,2.82-1.172c1.104,0,2.046,0.391,2.827,1.172
				c0.159,0.159,0.416,0.479,0.772,0.961l-1.452,0.533c-0.187-0.229-0.314-0.376-0.379-0.442c-0.486-0.487-1.075-0.73-1.768-0.73
				c-0.687,0-1.276,0.244-1.764,0.733c-0.489,0.489-0.733,1.079-0.733,1.771c0,0.687,0.244,1.275,0.733,1.764
				c0.489,0.489,1.077,0.733,1.764,0.733c0.692,0,1.284-0.243,1.775-0.73C163.191,179.021,163.315,178.876,163.502,178.651z"/>
			<path fill="#4F4F4F" d="M167.515,173.909v-2.708h1.452v2.708h1.298v1.452h-1.298v5.767h-1.452v-5.767h-1.298v-1.452H167.515z"/>
			<path fill="#4F4F4F" d="M173.52,171.236c0.201,0.196,0.301,0.437,0.301,0.723c0,0.285-0.1,0.526-0.301,0.722
				c-0.201,0.196-0.442,0.295-0.723,0.295c-0.276,0-0.515-0.098-0.716-0.295c-0.201-0.196-0.301-0.437-0.301-0.722
				c0-0.286,0.1-0.526,0.301-0.723c0.201-0.196,0.44-0.295,0.716-0.295C173.078,170.942,173.319,171.04,173.52,171.236z
				 M173.527,173.909v7.219h-1.452v-7.219H173.527z"/>
			<path fill="#4F4F4F" d="M179.322,173.32c1.104,0,2.045,0.391,2.824,1.172c0.779,0.781,1.168,1.724,1.168,2.827
				c0,1.104-0.389,2.046-1.168,2.827c-0.779,0.781-1.72,1.171-2.824,1.171c-1.099,0-2.039-0.39-2.82-1.171
				c-0.781-0.781-1.172-1.724-1.172-2.827c0-1.104,0.391-2.046,1.172-2.827C177.283,173.71,178.223,173.32,179.322,173.32z
				 M177.551,175.551c-0.489,0.491-0.733,1.08-0.733,1.768c0,0.692,0.244,1.281,0.733,1.768c0.488,0.486,1.079,0.73,1.771,0.73
				c0.692,0,1.283-0.243,1.771-0.73c0.489-0.487,0.733-1.076,0.733-1.768c0-0.688-0.244-1.277-0.733-1.768
				c-0.489-0.491-1.079-0.737-1.771-0.737C178.63,174.814,178.039,175.06,177.551,175.551z"/>
			<path fill="#4F4F4F" d="M186.457,175.845v5.283h-1.459v-7.219h1.459v0.842c0.304-0.823,0.914-1.235,1.831-1.235
				c0.781,0,1.402,0.277,1.863,0.831c0.46,0.554,0.698,1.25,0.712,2.087v4.693h-1.452v-4.637c0-0.416-0.152-0.773-0.456-1.07
				c-0.304-0.297-0.667-0.446-1.088-0.446c-0.416,0-0.776,0.145-1.08,0.435C186.618,175.584,186.508,175.728,186.457,175.845z"/>
			<path fill="#4F4F4F" d="M199.246,174.414v-0.505h1.459v7.226h-1.459v-0.905c-0.702,0.725-1.515,1.087-2.441,1.087
				c-1.104,0-2.045-0.389-2.824-1.168c-0.779-0.779-1.168-1.72-1.168-2.824c0-1.104,0.389-2.045,1.168-2.824
				c0.779-0.779,1.72-1.168,2.824-1.168C197.731,173.334,198.545,173.694,199.246,174.414z M199.246,177.859v-1.066
				c-0.084-0.454-0.309-0.865-0.673-1.235c-0.491-0.487-1.08-0.73-1.768-0.73c-0.692,0-1.283,0.243-1.771,0.73
				c-0.489,0.487-0.733,1.076-0.733,1.768c0,0.688,0.244,1.276,0.733,1.764c0.489,0.489,1.079,0.733,1.771,0.733
				c0.688,0,1.277-0.243,1.768-0.73C198.937,178.724,199.162,178.312,199.246,177.859z"/>
			<path fill="#4F4F4F" d="M204.276,169.896v11.232h-1.459v-11.232H204.276z"/>
			<path fill="#4F4F4F" d="M217.612,174.407v-4.504h1.459v11.225h-1.459v-0.898c-0.702,0.725-1.518,1.087-2.448,1.087
				c-1.104,0-2.045-0.39-2.824-1.171c-0.779-0.781-1.168-1.724-1.168-2.827c0-1.104,0.389-2.046,1.168-2.827
				c0.779-0.781,1.72-1.172,2.824-1.172C216.095,173.32,216.911,173.682,217.612,174.407z M217.612,177.859v-1.073
				c-0.084-0.454-0.311-0.865-0.68-1.235c-0.487-0.491-1.076-0.737-1.768-0.737s-1.283,0.245-1.771,0.737
				c-0.489,0.491-0.733,1.08-0.733,1.768c0,0.692,0.244,1.281,0.733,1.768c0.489,0.486,1.079,0.73,1.771,0.73
				s1.281-0.243,1.768-0.73C217.301,178.717,217.528,178.308,217.612,177.859z"/>
			<path fill="#4F4F4F" d="M223.421,179.493c0.243,0.215,0.685,0.323,1.326,0.323c0.692,0,1.284-0.243,1.775-0.73
				c0.061-0.066,0.185-0.211,0.372-0.435l1.452,0.519c-0.355,0.491-0.613,0.816-0.772,0.975c-0.781,0.781-1.724,1.171-2.827,1.171
				c-1.099,0-2.039-0.39-2.82-1.171c-0.781-0.781-1.172-1.724-1.172-2.827c0-1.104,0.391-2.046,1.172-2.827
				c0.781-0.781,1.721-1.172,2.82-1.172c0.945,0,1.773,0.286,2.484,0.856c0.117,0.098,0.231,0.203,0.344,0.316
				c0.047,0.047,0.18,0.194,0.4,0.442l-0.73,0.736L223.421,179.493z M225.848,175.003c-0.164-0.126-0.531-0.189-1.102-0.189
				c-0.687,0-1.275,0.244-1.764,0.733s-0.733,1.079-0.733,1.771c0,0.566,0.063,0.933,0.19,1.101L225.848,175.003z"/>
			<path fill="#4F4F4F" d="M231.489,179.577c0.173,0.168,0.379,0.253,0.617,0.253s0.443-0.084,0.614-0.253s0.256-0.376,0.256-0.624
				c0-0.239-0.084-0.442-0.253-0.611c-0.117-0.117-0.367-0.297-0.751-0.54c-0.524-0.285-0.895-0.538-1.115-0.758
				c-0.383-0.383-0.575-0.844-0.575-1.382c0-0.543,0.192-1.007,0.575-1.393c0.383-0.386,0.846-0.579,1.389-0.579
				s0.994,0.182,1.354,0.547c0.257,0.257,0.421,0.545,0.491,0.863l-1.41,0.407c-0.033-0.117-0.066-0.194-0.098-0.231
				c-0.084-0.084-0.196-0.126-0.337-0.126s-0.261,0.05-0.361,0.151c-0.101,0.101-0.151,0.221-0.151,0.362
				c0,0.14,0.049,0.259,0.147,0.358c0.089,0.084,0.29,0.227,0.603,0.428c0.58,0.318,1.001,0.608,1.263,0.87
				c0.454,0.458,0.681,1.003,0.681,1.634c0,0.645-0.226,1.196-0.677,1.652c-0.452,0.456-1,0.684-1.645,0.684
				c-0.641,0-1.188-0.229-1.642-0.687c-0.313-0.314-0.519-0.704-0.617-1.172l1.445-0.309
				C231.335,179.337,231.4,179.489,231.489,179.577z"/>
			<path fill="#4F4F4F" d="M237.782,171.236c0.201,0.196,0.301,0.437,0.301,0.723c0,0.285-0.101,0.526-0.301,0.722
				c-0.201,0.196-0.442,0.295-0.723,0.295c-0.276,0-0.515-0.098-0.716-0.295c-0.201-0.196-0.301-0.437-0.301-0.722
				c0-0.286,0.101-0.526,0.301-0.723c0.201-0.196,0.44-0.295,0.716-0.295C237.34,170.942,237.58,171.04,237.782,171.236z
				 M237.789,173.909v7.219h-1.452v-7.219H237.789z"/>
			<path fill="#4F4F4F" d="M246.277,174.407v-0.498h1.459v5.367c0,1.403-0.381,2.486-1.143,3.248
				c-0.781,0.688-1.724,1.031-2.827,1.031c-1.104,0-2.046-0.344-2.827-1.031c-0.159-0.159-0.414-0.482-0.765-0.968l1.445-0.519
				c0.187,0.224,0.314,0.37,0.379,0.435c0.491,0.486,1.08,0.73,1.768,0.73c1.155,0,1.955-0.758,2.399-2.273
				c-0.454,0.879-1.232,1.319-2.336,1.319c-1.104,0-2.045-0.379-2.824-1.137c-0.779-0.758-1.168-1.688-1.168-2.792
				c0-1.104,0.389-2.045,1.168-2.824c0.779-0.779,1.72-1.168,2.824-1.168C244.76,173.327,245.576,173.687,246.277,174.407z
				 M246.27,176.758c-0.089-0.444-0.313-0.847-0.673-1.207c-0.487-0.491-1.076-0.737-1.768-0.737s-1.283,0.245-1.771,0.737
				c-0.489,0.491-0.733,1.08-0.733,1.768c0,0.692,0.244,1.283,0.733,1.771c0.489,0.489,1.079,0.733,1.771,0.733
				s1.281-0.243,1.768-0.73c0.36-0.36,0.585-0.758,0.673-1.193V176.758z"/>
			<path fill="#4F4F4F" d="M251.329,175.845v5.283h-1.459v-7.219h1.459v0.842c0.304-0.823,0.914-1.235,1.831-1.235
				c0.781,0,1.402,0.277,1.863,0.831c0.46,0.554,0.698,1.25,0.712,2.087v4.693h-1.452v-4.637c0-0.416-0.152-0.773-0.456-1.07
				c-0.304-0.297-0.667-0.446-1.088-0.446c-0.416,0-0.776,0.145-1.08,0.435C251.49,175.584,251.38,175.728,251.329,175.845z"/>
		</g>
		<g opacity="0.7">
			<path fill="#B2B2B2" d="M284.799,187.536c0,0.519-0.19,0.967-0.567,1.347c-0.38,0.38-0.829,0.57-1.347,0.57
				c-0.539,0-0.989-0.19-1.349-0.57l-5.133-5.118c-1.785,1.237-3.776,1.855-5.97,1.855c-1.427,0-2.791-0.277-4.093-0.829
				c-1.302-0.554-2.425-1.302-3.368-2.245c-0.943-0.943-1.69-2.066-2.245-3.368c-0.553-1.302-0.83-2.666-0.83-4.093
				c0-1.426,0.277-2.791,0.83-4.093c0.554-1.302,1.302-2.424,2.245-3.366c0.943-0.943,2.066-1.691,3.368-2.246
				c1.302-0.553,2.666-0.83,4.093-0.83c1.426,0,2.791,0.277,4.093,0.83c1.302,0.554,2.423,1.303,3.368,2.246
				c0.943,0.943,1.691,2.065,2.244,3.366c0.554,1.302,0.832,2.667,0.832,4.093c0,2.196-0.62,4.186-1.855,5.971l5.133,5.133
				C284.616,186.558,284.799,187.007,284.799,187.536z M275.169,179.822c1.313-1.312,1.967-2.891,1.967-4.737
				c0-1.845-0.655-3.424-1.967-4.736c-1.312-1.313-2.891-1.969-4.736-1.969c-1.846,0-3.425,0.656-4.737,1.969
				c-1.312,1.312-1.967,2.891-1.967,4.736c0,1.846,0.656,3.425,1.967,4.737c1.312,1.312,2.891,1.967,4.737,1.967
				C272.279,181.789,273.858,181.133,275.169,179.822z"/>
		</g>
	</g>
</g>
</svg>
