<svg xmlns="http://www.w3.org/2000/svg" xmlns:xlink="http://www.w3.org/1999/xlink" width="500" height="396.143" viewBox="0 0 500 396.143"><path fill="#F5F1EB" d="M210.19 393.137s.555 4.37 10.528 2.57c9.972-1.8 26.524-5.886 26.524-5.886l-.07-1.87-36.98 5.187z"/><path fill="#FDEDD8" d="M233.357 368.42s1.78 7.494-4.83 11.044c0 0-17.077 3.946-18.056 11.637 0 0 1.388 6.51 36.3-3.747 0 0 2.76-.395 0-20.512l-13.413 1.58z"/><path fill="#4A4F4F" d="M221.68 380.925s8.073-1.456 9.973 4.228c0 0 14.362-.817 16.33-5.164 0 0 .99 4.844-.81 7.96 0 0-34.696 10.512-36.98 5.187-.002 0-3.204-7.326 11.486-12.212z"/><path fill="#F5F1EB" d="M314.59 393.137s-.555 4.37-10.528 2.57c-9.973-1.8-26.524-5.886-26.524-5.886l.07-1.87 36.98 5.187z"/><path fill="#FDEDD8" d="M291.424 368.42s-1.78 7.494 4.83 11.044c0 0 17.076 3.946 18.056 11.637 0 0-1.387 6.51-36.297-3.747 0 0-2.76-.395 0-20.512l13.41 1.58z"/><path fill="#4A4F4F" d="M303.1 380.925s-8.073-1.456-9.973 4.228c0 0-14.362-.817-16.33-5.164 0 0-.99 4.844.81 7.96 0 0 34.696 10.512 36.98 5.187.002 0 3.204-7.326-11.486-12.212z"/><path fill="#495968" d="M297.417 234l-34.93-.076v-.1l-.308.05-.308-.05v.1L226.94 234s-3.9 76.598 3.45 137.066c0 0 9.154 4.233 18.86 0 0 0 .778-103.36 12.93-105.075 12.15 1.717 12.927 105.076 12.927 105.076 9.707 4.233 18.86 0 18.86 0 7.35-60.47 3.45-137.066 3.45-137.066z"/><path fill="none" stroke="#394754" stroke-width=".91" stroke-miterlimit="10" d="M247.537 233.955s-4.196 18.314-21.52 22.61"/><path fill="none" stroke="#394754" stroke-width=".997" stroke-miterlimit="10" stroke-dasharray="2.7302,2.7302" d="M249.586 233.955s-4.596 20.972-23.567 25.677"/><path fill="none" stroke="#394754" stroke-width=".91" stroke-miterlimit="10" d="M276.932 233.955s4.196 18.314 21.52 22.61"/><path fill="none" stroke="#394754" stroke-width=".997" stroke-miterlimit="10" stroke-dasharray="2.7302,2.7302" d="M274.883 233.955s4.596 20.972 23.567 25.677"/><path fill="none" stroke="#394754" stroke-width=".91" stroke-miterlimit="10" d="M262.486 233.823v32.168"/><path fill="none" stroke="#394754" stroke-width=".997" stroke-miterlimit="10" stroke-dasharray="2.7302,2.7302" d="M259.21 233.955s-1.404 22.61 2.968 22.61"/><path fill="#EBD8C1" d="M195.3 139.274s-32.846 20.538-43.195 32.043c-12.674 14.09 15.57 15.57 15.57 15.57s3.516-8.538 31.14-18.08c0 0 26.582-32.28-3.516-29.533z"/><path fill="#FDEDD8" d="M174.48 165.018s9.354-11.217 13.085-6.82c3.73 4.395-10.05 12.21-12.565 21.706-2.515 9.497-14.272 13.736-28.178 16.085-16.55 2.795-31.603-49.142-23.347-56.685 0 0 3.312-.654 4.49 10.233 1.18 10.887 4.41 8.054 4.446 7.805.04-.25-7.764-29.978-1.293-32.327 6.472-2.35 4.937 31.85 9.114 31.2 4.18-.652-4.265-36.342 2.16-36.658 6.422-.317 4.838 35.917 10.05 35.164 5.214-.752-3.03-32.65 5.172-32.925 8.2-.273-2.415 48.047 11.07 47.138 4.967-.336 5.8-3.917 5.8-3.917z"/><path fill="#EBD8C1" d="M323.12 139.274s32.847 20.538 43.195 32.043c12.675 14.09-15.57 15.57-15.57 15.57s-3.516-8.538-31.14-18.08c0 0-26.58-32.28 3.516-29.533z"/><path fill="#FDD081" d="M323.12 139.274c-25.79-15.864-47.27-15.67-47.27-15.67h-32.353s-22.408-.194-48.197 15.67c0 0 9.58 9.473 3.515 29.532l17.505-5.808s5.264 68.647 10.43 75.317c6.684 8.63 63.46 8.918 70.894.928 3.34-3.59 4.97-76.246 4.97-76.246l16.99 5.808c-6.062-20.058 3.517-29.53 3.517-29.53z"/><path fill="#FDEDD8" d="M343.94 165.018s-9.355-11.217-13.085-6.82c-3.732 4.395 10.05 12.21 12.565 21.706 2.514 9.497 14.27 13.736 28.178 16.085 16.55 2.795 31.602-49.142 23.346-56.685 0 0-3.31-.654-4.49 10.233-1.18 10.887-4.41 8.054-4.446 7.805-.037-.25 7.765-29.978 1.294-32.327-6.47-2.35-4.936 31.85-9.113 31.2-4.178-.652 4.265-36.342-2.158-36.658-6.424-.317-4.84 35.917-10.052 35.164-5.214-.752 3.03-32.65-5.17-32.925-8.202-.273 2.414 48.047-11.07 47.138-4.97-.336-5.8-3.917-5.8-3.917z"/><g><path fill="#34495E" d="M232.124 49.71s-5.8 23.582 2.924 33.722l5.376-32.526-8.3-1.195z"/><path fill="#FDEDD8" d="M275.048 109.796l-2.08 12.59c-.9 5.44-6.36 9.173-12.19 8.334-5.828-.84-9.83-5.934-8.93-11.374l2.08-12.59 21.12 3.04z"/><path fill="#EBD8C1" d="M275.048 109.796l-1.014 6.135c-2.19.19-4.44.128-6.72-.2l-9.62-1.385a28.582 28.582 0 0 1-4.833-1.122l1.07-6.466 21.118 3.04z"/><path fill="#FDEDD8" d="M245.333 19.61l-9.968 60.312c-2.332 14.107 8.033 27.307 23.15 29.483l9.61 1.383c15.118 2.176 29.262-7.497 31.594-21.604l9.967-60.313-64.354-9.26z"/><path fill="#333" d="M240.175 66.757s3.732-2.51 3.285-10.31c0 0 12.56-4.483 4.493-30.446 0 0 43.418-2.686 60.762 8.747 0 0 11.947-5.393 2.62-15.854l-1.462 3.437S310.423 3.625 287.77 0l4.18 8.99s-8.145-7.19-20.766-6.635c0 0 6.245 5.823 1.854 7.562s-24.24-8.23-27.857 4.197c0 0-10.117-1.82-10.884 10.105s-6.98 40.855 5.88 42.537z"/><path fill="#333" d="M278.07 41.832l-15.46-2.226.604-3.65 15.858-.18zM293.836 45.763l15.46 2.225.605-3.65-15.063-4.632z"/><path fill="#FFD1A4" d="M248.58 59.767c-.963 5.82-6.4 9.867-12.145 9.04s-9.623-6.215-8.66-12.034c.96-5.82 6.398-9.867 12.143-9.04 5.745.827 9.623 6.215 8.66 12.034z"/><path fill="#472218" d="M277.413 59.743c-.76 4.04-3.028 7.043-5.06 6.71-2.033-.333-3.066-3.88-2.303-7.92.76-4.04 3.026-7.044 5.06-6.71 2.032.332 3.063 3.878 2.303 7.92zM304.66 65.902c-.762 4.04-3.027 7.045-5.06 6.71-2.034-.335-3.064-3.88-2.303-7.918.76-4.04 3.025-7.045 5.06-6.71 2.033.332 3.065 3.877 2.304 7.918z"/><path fill="#271E54" d="M290.167 90s-22.95-3.91-26.482-15.654c0 0-11.322 13.58 1.546 21.84C282.395 107.202 290.168 90 290.168 90z"/><path fill="#FC8888" d="M266.173 84.685l2.02 7.674c-1.837-7.03-5.918-10.876-7.822-12.348-1.92 4.69-2.667 11.342 4.86 16.174 3.992 2.562 7.47 3.6 10.467 3.682-1.582-9.956-9.524-15.183-9.524-15.183z"/><path fill="#FFF" d="M264.63 76.566c1.87 5.124 7.857 15.675 25 13.334-3.207-.624-20.013-4.282-25-13.334z"/><path fill="#494949" d="M227.53 56.348c-.063 1.797 1.445 3.303 3.37 3.363l23.357.86c1.926.06 3.54-1.348 3.603-3.146l.214-5.97c.065-1.798-1.444-3.304-3.37-3.363l-23.356-.86c-1.927-.06-3.54 1.35-3.603 3.146l-.214 5.972z"/><path fill="#FDEDD8" d="M244.058 57.957c.603 7.404-2.643 13.67-7.246 13.997-4.603.322-8.82-5.416-9.42-12.82-.6-7.407 2.645-13.673 7.248-13.998 4.6-.323 8.817 5.416 9.418 12.82z"/><linearGradient id="a" gradientUnits="userSpaceOnUse" x1="3355.33" y1="-133.991" x2="3355.33" y2="-150.457" gradientTransform="rotate(9.98 644.915 -17907.314)"><stop offset="0" stop-color="#FFF"/><stop offset=".23" stop-color="#c7b9b9"/><stop offset=".509" stop-color="#886b6b"/><stop offset=".74" stop-color="#593131"/><stop offset=".909" stop-color="#3d0d0d"/><stop offset="1" stop-color="#320000"/></linearGradient><path opacity=".17" fill="url(#a)" d="M240.932 58.178c.377 4.626-1.65 8.542-4.528 8.745-2.876.203-5.512-3.383-5.886-8.01-.376-4.63 1.65-8.545 4.528-8.748 2.877-.202 5.513 3.385 5.886 8.013z"/><g><path fill="#B5B4B4" d="M251.543 61.235c-.63 3.107 1.56 6.1 4.888 6.686l55.443 9.768c3.33.586 6.536-1.456 7.165-4.562l3.47-17.153c.628-3.106-1.56-6.1-4.89-6.685l-55.44-9.768c-3.33-.586-6.537 1.457-7.166 4.563l-3.47 17.152z"/><path fill="#D8D8D8" d="M265.812 40.16l51.807 9.128c3.327.586 5.516 3.58 4.888 6.685l-3.47 17.153c-.628 3.106-3.836 5.148-7.165 4.562l-49.74-8.762c-2.697-1.068-4.33-3.772-3.767-6.568l3.603-17.806c.414-2.05 1.915-3.652 3.842-4.39z"/><path fill="#333" d="M263.264 44.78c.294-1.457 1.297-2.683 2.71-3.34l51.4 9.055c1.264.222 2.36.89 3.084 1.883a4.23 4.23 0 0 1 .755 3.367l-3.47 17.154c-.484 2.394-2.884 3.98-5.464 3.608l-.163-.026-17.555-3.092-.267-2.226s-.495-1.623-1.673-1.76c-2.127-.246-7.64-1.342-7.64-1.342s-1.194-.172-3.834 2.966l-18.623-3.28c-2.09-.892-3.29-3.04-2.864-5.16l3.604-17.808z"/></g><path fill="#333" d="M251.258 49.02l-2.733 16.536s-4.475 21.047 12.88 25.923c0 0 .553 1.97-1.222 2.59 0 0-18.853-3.885-14.336-28.9l2.733-16.535s1.64-1.224 2.678.386z"/><path fill="#494949" d="M258.92 92.72c-.403 2.436 1.934 4.792 5.22 5.265 3.286.473 6.276-1.117 6.678-3.55.402-2.435-1.936-4.792-5.222-5.264-3.285-.472-6.274 1.117-6.677 3.55z"/><path opacity=".17" fill="#1E0909" d="M264.475 95.96c2.815.406 5.407-.705 6.347-2.56.05.34.054.686-.003 1.034-.403 2.435-3.393 4.024-6.68 3.55-3.285-.472-5.623-2.83-5.22-5.263.058-.348.174-.677.33-.987.297 2.034 2.41 3.823 5.225 4.228z"/></g><g><image overflow="visible" opacity=".25" width="531" height="260" xlink:href="88DDE003.png" transform="translate(-8.065 120.875)"/><path opacity=".6" fill="#FFF" d="M446.084 327.734H39.144c-2.8 0-5.077-2.384-5.077-5.314V165.683c0-2.93 2.278-5.314 5.077-5.314h406.94c2.8 0 5.078 2.383 5.078 5.313V322.42c0 2.93-2.278 5.314-5.078 5.314zM39.144 161.497c-2.178 0-3.95 1.878-3.95 4.186V322.42c0 2.308 1.772 4.186 3.95 4.186h406.94c2.18 0 3.95-1.878 3.95-4.186V165.683c0-2.308-1.77-4.186-3.95-4.186H39.145z"/><path fill="#FFF" d="M192.97 288.243H106.84a5.083 5.083 0 0 1-5.077-5.077V181.243c0-2.8 2.278-5.077 5.077-5.077h86.127c2.8 0 5.076 2.278 5.076 5.077v101.923c0 2.8-2.277 5.077-5.077 5.077zm-86.128-110.95a3.953 3.953 0 0 0-3.95 3.95v101.923c0 2.178 1.772 3.95 3.95 3.95h86.127c2.177 0 3.948-1.772 3.948-3.95V181.243c0-2.178-1.77-3.95-3.95-3.95h-86.126z" opacity=".6"/><path fill="#FFF" d="M419.38 308.177H211.4a5.083 5.083 0 0 1-5.077-5.077v-44.756c0-2.8 2.28-5.077 5.078-5.077h207.984c2.8 0 5.077 2.278 5.077 5.077V303.1c0 2.8-2.28 5.077-5.08 5.077zM211.4 254.394a3.953 3.953 0 0 0-3.95 3.95v44.755c0 2.177 1.772 3.948 3.95 3.948h207.984c2.178 0 3.95-1.77 3.95-3.95v-44.755c0-2.178-1.772-3.95-3.95-3.95H211.398zM455.863 212.647H208.39a5.083 5.083 0 0 1-5.078-5.077v-23.694c0-2.8 2.278-5.077 5.077-5.077h247.473c2.8 0 5.077 2.277 5.077 5.076v23.694c0 2.8-2.277 5.077-5.077 5.077zm-247.474-32.72a3.953 3.953 0 0 0-3.95 3.948v23.694c0 2.177 1.77 3.948 3.95 3.948h247.473c2.178 0 3.95-1.77 3.95-3.95v-23.693c0-2.178-1.772-3.95-3.95-3.95H208.39z"/><path fill="#FC8B60" d="M202.926 198.814h-51.69a7.59 7.59 0 0 1-7.59-7.59v-51.69a7.59 7.59 0 0 1 7.59-7.59h51.69a7.59 7.59 0 0 1 7.59 7.59v51.69a7.59 7.59 0 0 1-7.59 7.59z"/><path fill="#2C3F47" d="M177.08 151.284a.376.376 0 0 1-.375-.376c0-7.156 3.637-9.326 3.792-9.415a.375.375 0 1 1 .374.652c-.006.004-.86.513-1.7 1.835-.782 1.227-1.713 3.425-1.713 6.928a.376.376 0 0 1-.376.376z"/><path fill="#FCBF60" d="M182.126 144.138a.374.374 0 0 1-.134-.025c-.51-.194-.9-.59-1.04-1.057a.376.376 0 1 1 .718-.22c.074.244.3.464.59.574a.376.376 0 0 1-.134.728zM183.505 142.383h-1.38a.376.376 0 0 1 0-.752h1.38a.376.376 0 0 1 0 .753zM182 141.443a.376.376 0 0 1-.353-.507c.084-.226.217-.417.345-.602.09-.13.175-.252.234-.374a.376.376 0 1 1 .676.33c-.086.175-.192.327-.294.475-.107.153-.208.298-.258.432a.373.373 0 0 1-.35.246zM180.81 141.13h-.014a.376.376 0 0 1-.362-.39c.008-.207-.075-.444-.255-.725a.375.375 0 1 1 .633-.404c.264.416.386.794.372 1.157a.375.375 0 0 1-.375.362zM179.745 141.63a.32.32 0 0 1-.075-.007c-.432-.087-.74-.393-1.014-.662-.132-.13-.256-.252-.378-.336a.376.376 0 0 1 .426-.62c.178.122.332.274.48.422.218.214.424.417.635.46a.376.376 0 0 1-.075.745z"/><path fill="#3B4D57" d="M183.398 157.362c6.48 2.517 11.074 8.825 11.074 16.196 0 9.602-7.786 17.388-17.388 17.388-9.608 0-17.394-7.786-17.394-17.388 0-7.378 4.594-13.68 11.08-16.203a17.29 17.29 0 0 1 6.314-1.185c2.23 0 4.358.42 6.314 1.192z"/><path fill="#2C3F47" d="M183.398 155.865V157.362a17.17 17.17 0 0 0-6.314-1.19c-2.23 0-4.358.42-6.314 1.184v-1.49a2.468 2.468 0 0 1 2.466-2.467H180.933a2.47 2.47 0 0 1 2.465 2.465z"/><path fill="#3B4D57" d="M178.492 149.194v4.205h-2.822v-4.206h1.414z"/><g><path fill="#9DBF9F" d="M383.744 171.877H350.66a4.858 4.858 0 0 1-4.857-4.858v-33.084a4.858 4.858 0 0 1 4.858-4.858h33.084a4.858 4.858 0 0 1 4.858 4.858v33.083a4.858 4.858 0 0 1-4.858 4.857z"/><path fill="#3B4D57" d="M384.804 159.487a3.056 3.056 0 0 1-1.94 3.282 3.07 3.07 0 0 1-3.52-.98l-6.246-8.038a2.99 2.99 0 0 0 1.578-2.64c0-.24-.03-.473-.087-.695.8.444 1.722.695 2.702.695a5.59 5.59 0 0 0 5.595-5.59l1.917 13.965z"/><path fill="#506A75" d="M378.968 140.183c2.27.71 3.92 2.83 3.92 5.34a5.59 5.59 0 0 1-5.595 5.59c-.98 0-1.902-.252-2.703-.696a2.98 2.98 0 0 0-2.206-2.216 5.592 5.592 0 0 1 6.584-8.018zm1.41 5.34a.86.86 0 0 0-.86-.86.86.86 0 0 0-.853.86.86.86 0 0 0 .854.853.86.86 0 0 0 .858-.854zm-2.226-2.23a.857.857 0 1 0-1.713.004.857.857 0 0 0 1.712-.005zm0 4.455a.857.857 0 1 0-1.713-.005.857.857 0 0 0 1.713.005zm-2.23-2.226c0-.473-.38-.86-.854-.86a.857.857 0 0 0 0 1.714.855.855 0 0 0 .854-.854z"/><path fill="#3B4D57" d="M379.518 144.663a.86.86 0 0 1 .86.86.86.86 0 0 1-.86.853.86.86 0 0 1-.854-.854.86.86 0 0 1 .854-.86zM378.968 140.178v.005a5.657 5.657 0 0 0-1.675-.256h-3.616v-1.183c0-.42.343-.763.763-.763h3.76c.425 0 .768.344.768.764v1.434z"/><circle fill="#3B4D57" cx="377.293" cy="143.294" r=".857"/><path fill="#3B4D57" d="M377.293 146.888a.857.857 0 1 1 .005 1.713.857.857 0 0 1-.005-1.713zM373.677 139.927h3.616a5.593 5.593 0 0 0-4.91 8.274 2.843 2.843 0 0 0-.705-.086 2.998 2.998 0 0 0-2.998 2.998h-2.954a2.998 2.998 0 0 0-3.708-2.91 5.592 5.592 0 0 0-4.91-8.274h16.569zm-4.46 4.263v-.83h-1.37v.83h1.37zm-.748 4.644v-.864h-2.53v.864h2.53zm-1.913-4.644v-.83h-1.366v.83h1.367zM375.068 144.663a.857.857 0 0 1 0 1.713.855.855 0 1 1 0-1.713z"/><path fill="#2C3F47" d="M374.59 150.417c.058.222.087.454.087.695a2.99 2.99 0 0 1-2.997 2.997 2.998 2.998 0 1 1 .705-5.91 2.984 2.984 0 0 1 2.205 2.217z"/><path fill="#506A75" d="M367.846 143.36h1.37v.83h-1.37zM365.94 147.97h2.528v.864h-2.53zM365.19 143.36h1.367v.83h-1.366z"/><path fill="#2C3F47" d="M362.73 148.114a2.998 2.998 0 1 1-2.917 2.31 2.988 2.988 0 0 1 2.206-2.222 2.82 2.82 0 0 1 .71-.088z"/><path fill="#506A75" d="M362.705 145.522c0 .97-.246 1.883-.685 2.68a2.988 2.988 0 0 0-2.206 2.22c-.8.44-1.723.69-2.703.69a5.59 5.59 0 0 1-5.594-5.59 5.6 5.6 0 0 1 3.925-5.344c.532-.164 1.092-.25 1.67-.25 3.09 0 5.595 2.5 5.595 5.594zm-3.142.415v-.835h-2.032v-2.032h-.84v2.032h-2.03v.835h2.03v2.032h.84v-2.033h2.033z"/><path fill="#3B4D57" d="M361.31 153.753l-6.25 8.037a3.07 3.07 0 0 1-3.515.98 3.067 3.067 0 0 1-1.945-3.282l1.916-13.965a5.59 5.59 0 0 0 5.595 5.59c.98 0 1.903-.25 2.704-.69a2.993 2.993 0 0 0 1.496 3.33zM360.726 138.745v1.183h-3.616c-.58 0-1.14.087-1.67.25v-1.433c0-.42.343-.763.763-.763h3.76c.42 0 .763.343.763.763zM359.563 145.102v.835h-2.033v2.033h-.84v-2.033h-2.032v-.835h2.033v-2.032h.84v2.032z"/></g><g><path fill="#9DBF9F" d="M110.632 333.533h-51.69a7.59 7.59 0 0 1-7.59-7.59v-51.69a7.59 7.59 0 0 1 7.59-7.59h51.69a7.59 7.59 0 0 1 7.59 7.59v51.69a7.59 7.59 0 0 1-7.59 7.59z"/><path fill="#E5A34C" d="M76.588 294.45l-3.63 4.337-11.683-15.535zM108.3 283.252l-11.684 15.535-3.63-4.336z"/><path fill="#FCBF60" d="M99.557 294.877l8.743-11.625s-5.248 26.19-5.504 26.704H66.78c-.258-.514-5.505-26.704-5.505-26.704l8.743 11.625a3.883 3.883 0 0 0 6.08.16l.49-.586 8.196-9.785 8.202 9.786.49.587a3.884 3.884 0 0 0 6.08-.16z"/><path fill="#E5A34C" d="M104.114 304.402H65.46a.564.564 0 0 1 0-1.128h38.654a.564.564 0 0 1 0 1.128zM102.795 309.957v4.75H66.78v-4.75h18.004z"/><path fill="#FFD399" d="M84.784 298.545a5.295 5.295 0 0 1 5.292 5.292 5.29 5.29 0 0 1-10.577 0 5.292 5.292 0 0 1 5.285-5.293zm2.46 5.292a2.46 2.46 0 0 0-2.46-2.46 2.46 2.46 0 0 0-2.455 2.46 2.455 2.455 0 0 0 2.453 2.46 2.456 2.456 0 0 0 2.46-2.46z"/><path fill="#FCBF60" d="M84.784 281.424c1.52 0 2.74 1.227 2.74 2.74a2.735 2.735 0 0 1-5.472 0c0-1.513 1.22-2.74 2.732-2.74z"/><path fill="#E5A34C" d="M84.78 299.938a3.9 3.9 0 0 1 0 7.798 3.89 3.89 0 0 1-3.887-3.9c0-2.146 1.74-3.898 3.888-3.898z"/><path fill="#FC6460" d="M84.782 300.675a3.162 3.162 0 0 1 0 6.324 3.155 3.155 0 0 1-3.153-3.163 3.16 3.16 0 0 1 3.152-3.162z"/><circle fill="#F79C9C" cx="83.838" cy="302.75" r="1.338"/><path fill="#FCBF60" d="M102.795 318.773H66.78v-4.066h36.014z"/><circle fill="#FCBF60" cx="108.3" cy="284.163" r="2.739"/><circle fill="#FCBF60" cx="61.275" cy="284.163" r="2.739"/></g><g><path fill="#3B4D57" d="M224.93 276.437H191.85a4.858 4.858 0 0 1-4.858-4.858v-33.084a4.858 4.858 0 0 1 4.858-4.858h33.083a4.858 4.858 0 0 1 4.86 4.858v33.083a4.86 4.86 0 0 1-4.86 4.857z"/><path fill="#BD8864" d="M219.108 260.576l-.68 3.71h2.634l-.68-3.71c-.132-.707-1.145-.707-1.274 0l-.68 3.71h2.634l-.68-3.71c-.132-.707-1.145-.707-1.274 0zM215.796 257.313l-.68 3.71h2.634l-.68-3.71c-.132-.706-1.145-.706-1.274 0l-.68 3.71h2.634l-.68-3.71c-.132-.706-1.145-.706-1.274 0zM197.67 260.576l.68 3.71h-2.634l.68-3.71c.132-.707 1.144-.707 1.274 0l.68 3.71h-2.634l.68-3.71c.132-.707 1.144-.707 1.274 0zM200.982 257.313l.68 3.71h-2.634l.68-3.71c.132-.706 1.145-.706 1.274 0l.68 3.71h-2.634l.68-3.71c.132-.706 1.145-.706 1.274 0z"/><path fill="#D8D0BB" d="M223.6 265.666v3.74H209.51v-5.02h-2.24v5.02h-14.093v-3.74l9.51-8.522 4.678-17.86c.275-1.052 1.775-1.052 2.05 0l4.678 17.86 9.508 8.522z"/><path fill="#E9E5D9" d="M205.938 262.462h4.9v6.232h-4.9z"/><path fill="#BAB19B" d="M218.363 268.064h1.88v2.44h-1.88zM213.826 268.064h1.888v2.44h-1.888z"/><path fill="#E9E5D9" d="M208.39 246.757c.89 0 1.622 1.85 1.622 4.128 0 2.277-.73 4.128-1.623 4.128s-1.614-1.85-1.614-4.128c0-2.277.72-4.128 1.613-4.128z"/><path fill="#BAB19B" d="M209.51 268.064v3.164h-2.24v-6.844h2.24zM201.063 268.064h1.888v2.44h-1.887zM196.536 268.064h1.888v2.44h-1.888z"/><path fill="#FCBF60" d="M197.43 258.967h-.723v-.48h.722v.48zm0-.963h-.723v-.48h.722v.48zm0-.963h-.723v-.48h.722v.48zm0-.962h-.723v-.48h.722v.48zm0-.962h-.723v-.48h.722v.48zm0-.963h-.723v-.48h.722v.48zm0-.963h-.723v-.48h.722v.48zm0-.963h-.723v-.48h.722v.48zm0-.963h-.723v-.48h.722v.48zm0-.963h-.723v-.48h.722v.48zm0-.962h-.723v-.48h.722v.48zm0-.963h-.723v-.48h.722v.48zm0-.962h-.723v-.48h.722v.48zm0-.963h-.723v-.48h.722v.48zm0-.963h-.723v-.48h.722v.48zm0-.963h-.723v-.48h.722v.48zm0-.963h-.723v-.48h.722v.48zm0-.962h-.723v-.48h.722v.48zm0-.963h-.723v-.48h.722v.48zm0-.963h-.723v-.48h.722v.48zm0-.962h-.723v-.436h.722v.436zM200.74 250.716h-.72v-.48h.72v.48zm0-.963h-.72v-.48h.72v.48zm0-.963h-.72v-.48h.72v.48zm0-.963h-.72v-.48h.72v.48zm0-.962h-.72v-.48h.72v.48zm0-.963h-.72v-.48h.72v.48zm0-.963h-.72v-.482h.72v.48zm0-.964h-.72v-.48h.72v.48zm0-.963h-.72v-.48h.72v.48zm0-.963h-.72v-.48h.72v.48zm0-.963h-.72v-.48h.72v.48zm0-.962h-.72v-.48h.72v.48zm0-.963h-.72v-.48h.72v.48zm0-.963h-.72v-.482h.72v.48zm0-.964h-.72v-.48h.72v.48zm0-.963h-.72v-.48h.72v.48zm0-.963h-.72v-.48h.72v.48zM220.073 258.967h-.722v-.48h.723v.48zm0-.963h-.722v-.48h.723v.48zm0-.963h-.722v-.48h.723v.48zm0-.962h-.722v-.48h.723v.48zm0-.962h-.722v-.48h.723v.48zm0-.963h-.722v-.48h.723v.48zm0-.963h-.722v-.48h.723v.48zm0-.963h-.722v-.48h.723v.48zm0-.963h-.722v-.48h.723v.48zm0-.963h-.722v-.48h.723v.48zm0-.962h-.722v-.48h.723v.48zm0-.963h-.722v-.48h.723v.48zm0-.962h-.722v-.48h.723v.48zm0-.963h-.722v-.48h.723v.48zm0-.963h-.722v-.48h.723v.48zm0-.963h-.722v-.48h.723v.48zm0-.963h-.722v-.48h.723v.48zm0-.962h-.722v-.48h.723v.48zm0-.963h-.722v-.48h.723v.48zm0-.963h-.722v-.48h.723v.48zm0-.962h-.722v-.436h.723v.436z"/><g><path fill="#FCBF60" d="M216.76 250.716h-.72v-.48h.72v.48zm0-.963h-.72v-.48h.72v.48zm0-.963h-.72v-.48h.72v.48zm0-.963h-.72v-.48h.72v.48zm0-.962h-.72v-.48h.72v.48zm0-.963h-.72v-.48h.72v.48zm0-.963h-.72v-.482h.72v.48zm0-.964h-.72v-.48h.72v.48zm0-.963h-.72v-.48h.72v.48zm0-.963h-.72v-.48h.72v.48zm0-.963h-.72v-.48h.72v.48zm0-.962h-.72v-.48h.72v.48zm0-.963h-.72v-.48h.72v.48zm0-.963h-.72v-.482h.72v.48zm0-.964h-.72v-.48h.72v.48zm0-.963h-.72v-.48h.72v.48zm0-.963h-.72v-.48h.72v.48z"/></g><g><path fill="#BAB19B" d="M214.092 257.144l-1.02 6.233-1.66-16.468z"/></g><g><path fill="#BAB19B" d="M202.686 257.144l1.02 6.233 1.66-16.468z"/></g></g><g><path fill="#FC8B60" d="M286.193 357.603h-51.69a7.59 7.59 0 0 1-7.59-7.59v-51.69a7.59 7.59 0 0 1 7.59-7.59h51.69a7.59 7.59 0 0 1 7.59 7.59v51.69a7.59 7.59 0 0 1-7.59 7.59z"/><path fill="#E9E5D9" d="M277.82 349.172a2.306 2.306 0 0 1-2.206 2.967h-30.532a2.306 2.306 0 0 1-2.205-2.968l12.426-41.498h10.09l12.426 41.498zm-5.648-.648a1.17 1.17 0 0 0 1.13-1.5l-4.827-16.72c-1.352 0-1.352 1.524-2.713 1.524-1.36 0-1.36-1.524-2.713-1.524-1.362 0-1.362 1.524-2.714 1.524-1.352 0-1.352-1.524-2.705-1.524-1.35 0-1.35 1.524-2.712 1.524-1.352 0-1.352-1.524-2.705-1.524l-4.828 16.72c-.213.754.352 1.5 1.13 1.5h23.658z"/><path fill="#FC6460" d="M273.303 347.024a1.17 1.17 0 0 1-1.13 1.5h-23.655c-.78 0-1.344-.746-1.13-1.5l4.827-16.72c1.352 0 1.352 1.524 2.705 1.524 1.36 0 1.36-1.524 2.713-1.524 1.352 0 1.352 1.524 2.705 1.524 1.352 0 1.352-1.524 2.713-1.524 1.353 0 1.353 1.524 2.714 1.524 1.36 0 1.36-1.524 2.713-1.524l4.826 16.72z"/><path fill="#BD8864" d="M265.64 296.2c.704 0 1.212.68 1.024 1.36l-2.098 7.344H256.132l-2.098-7.344c-.197-.68.31-1.36 1.025-1.36h10.579z"/><path fill="#D8D0BB" d="M264.565 304.903l.828 2.77h-10.09l.83-2.77h4.21z"/><circle fill="#FC8B60" cx="257.928" cy="333.64" r=".635"/><circle fill="#FC8B60" cx="262.766" cy="332.591" r=".635"/><circle fill="#FC8B60" cx="253.453" cy="332.712" r=".635"/><g><circle fill="#FC8B60" cx="259.198" cy="334.648" r=".635"/></g><g><circle fill="#FC8B60" cx="267.443" cy="332.37" r=".635"/></g><g><circle fill="#FC8B60" cx="255.025" cy="336.079" r=".635"/></g></g><g><path fill="#FCBF60" d="M371.662 265.008h-51.69a7.59 7.59 0 0 1-7.59-7.59v-51.69a7.59 7.59 0 0 1 7.59-7.59h51.69a7.59 7.59 0 0 1 7.59 7.59v51.69a7.59 7.59 0 0 1-7.59 7.59z"/><g fill-rule="evenodd" clip-rule="evenodd"><path fill="#666" d="M335.46 213.56h2.748v36.27h-2.748z"/><path fill="#FFF" d="M336.834 216.766a3.21 3.21 0 0 0 3.205-3.206c0-1.766-1.44-3.205-3.206-3.205s-3.205 1.44-3.205 3.205a3.21 3.21 0 0 0 3.204 3.206z"/><path fill="#C96A5E" d="M347.578 223.838c6.402 1.667 11.177 1.32 14.314-.832l-2.456 7.19 2.456 5.575c-3.137 2.154-7.912 2.5-14.314.833v-12.765z"/><path fill="#B15245" d="M352.55 232.732c-.986 2.645-2.827 3.564-4.97 3.87V223.84l.017-.002c1.777.462 3.428.768 4.953.924v7.972z"/><path fill="#C96A5E" d="M351.923 232.177c-5.093-3.534-11.49-3.213-16.463-.482V218.93c4.974-2.73 11.37-3.052 16.463.482v12.765z"/></g></g><g><path fill="#FCBF60" d="M73.95 227.827H9.468A9.468 9.468 0 0 1 0 218.36v-64.483c0-5.23 4.24-9.468 9.468-9.468H73.95c5.23 0 9.468 4.238 9.468 9.467v64.482c0 5.228-4.24 9.467-9.468 9.467z"/><path fill="#5C2849" d="M43.05 169.35l-30.986 11.445.008 2.72 13.602 3.636.025 8.234s5.402-1.564 17.422-2.362c11.712.666 17.436 2.257 17.436 2.257l-.025-8.234 13.58-3.718-.008-2.72-31.054-11.26z"/><path fill="#FC8B60" d="M71.062 201.89a1.154 1.154 0 0 0-.22-2.286h-.197l-.063-21.06a1.588 1.588 0 1 0-3.178.01l.063 21.06h-.01a1.153 1.153 0 0 0-.37 2.243c-1.566 3.37-2.556 5.877-2.13 6.247 2.996 2.612 5.273 2.605 8.253-.025.42-.372-.566-2.836-2.148-6.19z"/><ellipse transform="translate(-.585 .13)" fill="#A73E5C" cx="43.129" cy="195.331" rx="17.43" ry="5.923"/></g><g><path fill="#BD8864" d="M458.546 358.663h-51.69a7.59 7.59 0 0 1-7.59-7.59v-51.69a7.59 7.59 0 0 1 7.59-7.59h51.69a7.59 7.59 0 0 1 7.59 7.59v51.69a7.59 7.59 0 0 1-7.59 7.59z"/><path fill="#FFF7DF" d="M419.04 305.435V348.555h21.732v-6.644h6.644v-36.475z"/><path fill="#FFF" d="M440.772 348.555l3.322-3.322 3.322-3.322h-6.644z"/><path fill="#5C2849" d="M421.455 311.335H445v1.023h-23.545zM421.455 314.944H445v1.023h-23.545zM421.455 318.553H445v1.023h-23.545zM421.455 322.16H445v1.024h-23.545zM421.455 325.77H445v1.023h-23.545zM421.455 329.378H445v1.023h-23.545zM421.455 332.986H445v1.023h-23.545zM421.455 336.594H445v1.023h-23.545z"/><g><path fill="#FC8B60" d="M439.09 325.005l3.943-3.943 13.71 13.71-3.942 3.944z"/><path fill="#FFDA66" d="M449.827 335.76l3.943-3.942.714.714-3.943 3.943zM439.095 325l3.943-3.94-3.31-.678-1.31 1.31z"/><path fill="#5C2849" d="M438.42 321.69l1.308-1.308-1.645-.335z"/></g></g><g><path fill="#9DBF9F" d="M492.41 223.308h-51.69a7.59 7.59 0 0 1-7.59-7.59v-51.69a7.59 7.59 0 0 1 7.59-7.59h51.69a7.59 7.59 0 0 1 7.59 7.59v51.69a7.59 7.59 0 0 1-7.59 7.59z"/><path fill="#C96A5E" d="M490.345 194.33c4.072-7.11 1.608-16.175-5.502-20.247-7.11-4.072-16.175-1.61-20.247 5.5l-2.983-1.708-4.932 8.612 31.717 18.163 4.932-8.612-2.985-1.708zm-19.908-11.4a8.107 8.107 0 0 1 14.068 8.055l-14.068-8.056z"/><path fill="#5C2849" d="M459.79 184.76l.894.513-1.507 2.63-.894-.512zM461.93 185.966l.896.513-1.507 2.63-.897-.513zM464.06 187.194l.895.512-1.506 2.63-.896-.51zM466.186 188.412l.895.512-1.506 2.632-.894-.512zM468.307 189.618l.895.513-1.508 2.632-.894-.513zM470.418 190.846l.894.513-1.507 2.63-.894-.513zM472.555 192.085l.896.513-1.505 2.632-.895-.512zM474.67 193.282l.894.512-1.507 2.63-.895-.51zM476.81 194.487l.894.512-1.507 2.63-.895-.512zM478.936 195.704l.896.513-1.508 2.63-.895-.512zM481.066 196.933l.895.512-1.505 2.632-.895-.512zM483.172 198.15l.894.513-1.507 2.63-.895-.512zM485.292 199.357l.894.513-1.508 2.63-.894-.512zM487.43 200.596l.895.512-1.507 2.632-.895-.513z"/><g><path fill="#FFDA66" d="M478.962 201.05c-.03-8.195-6.698-14.81-14.89-14.78-8.195.03-14.812 6.696-14.782 14.89l-3.438.012.037 9.924 36.548-.136-.037-9.924-3.438.013zm-22.94.084a8.106 8.106 0 0 1 16.21-.06l-16.21.06z"/><path fill="#5C2849" d="M447.72 208.04h1.03v3.033h-1.03zM450.17 208.032h1.032v3.032h-1.032zM452.62 208.023h1.03v3.032h-1.03zM455.07 208.014h1.03v3.032h-1.03zM457.518 208.005h1.03v3.032h-1.03zM459.968 207.995h1.03v3.032h-1.03zM462.417 207.986h1.032v3.032h-1.033zM464.867 207.977h1.03v3.032h-1.03zM467.317 207.968h1.03V211h-1.03zM469.765 207.96h1.032v3.03h-1.032zM472.215 207.95h1.03v3.03h-1.03zM474.664 207.94h1.03v3.033h-1.03zM477.114 207.932h1.03v3.032h-1.03zM479.563 207.922h1.032v3.032h-1.032z"/></g></g></g></svg>