<?xml version="1.0" encoding="utf-8"?>
<!-- Generator: Adobe Illustrator 17.0.0, SVG Export Plug-In . SVG Version: 6.00 Build 0)  -->
<!DOCTYPE svg PUBLIC "-//W3C//DTD SVG 1.1//EN" "http://www.w3.org/Graphics/SVG/1.1/DTD/svg11.dtd">
<svg version="1.1" id="Слой_1" xmlns="http://www.w3.org/2000/svg" xmlns:xlink="http://www.w3.org/1999/xlink" x="0px" y="0px"
	 width="554.798px" height="440.017px" viewBox="11.154 0.002 554.798 440.017"
	 enable-background="new 11.154 0.002 554.798 440.017" xml:space="preserve">
<g>
	<path fill="#C9CCCC" d="M444.917,388.408"/>
	<path opacity="0.5" fill="#FFFFFF" enable-background="new    " d="M519.509,123.43c0.014-0.254,0.025-0.507,0.03-0.759
		c0.304-16.151-18.552-29.483-42.111-29.777c-23.564-0.294-42.91,12.562-43.212,28.713c-0.005,0.252-0.002,0.506,0.002,0.759
		c-17.157,2.642-30.151,13.106-30.385,25.677c-0.255,13.624,14.424,26.46,33.777,26.701l12.213,0.153l-15.577,32.382l45.791-32.005
		l37.05,0.462c18.081,0.226,31.59-12.96,31.832-25.882C549.155,137.282,536.558,126.499,519.509,123.43z"/>
	<g>
		<path opacity="0.86" fill="#FFFFFF" enable-background="new    " d="M228.324,174.871c-0.506-17.796-20.085-32.51-45.797-36.119
			c0.003-0.36,0.003-0.723-0.007-1.08c-0.651-22.863-29.77-40.915-65.034-40.316c-35.267,0.595-63.327,19.618-62.677,42.481
			c0.01,0.358,0.029,0.72,0.054,1.075c-25.483,4.48-44.206,19.843-43.699,37.639c0.55,19.291,23.385,36.823,52.351,36.33
			l33.039-0.56l89.915,35.662l-39.115-36.522l35.12-0.595C209.537,212.407,228.845,193.167,228.324,174.871z"/>
		<path fill="#F59232" d="M148.403,168.061c0-4.986,0.03-9.788-0.024-14.59c-0.012-1.036,0.23-1.445,1.322-1.361
			c1.217,0.093,2.45,0.064,3.671,0.005c0.886-0.043,1.122,0.314,1.12,1.154c-0.022,10.645-0.026,21.289,0.002,31.934
			c0.002,0.921-0.35,1.117-1.169,1.078c-1.175-0.056-2.356-0.059-3.531-0.003c-1.013,0.048-1.774-0.059-1.266-1.621
			c-1.712,1-3.223,1.695-4.929,1.877c-5.631,0.602-10.207-3.068-10.733-8.728c-0.363-3.9,0.453-7.451,3.716-9.986
			C139.886,165.253,144.747,165.354,148.403,168.061z M148.404,176.913c0-0.857,0.009-1.374-0.002-1.891
			c-0.04-1.912-1.858-4.091-3.8-4.562c-1.867-0.453-3.799,0.462-4.815,2.37c-1.104,2.073-1.139,4.254-0.274,6.397
			c1.312,3.25,4.456,3.985,7.216,1.837C148.252,179.878,148.664,178.375,148.404,176.913z"/>
		<path fill="#F59232" d="M177.908,178.278c-2.258-0.002-4.518,0.038-6.775-0.02c-1.069-0.027-1.221,0.289-0.79,1.215
			c1.688,3.627,6.378,4.295,8.939,1.217c0.298-0.358,0.572-0.407,0.947-0.41c1.505-0.014,3.012,0.003,4.515-0.057
			c1.045-0.041,1.117,0.324,0.638,1.13c-1.836,3.094-4.689,4.734-8.091,5.354c-4.309,0.786-8.315,0.071-11.25-3.518
			c-2.837-3.47-3.016-7.45-1.344-11.425c1.624-3.86,4.939-5.54,8.96-5.84c7.152-0.534,12.069,4.028,12.273,11.246
			c0.024,0.862-0.23,1.148-1.105,1.128C182.52,178.245,180.213,178.28,177.908,178.278z M170.225,174.386
			c2.83,0,5.645-0.047,8.456,0.023c1.125,0.028,0.981-0.45,0.711-1.165c-0.764-2.024-2.854-3.493-4.763-3.33
			C172.367,170.108,170.656,171.81,170.225,174.386z"/>
		<path fill="#F59232" d="M99.39,186.829c-6.267-0.018-10.671-4.358-10.652-10.498c0.02-6.242,4.459-10.474,10.971-10.456
			c6.076,0.017,10.491,4.471,10.46,10.556C110.139,182.516,105.648,186.847,99.39,186.829z M94.933,176.628
			c-0.046,0.692,0.128,1.561,0.463,2.401c0.681,1.708,1.839,2.82,3.752,2.949c1.918,0.129,3.268-0.808,4.096-2.44
			c1.116-2.198,1.099-4.47-0.119-6.616c-1.637-2.884-5.623-2.863-7.319-0.013C95.166,173.986,94.89,175.164,94.933,176.628z"/>
		<path fill="#F59232" d="M121.331,186.827c-6.282-0.019-10.605-4.313-10.592-10.524c0.013-6.298,4.369-10.445,10.953-10.426
			c6.001,0.017,10.428,4.435,10.455,10.433C132.173,182.44,127.642,186.846,121.331,186.827z M126,176.021
			c-0.094-0.71-0.208-1.688-0.629-2.597c-0.783-1.693-2.095-2.63-3.974-2.632c-1.822-0.002-3.114,0.881-3.862,2.547
			c-1.008,2.246-0.951,4.462,0.278,6.599c0.815,1.418,2.078,2.103,3.737,2.053C124.092,181.914,126.03,179.444,126,176.021z"/>
		<path fill="#F59232" d="M71.45,167.177c0.764,0.514,1.35,0.597,2.262-0.041c2.947-2.061,9.292-1.465,11.971,0.94
			c1.445,1.297,2.219,2.919,2.235,4.849c0.033,4.14-0.003,8.281,0.028,12.422c0.006,0.78-0.212,1.101-1.033,1.068
			c-1.315-0.053-2.637-0.061-3.951,0.004c-0.931,0.046-1.219-0.288-1.209-1.211c0.042-3.717,0.046-7.435,0.006-11.151
			c-0.024-2.268-1.13-3.42-3.086-3.372c-1.829,0.045-2.908,1.265-2.925,3.423c-0.028,3.623-0.059,7.247,0.021,10.869
			c0.026,1.204-0.354,1.548-1.507,1.451c-1.168-0.099-2.353-0.063-3.527-0.007c-0.91,0.043-1.219-0.263-1.206-1.208
			c0.052-3.622,0.023-7.246,0.02-10.869c-0.001-1.317-0.248-2.533-1.445-3.334C69.387,169.879,70.662,168.741,71.45,167.177z"/>
		<path fill="#F59232" d="M156.512,169.15c-0.001-5.225,0.025-10.45-0.023-15.675c-0.009-1.021,0.213-1.454,1.316-1.368
			c1.216,0.095,2.448,0.069,3.669,0.006c0.918-0.048,1.252,0.262,1.22,1.2c-0.061,1.787-0.018,3.577-0.018,5.366
			c0,8.708-0.023,17.417,0.026,26.124c0.007,1.169-0.299,1.59-1.483,1.487c-1.121-0.098-2.263-0.091-3.386-0.002
			c-1.051,0.083-1.357-0.252-1.345-1.323C156.544,179.694,156.513,174.422,156.512,169.15z"/>
		<path fill="#383537" d="M71.45,167.177c-0.788,1.564-2.063,2.701-3.345,3.833c-1.552,0.507-2.847,1.621-4.497,1.896
			c-2.078,0.101-4.134-0.027-6.148-0.588c-0.062-0.938-0.192-1.878-0.165-2.814c0.025-0.884-0.313-1.129-1.156-1.103
			c-1.314,0.042-2.631-0.041-3.947-0.055c-0.338-0.004-0.739,0.018-0.856-0.318c-0.129-0.369,0.278-0.603,0.527-0.75
			c1.285-0.756,2.576-1.512,3.91-2.176c4.632-2.307,9.596-3.443,14.701-4.032c1.244-0.143,2.484-0.502,4.206-0.145
			c-2.078,1.554-3.909,2.924-5.772,4.317C69.76,165.892,70.605,166.535,71.45,167.177z"/>
		<path fill="#F59232" d="M57.46,172.319c2.014,0.561,4.07,0.688,6.148,0.588c-0.019,4.002-0.077,8.005-0.031,12.006
			c0.013,1.123-0.219,1.625-1.451,1.521c-1.262-0.107-2.541-0.037-3.812-0.016c-0.592,0.01-0.977-0.075-0.967-0.825
			C57.403,181.168,57.426,176.744,57.46,172.319z"/>
		<path fill="#F59232" d="M51.671,180.953c-1.268-2.476-1.943-5.005-0.68-7.924C51.847,175.755,51.849,178.346,51.671,180.953z"/>
		<path fill="#FEFDFD" d="M148.404,176.913c0.26,1.462-0.152,2.965-1.676,4.151c-2.76,2.148-5.903,1.413-7.216-1.837
			c-0.865-2.142-0.83-4.323,0.274-6.397c1.016-1.908,2.948-2.823,4.815-2.37c1.942,0.471,3.76,2.65,3.8,4.562
			C148.413,175.539,148.404,176.056,148.404,176.913z"/>
		<path fill="#FEFDFD" d="M170.225,174.386c0.431-2.576,2.142-4.278,4.404-4.471c1.909-0.163,3.999,1.306,4.763,3.33
			c0.27,0.715,0.414,1.193-0.711,1.165C175.869,174.339,173.055,174.386,170.225,174.386z"/>
		<path fill="#FEFDFD" d="M94.933,176.628c-0.043-1.465,0.233-2.643,0.873-3.719c1.696-2.849,5.681-2.87,7.319,0.013
			c1.218,2.146,1.235,4.418,0.119,6.616c-0.828,1.632-2.178,2.569-4.096,2.44c-1.913-0.129-3.071-1.241-3.752-2.949
			C95.061,178.19,94.887,177.321,94.933,176.628z"/>
		<path fill="#FEFDFD" d="M126,176.021c0.031,3.423-1.908,5.893-4.45,5.971c-1.658,0.051-2.922-0.635-3.737-2.053
			c-1.228-2.137-1.285-4.353-0.278-6.599c0.748-1.666,2.04-2.549,3.862-2.547c1.879,0.002,3.19,0.939,3.974,2.632
			C125.792,174.333,125.906,175.311,126,176.021z"/>
	</g>
	<g>
		<path opacity="0.86" fill="#FFFFFF" enable-background="new    " d="M249.851,355.837c-0.388-13.626-15.415-24.892-35.15-27.655
			c0.002-0.276,0.002-0.553-0.005-0.827c-0.499-17.506-22.849-31.327-49.914-30.869c-27.068,0.456-48.605,15.021-48.105,32.527
			c0.008,0.274,0.022,0.551,0.041,0.823c-19.558,3.43-33.929,15.193-33.54,28.819c0.422,14.771,17.949,28.195,40.18,27.817
			l25.358-0.428l69.011,27.306l-30.022-27.964l26.955-0.455C235.431,384.577,250.251,369.846,249.851,355.837z"/>
		<g>
			<path fill="#888A8D" d="M168.624,329.399c0,2.258,0,6.775,0,6.775l3.599,0.053c0,0,0.483,0.589,0.741,0.862
				c0,0.018,0-0.033,0-0.015c0,8.963,0,17.926,0,26.889c0,0.018,0,0.035,0,0.053c-0.401,0.446-0.733,0.961-1.165,1.376
				c-1.117,0.041-2.076-0.077-3.176-0.053c0,2.329,0,4.658,0,6.987c-0.847,0-1.694,0-2.541,0c0-0.97,0-1.941,0-2.911
				c-2.133,1.396-4.861,2.655-8.31,2.911c-0.706,0-1.412,0-2.117,0c-5.074-0.448-8.483-2.562-11.222-5.346c0-0.018,0-0.035,0-0.053
				c1.238-1.338,2.238-2.914,2.964-4.764c-1.994,0-3.988,0-5.981,0c-0.018,0-0.035,0-0.053,0c-0.449-1.157-0.861-2.35-1.059-3.758
				c0-0.018,0-0.035,0-0.053c2.263,0.083,4.648,0.046,6.987,0.053c0.018,0,0.035,0,0.053,0c1.253,4.151,5.273,7.767,10.851,6.881
				c4.234-0.672,7.602-4.206,7.887-8.787c0.215-3.469-0.956-5.844-2.7-7.622c-1.442-1.471-3.281-2.669-5.876-2.858
				c-4.964-0.361-7.683,2.223-9.422,5.134c-0.018,0-0.035,0-0.053,0c-0.686-2.719-1.965-4.846-3.546-6.669c0-0.018,0-0.035,0-0.053
				c2.273-2.525,5.506-4.535,9.793-5.187c4.749-0.722,8.917,0.712,11.804,2.752c0-1.906,0-3.811,0-5.717
				c-1.394-0.123-3.017-0.018-4.499-0.053c0-2.276,0-4.552,0-6.828C163.93,329.399,166.277,329.399,168.624,329.399z"/>
			<path fill="#3C6AA0" d="M168.624,329.399c1.447,0,2.894,0,4.34,0c0,2.541,0,5.15,0,7.69c-0.264-0.267-0.741-0.862-0.741-0.862
				l-3.599-0.053C168.624,336.174,168.624,331.658,168.624,329.399z"/>
			<path fill="#5B9CD6" d="M172.964,329.399c4.217,0,8.434,0,12.651,0c0,2.258,0,4.517,0,6.775
				c-1.253,0.035-2.646-0.071-3.811,0.053c2.258,2.823,4.534,5.629,6.828,8.416c2.263-2.783,4.526-5.566,6.775-8.363
				c0.052-0.001,0.041-0.065,0.053-0.106c-1.271,0-2.541,0-3.811,0c0-2.258,0-4.517,0-6.775c5.646,0,11.292,0,16.938,0
				c0,2.258,0,4.517,0,6.775c-1.182,0.035-2.505-0.071-3.599,0.053c-3.927,4.684-7.726,9.494-11.592,14.239
				c3.941,5.022,8.016,9.911,12.016,14.874c1.059,0,2.117,0,3.176,0c0,2.329,0,4.658,0,6.987c-5.646,0-11.292,0-16.938,0
				c0-2.329,0-4.658,0-6.987c1.412,0,2.823,0,4.235,0c-2.265-2.94-4.856-6.013-7.252-8.998c-2.443,2.991-4.864,6.005-7.305,8.998
				c1.429,0,2.858,0,4.287,0c0,2.329,0,4.658,0,6.987c-2.47,0-4.94,0-7.411,0c0-2.311,0-4.623,0-6.934
				c-1.626-0.03-3.511-0.018-5.24-0.053c0-0.441,0-0.882,0-1.323c0-0.018,0-0.035,0-0.053c3.648-4.469,7.275-8.958,10.904-13.445
				c-3.595-4.521-7.236-8.996-10.904-13.445c0-0.018,0-0.035,0-0.053C172.964,334.481,172.964,331.94,172.964,329.399z"/>
			<path fill="#888A8D" d="M181.804,336.227c1.165-0.124,2.558-0.018,3.811-0.053C184.45,336.298,183.057,336.192,181.804,336.227z"
				/>
			<path fill="#888A8D" d="M191.649,336.174c1.271,0,2.541,0,3.811,0c-0.012,0.041-0.002,0.104-0.053,0.106
				C194.278,336.122,192.779,336.333,191.649,336.174z"/>
			<path fill="#888A8D" d="M204.988,336.227c1.094-0.124,2.417-0.018,3.599-0.053C207.494,336.298,206.17,336.192,204.988,336.227z"
				/>
			<path fill="#888A8D" d="M131.73,339.086c0.318-0.088,1.005-0.088,1.323,0C132.612,339.086,132.171,339.086,131.73,339.086z"/>
			<path fill="#9C2C66" d="M121.144,343.426c2.67-2.306,5.841-4.11,10.586-4.34c0.441,0,0.882,0,1.323,0
				c4.672,0.216,7.778,1.997,10.375,4.287c0.225,0.269,0.472,0.516,0.741,0.741c0.084,0.128,0.189,0.234,0.318,0.318
				c0,0.018,0,0.035,0,0.053c-1.712,1.746-2.96,3.956-3.758,6.617c-0.018,0-0.035,0-0.053,0c-1.524-2.799-3.84-4.806-7.887-5.082
				c-0.204-0.005-0.664-0.028-0.9,0c-2.723,0.1-4.51,1.136-6.034,2.435c-0.287,0.243-0.551,0.507-0.794,0.794
				c-0.869,0.984-1.563,2.142-2.011,3.546c5.756,0.053,11.522,0.018,17.256,0.053c-0.253,1.654-0.323,3.869,0,5.505
				c0,0.018,0,0.035,0,0.053c-5.752,0-11.504,0-17.256,0c1.035,3.33,3.235,5.708,6.669,6.617c3.689,0.976,6.898-0.306,8.893-2.064
				c0.239-0.211,0.788-0.665,0.9-0.794c0.547-0.051,1.335,0,1.853,0c0.018,0,0.035,0,0.053,0c0.728,1.866,1.826,3.361,3.017,4.764
				c0,0.018,0,0.035,0,0.053c-2.668,2.854-6.089,4.956-11.222,5.346c-0.547,0-1.094,0-1.641,0c-4.749-0.374-8.358-2.271-10.957-4.87
				s-4.537-6.214-4.817-11.063c0-0.459,0-0.918,0-1.376c0.23-4.746,2.035-7.916,4.34-10.586
				C120.495,344.119,120.831,343.783,121.144,343.426z"/>
			<path fill="#672430" d="M144.487,344.485c1.582,1.824,2.86,3.95,3.546,6.669c-1.007,1.746-1.449,4.854-0.741,7.252
				c-2.339-0.007-4.724,0.03-6.987-0.053c-0.323-1.636-0.253-3.851,0-5.505c0.353,0,0.706,0,1.059,0
				c-0.043-0.54-0.409-1.214-0.635-1.747C141.526,348.441,142.775,346.231,144.487,344.485z"/>
			<path fill="#888A8D" d="M140.676,351.101c0.018,0,0.035,0,0.053,0c0.226,0.533,0.592,1.207,0.635,1.747c-0.353,0-0.706,0-1.059,0
				C140.413,352.25,140.574,351.705,140.676,351.101z"/>
			<path fill="#9C2C66" d="M148.033,351.154c0.018,0,0.035,0,0.053,0c0.495,2.082,0.812,4.938,0.318,7.252c-0.353,0-0.706,0-1.059,0
				c-0.018,0-0.035,0-0.053,0C146.584,356.008,147.026,352.9,148.033,351.154z"/>
			<path fill="#672430" d="M141.417,362.164c1.994,0,3.988,0,5.981,0c-0.726,1.85-1.726,3.426-2.964,4.764
				C143.243,365.525,142.145,364.03,141.417,362.164z"/>
			<path fill="#3C6AA0" d="M172.964,364.017c0,0.441,0,0.882,0,1.323c1.759,0.016,3.631-0.007,5.24,0.053c0,2.311,0,4.623,0,6.934
				c-3.194,0-6.387,0-9.581,0c0-2.329,0-4.658,0-6.987c1.1-0.024,2.059,0.094,3.176,0.053
				C172.231,364.978,172.563,364.463,172.964,364.017z"/>
			<path fill="#888A8D" d="M143.428,343.373c0.269,0.225,0.516,0.472,0.741,0.741C143.9,343.889,143.653,343.642,143.428,343.373z"
				/>
		</g>
	</g>
	<g>
		<path opacity="0.86" fill="#FFFFFF" enable-background="new    " d="M394.997,69.823c-0.415-16.026-16.478-29.278-37.572-32.528
			c0.003-0.324,0.003-0.651-0.006-0.972c-0.534-20.59-24.424-36.847-53.354-36.308c-28.933,0.536-51.954,17.668-51.421,38.258
			c0.008,0.323,0.023,0.648,0.044,0.968c-20.906,4.035-36.267,17.87-35.851,33.897c0.451,17.374,19.186,33.162,42.949,32.718
			l27.106-0.504l35.039,32.117l6.637-32.892l28.813-0.536C379.583,103.627,395.424,86.301,394.997,69.823z"/>
		<g>
			<path fill="#F7F7F7" d="M300.363,97.362c-0.002-0.079-0.003-0.159-0.002-0.238c3.073,0.004,6.145,0.008,9.218,0.012
				c0.002,0.076,0.001,0.151-0.002,0.227C306.505,97.362,303.434,97.362,300.363,97.362z"/>
			<path fill="#049ACC" d="M309.579,97.136c-3.073-0.004-6.145-0.008-9.218-0.012c-8.413-0.35-16.776-1.139-25.017-2.941
				c-3.823-0.836-7.627-1.772-11.157-3.515c-1.227-0.606-2.982-1.065-2.879-2.784c0.097-1.626,1.809-1.894,3.067-2.327
				c3.764-1.296,7.638-2.053,11.672-2.046c-1.213,0.53-2.472,0.977-3.628,1.611c-1.369,0.75-1.371,1.524-0.007,2.298
				c2.897,1.644,6.134,2.301,9.356,2.848c16.064,2.725,32.113,2.724,48.114-0.535c2.226-0.453,4.427-1.045,6.456-2.11
				c0.593-0.311,1.366-0.632,1.32-1.426c-0.039-0.687-0.761-0.947-1.311-1.262c-1.371-0.786-2.94-1.073-4.367-1.778
				c1.926-0.226,3.784,0.239,5.655,0.515c2.669,0.393,5.309,0.923,7.87,1.792c0.5,0.169,0.998,0.357,1.47,0.591
				c0.807,0.401,1.77,0.801,1.862,1.788c0.103,1.095-0.882,1.634-1.678,2.122c-2.597,1.592-5.491,2.467-8.404,3.235
				c-9.146,2.41-18.484,3.478-27.915,3.847C310.42,97.063,310,97.106,309.579,97.136z"/>
			<path fill="#0B0B0B" d="M307.32,62.665c3.289-3.342,6.57-6.692,9.878-10.014c0.329-0.33,0.654-1.134,1.205-0.717
				c0.869,0.657,1.741,1.393,2.244,2.398c0.063,0.126-0.424,0.553-0.684,0.813c-2.545,2.544-5.071,5.109-7.663,7.604
				c-0.708,0.682-0.689,1.046,0.007,1.723c3.036,2.95,5.981,5.994,9.027,8.934c0.775,0.748,0.758,1.214-0.048,1.8
				c-0.169,0.123-0.329,0.277-0.448,0.448c-0.859,1.236-1.553,1.216-2.644,0.065c-3.565-3.76-7.265-7.392-11.099-11.262
				c-0.412,1.903-0.286,3.61-0.356,5.291c-0.183,4.436-0.322,8.874-0.461,13.312c-0.023,0.731,0.018,1.297-1.061,1.271
				c-1.051-0.025-1.045-0.561-1.063-1.31c-0.336-13.952-0.68-27.904-1.042-41.856c-0.019-0.727,0.139-0.991,0.937-1.021
				c2.845-0.109,2.844-0.147,2.844,2.62c0,6.553,0,13.107,0,19.66C307.036,62.503,307.178,62.584,307.32,62.665z"/>
			<path fill="#070707" d="M293.974,72.987c-2.685,3.397-6.058,4.639-9.537,3.595c-3.356-1.007-5.467-4.144-5.326-7.916
				c0.14-3.746,2.319-6.354,5.966-7.203c2.039-0.475,4.103-0.33,6.158-0.301c0.932,0.013,1.134-0.239,1.02-1.155
				c-0.489-3.92-3.854-5.8-7.227-3.874c-0.9,0.514-1.078-0.004-1.46-0.479c-1.77-2.2-1.707-2.426,0.98-3.468
				c5.14-1.994,10.787,1.464,11.414,7.1c0.233,2.092,0.184,4.224,0.142,6.335c-0.06,3.036,0.866,5.628,3.221,7.597
				c0.721,0.603,0.637,0.941,0.022,1.561c-2.23,2.249-2.27,2.27-4.243-0.274C294.75,74.051,294.416,73.582,293.974,72.987z
				 M292.385,66.895c0-0.435-0.014-1.017,0.004-1.597c0.015-0.492-0.113-0.839-0.685-0.822c-2.048,0.06-4.134-0.248-6.118,0.491
				c-2.194,0.817-3.192,3.36-2.273,5.666c0.874,2.191,3.13,3.155,5.331,2.278C291.153,71.911,292.529,69.755,292.385,66.895z"/>
			<path fill="#050505" d="M338.717,72.997c-3.03,3.659-6.74,4.816-10.325,3.311c-2.884-1.21-4.643-4.133-4.535-7.532
				c0.111-3.484,1.837-5.893,4.953-7.013c2.31-0.83,4.7-0.638,7.07-0.598c1.084,0.018,1.292-0.252,1.097-1.324
				c-0.705-3.883-3.898-5.596-7.224-3.717c-0.628,0.355-0.851,0.24-1.268-0.23c-1.9-2.145-1.68-2.964,1.104-3.863
				c5.15-1.664,10.582,1.842,11.099,7.293c0.249,2.624,0.142,5.28,0.262,7.919c0.109,2.403,1.226,4.361,3.01,5.903
				c0.713,0.616,0.828,0.925,0.094,1.641c-2.265,2.211-2.231,2.248-4.227-0.3C339.473,74.032,339.138,73.562,338.717,72.997z
				 M334.545,64.469c-1.371,0.012-2.748-0.03-4.07,0.435c-2.292,0.806-3.353,3.323-2.413,5.715c0.913,2.324,3.314,3.254,5.607,2.172
				c2.44-1.152,3.631-3.171,3.481-5.901C337.016,64.474,337.016,64.474,334.545,64.469z"/>
			<path fill="#050505" d="M261.441,69.572c1.208,1.869,2.745,3.141,4.967,3.413c2.037,0.249,3.775-0.637,4.742-2.444
				c1.038-1.938,0.846-4.101-0.516-5.613c-0.97-1.077-2.208-1.797-3.442-2.515c-1.55-0.902-3.148-1.724-4.579-2.824
				c-3.139-2.414-4.384-5.801-3.351-9.188c1.009-3.308,4.271-5.804,7.973-6.035c2.578-0.161,4.916,0.501,6.912,2.211
				c0.675,0.578,1.166,1.13,0.141,1.825c-0.085,0.058-0.157,0.146-0.214,0.233c-0.915,1.413-1.681,1.811-3.331,0.535
				c-2.967-2.293-6.89-0.83-7.678,2.541c-0.367,1.57,0.238,2.795,1.305,3.849c0.986,0.974,2.203,1.634,3.38,2.343
				c1.312,0.79,2.675,1.51,3.912,2.404c4.322,3.124,5.426,8.037,2.82,12.237c-2.597,4.184-8,5.601-12.542,3.288
				C257.787,73.716,257.695,72.788,261.441,69.572z"/>
			<path fill="#049ACC" d="M289.648,82.731c-1.677,1.548-1.596,1.972,0.375,2.518c3.591,0.995,7.287,1.248,10.989,1.346
				c5.87,0.155,11.737,0.153,17.537-0.975c0.569-0.111,1.153-0.212,1.684-0.431c0.554-0.229,1.404-0.3,1.413-1.059
				c0.007-0.641-0.739-0.816-1.256-1.063c-0.362-0.173-0.735-0.321-1.07-0.572c2.5,0.011,4.904,0.47,7.148,1.547
				c1.292,0.62,1.296,1.44,0.059,2.204c-1.503,0.929-3.202,1.365-4.914,1.7c-11.506,2.25-22.989,2.269-34.434-0.433
				c-1.134-0.268-2.23-0.67-3.221-1.295c-1.183-0.747-1.229-1.467-0.043-2.091C285.609,83.235,287.428,82.715,289.648,82.731z"/>
			<path fill="#050505" d="M348.648,64.32c0-3.597,0.037-7.194-0.024-10.79c-0.017-1.012,0.221-1.337,1.284-1.315
				c2.613,0.055,2.615-0.004,2.615,2.662c0,6.665-0.032,13.33,0.029,19.994c0.011,1.218-0.27,1.745-1.534,1.535
				c-0.412-0.068-0.851-0.059-1.266-0.001c-0.917,0.128-1.135-0.255-1.124-1.135C348.675,71.62,348.648,67.97,348.648,64.32z"/>
			<path fill="#0B0B0B" d="M353.109,45.35c-0.007,1.422-1.093,2.488-2.524,2.478c-1.424-0.01-2.532-1.102-2.531-2.494
				s1.121-2.478,2.552-2.472C352.067,42.868,353.116,43.91,353.109,45.35z"/>
		</g>
	</g>
	<g>
		<g>
			<path fill="#FFDDAD" d="M357.194,219.244c-0.003-0.009-0.006-0.018-0.01-0.026c0.141-0.033,0.037-0.647-0.484-2.022
				c-0.217-0.573-0.469-1.097-0.746-1.592c-1.002-1.796-2.398-3.103-4.321-4.173c0.353-0.417,0.962-0.974,1.904-1.293
				c1.638-0.554,4.143,0.63,5.852,2.179c1.284,1.164,1.896,3.477,2.122,4.556c-0.316,1.263-0.775,3.376-1.96,4.087
				c-0.71,0.425-1.312,0.592-1.746,0.844c-0.049,0.03-0.097,0.062-0.142,0.094C357.594,221.33,357.457,220.493,357.194,219.244z"/>
			<path fill="#FFDDAD" d="M353.994,225.958c0.006-0.066,0.011-0.131,0.012-0.193c0.003-0.238-0.026-0.465-0.096-0.675
				c-0.174-0.518-0.311-1.105-0.542-1.743c-0.001-0.294-0.219-0.935-0.876-1.729c-0.22-0.264-0.48-0.542-0.805-0.831
				c-1.037-0.929-2.793-2.117-4.316-3.089c-0.799-0.508-1.536-0.96-2.066-1.279c-0.003-0.191,0.001-0.417,0.013-0.687
				c0.083-1.657,1.531-3.266,3.147-3.65c1.238-0.293,2.398-0.165,2.706-0.121c0.833,0.411,2.802,1.623,4.014,3.568
				c0.222,0.357,0.422,0.737,0.582,1.143c0.631,1.611,1.237,2.587,1.418,2.546c0.004,0.008,0.007,0.017,0.01,0.026
				c0.263,1.249,0.399,2.085,0.469,2.654c0.008,0.057,0.014,0.114,0.021,0.164c-1.072,2.174-2.973,4.322-3.285,4.334
				C354.262,226.402,354.127,226.227,353.994,225.958z"/>
			<path fill="#FFDDAD" d="M347.883,233.869c-0.749,1.044-1.027,2.141-1.016,3.187c-0.02-0.053-0.036-0.101-0.053-0.146
				c-0.028-0.739,0.098-1.643,0.675-2.427c0.72-0.974-5.178-2.416-6.874-3.858c-1.695-1.443-0.341,0.693-2.437,0.401
				c-0.11-0.015-0.214-0.018-0.314-0.016c-0.529-0.725-1.854-3.085-0.542-5.28c1.486-2.484,2.891-2.69,2.891-2.69
				c0.966-0.011,3.061,0.456,5.827,2.359c1.764,1.213,2.478,1.727,2.83,1.997c0.611,0.653,1.142,1.382,1.396,2.15
				C349.775,230.649,349.125,232.138,347.883,233.869z"/>
			<path fill="#FFDDAD" d="M348.869,227.397c0.199,0.153,0.284,0.228,0.373,0.308c0.89,0.776,0.752,0.17-1.821-2.074
				c-2.155-1.88-5.207-3.256-7.259-3.826c0.058-0.863,0.328-2.049,1.227-3.154c1.464-1.801,3.439-1.523,3.896-1.429
				c0.036,0.014,0.079,0.036,0.124,0.057c0.002-0.001,0.003,0.001,0.003,0.001c0.002-0.001,0.005,0.001,0.006,0.001
				c0.824,0.4,3.183,1.854,4.549,2.829c1.448,1.033,2.685,2.244,3.101,3.141c0.161,0.345,0.303,0.337,0.302,0.096
				c0.23,0.638,0.412,1.145,0.588,1.661c0.151,0.445,0.017,0.908,0.037,0.949c-0.036,0.416-0.169,0.858-0.366,1.295
				c-0.1,0.225-0.218,0.446-0.347,0.661c-1.837-0.935-2.215-0.173-3.015,1.631C350.012,228.778,349.48,228.05,348.869,227.397z"/>
			<path fill="#F2D0AF" d="M362.139,228.605c1.904,3.524,0.226,3.599-1.364,1.97c-0.914-0.938-1.554-1.323-3.465-2.47
				c-1.911-1.149,0.435,2.696-0.499,4.388c-2.899,5.252-3.663,5.071-0.963,0.788c1.763-2.796-0.849-5.565-1.711-5.826
				c-1.338-0.408-0.417-0.659-0.426-1.113c-0.014-0.648,0.926-0.941,1.498-1.259c0.572-0.317,1.693-1.68,1.975-2.55
				c0.281-0.875,1.181-0.862,2.367-1.572c1.185-0.711,1.644-2.824,1.96-4.087c0.075,0.356,0.107,0.578,0.107,0.578
				s0.017-0.077,0.4,0.105c0.127,1.398,0.109,3.59-0.093,3.9C361.574,221.997,360.753,226.034,362.139,228.605z"/>
			<path fill="#F9D7AF" d="M360.564,237.671c-0.604,1.208-2.316,3.294-4.378,4.153c-1.467,0.329-4.018-0.269-6.276-1.372
				c-0.05-1.704,1.132-1.679,3.686-4.327c3.055-3.168,3.243-6.241-0.043-8.066c-0.094-0.051-0.186-0.099-0.272-0.144
				c0.129-0.215,0.247-0.437,0.347-0.661c0.113,0.063,0.276,0.13,0.509,0.201c0.862,0.261,3.474,3.03,1.711,5.826
				c-2.699,4.283-1.936,4.464,0.963-0.788c0.935-1.692-1.412-5.536,0.499-4.388c1.91,1.147,2.55,1.531,3.465,2.47
				c1.59,1.63,3.268,1.555,1.364-1.97c-1.387-2.571-0.565-6.609-0.213-7.148c0.202-0.31,0.22-2.502,0.093-3.9
				c0.326,0.156,0.915,0.496,1.992,1.237c2.039,1.403,2.954,4.074,3.33,5.587c0.095,2.627-0.4,4.559-1.198,5.587
				c-0.798,1.026-0.836,1.224-1.557,1.852s0.418,2.004,3.502-4.077c0.268-0.531,0.482-0.99,0.653-1.395
				c0.369,0.159,0.78,0.289,1.177,0.479c1.023,0.493,2.164,1.352,2.164,1.352l-7.296,13.313c0,0-0.926-0.141-2.129-0.612
				c-0.475-1.776-0.158-3.972-0.61-5.842C361.451,232.567,361.168,236.462,360.564,237.671z"/>
			<path fill="#F2D0AF" d="M356.7,217.196c1.209,3.186,0.176,2.311-0.934-0.524c-1.027-2.619-3.609-4.224-4.595-4.711
				c0.053,0.006,0.083,0.012,0.083,0.012s0.119-0.233,0.38-0.542C354.088,212.796,355.688,214.534,356.7,217.196z"/>
			<path fill="#F2D0AF" d="M346.716,236.605c0,0-7.14-3.825-8.691-5.396c-0.035-0.035-0.092-0.106-0.162-0.2
				c0.101-0.002,0.205,0.002,0.314,0.016c2.096,0.292,0.742-1.844,2.437-0.401c1.696,1.442,7.594,2.884,6.874,3.858
				c-0.577,0.784-0.703,1.688-0.675,2.427C346.747,236.721,346.716,236.605,346.716,236.605z"/>
			<path fill="#F2D0AF" d="M360.564,237.671c0.604-1.208,0.887-5.104,1.483-2.632c0.452,1.87,0.135,4.066,0.61,5.842
				c-0.24-0.095-0.491-0.197-0.763-0.327c-1.632-0.768-3.646,0.411-3.646,0.411s-0.381,0.327-1.823,0.796
				c-0.073,0.024-0.156,0.045-0.239,0.062l0,0C358.248,240.965,359.96,238.879,360.564,237.671z"/>
			<path fill="#F2D0AF" d="M364.586,231.819c0.721-0.628,0.759-0.826,1.557-1.852c0.798-1.028,1.293-2.961,1.198-5.587
				c0.056,0.222,0.099,0.419,0.134,0.586c0.165,0.792,0.663,1.125,1.266,1.381c-0.171,0.405-0.385,0.864-0.653,1.395
				C365.004,233.823,363.865,232.447,364.586,231.819z"/>
			<path fill="#F2D0AF" d="M353.067,223.253c-0.417-0.897-1.654-2.108-3.101-3.141c-1.446-1.033-4.005-2.603-4.681-2.889
				c0.064,0.012,0.1,0.023,0.1,0.023s-0.068-0.236-0.079-0.826c1.538,0.926,4.802,2.952,6.383,4.368
				C353.798,222.673,353.484,224.152,353.067,223.253z"/>
			<path fill="#F2D0AF" d="M347.421,225.631c2.573,2.244,2.712,2.85,1.821,2.074c-0.249-0.218-0.443-0.408-3.203-2.306
				c-2.766-1.903-4.861-2.37-5.827-2.359c0,0-0.102-0.5-0.051-1.235C342.214,222.375,345.266,223.751,347.421,225.631z"/>
			<polygon fill="#181818" points="345.411,217.281 345.409,217.279 345.417,217.282 			"/>
			<polygon opacity="0.4" fill="#181818" enable-background="new    " points="345.411,217.281 345.409,217.279 345.417,217.282 			
				"/>
			<path fill="#FFE4C7" d="M360.227,213.804c-1.64-1.672-4.172-2.81-5.983-1.947c-0.38,0.18-0.715,0.395-1.011,0.621
				c-0.49-0.374-1.018-0.725-1.599-1.047c0.353-0.417,0.962-0.974,1.904-1.293c1.638-0.554,4.143,0.63,5.852,2.179
				c0.692,0.628,1.188,1.588,1.535,2.51C360.729,214.438,360.5,214.084,360.227,213.804z"/>
			<path fill="#FFE4C7" d="M349.838,213.249c-1.501,0.53-2.957,2.117-3.502,3.802c-0.39-0.241-0.743-0.457-1.032-0.63
				c-0.003-0.191,0.001-0.417,0.013-0.687c0.083-1.657,1.531-3.266,3.147-3.65c1.238-0.293,2.398-0.165,2.706-0.121
				c0.329,0.161,0.838,0.452,1.405,0.862C352.128,212.808,351.035,212.825,349.838,213.249z"/>
			<path fill="#FFE4C7" d="M346.599,217.95c0-0.001-0.001-0.001-0.005-0.002c0,0,0,0-0.001-0.001
				c-0.046-0.022-0.09-0.041-0.126-0.056c-0.475-0.066-2.528-0.204-4.242,2.044c-0.556,0.728-0.924,1.464-1.175,2.148
				c-0.311-0.108-0.611-0.202-0.888-0.279c0.058-0.863,0.328-2.049,1.227-3.154c1.464-1.801,3.439-1.523,3.896-1.429
				c0.036,0.014,0.079,0.036,0.124,0.057c0.002-0.001,0.003,0.001,0.003,0.001c0.002-0.001,0.005,0.001,0.006,0.001
				c0.278,0.136,0.736,0.393,1.27,0.712C346.657,217.979,346.625,217.963,346.599,217.95z"/>
			<g>
				<path fill="#FFE4C7" d="M337.948,226.86c-0.538,0.913-0.789,1.81-0.87,2.639c-0.378-1.051-0.551-2.441,0.244-3.769
					c1.486-2.484,2.891-2.69,2.891-2.69c0.291-0.002,0.688,0.039,1.169,0.147C341.287,223.218,339.797,223.724,337.948,226.86z"/>
			</g>
			<path fill="#FFE0BB" d="M346.866,237.057c-0.416-1.323,0.268-2.144,1.016-3.187c3.371-4.693,2.381-7.635,5.67-5.81
				c3.286,1.825,3.098,4.897,0.043,8.066c-2.555,2.647-3.737,2.622-3.686,4.327c-0.046-0.022-0.09-0.043-0.133-0.064
				C347.985,239.492,347.17,237.848,346.866,237.057z"/>
			<g>
				<path fill="#F2D0AF" d="M353.727,235.56c2.538-3.596,2.257-6.661-1.268-7.964c-0.047-0.017-0.089-0.031-0.134-0.045
					c0.331,0.067,0.73,0.232,1.228,0.508c3.286,1.825,3.098,4.897,0.043,8.066c-0.463,0.478-0.877,0.867-1.25,1.195
					C352.743,236.861,353.207,236.298,353.727,235.56z"/>
				<path fill="#F2D0AF" d="M346.866,237.057c-0.416-1.323,0.268-2.144,1.016-3.187c0.021-0.03,0.042-0.059,0.062-0.09
					c-0.064,0.139-0.133,0.28-0.206,0.422c-0.581,1.146-1.132,2.061-0.521,3.305c0.368,0.644,1.222,1.871,2.706,2.578
					c-0.01,0.115-0.017,0.235-0.014,0.368c-0.046-0.022-0.09-0.043-0.133-0.064C347.985,239.492,347.17,237.848,346.866,237.057z"/>
			</g>
		</g>
		<path fill="#0B0B0B" d="M360.453,296.532l1.156,1.416c54.758-6.599,12.293-73.059,12.293-73.059l-0.75,1.368
			C379.893,238.187,406.968,290.087,360.453,296.532z"/>
		<g>
			<path fill="#1E1E1E" d="M371.729,276.908c3.805-5.597,3.757-11.35,2.193-16.383c1.015,4.56,0.649,9.593-2.69,14.504
				c-8.294,12.198-24.225,5.948-24.225,5.948l1.55,1.898C351.507,282.795,364.974,286.844,371.729,276.908z"/>
			<path fill="#1E1E1E" d="M363.662,243.576c0,0,0.383,0.351,0.991,0.981l9.747-17.787c0,0,7.711,12.257,11.702,26.556
				c-3.805-15.087-12.2-28.436-12.2-28.436L363.662,243.576z"/>
		</g>
		<g>
			<rect x="291.039" y="422.438" fill="#0B0B0B" width="16.143" height="3.853"/>
			<rect x="320.849" y="422.438" fill="#0B0B0B" width="16.144" height="3.853"/>
			<g>
				<g>
					<path fill="#091211" d="M296.885,436.765v2.217h8.193v-3.095c-0.751,0.3-6.444,0.704-7.577,0.774
						C297.351,436.669,297.14,436.708,296.885,436.765z"/>
					<path fill="#FDFFFF" d="M290.467,432.973c0.147-0.148,0.147-0.387,0-0.537l-0.912-0.912c-0.207,0.156-0.411,0.308-0.614,0.459
						l0.989,0.99C290.079,433.122,290.319,433.122,290.467,432.973z"/>
					<path fill="#FDFFFF" d="M291.584,431.857c0.147-0.149,0.147-0.389,0-0.537l-0.766-0.765c-0.2,0.156-0.401,0.311-0.605,0.468
						l0.833,0.832C291.195,432.005,291.435,432.005,291.584,431.857z"/>
					<path fill="#FDFFFF" d="M292.7,430.741c0.147-0.149,0.147-0.389,0-0.538l-0.636-0.635c-0.192,0.153-0.391,0.313-0.597,0.475
						l0.696,0.696C292.312,430.888,292.552,430.888,292.7,430.741z"/>
					<path fill="#383537" d="M304.656,427.708v-1.417h-10.492v1.569c0,0-0.891,0.742-2.1,1.708l0.636,0.635
						c0.147,0.149,0.147,0.389,0,0.538c-0.149,0.147-0.389,0.147-0.537-0.002l-0.696-0.696c-0.212,0.167-0.428,0.338-0.649,0.511
						l0.766,0.765c0.147,0.148,0.147,0.388,0,0.537c-0.148,0.147-0.389,0.147-0.537-0.002l-0.833-0.832
						c-0.219,0.169-0.439,0.336-0.658,0.502l0.912,0.912c0.147,0.149,0.147,0.389,0,0.537c-0.149,0.148-0.389,0.148-0.537,0
						l-0.989-0.99c-0.51,0.378-1.005,0.732-1.453,1.035c-2.579,1.745-10.088,0.833-13.275,2.048
						c-3.186,1.214-2.655,4.854-1.517,4.93c1.138,0.075,16.007,0,17.22-0.683c1.062-0.598,5.156-2.129,6.968-2.549
						c0.256-0.058,0.467-0.096,0.616-0.105c1.133-0.07,6.826-0.473,7.577-0.774c0.053-0.021,0.085-0.041,0.085-0.062
						C305.163,431.189,304.947,430.469,304.656,427.708z"/>
				</g>
				<g>
					<path fill="#091211" d="M330.92,436.765v2.217h-8.192v-3.095c0.75,0.3,6.443,0.704,7.576,0.774
						C330.454,436.669,330.665,436.708,330.92,436.765z"/>
					<path fill="#FDFFFF" d="M337.338,432.973c-0.148-0.148-0.148-0.387,0-0.537l0.912-0.912c0.206,0.156,0.41,0.308,0.613,0.459
						l-0.988,0.99C337.726,433.122,337.486,433.122,337.338,432.973z"/>
					<path fill="#FDFFFF" d="M336.222,431.857c-0.147-0.149-0.147-0.389,0-0.537l0.765-0.765c0.2,0.156,0.401,0.311,0.604,0.468
						l-0.833,0.832C336.609,432.005,336.37,432.005,336.222,431.857z"/>
					<path fill="#FDFFFF" d="M335.104,430.741c-0.147-0.149-0.147-0.389,0-0.538l0.636-0.635c0.192,0.153,0.391,0.313,0.597,0.475
						l-0.696,0.696C335.493,430.888,335.253,430.888,335.104,430.741z"/>
					<path fill="#383537" d="M323.148,427.708v-1.417h10.492v1.569c0,0,0.891,0.742,2.1,1.708l-0.636,0.635
						c-0.147,0.149-0.147,0.389,0,0.538c0.149,0.147,0.389,0.147,0.537-0.002l0.696-0.696c0.212,0.167,0.428,0.338,0.649,0.511
						l-0.765,0.765c-0.147,0.148-0.147,0.388,0,0.537c0.148,0.147,0.387,0.147,0.536-0.002l0.833-0.832
						c0.219,0.169,0.439,0.336,0.66,0.502l-0.912,0.912c-0.148,0.149-0.148,0.389,0,0.537c0.148,0.148,0.388,0.148,0.537,0
						l0.988-0.99c0.511,0.378,1.006,0.732,1.454,1.035c2.579,1.745,3.166,0.833,6.352,2.048c3.186,1.214,2.655,4.854,1.517,4.93
						c-1.139,0.075-13.238,0-14.451-0.683c-1.063-0.598-1.004-2.129-2.816-2.549c-0.255-0.058-0.465-0.096-0.616-0.105
						c-1.133-0.07-6.826-0.473-7.576-0.774c-0.053-0.021-0.085-0.041-0.085-0.062C322.642,431.189,322.857,430.469,323.148,427.708z
						"/>
				</g>
			</g>
			<g>
				<path fill="#181818" d="M352.274,352.043c0-0.001,0-0.002,0-0.004l0,0c0-12.362-13.668-22.383-30.527-22.383
					c-16.861,0-30.528,10.021-30.528,22.383c0,1.917,0.33,3.777,0.947,5.552c1.699,9.029,1.537,20.877,1.787,26.663
					c0.387,8.959-1.469,38.185-1.469,38.185h13.63l10.127-56.356c1.786,0.238,3.623,0.369,5.504,0.369
					c1.88,0,3.718-0.131,5.504-0.369l-5.101,56.356h13.631c0,0,4.423-31.297,6.145-38.185c1.405-5.62,7.703-17.638,9.402-26.666
					C351.943,355.814,352.273,353.957,352.274,352.043z"/>
				<path fill="#383537" d="M346.946,371.114c-5.159,0-9.357-4.198-9.357-9.357c0-0.186,0.151-0.337,0.338-0.337
					c0.186,0,0.337,0.151,0.337,0.337c0,4.787,3.894,8.682,8.682,8.682c0.186,0,0.337,0.151,0.337,0.337
					C347.283,370.963,347.132,371.114,346.946,371.114z"/>
				<path fill="#383537" d="M297.084,371.114c-0.187,0-0.338-0.151-0.338-0.338c0-0.186,0.151-0.337,0.338-0.337
					c4.787,0,8.682-3.895,8.682-8.682c0-0.186,0.151-0.337,0.337-0.337s0.337,0.151,0.337,0.337
					C306.441,366.916,302.244,371.114,297.084,371.114z"/>
			</g>
		</g>
		<path fill="#FFFBFC" d="M322.106,294.86v25.43l-13.965-29.213C308.141,291.077,316.414,295.001,322.106,294.86z"/>
		<path fill="#FFFBFC" d="M322.106,294.86v25.43l11.976-28.687C334.082,291.603,327.907,294.856,322.106,294.86z"/>
		<g>
			<polygon fill="#00B0D8" points="332.329,292.275 327.038,298.663 316.455,298.663 311.164,292.275 			"/>
			<polygon fill="#00B0D8" points="327.079,298.663 324.413,331.174 319.08,331.174 316.414,298.663 			"/>
		</g>
		<path fill="#CECECE" d="M298.881,284.35l1.884,11.119l14.409,8.521l2.706-9.539c-2.642-0.522-5.419-1.529-8.736-2.933
			C304.504,289.555,301.179,287.135,298.881,284.35z"/>
		<path opacity="0.4" fill="#0B0B0B" enable-background="new    " d="M320.799,319.762l-2.849-1.155v38.648
			c-12.059,1.234-22.536-0.61-28.055-1.931l0.007,1.555c0,0,14.383,4.9,32.203,3.076v-39.663L320.799,319.762z"/>
		<path opacity="0.2" fill="#121212" enable-background="new    " d="M322.106,320.29l-13.965-29.213
			c-0.473-0.215-0.926-0.438-1.37-0.665c-0.887-0.451-1.712-0.924-2.487-1.413l13.667,28.592v1.015l2.849,1.155L322.106,320.29z"/>
		<g>
			<g>
				<ellipse fill="#0B0B0B" cx="319.192" cy="332.421" rx="1.572" ry="1.539"/>
				<ellipse fill="#0B0B0B" cx="319.192" cy="341.229" rx="1.572" ry="1.539"/>
				<ellipse fill="#0B0B0B" cx="319.192" cy="350.037" rx="1.572" ry="1.539"/>
			</g>
			<g>
				<ellipse fill="#383537" cx="318.49" cy="331.723" rx="1.572" ry="1.539"/>
				<ellipse fill="#383537" cx="318.49" cy="340.531" rx="1.572" ry="1.539"/>
				<ellipse fill="#383537" cx="318.49" cy="349.34" rx="1.572" ry="1.539"/>
			</g>
		</g>
		<polygon fill="#0B0B0B" points="321.785,320.264 321.785,320.285 321.796,320.259 		"/>
		<rect x="322.01" y="320.29" fill="#D3CDCF" width="0.191" height="39.663"/>
		<path fill="#CECECE" d="M326.405,294.339c-0.132,0.034-0.26,0.08-0.395,0.107l1.964,9.366l1.26-0.598l4.847-11.611
			C331.183,292.937,328.696,293.833,326.405,294.339z"/>
		<path fill="#0B0B0B" d="M373.902,224.889l-10.24,18.686c0,0,17.862,16.311,7.571,31.453c-3.453,5.079-8.229,6.954-12.629,7.42
			c-3.689-1.699-7.547-3.062-11.543-3.91c-0.54,1.7-1.253,3.261-2.131,4.668l3.586,14.25l-8.255,4.643l0.723,10.404l-18.877,7.786
			v39.065v0.598c17.819,1.824,32.809-3.53,32.809-3.53l-3.791-57.687l10.485-0.788C416.367,291.349,373.902,224.889,373.902,224.889
			z"/>
		<path fill="#4C4C4C" d="M348.515,297.457l-3.586-14.25c-0.369,0.59-0.765,1.154-1.189,1.69c-1.589,2.01-3.55,3.637-5.828,4.822
			c-1.36,0.708-2.629,1.332-3.831,1.884l-11.976,28.687l18.877-7.786l-0.723-10.404L348.515,297.457z"/>
		<path fill="#0B0B0B" d="M345.533,282.168c-0.201,0.335-0.386,0.72-0.603,1.039l3.586,14.25l-8.255,4.643l0.723,10.404
			l-18.877,7.786v3.064l19.601-8.393l-0.751-11.389l8.571-4.832L345.533,282.168z"/>
		<g>
			<path fill="#FFDDAD" d="M298.895,344.018c1.307-0.239,2.12-1.363,2.277-1.891c0.159-0.53-0.012-1.45-0.536-2.09
				c-0.524-0.638-1.088-0.89-0.755-0.979c0.333-0.088,1.101-0.554,1.357-1.483c0.256-0.931-0.321-2.051-1.52-3.408
				c-1.2-1.358-5.653-1.767-6.303-2.067c-0.649-0.298-2.652-0.396-3.373-1.306c-3.009-3.797-7.056,0.263-8.209,0.837
				c-0.911,0.452-2.321-0.224-3.137-0.505l-4.206,13.14c0,0,5.128,2.496,6.865,3.337c2.6,1.26,3.578,2.132,6.277,2.922
				c2.702,0.789,4.479,0.544,5.835,0.215c1.355-0.327,1.647-1.34,1.704-1.922c0.058-0.582-0.501-0.995-0.086-0.95
				c0.415,0.045,2.305,0.083,3.298-0.498c0.993-0.578,0.906-1.963,0.63-2.569C298.738,344.196,297.587,344.255,298.895,344.018z"/>
			<path opacity="0.7" fill="#F4D2A8" enable-background="new    " d="M298.895,344.018c1.307-0.239,2.12-1.363,2.277-1.891
				c0.027-0.084,0.042-0.179,0.051-0.282c-0.121,0.341-0.337,0.57-0.711,0.544c-0.976-0.068-5.71-2.163-7.394-2.235
				c-0.238-0.011-0.532,0.061-0.843,0.191c-0.315,0.368-0.742,0.748-1.221,1.233c-0.676,0.682-0.34,1.281,0.069,1.84
				c0.49,0.058,1.157,0.043,2.037-0.068c1.541-0.195,3.416,0.463,5.134,0.828C298.334,344.133,298.505,344.088,298.895,344.018z"/>
			<path fill="#F4D2A8" d="M298.385,347.371c0.328-0.191,0.538-0.47,0.662-0.779c-0.234,0.167-0.645,0.242-1.448,0.14
				c-1.387-0.174-4.577-1.816-6.125-1.226c-0.257,0.414-0.609,0.795-0.726,1.485c-0.036,0.219-0.051,0.429-0.055,0.632
				c0.222-0.016,0.495-0.043,0.834-0.081c1.304-0.144,2.24-0.023,3.506,0.324c0.016,0,0.033,0,0.053,0.003
				C295.502,347.914,297.392,347.952,298.385,347.371z"/>
			<path fill="#F4D2A8" d="M294.952,349.626c-1.007,0.207-2.461-0.122-3.736-0.201c-0.224-0.014-0.444-0.003-0.66,0.024
				c-0.032,0.067-0.072,0.13-0.118,0.19c-0.359,0.46-1.22,0.772-1.912,1.029c2.021,0.302,3.984,0.306,4.942,0.075
				C294.298,350.541,294.728,350.084,294.952,349.626z"/>
			<path fill="#F4D2A8" d="M299.791,339.131c0.005-0.032,0.027-0.057,0.091-0.073c0.333-0.088,1.101-0.554,1.357-1.483
				c0.075-0.272,0.07-0.561,0.009-0.865c-0.325,0.401-0.635,0.729-1.325,0.831c-1.078,0.159-3.772-0.642-5.054-0.75
				c-1.283-0.109-2.658,0.313-2.258,0.57c0.399,0.258,1.934,0.588,3.416,0.837C297.08,338.376,298.689,338.839,299.791,339.131z"/>
		</g>
		<g>
			<path fill="#0B0B0B" d="M255.589,330.615c-0.298-0.322-0.586-0.642-0.853-0.959C255.004,329.973,255.292,330.293,255.589,330.615
				z"/>
			<path fill="#0B0B0B" d="M263.032,337.217c-0.421-0.326-0.838-0.653-1.249-0.982C262.194,336.563,262.611,336.89,263.032,337.217z
				"/>
			<path fill="#0B0B0B" d="M264.322,338.199c-0.35-0.263-0.698-0.527-1.044-0.793C263.624,337.672,263.972,337.935,264.322,338.199z
				"/>
			<path fill="#0B0B0B" d="M265.682,339.205c-0.32-0.234-0.638-0.468-0.957-0.706C265.044,338.736,265.362,338.971,265.682,339.205z
				"/>
			<path fill="#0B0B0B" d="M258.997,333.903c-0.376-0.332-0.745-0.663-1.101-0.992C258.252,333.24,258.621,333.572,258.997,333.903z
				"/>
			<path fill="#0B0B0B" d="M272.819,344.119c-0.407-0.266-0.82-0.538-1.241-0.817C271.999,343.581,272.412,343.853,272.819,344.119z
				"/>
			<path fill="#0B0B0B" d="M260.172,334.912c-0.294-0.248-0.583-0.495-0.868-0.743C259.589,334.417,259.878,334.665,260.172,334.912
				z"/>
			<path fill="#0B0B0B" d="M257.715,332.741c-0.292-0.274-0.577-0.545-0.853-0.817C257.139,332.195,257.423,332.467,257.715,332.741
				z"/>
			<path fill="#0B0B0B" d="M261.475,335.985c-0.308-0.249-0.614-0.499-0.915-0.749C260.861,335.486,261.166,335.736,261.475,335.985
				z"/>
			<path fill="#0B0B0B" d="M256.55,331.613c-0.235-0.236-0.462-0.47-0.683-0.704C256.088,331.143,256.316,331.377,256.55,331.613z"
				/>
			<path fill="#0B0B0B" d="M269.98,342.228c-0.32-0.217-0.643-0.439-0.967-0.662C269.338,341.789,269.659,342.01,269.98,342.228z"/>
			<path fill="#0B0B0B" d="M268.653,341.318c-0.863-0.598-1.735-1.215-2.607-1.847C266.918,340.103,267.791,340.719,268.653,341.318
				z"/>
			<path fill="#0B0B0B" d="M271.473,343.232c-0.375-0.251-0.755-0.505-1.14-0.764C270.717,342.728,271.098,342.982,271.473,343.232z
				"/>
			<path fill="#0B0B0B" d="M275.239,345.675c-0.304-0.192-0.617-0.391-0.937-0.597C274.622,345.284,274.935,345.483,275.239,345.675
				z"/>
			<path fill="#0B0B0B" d="M274.016,344.894c-0.31-0.199-0.627-0.404-0.949-0.614C273.389,344.49,273.705,344.694,274.016,344.894z"
				/>
			<path opacity="0.4" fill="#0B0B0B" enable-background="new    " d="M271.577,343.302c-0.035-0.024-0.07-0.048-0.105-0.07
				C271.508,343.254,271.542,343.278,271.577,343.302z"/>
			<path opacity="0.4" fill="#0B0B0B" enable-background="new    " d="M270.333,342.468c-0.117-0.08-0.235-0.16-0.353-0.24
				C270.098,342.308,270.216,342.388,270.333,342.468z"/>
			<path opacity="0.4" fill="#0B0B0B" enable-background="new    " d="M260.56,335.237c-0.13-0.108-0.26-0.216-0.388-0.324
				C260.301,335.021,260.43,335.128,260.56,335.237z"/>
			<path opacity="0.4" fill="#0B0B0B" enable-background="new    " d="M259.304,334.169c-0.102-0.088-0.206-0.178-0.307-0.266
				C259.098,333.992,259.202,334.081,259.304,334.169z"/>
			<path opacity="0.4" fill="#0B0B0B" enable-background="new    " d="M263.279,337.406c-0.082-0.063-0.165-0.126-0.247-0.189
				C263.114,337.28,263.196,337.343,263.279,337.406z"/>
			<path opacity="0.4" fill="#0B0B0B" enable-background="new    " d="M264.725,338.499c-0.134-0.1-0.269-0.2-0.403-0.301
				C264.456,338.299,264.591,338.399,264.725,338.499z"/>
			<path opacity="0.4" fill="#0B0B0B" enable-background="new    " d="M269.013,341.566c-0.12-0.083-0.239-0.164-0.36-0.248
				C268.774,341.402,268.893,341.483,269.013,341.566z"/>
			<path opacity="0.4" fill="#0B0B0B" enable-background="new    " d="M261.783,336.234c-0.104-0.083-0.205-0.166-0.308-0.249
				C261.578,336.068,261.679,336.151,261.783,336.234z"/>
			<path opacity="0.4" fill="#0B0B0B" enable-background="new    " d="M266.047,339.471c-0.122-0.088-0.243-0.177-0.365-0.266
				C265.804,339.294,265.925,339.383,266.047,339.471z"/>
			<path opacity="0.4" fill="#0B0B0B" enable-background="new    " d="M275.362,345.754c-0.003-0.002-0.005-0.004-0.008-0.006
				c-0.038-0.024-0.077-0.049-0.115-0.073C275.278,345.7,275.322,345.729,275.362,345.754z"/>
			<path opacity="0.4" fill="#0B0B0B" enable-background="new    " d="M257.896,332.911c-0.062-0.057-0.119-0.114-0.18-0.17
				C257.776,332.798,257.834,332.854,257.896,332.911z"/>
			<path opacity="0.4" fill="#0B0B0B" enable-background="new    " d="M273.067,344.28c-0.084-0.054-0.165-0.106-0.248-0.161
				C272.902,344.173,272.983,344.226,273.067,344.28z"/>
			<path opacity="0.4" fill="#0B0B0B" enable-background="new    " d="M274.302,345.078c-0.095-0.06-0.191-0.123-0.286-0.184
				C274.112,344.956,274.207,345.018,274.302,345.078z"/>
			<path opacity="0.4" fill="#0B0B0B" enable-background="new    " d="M256.862,331.924c-0.105-0.104-0.208-0.208-0.312-0.311
				C256.654,331.716,256.757,331.82,256.862,331.924z"/>
			<path opacity="0.4" fill="#0B0B0B" enable-background="new    " d="M255.867,330.909c-0.093-0.099-0.187-0.196-0.278-0.295
				C255.68,330.713,255.774,330.811,255.867,330.909z"/>
			<path fill="#0B0B0B" d="M258.892,332.355c-7.239-8.573-7.195-13.627,1.799-23.748c8.367-9.416,20.583-21.714,36.904-26.016
				c-0.678-1.054-1.231-2.151-1.67-3.29c-17.574,3.646-30.602,16.719-39.389,26.607c-8.994,10.12-9.038,15.175-1.799,23.748
				c0.267,0.317,0.555,0.637,0.853,0.959c0.09,0.098,0.185,0.196,0.278,0.295c0.221,0.233,0.449,0.468,0.683,0.704
				c0.104,0.103,0.206,0.207,0.312,0.311c0.277,0.271,0.561,0.543,0.853,0.817c0.061,0.057,0.118,0.113,0.18,0.17
				c0.356,0.329,0.725,0.661,1.101,0.992c0.101,0.088,0.205,0.178,0.307,0.266c0.285,0.248,0.574,0.495,0.868,0.743
				c0.129,0.108,0.258,0.216,0.388,0.324c0.301,0.25,0.606,0.499,0.915,0.749c0.103,0.083,0.204,0.166,0.308,0.249
				c0.411,0.329,0.828,0.656,1.249,0.982c0.082,0.063,0.165,0.126,0.247,0.189c0.346,0.266,0.693,0.53,1.044,0.793
				c0.134,0.1,0.269,0.2,0.403,0.301c0.319,0.237,0.637,0.472,0.957,0.706c0.122,0.089,0.243,0.178,0.365,0.266
				c0.872,0.632,1.744,1.249,2.607,1.847c0.12,0.084,0.24,0.166,0.36,0.248c0.324,0.223,0.646,0.445,0.967,0.662
				c0.118,0.08,0.236,0.16,0.353,0.24c0.384,0.259,0.765,0.514,1.14,0.764c0.035,0.022,0.07,0.046,0.105,0.07
				c0.421,0.279,0.835,0.551,1.241,0.817c0.084,0.054,0.165,0.107,0.248,0.161c0.322,0.21,0.638,0.415,0.949,0.614
				c0.096,0.062,0.191,0.124,0.286,0.184c0.32,0.206,0.633,0.404,0.937,0.597c0.038,0.024,0.077,0.049,0.115,0.073
				C269.558,341.879,262.643,336.797,258.892,332.355z"/>
			<path opacity="0.4" fill="#0B0B0B" enable-background="new    " d="M258.892,332.355c-7.239-8.573-7.195-13.627,1.799-23.748
				c8.367-9.416,20.583-21.714,36.904-26.016c-0.678-1.054-1.231-2.151-1.67-3.29c-17.574,3.646-30.602,16.719-39.389,26.607
				c-8.994,10.12-9.038,15.175-1.799,23.748c0.267,0.317,0.555,0.637,0.853,0.959c0.09,0.098,0.185,0.196,0.278,0.295
				c0.221,0.233,0.449,0.468,0.683,0.704c0.104,0.103,0.206,0.207,0.312,0.311c0.277,0.271,0.561,0.543,0.853,0.817
				c0.061,0.057,0.118,0.113,0.18,0.17c0.356,0.329,0.725,0.661,1.101,0.992c0.101,0.088,0.205,0.178,0.307,0.266
				c0.285,0.248,0.574,0.495,0.868,0.743c0.129,0.108,0.258,0.216,0.388,0.324c0.301,0.25,0.606,0.499,0.915,0.749
				c0.103,0.083,0.204,0.166,0.308,0.249c0.411,0.329,0.828,0.656,1.249,0.982c0.082,0.063,0.165,0.126,0.247,0.189
				c0.346,0.266,0.693,0.53,1.044,0.793c0.134,0.1,0.269,0.2,0.403,0.301c0.319,0.237,0.637,0.472,0.957,0.706
				c0.122,0.089,0.243,0.178,0.365,0.266c0.872,0.632,1.744,1.249,2.607,1.847c0.12,0.084,0.24,0.166,0.36,0.248
				c0.324,0.223,0.646,0.445,0.967,0.662c0.118,0.08,0.236,0.16,0.353,0.24c0.384,0.259,0.765,0.514,1.14,0.764
				c0.035,0.022,0.07,0.046,0.105,0.07c0.421,0.279,0.835,0.551,1.241,0.817c0.084,0.054,0.165,0.107,0.248,0.161
				c0.322,0.21,0.638,0.415,0.949,0.614c0.096,0.062,0.191,0.124,0.286,0.184c0.32,0.206,0.633,0.404,0.937,0.597
				c0.038,0.024,0.077,0.049,0.115,0.073C269.558,341.879,262.643,336.797,258.892,332.355z"/>
			<polygon fill="#0B0B0B" points="295.643,297.613 295.29,299.486 303.493,304.099 303.631,302.106 			"/>
			<polygon fill="#0B0B0B" points="295.643,297.613 295.29,299.486 303.493,304.099 303.631,302.106 			"/>
			<path fill="#0B0B0B" d="M320.799,319.762l-17.839-7.231l-0.054-0.021l0.586-8.411l-8.203-4.613l0.353-1.873l-0.267-0.15
				l2.675-14.195c-0.158-0.222-0.311-0.449-0.457-0.676c-16.321,4.302-28.536,16.601-36.904,26.016
				c-8.994,10.121-9.038,15.175-1.799,23.748c3.751,4.442,10.666,9.524,16.462,13.393c3.332,2.107,5.659,3.449,5.659,3.449
				l1.028-19.542c0,0-11.008-3.415-14.403-5.681c-6.603-4.408-6.765-6.292,2.223-13.176c7.927-6.072,23.915-9.081,23.915-9.081
				l-3.871,55.16c0,0,14.383,4.9,32.203,3.076v-39.663L320.799,319.762z"/>
			<polygon fill="#0B0B0B" points="302.822,314.511 322.106,322.446 322.106,320.27 320.799,319.74 302.96,312.51 			"/>
			<path fill="#4C4C4C" d="M308.141,291.077c-0.473-0.215-0.926-0.438-1.37-0.665c-3.801-1.933-6.561-4.23-8.485-6.822
				c-0.079-0.108-0.158-0.216-0.235-0.324l-2.675,14.195l0.267,0.15l7.987,4.493l-0.138,1.994l-0.586,8.411l0.054,0.021
				l17.839,7.231l1.306,0.529L308.141,291.077z"/>
		</g>
		<g>
			<path fill="none" d="M297.971,282.571c0.001,0.028,0.001,0.061,0.002,0.097C297.973,282.642,297.973,282.608,297.971,282.571z"/>
			<path fill="#0B0B0B" d="M297.97,282.534c0,0.018,0,0.022,0.001,0.037C297.97,282.551,297.97,282.534,297.97,282.534z"/>
			
				<ellipse transform="matrix(0.0171 -0.9999 0.9999 0.0171 28.9524 549.4502)" fill="#F2D1AA" cx="293.94" cy="259.999" rx="7.189" ry="5.72"/>
			
				<ellipse transform="matrix(0.2123 -0.9772 0.9772 0.2123 20.2185 546.7926)" fill="#F2D1AA" cx="349.279" cy="260.855" rx="7.188" ry="7.433"/>
			<path fill="#FFDDAD" d="M294.997,242.298c1.372-19.301,0.294-23.308,10.426-16.005c7.107,5.126,25.352,3.126,33.471,3.126
				c13.748,0,11.325,13.085,11.478,18.868c0.071,2.73,0,18.755,0,22.327c0,9.268-14.731,28.759-28.533,25.728
				c-12.204-2.681-19.473-6.631-23.87-13.667c-1.411-2.259-3.328-2.511-4.701-17.448
				C292.943,261.671,294.802,245.032,294.997,242.298z"/>
			<g>
				<path fill="#3F2C38" d="M300.987,251.034c0,2.695,2.186,3.451,4.88,3.451c2.697,0,4.882-0.756,4.882-3.451
					c0-2.694-2.184-4.882-4.882-4.882C303.172,246.151,300.987,248.339,300.987,251.034z"/>
				
					<ellipse transform="matrix(-0.7076 0.7066 -0.7066 -0.7076 695.5582 210.2812)" fill="#DEDEE6" cx="304.272" cy="249.051" rx="2.508" ry="1.453"/>
			</g>
			<g>
				<path fill="#3F2C38" d="M328.077,251.816c0,2.695,2.186,3.451,4.88,3.451c2.697,0,4.882-0.756,4.882-3.451
					c0-2.694-2.184-4.882-4.882-4.882C330.262,246.934,328.077,249.122,328.077,251.816z"/>
				
					<ellipse transform="matrix(-0.7076 0.7066 -0.7066 -0.7076 742.3718 192.4731)" fill="#DEDEE6" cx="331.363" cy="249.833" rx="2.508" ry="1.453"/>
			</g>
			<polygon fill="#6E4F39" points="328.757,237.966 342.33,241.333 342.589,240.511 329.276,236.319 			"/>
			<polygon fill="#6E4F39" points="298.708,240.64 311.866,235.831 312.56,237.737 299.141,241.82 			"/>
			<path opacity="0.5" fill="#EAC69F" enable-background="new    " d="M295.711,231.499c0.744-9.752,1.868-10.885,9.713-5.231
				c7.107,5.126,25.352,3.126,33.471,3.126c13.748,0,11.325,13.084,11.478,18.866c0.004,0.106,0.004,0.236,0.006,0.378
				c-0.383-6.349-0.247-18.336-13.638-17.136c-1.343,0.12-16.498,1.825-22.093,2.184
				C308.144,234.041,298.756,233.26,295.711,231.499z"/>
			<path fill="#642D13" d="M293.072,221.484c0.003,0.001,1.483,1.702,3.563,3.583c0.003,0.003,0.003,0.005,0.005,0.006
				c-0.453,1.418-0.71,3.543-0.929,6.426c-0.001,0-0.004,0.004-0.004,0.004c-1.25-0.72-1.816-0.589-3.669-2.5
				c0.076-1.788,0.175-3.559,0.306-5.298C292.505,223.078,292.828,222.088,293.072,221.484z"/>
			<path fill="#EAC69F" d="M314.536,260.663c0.212-0.196,0.539-0.181,0.734,0.03c0.193,0.212,0.177,0.54-0.034,0.734
				c-1.965,1.797-1.788,3.582-0.967,4.659c1.052,1.378,3.453,2.029,5.833,0.527c0.242-0.154,0.562-0.08,0.715,0.161
				c0.154,0.244,0.082,0.561-0.163,0.716c-2.898,1.832-5.878,0.966-7.21-0.776C312.397,265.343,312.054,262.933,314.536,260.663z"/>
			<g>
				<path fill="#492B1C" d="M350.373,248.287c-0.153-5.784,2.271-18.868-11.478-18.868c-8.119,0-26.364,2.001-33.471-3.126
					c-10.132-7.304-9.054-3.296-10.426,16.005c-0.172,2.42-0.645,6.611-1.312,11.956c-1.643-8.46-1.797-8.089-1.797-18.29
					c0-2.291,0.05-4.552,0.142-6.78c0.077-1.853,0.18-3.683,0.317-5.484c2.473-9.58,13.167-18.292,28.078-18.292
					c0.786,0,1.561,0.028,2.332,0.067c0.771-0.039,1.546-0.067,2.331-0.067c14.912,0,27.291,7.287,29.766,16.867
					c0.135,1.8,0.239,3.629,0.315,5.482c0.091,2.229,0.142,4.489,0.142,6.783c0,14.509-4.938,30.702-4.938,29.938
					C350.373,260.909,350.444,251.017,350.373,248.287z"/>
				<path fill="#664128" d="M353.662,210.086c-9.169-8.594-16.16-10.273-27.037-9.497c-4.267-3.093-6.964-7.088-6.407-13.146
					c0.655-7.145-9.753,1.115-15.584,10.783c-1.539,3.578-1.539,12.433-0.643,15.345c0.861,2.802-5.389-8.69-4.894-22.824
					c-3.716-5.374-11.251,16.343-7.717,27.391c0.701,2.196,2.565,4.798,3.8,5.868c0.437,0.38,0.933,0.729,1.463,1.063
					c1.074-3.366,3.266-2.75,8.78,1.224c3.273,2.361,8.911,3.208,14.832,3.438c5.098,0.143,9.157-0.034,10.204-0.053
					c1.451-0.05,2.841-0.106,4.131-0.153c1.617-0.061,3.077-0.107,4.305-0.107c13.748,0,11.325,13.085,11.478,18.868
					c0.071,2.73,0,12.621,0,16.193c0,0.764,5.308-11.428,7.301-25.8C358.648,231.644,360.634,217.249,353.662,210.086z"/>
				<path fill="#492B1C" d="M303.991,213.572c-0.896-2.913-0.896-11.767,0.643-15.345c-2.108-1.41-3.818-3.463-4.983-6.426
					c-0.17-0.437-0.358-0.773-0.554-1.053C298.602,204.882,304.852,216.375,303.991,213.572z"/>
			</g>
			<g>
				<path fill="#731300" d="M324.862,281.338c0.125,1.721-2.379,2.427-5.517,2.654c-3.138,0.229-5.72-0.108-5.844-1.826
					c-0.125-1.723,2.252-4.173,5.389-4.401C322.03,277.537,324.738,279.618,324.862,281.338z"/>
				<path fill="#FFFFFF" d="M313.515,282.248c0.202,1.648,2.746,1.968,5.83,1.744c2.64-0.196,4.828-0.727,5.379-1.914
					C321.569,281.869,316.737,282.067,313.515,282.248z"/>
				<path fill="#B86633" d="M319.377,284.429c-4.115,0.298-6.18-0.428-6.314-2.232c-0.145-2.003,2.408-4.621,5.799-4.871
					c3.387-0.245,6.292,1.976,6.44,3.982C325.43,283.106,323.494,284.128,319.377,284.429z M318.924,278.2
					c-2.992,0.219-5.087,2.54-4.987,3.935c0.11,1.491,2.983,1.597,5.376,1.421c2.393-0.179,5.224-0.695,5.113-2.185
					C324.324,279.975,321.914,277.984,318.924,278.2z"/>
			</g>
		</g>
		<circle fill="#FDFFFF" cx="326.555" cy="323.882" r="1.539"/>
		<circle fill="#FDFFFF" cx="326.555" cy="331.496" r="1.539"/>
		<circle fill="#FDFFFF" cx="326.555" cy="339.11" r="1.539"/>
		<circle fill="#FDFFFF" cx="326.555" cy="346.724" r="1.539"/>
	</g>
	<g>
		<path opacity="0.75" fill="#FFFFFF" enable-background="new    " d="M535.732,280.645c0.014-0.255,0.026-0.508,0.031-0.761
			c0.313-16.191-19.063-29.556-43.269-29.85c-24.212-0.294-44.09,12.592-44.4,28.784c-0.005,0.252-0.002,0.507,0.002,0.761
			c-17.629,2.649-30.98,13.138-31.221,25.74c-0.262,13.657,14.82,26.525,34.705,26.768l12.549,0.152l-16.004,32.462l47.05-32.084
			l38.068,0.463c18.578,0.226,32.459-12.993,32.707-25.946C566.192,294.531,553.249,283.722,535.732,280.645z"/>
		<path fill="#B6924C" d="M516.893,274.795c0.002,0.307,0.004,0.615,0.005,0.921c0.105,3.882,0.644,7.724,1.055,11.58
			c0.515,4.83,0.918,9.673,1.412,14.505c0.375,3.67-0.811,5.601-3.855,5.918c-2.13,0.222-4.28,0.256-6.416,0.429
			c-4.378,0.355-8.756,0.72-13.129,1.13c-4.373,0.41-8.741,0.879-13.11,1.324c-3.046,0.311-6.094,0.612-9.137,0.946
			c-1.693,0.186-3.36,0.312-4.819-0.825c-0.839-0.697-0.97-1.694-1.066-2.673c-0.904-9.233-1.787-18.469-2.688-27.702
			c-0.075-0.77-0.085-1.504,0.391-2.161c0.047,2.359,0.047,2.359,2.394,2.266c0.384,3.804,0.788,7.607,1.147,11.413
			c0.484,5.134,0.922,10.272,1.406,15.406c0.107,1.134,0.733,1.756,1.949,1.782c2.51,0.055,4.954-0.508,7.433-0.738
			c7.967-0.739,15.928-1.551,23.892-2.328c3.693-0.361,7.391-0.68,11.08-1.077c1.184-0.127,2.172-0.635,2.022-2.101
			c-0.4-3.921-0.925-7.833-1.209-11.763c-0.346-4.801-1.193-9.559-1.208-14.387C515.981,276.986,516.517,275.996,516.893,274.795z"
			/>
		<path fill="#F5CF54" d="M467.93,280.454c-2.347,0.094-2.347,0.094-2.394-2.266c0.43-1.511,1.575-2.066,3-2.204
			c7.228-0.703,14.463-1.34,21.684-2.114c3.794-0.407,7.646-0.224,11.388-0.834c3.432-0.559,6.876-0.851,10.318-1.206
			c2.875-0.297,3.72,0.306,4.967,2.967c-0.376,1.199-0.912,2.189-2.45,1.865c-0.407-1.245-1.018-2.226-2.566-2.074
			c-3.817,0.376-7.635,0.736-11.452,1.11c-5.575,0.546-11.148,1.097-16.723,1.647c-0.229,0.019-0.458,0.037-0.687,0.056
			c-0.438,0.039-0.876,0.078-1.315,0.118c-2.277-0.012-4.536,0.168-6.765,0.654c-0.253,0.052-0.506,0.104-0.759,0.156
			c-0.177,0.003-0.353,0.006-0.53,0.009c-1.203,0.001-2.325,0.592-3.558,0.442C468.859,278.63,468.109,279.199,467.93,280.454z"/>
		<path fill="#868788" d="M493.156,319.591c1.751-0.842,3.094-0.61,4.049,0.958c0.354,0.582,0.679,0.529,1.042,0.013
			c0.903-1.28,2.129-1.826,3.633-1.324c1.513,0.505,2.101,1.729,2.068,3.617c1.009-1.585,2.39-1.536,3.854-1.534
			c-0.367-1.014-1.107-0.836-1.739-0.801c-0.528,0.029-1.142,0.211-1.216-0.545c-0.074-0.761,0.664-0.701,1.117-0.806
			c2.014-0.467,3.293,0.498,3.437,2.54c0.209,2.961-0.769,3.765-3.729,3.179c-0.932-0.185-1.18-1.013-1.727-1.551
			c-2.469,2.164-3.211,2.196-5.755,0.104c-0.587-0.482-0.739-0.127-1.071,0.238c-0.909,0.998-3.986,1.635-5.061,1.092
			c-0.535-0.27-0.427-0.78-0.431-1.222c-0.017-1.684-0.022-3.369,0-5.053c0.008-0.607-0.145-1.44,0.837-1.388
			c0.89,0.047,0.567,0.84,0.633,1.364C493.134,318.754,493.13,319.042,493.156,319.591z M500.937,323.774
			c1.026-0.151,1.614-0.734,1.578-1.757c-0.035-1.004-0.615-1.665-1.654-1.653c-1.062,0.012-1.596,0.76-1.576,1.724
			C499.305,323.063,499.91,323.682,500.937,323.774z M496.061,322.073c-0.048-0.953-0.419-1.719-1.515-1.705
			c-0.981,0.013-1.425,0.697-1.445,1.62c-0.022,1.006,0.442,1.737,1.505,1.736C495.581,323.724,495.995,323.024,496.061,322.073z
			 M507.88,322.974c-0.077-0.655-0.583-0.61-1.026-0.616c-0.524-0.007-1.092,0.022-1.145,0.718
			c-0.046,0.596,0.396,0.777,0.897,0.774C507.214,323.848,507.736,323.673,507.88,322.974z"/>
		<path fill="#868788" d="M468.899,310.724c1.459,1.137,3.126,1.011,4.819,0.825c3.044-0.334,6.091-0.635,9.137-0.946
			c4.37-0.446,8.737-0.914,13.11-1.324c4.373-0.41,8.751-0.776,13.129-1.13c2.136-0.173,4.286-0.207,6.416-0.429
			c3.044-0.318,4.23-2.249,3.855-5.918c-0.494-4.833-0.897-9.675-1.412-14.505c-0.411-3.856-0.95-7.698-1.055-11.58
			c0.517,0.12,0.521,0.523,0.561,0.944c0.813,8.552,1.636,17.103,2.454,25.655c0.039,0.405,0.051,0.812,0.066,1.219
			c0.107,2.991-0.965,4.349-3.912,4.672c-4.04,0.444-8.093,0.77-12.139,1.159c-10.402,1-20.803,2.012-31.206,3.004
			C471.169,312.517,469.722,312.322,468.899,310.724z"/>
		<path fill="#868788" d="M513.97,320.272c1.09-1.128,2.336-1.746,3.787-0.668c0.411-0.637,0.246-1.173,0.285-1.681
			c0.033-0.438,0.112-0.827,0.66-0.837c0.499-0.008,0.767,0.291,0.771,0.754c0.019,2.09,0.017,4.18,0.004,6.27
			c-0.002,0.29-0.159,0.712-0.442,0.65c-1.264-0.277-2.539,0.489-3.754-0.005c-1.365-0.555-1.782-1.728-1.701-3.129
			c0.019-0.329,0.121-0.747-0.314-0.888c-0.441-0.143-0.772,0.134-1.069,0.428c-0.604,0.598-0.509,1.37-0.567,2.121
			c-0.044,0.559,0.365,1.486-0.638,1.504c-1.16,0.022-0.629-0.998-0.724-1.59c-0.073-0.453-0.014-0.927-0.014-1.391
			c0-2.658,0.194-2.819,2.719-2.672C513.757,319.185,513.511,319.937,513.97,320.272z M518.044,322.054
			c-0.064-0.945-0.45-1.651-1.43-1.685c-1.091-0.038-1.525,0.698-1.531,1.696c-0.005,0.931,0.438,1.625,1.404,1.658
			C517.564,323.761,517.978,323.011,518.044,322.054z"/>
		<path fill="#868788" d="M474.146,322.84c0.732-1.732,2.277-1.393,3.677-1.603c-0.448-1.07-1.267-0.712-1.952-0.68
			c-0.441,0.021-0.85,0.016-0.954-0.496c-0.11-0.543,0.347-0.658,0.724-0.806c2.02-0.79,3.815,0.372,3.791,2.568
			c-0.011,0.98,0.576,2.668-0.414,2.821c-1.591,0.246-3.611,1.132-4.879-0.926c-0.516,0.448-0.582,1.416-1.448,1.072
			c-0.716-0.284-0.427-1.002-0.438-1.54c-0.033-1.624-0.021-3.25-0.005-4.875c0.005-0.551-0.156-1.31,0.737-1.274
			c0.813,0.033,0.75,0.751,0.755,1.325c0.013,1.384,0.004,2.768,0.004,4.151C473.877,322.665,474.012,322.753,474.146,322.84z
			 M478.086,322.988c-0.041-0.679-0.555-0.654-1.007-0.667c-0.591-0.017-1.251,0.01-1.343,0.76c-0.09,0.728,0.512,0.805,1.053,0.801
			C477.411,323.878,477.922,323.669,478.086,322.988z"/>
		<path fill="#868788" d="M465.26,321.047c-0.001-0.174-0.001-0.348-0.001-0.523c0.001-3.314,0.643-3.819,3.95-3.108
			c1.555,0.335,2.18,1.283,1.676,2.776c-0.191,0.566-0.147,0.885,0.165,1.393c0.943,1.535,0.305,2.942-1.464,3.185
			c-1.141,0.157-2.317,0.062-3.478,0.084c-0.713,0.014-0.862-0.42-0.852-1.021C465.271,322.906,465.26,321.976,465.26,321.047z
			 M468.297,321.651c-0.705,0.123-1.72-0.367-1.713,1.024c0.005,1.022,0.641,1.093,1.373,1.053c0.835-0.045,1.958,0.111,2.08-1.007
			C470.168,321.528,469.051,321.747,468.297,321.651z M467.824,320.626c0.81-0.036,1.799-0.006,1.842-1.086
			c0.037-0.928-0.867-0.93-1.56-0.95c-0.736-0.022-1.556-0.19-1.531,1.041C466.594,320.562,467.103,320.669,467.824,320.626z"/>
		<path fill="#868788" d="M487.193,321.269c2.433-1.956,2.433-1.956,3.369-1.772c-1.383,2.17-1.383,2.17,0.271,5.05
			c-1.207,0.345-1.195,0.335-2.11-0.839c-0.266-0.341-0.392-0.975-0.963-0.856c-0.541,0.113-0.565,0.664-0.563,1.137
			c0.003,0.55-0.185,0.901-0.811,0.838c-0.574-0.057-0.565-0.489-0.566-0.897c-0.005-1.971-0.004-3.943-0.002-5.914
			c0-0.431,0.066-0.823,0.622-0.852c0.655-0.034,0.753,0.396,0.754,0.906C487.193,319.054,487.193,320.037,487.193,321.269z"/>
		<path fill="#868788" d="M483.22,319.037c0.247,0.072,0.712,0.151,1.122,0.345c0.403,0.191,0.906,0.437,0.582,1.045
			c-0.228,0.427-0.567,0.486-1.026,0.263c-0.804-0.391-1.612-0.405-2.17,0.414c-0.429,0.63-0.414,1.359,0.048,1.966
			c0.576,0.756,1.34,0.877,2.158,0.363c0.421-0.264,0.794-0.253,1.026,0.196c0.326,0.631-0.239,0.827-0.625,1.017
			c-1.145,0.567-2.289,0.488-3.268-0.333c-1.029-0.862-1.406-1.989-0.884-3.291C480.688,319.769,481.64,319.107,483.22,319.037z"/>
		<path fill="#868788" d="M516.554,272.384c-0.388-0.016-0.699-0.184-0.723-0.582c-0.029-0.482,0.281-0.723,0.754-0.732
			c0.4-0.008,0.681,0.212,0.719,0.589C517.355,272.162,517.008,272.352,516.554,272.384z"/>
		<path fill="#454242" d="M467.93,280.454c0.18-1.254,0.929-1.823,2.158-1.674c1.233,0.149,2.355-0.441,3.558-0.442
			c-0.12,1.548-1.204,1.901-2.489,2.044c-0.394,0.044-1.241,0.066-0.77,0.664c0.685,0.869,0.164,1.631-0.018,2.278
			c-0.547,1.95,0.036,3.612,0.809,5.325c0.652,1.445,2.06,2.229,3.05,3.531c-0.843,0.175-1.516,0.312-2.187,0.457
			c-0.309,0.066-0.565,0.249-0.541,0.573c0.031,0.418,0.37,0.634,0.737,0.512c1.674-0.557,3.483,0.105,5.134-0.593
			c0.154,0.79,0.308,1.58,0.463,2.37c0.125,1.816-0.308,3.647,0.408,5.456c0.472,1.194,0.024,2.156-1.377,2.479
			c-0.386,0.089-1.093-0.035-0.916,0.707c0.126,0.529,0.652,0.355,1.04,0.313c3.631-0.398,7.264-0.775,10.89-1.218
			c1.7-0.207,3.269-0.831,4.546-2.008c2.001-1.844,2.18-4.09,1.323-6.528c-0.635-1.808-2.437-2.974-4.748-3.081
			c-0.879-0.548-0.862-0.793,0.089-1.45c1.712-1.182,2.678-2.892,2.14-5.123c-0.544-2.253-2.219-3.164-4.287-3.52
			c-0.968-0.166-1.97-0.131-2.956-0.187c0.135-0.674,0.133-1.397,1.117-1.501c1.844-0.195,3.675-0.515,5.52-0.695
			c5.425-0.53,10.862-0.958,16.277-1.572c1.049-0.119,2.259,0.094,3.278-0.591c-0.294-0.379-0.596-0.349-0.871-0.323
			c-4.159,0.392-8.315,0.812-12.475,1.186c-3.869,0.348-7.723,0.878-11.618,0.909c-1.013,0.008-1.556-0.348-1.509-1.407
			c5.574-0.549,11.148-1.101,16.723-1.647c3.817-0.374,7.635-0.734,11.452-1.11c1.548-0.152,2.159,0.829,2.566,2.074
			c0.015,4.827,0.861,9.585,1.208,14.387c0.283,3.929,0.808,7.841,1.209,11.763c0.15,1.466-0.839,1.974-2.022,2.101
			c-3.689,0.397-7.387,0.716-11.08,1.077c-7.964,0.778-15.924,1.59-23.892,2.328c-2.479,0.23-4.923,0.793-7.433,0.738
			c-1.216-0.027-1.842-0.649-1.949-1.782c-0.484-5.134-0.922-10.272-1.406-15.406C468.718,288.06,468.314,284.258,467.93,280.454z
			 M498.167,290.336c-0.162-0.385-0.234-0.487-0.246-0.596c-0.229-2.082-0.449-4.164-0.674-6.246
			c-0.382-3.526-0.383-3.524-3.434-1.874c-0.307,0.166-0.632,0.297-0.944,0.453c-0.356,0.179-0.891,0.252-0.927,0.7
			c-0.039,0.494,0.497,0.593,0.866,0.706c0.744,0.228,0.887,0.764,0.991,1.454c0.519,3.425,0.317,6.912,1.041,10.33
			c0.419,1.978,0.404,4.047,0.593,6.074c0.057,0.612,0.218,1.427,0.976,0.697c0.811-0.78,1.533-0.509,2.392-0.347
			c1.381,0.259,2.794,0.285,4.163-0.055c5.727-1.422,7.233-6.188,5.593-10.004c-0.945-2.2-2.692-3.097-5.065-3.162
			C501.458,288.41,499.76,288.981,498.167,290.336z M489.491,305.077c0.017,0.197,0.034,0.395,0.05,0.592
			c8.032-0.758,16.065-1.517,24.097-2.275C505.524,303.175,497.538,304.495,489.491,305.077z M487.749,305.87
			c-0.017-0.197-0.033-0.394-0.05-0.591c-4.064,0.402-8.128,0.803-12.193,1.205c0.019,0.19,0.038,0.381,0.057,0.571
			C479.625,306.659,483.687,306.265,487.749,305.87z M491.003,291.246c0.815,0.583,1.681,0.677,2.545,0.097
			c0.214-0.143,0.104-0.49-0.117-0.575c-0.859-0.329-1.695-0.281-2.446,0.316C490.968,291.098,490.993,291.166,491.003,291.246z
			 M508.038,289.493c0.846,0.682,1.499,0.565,2.119,0.211c0.173-0.099,0.183-0.47-0.042-0.601
			C509.413,288.696,508.816,289.023,508.038,289.493z"/>
		<path fill="#868788" d="M483.703,277.344c-0.047,1.059,0.496,1.415,1.509,1.407c3.895-0.031,7.749-0.562,11.618-0.909
			c4.16-0.374,8.316-0.794,12.475-1.186c0.275-0.026,0.578-0.056,0.871,0.323c-1.019,0.684-2.228,0.471-3.278,0.591
			c-5.415,0.615-10.852,1.042-16.277,1.572c-1.845,0.18-3.676,0.501-5.52,0.695c-0.983,0.104-0.981,0.826-1.117,1.5
			c-3.289,0.866-6.819,0.362-10.061,1.671c1.031,0.441,2.499,0.272,2.627,1.68c0.257,2.815,0.893,5.594,0.82,8.439
			c-1.651,0.698-3.46,0.036-5.134,0.593c-0.367,0.122-0.706-0.094-0.737-0.512c-0.024-0.324,0.232-0.507,0.541-0.573
			c0.671-0.144,1.344-0.281,2.187-0.457c-0.99-1.301-2.398-2.086-3.05-3.531c-0.773-1.713-1.357-3.375-0.809-5.325
			c0.182-0.647,0.702-1.409,0.018-2.278c-0.471-0.598,0.376-0.62,0.77-0.664c1.285-0.143,2.369-0.496,2.489-2.044
			c0.177-0.003,0.354-0.007,0.531-0.01c0.331,0.325,0.639,0.538,0.758-0.156c2.229-0.486,4.488-0.666,6.765-0.655
			c0.522,0.9,0.957,0.831,1.315-0.117C483.244,277.381,483.474,277.362,483.703,277.344z"/>
		<path fill="#454242" d="M483.015,277.399c-0.357,0.948-0.793,1.018-1.315,0.117C482.139,277.478,482.577,277.439,483.015,277.399z
			"/>
		<path fill="#454242" d="M474.936,278.171c-0.12,0.695-0.427,0.481-0.758,0.156C474.43,278.276,474.683,278.223,474.936,278.171z"
			/>
		<path fill="#FDFDFD" d="M500.937,323.774c-1.027-0.091-1.632-0.711-1.652-1.685c-0.02-0.965,0.514-1.712,1.576-1.724
			c1.039-0.012,1.618,0.649,1.654,1.653C502.551,323.039,501.963,323.623,500.937,323.774z"/>
		<path fill="#FDFDFD" d="M496.061,322.073c-0.066,0.951-0.48,1.65-1.455,1.651c-1.063,0.001-1.527-0.73-1.505-1.736
			c0.02-0.924,0.464-1.607,1.445-1.62C495.642,320.354,496.013,321.12,496.061,322.073z"/>
		<path fill="#FDFDFD" d="M507.88,322.974c-0.144,0.699-0.667,0.874-1.275,0.877c-0.501,0.003-0.943-0.179-0.897-0.774
			c0.053-0.696,0.621-0.725,1.145-0.718C507.297,322.364,507.804,322.32,507.88,322.974z"/>
		<path fill="#FDFDFD" d="M518.044,322.054c-0.066,0.957-0.479,1.707-1.557,1.669c-0.966-0.034-1.409-0.728-1.404-1.658
			c0.006-0.998,0.44-1.734,1.531-1.696C517.594,320.403,517.98,321.109,518.044,322.054z"/>
		<path fill="#DEDEE0" d="M478.086,322.988c-0.164,0.681-0.675,0.89-1.297,0.895c-0.541,0.004-1.143-0.073-1.053-0.801
			c0.092-0.75,0.752-0.777,1.343-0.76C477.53,322.334,478.044,322.31,478.086,322.988z"/>
		<path fill="#DEDEE0" d="M468.297,321.651c0.754,0.095,1.871-0.124,1.741,1.07c-0.122,1.118-1.245,0.962-2.08,1.007
			c-0.732,0.04-1.368-0.031-1.373-1.053C466.577,321.285,467.591,321.774,468.297,321.651z"/>
		<path fill="#DEDEE0" d="M467.824,320.626c-0.722,0.043-1.231-0.064-1.249-0.995c-0.025-1.231,0.795-1.063,1.531-1.041
			c0.693,0.02,1.598,0.023,1.56,0.95C469.623,320.62,468.635,320.59,467.824,320.626z"/>
		<path fill="#DEDEE0" d="M498.167,290.336c1.593-1.355,3.291-1.926,5.325-1.87c2.373,0.066,4.12,0.963,5.065,3.162
			c1.639,3.816,0.134,8.582-5.593,10.004c-1.369,0.34-2.782,0.314-4.163,0.055c-0.859-0.161-1.581-0.433-2.392,0.347
			c-0.758,0.73-0.919-0.085-0.976-0.697c-0.189-2.027-0.174-4.096-0.593-6.074c-0.724-3.418-0.522-6.905-1.041-10.33
			c-0.105-0.69-0.248-1.226-0.991-1.454c-0.368-0.113-0.905-0.212-0.866-0.706c0.036-0.448,0.571-0.52,0.927-0.7
			c0.312-0.157,0.637-0.288,0.944-0.453c3.051-1.651,3.052-1.652,3.434,1.874c0.226,2.082,0.446,4.165,0.674,6.246
			C497.933,289.849,498.005,289.951,498.167,290.336z M505.44,296.351c-0.017-2.044-0.786-3.822-2.07-4.796
			c-1.361-1.031-2.789-0.86-4.283-0.316c-1.426,0.519-0.991,1.772-0.954,2.673c0.069,1.65,0.451,3.29,0.746,4.926
			c0.046,0.253,0.299,0.487,0.495,0.692c0.988,1.035,2.162,1.481,3.561,0.975C504.614,299.898,505.458,298.466,505.44,296.351z"/>
		<path fill="#FDFDFD" d="M477.372,293.127c0.073-2.845-0.563-5.625-0.82-8.439c-0.129-1.408-1.596-1.239-2.627-1.68
			c3.241-1.309,6.772-0.805,10.061-1.671c0.986,0.056,1.989,0.021,2.956,0.187c2.068,0.355,3.744,1.266,4.287,3.52
			c0.538,2.231-0.428,3.941-2.14,5.123c-0.951,0.657-0.968,0.901-0.089,1.45c-0.537,0.489-1.358,0.719-1.461,1.604
			c-1.41-0.712-2.884-1.045-4.464-0.769c-1.314-0.109-1.879,0.367-1.336,1.71c-0.01,0.34-0.021,0.679-0.031,1.019
			c-1.309-0.12-2.596,0.038-3.873,0.317C477.68,294.707,477.526,293.917,477.372,293.127z M480.672,284.956
			c-0.338,2.125,0.651,3.919,0.617,5.834c-0.01,0.574,0.337,0.742,0.915,0.754c3.859,0.08,5.984-2.879,4.641-6.506
			c-0.679-1.833-2.617-2.615-5.279-2.219C479.842,283.076,480.935,284.362,480.672,284.956z"/>
		<path fill="#DEDEE0" d="M487.539,293.22c0.103-0.884,0.924-1.114,1.461-1.604c2.311,0.107,4.113,1.273,4.748,3.081
			c0.857,2.438,0.677,4.684-1.323,6.528c-1.277,1.177-2.847,1.801-4.546,2.008c-3.625,0.442-7.259,0.82-10.89,1.218
			c-0.388,0.042-0.914,0.216-1.04-0.313c-0.177-0.742,0.53-0.618,0.916-0.707c1.401-0.324,1.85-1.285,1.377-2.479
			c-0.715-1.808-0.283-3.64-0.408-5.456c1.277-0.279,2.563-0.437,3.873-0.317c-0.005,0.214-0.01,0.427-0.016,0.64
			c-0.604,0.471-0.277,0.63,0.243,0.724c0.027,0.984-0.12,2.014,0.125,2.94c0.3,1.135,0.251,2.626,1.924,2.927
			c2.172,0.39,4.585-0.964,5.276-3.083C490.041,296.936,489.434,294.884,487.539,293.22z"/>
		<path fill="#868788" d="M489.491,305.077c8.047-0.582,16.033-1.902,24.147-1.682c-8.032,0.758-16.065,1.517-24.097,2.275
			C489.525,305.472,489.508,305.274,489.491,305.077z"/>
		<path fill="#868788" d="M487.749,305.87c-4.062,0.395-8.124,0.79-12.185,1.185c-0.019-0.19-0.038-0.381-0.057-0.571
			c4.064-0.402,8.128-0.803,12.193-1.205C487.716,305.475,487.732,305.673,487.749,305.87z"/>
		<path fill="#868788" d="M491.003,291.246c-0.01-0.08-0.035-0.147-0.017-0.161c0.75-0.597,1.586-0.645,2.446-0.316
			c0.221,0.084,0.331,0.432,0.117,0.575C492.684,291.922,491.819,291.829,491.003,291.246z"/>
		<path fill="#868788" d="M508.038,289.493c0.778-0.47,1.375-0.797,2.077-0.39c0.226,0.131,0.215,0.503,0.042,0.601
			C509.537,290.057,508.884,290.174,508.038,289.493z"/>
		<path fill="#454242" d="M505.44,296.351c0.018,2.115-0.826,3.547-2.505,4.154c-1.399,0.506-2.572,0.06-3.561-0.975
			c-0.196-0.205-0.449-0.439-0.495-0.692c-0.295-1.636-0.678-3.276-0.746-4.926c-0.037-0.901-0.472-2.154,0.954-2.673
			c1.494-0.544,2.922-0.715,4.283,0.316C504.654,292.529,505.423,294.308,505.44,296.351z"/>
		<path fill="#454242" d="M487.539,293.22c1.895,1.664,2.502,3.716,1.721,6.109c-0.692,2.119-3.104,3.473-5.276,3.083
			c-1.673-0.3-1.624-1.792-1.924-2.927c-0.245-0.926-0.098-1.956-0.125-2.94c0.053-0.286,0.112-0.575-0.243-0.724
			c0.005-0.214,0.01-0.427,0.016-0.64c0.011-0.34,0.021-0.679,0.032-1.019c1.025-0.117,1.735-0.48,1.336-1.71
			C484.654,292.176,486.129,292.509,487.539,293.22z"/>
		<path fill="#868788" d="M480.672,284.956c0.263-0.593-0.831-1.88,0.894-2.137c2.662-0.396,4.601,0.386,5.279,2.219
			c1.342,3.627-0.782,6.585-4.641,6.506c-0.578-0.012-0.925-0.181-0.915-0.754C481.324,288.875,480.335,287.081,480.672,284.956z"/>
		<path fill="#868788" d="M483.074,292.452c0.399,1.229-0.311,1.593-1.336,1.71C481.195,292.819,481.76,292.342,483.074,292.452z"/>
		<path fill="#FDFDFD" d="M481.691,295.821c0.355,0.15,0.296,0.438,0.243,0.724C481.414,296.451,481.088,296.292,481.691,295.821z"
			/>
	</g>
</g>
</svg>
