<?xml version="1.0" encoding="utf-8"?>
<!-- Generator: Adobe Illustrator 17.0.0, SVG Export Plug-In . SVG Version: 6.00 Build 0)  -->
<!DOCTYPE svg PUBLIC "-//W3C//DTD SVG 1.1//EN" "http://www.w3.org/Graphics/SVG/1.1/DTD/svg11.dtd">
<svg version="1.1" id="Слой_1" xmlns="http://www.w3.org/2000/svg" xmlns:xlink="http://www.w3.org/1999/xlink" x="0px" y="0px"
	 width="340.355px" height="350.963px" viewBox="0 0 340.355 350.963" enable-background="new 0 0 340.355 350.963"
	 xml:space="preserve">
<g>
	<g>
		<path fill="#FFFFFF" d="M81.493,126.991l-0.751-0.679l0.062-0.477h0.002l0.002-0.001c0.06,0.008,0.118,0.022,0.176,0.044
			C81.504,126.071,81.643,126.584,81.493,126.991L81.493,126.991z M80.064,125.7l0.098,0.022l0.166,0.033l0.162,0.03l0.161,0.028
			l0.154,0.024l-0.778-0.17L80.064,125.7L80.064,125.7z M68.099,114.884l-1.257-1.137c0.072-0.058,0.147-0.099,0.242-0.135
			C67.933,113.347,68.506,114.267,68.099,114.884L68.099,114.884z M57.984,105.738l-0.879-0.795c0.342,0.007,0.648,0.215,0.78,0.54
			L57.984,105.738L57.984,105.738z M270.517,148.426c-0.851,0.347-0.621,1.648,0.337,1.652c0.117-0.003,0.215-0.022,0.325-0.067
			l0.155-0.064l0.366-0.155l0.363-0.161l0.364-0.165l0.36-0.169c0.903-0.441,0.456-1.803-0.539-1.618
			c-0.075,0.015-0.13,0.035-0.2,0.068l-0.341,0.159l-0.345,0.157l-0.345,0.153l-0.345,0.146L270.517,148.426L270.517,148.426z
			 M279.155,143.3c-0.8,0.66-0.005,1.894,0.927,1.438c0.051-0.025,0.093-0.054,0.138-0.089l0.328-0.255l0.34-0.272l0.34-0.275
			l0.339-0.277l0.016-0.014c0.259-0.215,0.365-0.586,0.266-0.906c-0.185-0.595-0.898-0.799-1.376-0.407l-0.005,0.005l-0.327,0.269
			l-0.328,0.265l-0.329,0.263L279.155,143.3L279.155,143.3z M286.555,136.356c-0.626,0.692,0.179,1.776,1.045,1.329
			c0.091-0.047,0.169-0.109,0.235-0.187l0.215-0.236l0.309-0.349l0.305-0.349l0.308-0.355l0.015-0.018
			c0.638-0.762-0.318-1.837-1.164-1.25c-0.054,0.042-0.105,0.087-0.151,0.14l-0.007,0.009l-0.298,0.345l-0.298,0.343l-0.301,0.34
			L286.555,136.356L286.555,136.356z M292.819,128.325c-0.155,0.235-0.188,0.519-0.091,0.784c0.243,0.651,1.133,0.752,1.517,0.176
			l0.192-0.282l0.269-0.403l0.266-0.402l0.234-0.356c0.485-0.729-0.349-1.664-1.154-1.209c-0.124,0.075-0.207,0.152-0.289,0.273
			l-0.227,0.347l-0.261,0.396l-0.263,0.394L292.819,128.325L292.819,128.325z M298.033,119.553c-0.4,0.785,0.496,1.617,1.278,1.082
			c0.109-0.087,0.187-0.169,0.25-0.296l0.062-0.116l0.22-0.433l0.219-0.435l0.216-0.434l0.064-0.132
			c0.417-0.892-0.715-1.664-1.395-0.971c-0.062,0.069-0.112,0.136-0.149,0.218l-0.06,0.122l-0.212,0.428l-0.215,0.425l-0.218,0.425
			L298.033,119.553L298.033,119.553z M302.166,110.232c-0.324,0.871,0.806,1.577,1.451,0.861c0.073-0.086,0.122-0.163,0.161-0.27
			l0.113-0.304l0.163-0.445l0.159-0.447l0.152-0.436c0.325-0.976-1.014-1.605-1.555-0.711c-0.027,0.046-0.051,0.095-0.069,0.147
			l-0.149,0.425l-0.155,0.438l-0.16,0.437L302.166,110.232L302.166,110.232z M305.055,100.468c-0.191,0.905,0.993,1.446,1.552,0.66
			c0.06-0.093,0.105-0.188,0.128-0.298l0.022-0.096l0.093-0.439l0.089-0.44l0.089-0.437l0.055-0.296
			c0.177-0.939-1.121-1.444-1.61-0.55c-0.039,0.076-0.063,0.152-0.081,0.234l-0.054,0.284l-0.083,0.427l-0.086,0.428l-0.091,0.427
			L305.055,100.468L305.055,100.468z M306.294,90.423c-0.001,0.949,1.31,1.209,1.664,0.311c0.036-0.103,0.052-0.185,0.056-0.295
			l0.005-0.369l0.001-0.407l-0.003-0.408l-0.007-0.403l-0.003-0.166c-0.024-0.963-1.435-1.175-1.698-0.162
			c-0.016,0.074-0.024,0.138-0.019,0.214l0.003,0.149l0.005,0.387l0.001,0.39v0.392L306.294,90.423L306.294,90.423z M305.021,80.513
			c0.282,0.886,1.618,0.752,1.676-0.23c0.003-0.11-0.007-0.193-0.04-0.297l-0.056-0.178l-0.116-0.346l-0.118-0.341l-0.124-0.337
			l-0.129-0.337l-0.055-0.14c-0.367-0.895-1.728-0.592-1.651,0.404c0.012,0.091,0.026,0.161,0.06,0.245l0.047,0.118l0.12,0.31
			l0.114,0.315l0.11,0.32l0.106,0.319L305.021,80.513L305.021,80.513z M299.886,72.24c0.105,0.093,0.218,0.155,0.331,0.19
			l-0.011,0.029l-0.063,0.153c-0.36,0.934,0.876,1.622,1.482,0.838c0.05-0.069,0.081-0.121,0.114-0.202l0.063-0.153l0.157-0.414
			l0.142-0.417l0.13-0.419l0.091-0.329c0.097-0.402-0.085-0.795-0.453-0.984c-0.371-0.185-0.812-0.067-1.053,0.234l-0.052-0.044
			l-0.27-0.23l-0.277-0.223l-0.281-0.22l-0.286-0.214l-0.031-0.022c-0.297-0.213-0.716-0.206-1.006,0.013
			c-0.473,0.351-0.46,1.048,0.016,1.393l0.005,0.002l0.259,0.194l0.254,0.199l0.251,0.202l0.243,0.208l0.241,0.211L299.886,72.24
			L299.886,72.24z M291.125,67.987c0.743,0.142,1.293-0.655,0.895-1.301c-0.128-0.203-0.323-0.334-0.558-0.383l-0.296-0.062
			l-0.27-0.054l-0.269-0.05l-0.267-0.046l-0.263-0.044l-0.262-0.042l-0.11-0.015c-0.304-0.05-0.638,0.09-0.814,0.341
			c-0.382,0.533-0.077,1.258,0.571,1.359l0.094,0.015l0.245,0.038l0.249,0.042l0.251,0.044l0.253,0.046l0.257,0.05L291.125,67.987
			L291.125,67.987z M281.507,68.346c0.879-0.392,0.536-1.741-0.457-1.636c-0.087,0.011-0.167,0.034-0.25,0.069l-0.007,0.004
			l-0.153,0.071l-0.149,0.072L280.345,67l-0.142,0.075l-0.142,0.08l-0.141,0.08l-0.137,0.08l-0.136,0.083l-0.132,0.086l-0.129,0.087
			l-0.128,0.089l-0.098,0.071c-0.704,0.538-0.265,1.637,0.614,1.544c0.164-0.028,0.269-0.065,0.406-0.163l0.071-0.052l0.103-0.071
			l0.105-0.069l0.105-0.07l0.111-0.066l0.109-0.067l0.113-0.066l0.116-0.06l0.118-0.062l0.12-0.06l0.124-0.06l0.124-0.058
			L281.507,68.346L281.507,68.346z M277.911,75.853c-0.239-0.906-1.576-0.833-1.688,0.14c-0.009,0.102,0,0.199,0.024,0.298
			l0.026,0.095l0.036,0.133l0.038,0.134l0.04,0.132l0.043,0.134l0.044,0.133l0.044,0.129l0.05,0.132l0.05,0.13l0.051,0.13
			l0.055,0.13l0.055,0.129l0.059,0.126l0.047,0.101c0.45,0.922,1.852,0.429,1.606-0.59c-0.016-0.054-0.031-0.101-0.058-0.153
			l-0.035-0.077l-0.048-0.105l-0.046-0.105l-0.046-0.106l-0.039-0.108l-0.044-0.106l-0.039-0.107l-0.038-0.108l-0.036-0.108
			l-0.034-0.11l-0.034-0.108l-0.032-0.112l-0.031-0.108L277.911,75.853L277.911,75.853z M284.386,81.851
			c-0.84-0.132-1.344,0.876-0.744,1.463c0.132,0.12,0.273,0.201,0.454,0.229l0.097,0.019l0.164,0.027l0.168,0.025l0.169,0.023
			l0.168,0.021l0.171,0.017l0.173,0.015l0.172,0.011l0.175,0.011l0.176,0.007l0.176,0.005h0.042
			c0.297,0.001,0.585-0.157,0.736-0.413c0.343-0.575-0.063-1.303-0.731-1.305l-0.016,0.001l-0.15-0.005l-0.152-0.007l-0.148-0.007
			l-0.146-0.011l-0.145-0.013l-0.144-0.014l-0.144-0.017l-0.141-0.019l-0.14-0.02l-0.14-0.023L284.386,81.851L284.386,81.851z
			 M293.603,79.63c-0.282,0.168-0.43,0.488-0.406,0.812c0.069,0.639,0.755,0.982,1.307,0.652l0.306-0.183l0.468-0.296l0.454-0.304
			l0.265-0.186c0.167-0.118,0.27-0.278,0.327-0.474c0.206-0.783-0.672-1.389-1.332-0.921l-0.232,0.163l-0.418,0.279l-0.434,0.275
			L293.603,79.63L293.603,79.63z M300.423,63.048c0.051,0.173,0.148,0.329,0.292,0.439c0.664,0.51,1.576-0.096,1.362-0.907
			l-0.059-0.212l-0.14-0.475l-0.149-0.476l-0.159-0.478l-0.024-0.062c-0.293-0.829-1.553-0.72-1.661,0.219
			c-0.009,0.139,0.001,0.243,0.048,0.374l0.012,0.031l0.149,0.447l0.14,0.443l0.13,0.442L300.423,63.048L300.423,63.048z
			 M296.158,54c0.524,0.796,1.81,0.258,1.538-0.728c-0.028-0.083-0.058-0.149-0.107-0.223l-0.27-0.413l-0.333-0.496l-0.343-0.497
			l-0.03-0.044c-0.546-0.769-1.788-0.213-1.524,0.749c0.03,0.091,0.07,0.172,0.124,0.251l0.021,0.028l0.331,0.481l0.322,0.478
			L296.158,54L296.158,54z M289.879,46.01c0.72,0.755,1.917-0.158,1.345-1.062c-0.026-0.039-0.05-0.069-0.081-0.104l-0.156-0.169
			l-0.462-0.497l-0.47-0.497l-0.102-0.106c-0.652-0.684-1.817,0.066-1.384,0.986c0.043,0.079,0.089,0.144,0.15,0.209l0.091,0.097
			l0.461,0.486l0.453,0.486L289.879,46.01L289.879,46.01z M282.555,38.898c0.81,0.679,1.888-0.392,1.219-1.207
			c-0.03-0.034-0.059-0.061-0.094-0.093l-0.34-0.297l-0.559-0.483l-0.41-0.347c-0.318-0.267-0.778-0.27-1.1-0.007
			c-0.414,0.338-0.418,0.977-0.009,1.32l0.402,0.341l0.552,0.476L282.555,38.898L282.555,38.898z M274.56,32.512
			c0.384,0.276,0.922,0.193,1.2-0.193c0.277-0.384,0.194-0.921-0.193-1.199l-0.582-0.423l-0.634-0.456l-0.185-0.132
			c-0.114-0.084-0.257-0.137-0.399-0.153c-0.894-0.083-1.306,1.039-0.59,1.557l0.175,0.124l0.627,0.452L274.56,32.512L274.56,32.512
			z M266.068,26.784c0.347,0.214,0.808,0.154,1.084-0.152c0.361-0.4,0.277-1.028-0.184-1.311l-0.574-0.354l-0.688-0.421
			l-0.212-0.128c-0.751-0.464-1.659,0.419-1.161,1.205c0.078,0.115,0.156,0.193,0.278,0.268l0.204,0.123l0.68,0.415L266.068,26.784
			L266.068,26.784z M257.172,21.695c0.885,0.453,1.697-0.694,0.994-1.381c-0.063-0.057-0.118-0.101-0.196-0.141l-0.039-0.021
			l-0.723-0.378l-0.726-0.371l-0.051-0.027c-0.84-0.428-1.684,0.65-1,1.372c0.073,0.07,0.14,0.12,0.227,0.164l0.042,0.021
			l0.719,0.368l0.715,0.372L257.172,21.695L257.172,21.695z M247.931,17.279c0.884,0.376,1.641-0.773,0.902-1.44
			c-0.07-0.058-0.14-0.104-0.222-0.14l-0.245-0.104l-0.747-0.318l-0.602-0.252c-0.847-0.359-1.624,0.73-0.911,1.426
			c0.078,0.071,0.157,0.12,0.253,0.16l0.593,0.248l0.736,0.314L247.931,17.279L247.931,17.279z M238.377,13.608
			c0.904,0.301,1.568-0.899,0.783-1.504c-0.077-0.056-0.148-0.095-0.242-0.126l-0.333-0.114l-0.758-0.247l-0.554-0.178
			c-0.847-0.282-1.541,0.82-0.817,1.473c0.093,0.077,0.183,0.127,0.3,0.167l0.541,0.173l0.744,0.243L238.377,13.608L238.377,13.608z
			 M228.543,10.826c0.832,0.202,1.438-0.867,0.746-1.492c-0.112-0.096-0.223-0.15-0.368-0.185l-0.14-0.032l-0.748-0.167l-0.75-0.157
			l-0.062-0.014c-0.305-0.058-0.622,0.045-0.822,0.284c-0.422,0.507-0.16,1.265,0.486,1.4l0.046,0.009l0.735,0.159l0.735,0.162
			L228.543,10.826L228.543,10.826z M218.486,9.165c0.881,0.095,1.322-1.109,0.511-1.6c-0.118-0.065-0.215-0.097-0.351-0.111
			l-0.224-0.024l-0.726-0.064l-0.723-0.056l-0.066-0.005c-1.002-0.054-1.287,1.37-0.29,1.685c0.062,0.016,0.121,0.028,0.183,0.03
			l0.047,0.004l0.704,0.055l0.708,0.064L218.486,9.165L218.486,9.165z M208.338,8.995c0.894-0.068,1.1-1.319,0.235-1.66
			c-0.128-0.045-0.239-0.065-0.374-0.053l-0.379,0.029l-0.681,0.06l-0.675,0.069c-0.942,0.096-1.062,1.475-0.073,1.697
			c0.083,0.016,0.173,0.019,0.258,0.009l0.652-0.065l0.657-0.058L208.338,8.995L208.338,8.995z M198.437,10.858
			c0.922-0.326,0.7-1.696-0.327-1.673c-0.077,0.006-0.152,0.019-0.223,0.044l-0.47,0.154l-0.613,0.212l-0.568,0.21
			c-0.555,0.216-0.732,0.888-0.359,1.352c0.251,0.286,0.603,0.382,0.965,0.255l0.543-0.199l0.582-0.202L198.437,10.858
			L198.437,10.858z M189.484,15.325c0.794-0.607,0.128-1.811-0.779-1.508c-0.09,0.032-0.159,0.067-0.234,0.121l-0.141,0.101
			l-0.515,0.384l-0.508,0.393l-0.243,0.2c-0.586,0.48-0.302,1.428,0.464,1.516c0.241,0.015,0.445-0.038,0.633-0.194l0.216-0.175
			l0.48-0.373l0.486-0.363L189.484,15.325L189.484,15.325z M182.479,22.438c0.085-0.125,0.134-0.246,0.152-0.396
			c0.082-0.894-1.04-1.309-1.559-0.586l-0.078,0.107l-0.39,0.569l-0.382,0.585l-0.128,0.202c-0.547,0.888,0.66,1.812,1.376,1.019
			c0.03-0.035,0.056-0.068,0.079-0.106l0.121-0.189l0.361-0.554l0.371-0.543L182.479,22.438L182.479,22.438z M178.799,31.365
			c0.003-0.298-0.144-0.564-0.391-0.727c-0.567-0.369-1.325,0.04-1.328,0.716v0.055v0.175l0.005,0.175l0.007,0.171l0.011,0.169
			l0.015,0.169l0.015,0.167l0.021,0.165l0.023,0.163l0.028,0.163l0.03,0.159l0.034,0.157l0.005,0.028
			c0.267,1.017,1.745,0.777,1.693-0.257c-0.003-0.05-0.011-0.099-0.022-0.147l-0.001,0.001l0.001-0.001l-0.003-0.001l-0.023-0.116
			l-0.023-0.123l-0.021-0.126l-0.017-0.127l-0.016-0.129l-0.013-0.132l-0.011-0.134l-0.011-0.136l-0.005-0.138l-0.003-0.142
			l-0.001-0.14L178.799,31.365L178.799,31.365z M184.465,37.258c-0.323-0.036-0.621,0.093-0.809,0.357
			c-0.371,0.525-0.042,1.28,0.598,1.347h0.003l0.145,0.019l0.146,0.015l0.146,0.013l0.148,0.012l0.146,0.008l0.146,0.006
			l0.146,0.007l0.15,0.003l0.146,0.001l0.146,0.001l0.149-0.003l0.148-0.004l0.09-0.003c0.92-0.046,1.141-1.317,0.266-1.663
			c-0.122-0.044-0.215-0.057-0.344-0.054l-0.07,0.004l-0.126,0.003l-0.125,0.001h-0.126h-0.126l-0.125-0.003l-0.125-0.006
			l-0.125-0.005l-0.125-0.008l-0.122-0.009l-0.124-0.011l-0.125-0.013l-0.122-0.015H184.465L184.465,37.258z M192.659,33.918
			c-0.464,0.751,0.418,1.658,1.205,1.162c0.116-0.078,0.193-0.157,0.269-0.278l0.009-0.014l0.074-0.128l0.073-0.13l0.071-0.131
			l0.066-0.134l0.066-0.136l0.062-0.137l0.059-0.138l0.056-0.141l0.055-0.142l0.05-0.144l0.048-0.146l0.046-0.147l0.034-0.122
			c0.047-0.169,0.038-0.331-0.015-0.496c-0.282-0.81-1.416-0.769-1.643,0.045l-0.024,0.088l-0.034,0.112l-0.038,0.111l-0.038,0.109
			l-0.04,0.107l-0.043,0.108l-0.046,0.105l-0.047,0.103l-0.05,0.102l-0.051,0.103l-0.054,0.099l-0.054,0.099l-0.058,0.098
			L192.659,33.918L192.659,33.918z M191.415,25.15c0.504,0.765,1.732,0.296,1.557-0.648c-0.024-0.114-0.063-0.208-0.128-0.305
			l-0.443-0.676l-0.48-0.704l-0.055-0.078c-0.609-0.794-1.81-0.128-1.509,0.78c0.031,0.089,0.067,0.157,0.121,0.233l0.036,0.05
			l0.459,0.673L191.415,25.15L191.415,25.15z M184.91,17.484c0.65,0.589,1.719-0.103,1.35-1c-0.055-0.118-0.118-0.204-0.215-0.291
			l-0.06-0.053l-0.595-0.513l-0.603-0.497l-0.099-0.079c-0.726-0.565-1.749,0.281-1.255,1.133c0.056,0.09,0.121,0.163,0.207,0.229
			l0.07,0.055l0.575,0.473l0.567,0.488L184.91,17.484L184.91,17.484z M176.504,12.046c0.908,0.384,1.641-0.777,0.919-1.429
			c-0.075-0.062-0.133-0.101-0.222-0.142l-0.297-0.136l-0.705-0.304l-0.611-0.248c-0.892-0.345-1.599,0.796-0.883,1.443
			c0.079,0.067,0.156,0.118,0.251,0.155l0.579,0.234l0.672,0.29L176.504,12.046L176.504,12.046z M166.876,9.15
			c0.902,0.144,1.377-1.064,0.594-1.571c-0.11-0.068-0.207-0.107-0.333-0.125l-0.673-0.111l-0.789-0.113l-0.267-0.035
			c-0.323-0.035-0.618,0.098-0.807,0.361c-0.371,0.525-0.036,1.278,0.604,1.346l0.238,0.032l0.759,0.109L166.876,9.15L166.876,9.15z
			 M156.773,8.519c0.918-0.047,1.139-1.316,0.262-1.663c-0.115-0.041-0.221-0.06-0.341-0.054l-0.828,0.032l-0.844,0.045
			l-0.069,0.005c-0.963,0.074-1.114,1.473-0.09,1.703c0.071,0.012,0.142,0.015,0.216,0.011l0.046-0.003l0.819-0.044L156.773,8.519
			L156.773,8.519z M146.661,9.65c0.939-0.199,0.916-1.532-0.034-1.694c-0.103-0.012-0.192-0.014-0.296,0.005l-0.786,0.15
			l-0.876,0.177l-0.041,0.009c-0.892,0.188-0.907,1.494,0.02,1.684c0.122,0.021,0.223,0.021,0.346-0.005l0.023-0.006l0.859-0.172
			L146.661,9.65L146.661,9.65z M136.753,12.11c0.879-0.279,0.763-1.566-0.168-1.674c-0.121-0.01-0.231-0.002-0.346,0.036
			l-0.434,0.133l-0.893,0.285l-0.325,0.107c-0.939,0.331-0.679,1.695,0.3,1.674c0.09-0.005,0.159-0.017,0.245-0.044l0.309-0.103
			l0.878-0.278L136.753,12.11L136.753,12.11z M127.142,15.601c0.834-0.343,0.625-1.623-0.317-1.652
			c-0.128-0.001-0.234,0.02-0.351,0.067l-0.523,0.218l-0.896,0.383l-0.176,0.076c-0.413,0.185-0.619,0.656-0.461,1.082
			c0.164,0.463,0.708,0.691,1.154,0.49l0.163-0.071l0.883-0.375L127.142,15.601L127.142,15.601z M117.856,19.921
			c0.83-0.421,0.477-1.721-0.501-1.616c-0.108,0.017-0.186,0.037-0.286,0.088l-0.044,0.023l-0.887,0.461l-0.601,0.319
			c-0.376,0.206-0.546,0.63-0.409,1.038c0.164,0.492,0.759,0.73,1.216,0.478l0.592-0.313l0.876-0.454L117.856,19.921L117.856,19.921
			z M108.928,24.937c0.643-0.381,0.49-1.388-0.238-1.563c-0.219-0.064-0.47-0.013-0.664,0.102l-0.645,0.394l-0.823,0.512
			c-0.328,0.212-0.473,0.591-0.368,0.967c0.173,0.555,0.782,0.786,1.282,0.489l0.811-0.505L108.928,24.937L108.928,24.937z
			 M100.367,30.576c0.71-0.503,0.3-1.647-0.61-1.551c-0.149,0.025-0.264,0.065-0.388,0.153l-0.47,0.334l-0.829,0.596l-0.107,0.079
			c-0.748,0.57-0.203,1.727,0.702,1.529c0.123-0.031,0.211-0.072,0.314-0.144l0.098-0.071l0.819-0.591L100.367,30.576
			L100.367,30.576z M92.207,36.782c0.711-0.586,0.122-1.741-0.782-1.491c-0.118,0.036-0.213,0.084-0.307,0.161l-0.311,0.255
			l-0.783,0.645l-0.241,0.201c-0.693,0.572-0.123,1.737,0.798,1.481c0.12-0.036,0.213-0.086,0.309-0.167l0.231-0.193l0.774-0.639
			L92.207,36.782L92.207,36.782z M84.492,43.53c0.739-0.705-0.148-1.89-1.039-1.358c-0.05,0.032-0.096,0.066-0.139,0.105
			l-0.091,0.088l-0.727,0.686l-0.435,0.419c-0.218,0.209-0.311,0.532-0.237,0.824c0.164,0.646,0.952,0.87,1.432,0.411l0.427-0.408
			l0.717-0.68L84.492,43.53L84.492,43.53z M77.295,50.813c0.648-0.718-0.213-1.817-1.082-1.311
			c-0.074,0.044-0.133,0.092-0.192,0.157l-0.417,0.458l-0.65,0.721l-0.094,0.106c-0.591,0.653,0.115,1.713,0.986,1.355
			c0.121-0.052,0.217-0.124,0.305-0.222l0.085-0.095l0.64-0.713L77.295,50.813L77.295,50.813z M70.717,58.646
			c0.221-0.283,0.231-0.699,0.028-0.996c-0.336-0.491-1.032-0.509-1.399-0.038l-0.45,0.591l-0.558,0.748l-0.035,0.046
			c-0.536,0.744,0.307,1.712,1.133,1.245c0.103-0.065,0.184-0.133,0.256-0.234l0.025-0.035l0.551-0.736L70.717,58.646L70.717,58.646
			z M64.927,67.066c0.151-0.246,0.161-0.547,0.043-0.807c-0.295-0.625-1.153-0.668-1.514-0.083l-0.202,0.329l-0.454,0.763
			l-0.234,0.4c-0.191,0.338-0.141,0.766,0.139,1.038c0.404,0.393,1.072,0.309,1.35-0.181l0.225-0.384l0.445-0.747L64.927,67.066
			L64.927,67.066z M60.199,76.084c0.377-0.886-0.775-1.635-1.434-0.906c-0.06,0.073-0.107,0.141-0.144,0.228l-0.119,0.268
			l-0.323,0.767l-0.233,0.568c-0.365,0.947,0.907,1.647,1.509,0.804c0.036-0.054,0.061-0.103,0.087-0.164l0.224-0.55l0.315-0.744
			L60.199,76.084L60.199,76.084z M56.979,85.694c0.205-0.975-1.12-1.465-1.599-0.587c-0.037,0.073-0.058,0.134-0.078,0.212
			l-0.059,0.255l-0.162,0.756l-0.138,0.701c-0.18,0.945,1.126,1.438,1.606,0.556c0.04-0.079,0.067-0.151,0.084-0.239l0.132-0.673
			l0.156-0.727L56.979,85.694L56.979,85.694z M55.95,95.701c-0.047-0.937-1.347-1.157-1.678-0.222
			c-0.03,0.102-0.041,0.186-0.038,0.294l0.006,0.211l0.037,0.726l0.053,0.725l0.01,0.107c0.099,0.962,1.497,1.051,1.699,0.069
			c0.015-0.081,0.018-0.166,0.01-0.249l-0.006-0.07l-0.051-0.687l-0.036-0.69L55.95,95.701L55.95,95.701z M86.563,122.582
			c-0.253,1.041,1.22,1.536,1.636,0.522l0.027-0.085l0.027-0.101l0.033-0.13l0.033-0.132l0.029-0.134l0.028-0.133l0.025-0.134
			l0.023-0.136l0.021-0.136l0.02-0.138l0.017-0.136l0.015-0.139l0.013-0.138l0.012-0.138l0.009-0.13
			c0.056-1.021-1.393-1.27-1.684-0.292c-0.016,0.058-0.027,0.122-0.031,0.183l-0.007,0.106l-0.009,0.116l-0.011,0.115l-0.014,0.113
			l-0.014,0.114l-0.015,0.111l-0.018,0.11l-0.019,0.11l-0.019,0.111l-0.024,0.107l-0.022,0.105l-0.026,0.105l-0.027,0.105
			L86.563,122.582L86.563,122.582z M84.536,113.548c0.625,0.817,1.884,0.086,1.475-0.867c-0.027-0.055-0.055-0.099-0.09-0.15
			l-0.038-0.053l-0.091-0.123l-0.093-0.121l-0.093-0.12l-0.096-0.119l-0.097-0.118l-0.098-0.116l-0.099-0.115l-0.101-0.114
			l-0.101-0.112l-0.104-0.113l-0.105-0.11l-0.076-0.076c-0.306-0.298-0.756-0.339-1.107-0.093c-0.429,0.298-0.486,0.941-0.11,1.307
			l0.06,0.061l0.09,0.095l0.088,0.093l0.087,0.097l0.085,0.097l0.086,0.099l0.084,0.099l0.083,0.101l0.083,0.103l0.081,0.102
			l0.079,0.105l0.079,0.107L84.536,113.548L84.536,113.548z M76.483,110.251c0.976-0.258,0.795-1.715-0.256-1.692
			c-0.057,0.003-0.118,0.013-0.173,0.028l-0.046,0.011l-0.174,0.046l-0.174,0.051l-0.176,0.052l-0.176,0.056l-0.32,0.109
			l-0.318,0.112l-0.311,0.116l-0.034,0.012c-0.959,0.392-0.563,1.808,0.459,1.647c0.056-0.009,0.11-0.024,0.163-0.044l0.014-0.005
			l0.293-0.107l0.297-0.104l0.301-0.103L76,110.387l0.147-0.045l0.145-0.043l0.146-0.037L76.483,110.251z M98.106,171.126
			c1.022,0.339,1.63-1.089,0.657-1.585l-0.081-0.033l-0.391-0.141l-0.388-0.142l-0.387-0.146l-0.386-0.148l-0.036-0.015
			c-0.913-0.352-1.624,0.873-0.825,1.492c0.066,0.046,0.128,0.083,0.204,0.113l0.036,0.013l0.397,0.153l0.399,0.149l0.4,0.147
			L98.106,171.126L98.106,171.126z M57.105,104.943l0.879,0.795l0.065,0.168l0.263,0.635l0.217,0.492
			c0.048,0.105,0.072,0.206,0.078,0.322c0.022,0.963-1.267,1.226-1.641,0.392l-0.234-0.528l-0.278-0.674l-0.163-0.423
			c-0.212-0.513,0.132-1.098,0.682-1.171C57.017,104.945,57.061,104.944,57.105,104.943L57.105,104.943z M66.842,113.747
			l1.257,1.137c-0.034,0.054-0.077,0.104-0.126,0.152l-0.047,0.046l-0.178,0.177l-0.174,0.181L67.4,115.62l-0.168,0.184
			l-0.164,0.186l-0.162,0.187l-0.04,0.049c-0.082,0.097-0.151,0.151-0.26,0.214c-0.851,0.439-1.654-0.607-1.069-1.305l0.058-0.069
			l0.178-0.207l0.182-0.206l0.185-0.203l0.19-0.202l0.193-0.198l0.197-0.196l0.047-0.045
			C66.792,113.787,66.818,113.765,66.842,113.747L66.842,113.747z M80.026,125.666l0.038,0.034l-0.069-0.015l-0.17-0.039
			l-0.174-0.044l-0.175-0.045l-0.178-0.048l-0.05-0.015L80.026,125.666L80.026,125.666z M80.742,126.313l0.751,0.679
			c-0.123,0.335-0.444,0.597-0.91,0.547l-0.022-0.002l-0.184-0.03l-0.186-0.03l-0.189-0.035l-0.19-0.038l-0.192-0.041l-0.194-0.045
			l-0.196-0.048l-0.198-0.052l-0.2-0.054l-0.05-0.014l1.8,0.389L80.742,126.313L80.742,126.313z M62.973,114.072
			c-0.683-0.771-1.875,0.063-1.414,0.957c0.033,0.062,0.065,0.108,0.11,0.161l0.274,0.327l0.526,0.599l0.359,0.392
			c0.527,0.552,1.439,0.214,1.486-0.555c0.001-0.238-0.068-0.448-0.233-0.621l-0.334-0.364l-0.501-0.57L62.973,114.072
			L62.973,114.072z M70.425,120.842c-0.209-0.152-0.495-0.199-0.742-0.12c-0.688,0.213-0.832,1.103-0.248,1.524l0.059,0.043
			l0.753,0.521l0.635,0.422c0.273,0.183,0.639,0.183,0.918,0.011c0.538-0.339,0.548-1.099,0.019-1.453l-0.608-0.403l-0.727-0.503
			L70.425,120.842L70.425,120.842z M79.247,125.495c-0.945-0.263-1.547,1.034-0.654,1.575c0.064,0.034,0.121,0.057,0.19,0.079
			L79.247,125.495L79.247,125.495z M63.372,123.528c0.083-0.388-0.12-0.793-0.481-0.956c-0.505-0.229-1.088,0.063-1.201,0.607
			l-0.008,0.04l-0.054,0.265l-0.05,0.267l-0.046,0.269l-0.043,0.271l-0.04,0.271l-0.036,0.273l-0.014,0.114
			c-0.032,0.301,0.087,0.593,0.327,0.776c0.53,0.409,1.31,0.083,1.381-0.579l0.011-0.093l0.033-0.252l0.037-0.249l0.039-0.248
			l0.043-0.247l0.046-0.247l0.048-0.244L63.372,123.528L63.372,123.528z M63.567,133.4c-0.185-0.88-1.489-0.922-1.686,0.042
			c-0.019,0.113-0.016,0.218,0.008,0.331l0.051,0.228l0.067,0.297l0.07,0.298l0.073,0.296l0.076,0.3l0.077,0.288
			c0.243,0.92,1.627,0.817,1.688-0.191c0.003-0.09-0.006-0.171-0.029-0.256l-0.073-0.275l-0.072-0.283l-0.069-0.282l-0.068-0.283
			l-0.064-0.282L63.567,133.4L63.567,133.4z M67.052,142.826c-0.488-0.888-1.831-0.375-1.59,0.622
			c0.016,0.062,0.041,0.125,0.072,0.181l0.14,0.268l0.16,0.298l0.163,0.3l0.165,0.298l0.169,0.299l0.041,0.073
			c0.165,0.277,0.447,0.438,0.772,0.431c0.657-0.034,1.033-0.713,0.716-1.29l-0.035-0.06l-0.163-0.289l-0.159-0.289l-0.157-0.288
			l-0.154-0.288L67.052,142.826L67.052,142.826z M72.649,151.262c-0.541-0.659-1.61-0.224-1.517,0.658
			c0.026,0.163,0.08,0.298,0.186,0.428l0.04,0.05l0.233,0.284l0.236,0.284l0.238,0.281l0.241,0.281l0.136,0.157
			c0.645,0.728,1.825-0.001,1.428-0.922c-0.036-0.077-0.079-0.147-0.134-0.209l-0.128-0.15l-0.233-0.27l-0.23-0.273l-0.231-0.275
			l-0.225-0.275L72.649,151.262L72.649,151.262z M79.737,158.515c-0.584-0.491-1.453-0.055-1.414,0.717
			c0.025,0.234,0.116,0.437,0.299,0.591l0.147,0.127l0.296,0.252l0.301,0.25l0.301,0.249l0.292,0.237
			c0.778,0.605,1.776-0.32,1.264-1.129c-0.059-0.085-0.102-0.137-0.183-0.206l-0.282-0.23l-0.294-0.243l-0.29-0.242l-0.289-0.245
			L79.737,158.515L79.737,158.515z M87.973,164.453c-0.163-0.102-0.353-0.135-0.543-0.116c-0.812,0.107-1.037,1.16-0.336,1.592
			l0.085,0.05l0.35,0.207l0.353,0.207l0.354,0.202l0.356,0.202l0.012,0.006c0.764,0.435,1.652-0.466,1.108-1.261
			c-0.079-0.103-0.164-0.178-0.276-0.241l-0.001-0.002l-0.347-0.195l-0.344-0.198l-0.343-0.2l-0.341-0.203L87.973,164.453z"/>
	</g>
	<path opacity="0.5" fill-rule="evenodd" clip-rule="evenodd" fill="#B2DCE2" d="M156.376,61.252
		c6.496,1.547,11.291,7.003,11.193,13.37l0,0c-0.1,6.546-5.258,13.232-12.149,13.126l-30.293-0.463
		c-7.376-0.113-12.964-6.607-12.859-13.509l0,0c0.097-6.367,5.057-11.674,11.597-13.022c-0.002-0.128-0.002-0.257-0.001-0.384
		c0.125-8.181,7.507-14.702,16.488-14.565c8.98,0.137,16.16,6.881,16.035,15.062C156.386,60.995,156.381,61.125,156.376,61.252z"/>
	<path opacity="0.5" fill-rule="evenodd" clip-rule="evenodd" fill="#B2DCE2" d="M33.502,30.286c4.934,1.185,8.574,5.365,8.5,10.245
		l0,0c-0.077,5.016-3.995,10.14-9.229,10.06L9.766,50.24c-5.602-0.085-9.846-5.062-9.765-10.35l0,0
		c0.075-4.88,3.842-8.948,8.81-9.981c-0.001-0.097-0.002-0.197,0-0.294c0.096-6.271,5.703-11.268,12.524-11.164
		c6.821,0.105,12.273,5.271,12.177,11.542C33.51,30.09,33.506,30.189,33.502,30.286z"/>
	<path opacity="0.5" fill-rule="evenodd" clip-rule="evenodd" fill="#B2DCE2" d="M292.84,25.891c4.186,1.03,7.274,4.668,7.21,8.917
		l0,0c-0.067,4.368-3.393,8.83-7.836,8.762l-19.523-0.299c-4.754-0.073-8.353-4.404-8.282-9.009l0,0
		c0.064-4.248,3.262-7.79,7.479-8.692c-0.001-0.085-0.002-0.172-0.001-0.256c0.084-5.458,4.845-9.812,10.632-9.723
		c5.788,0.088,10.412,4.585,10.328,10.043C292.847,25.719,292.844,25.805,292.84,25.891z"/>
	<path opacity="0.5" fill-rule="evenodd" clip-rule="evenodd" fill="#B2DCE2" d="M328.916,71.566
		c6.634,1.509,11.532,6.817,11.438,13.008l0,0c-0.097,6.364-5.357,12.86-12.392,12.753l-30.926-0.473
		c-7.532-0.115-13.241-6.434-13.139-13.143l0,0c0.095-6.191,5.153-11.347,11.831-12.652c-0.002-0.124-0.003-0.25-0.001-0.373
		c0.121-7.955,7.654-14.289,16.822-14.149c9.167,0.141,16.502,6.702,16.38,14.657C328.928,71.316,328.922,71.442,328.916,71.566z"/>
	<g>
		<path fill-rule="evenodd" clip-rule="evenodd" fill="#B2DCE2" d="M274.428,64.205c8.296,1.83,14.426,8.262,14.311,15.761l0,0
			c-0.117,7.708-6.691,15.573-15.49,15.438l-38.676-0.591c-9.418-0.144-16.561-7.801-16.437-15.927l0,0
			c0.114-7.498,6.437-13.74,14.787-15.316c-0.002-0.151-0.003-0.303-0.001-0.453c0.147-9.634,9.561-17.302,21.028-17.126
			c11.465,0.175,20.641,8.128,20.493,17.761C274.44,63.903,274.435,64.054,274.428,64.205z"/>
		<g>
			<path fill-rule="evenodd" clip-rule="evenodd" fill="#FFFFFF" d="M265.431,65.982c-0.051-0.133-0.104-0.264-0.157-0.396
				c-0.024-0.062-0.047-0.124-0.072-0.185c-0.005-0.01-0.008-0.019-0.011-0.028c-0.041-0.098-0.084-0.194-0.125-0.29
				c-0.046-0.11-0.093-0.219-0.14-0.325c-0.044-0.097-0.089-0.191-0.133-0.286c-0.049-0.105-0.097-0.21-0.148-0.313
				c-0.046-0.093-0.094-0.186-0.14-0.279c-0.052-0.1-0.103-0.201-0.155-0.3c-0.049-0.092-0.098-0.182-0.148-0.272
				c-0.052-0.097-0.105-0.193-0.16-0.287c-0.051-0.09-0.102-0.178-0.154-0.265c-0.055-0.093-0.111-0.185-0.165-0.274
				c-0.054-0.088-0.108-0.173-0.163-0.259c-0.057-0.087-0.112-0.173-0.168-0.26c-0.055-0.084-0.113-0.168-0.169-0.252
				c-0.056-0.082-0.114-0.163-0.172-0.244c-0.059-0.082-0.117-0.163-0.176-0.243c-0.058-0.078-0.115-0.155-0.173-0.23
				c-0.061-0.079-0.122-0.158-0.184-0.235c-0.058-0.073-0.116-0.143-0.175-0.214c-0.063-0.076-0.126-0.152-0.19-0.226
				c-0.058-0.068-0.117-0.133-0.175-0.199c-0.067-0.073-0.132-0.148-0.198-0.219c-0.058-0.062-0.115-0.121-0.173-0.181
				c-0.052-0.053-0.102-0.109-0.152-0.159c-0.018-0.018-0.036-0.033-0.052-0.051c-0.058-0.055-0.115-0.11-0.172-0.163
				c-0.071-0.068-0.141-0.137-0.213-0.201c-0.054-0.051-0.11-0.098-0.166-0.146c-0.073-0.066-0.147-0.131-0.221-0.193
				c-0.05-0.041-0.102-0.081-0.151-0.121c-0.081-0.064-0.16-0.129-0.241-0.19c-0.028-0.02-0.055-0.039-0.084-0.06
				c-0.1-0.074-0.201-0.149-0.302-0.217c-0.129-0.088-0.258-0.168-0.385-0.247c-0.024-0.014-0.045-0.027-0.068-0.041
				c-0.115-0.068-0.233-0.133-0.348-0.195c-0.014-0.007-0.028-0.015-0.041-0.022c-0.132-0.068-0.262-0.13-0.393-0.189
				c-0.012-0.005-0.025-0.011-0.037-0.016c-0.115-0.049-0.23-0.095-0.347-0.138c-0.025-0.009-0.049-0.019-0.072-0.027
				c-0.254-0.09-0.507-0.159-0.758-0.207c-0.026-0.005-0.051-0.01-0.077-0.014c-0.105-0.019-0.211-0.034-0.316-0.046
				c-0.02-0.002-0.041-0.004-0.062-0.006c-0.123-0.012-0.246-0.018-0.367-0.018c-0.005,0-0.009-0.001-0.014-0.001
				c-0.007,0.001-0.014,0.002-0.02,0.002c-0.451,0.002-0.89,0.077-1.309,0.235c-0.005,0.002-0.009,0.004-0.014,0.006
				c-0.522,0.199-0.982,0.511-1.379,0.921c-0.009,0.01-0.017,0.017-0.025,0.025c-1.05,0.878-2.229,2.096-2.863,2.706
				c-0.05,0.039-0.097,0.088-0.145,0.142c-2.561,2.231-5.161,4.031-7.686,5.514c-0.526,0.308-1.048,0.602-1.566,0.885l-1.544,0.813
				l0,0c-0.321,0.162-0.639,0.321-0.954,0.476c-1.907,0.719-2.396,4.104-1.093,7.56l0,0v0.001h0.001
				c1.111,2.947,3.166,4.994,4.929,5.087c0.305,0.016,0.6-0.025,0.882-0.132l0,0c0.342-0.092,0.687-0.183,1.034-0.271l1.698-0.409
				c0.339-0.077,0.681-0.151,1.026-0.221c1.406,2.456,2.033,5.125,2.213,6.645c0.021,0.191,0.037,0.364,0.046,0.517
				c0.097,1.624,1.024,1.789,2.906,1.572c1.621-0.187,3.092-0.494,2.197-3.041h0.001c-0.007-0.018-0.014-0.038-0.021-0.057
				c-0.019-0.057-0.043-0.115-0.066-0.175c-0.017-0.043-0.034-0.086-0.051-0.131c-0.026-0.063-0.054-0.129-0.082-0.195
				c-0.02-0.044-0.037-0.088-0.059-0.132c-0.032-0.073-0.067-0.147-0.102-0.222c-0.019-0.043-0.038-0.085-0.06-0.13
				c-0.042-0.085-0.086-0.174-0.131-0.263c-0.018-0.036-0.033-0.069-0.052-0.104c-0.809-1.568-1.922-3.311-3.075-4.917
				c1.755-0.239,3.585-0.396,5.505-0.442c0.213,0.069,0.417,0.102,0.603,0.088c0.577-0.014,1.374,0.021,2.215,0.051
				c0.86,0.03,1.767,0.055,2.537,0.016c0.427,0.012,0.843-0.04,1.244-0.165c0.073-0.019,0.145-0.041,0.209-0.064
				c0.835-0.316,1.516-0.923,2.031-1.752c0.708-1.139,1.102-2.696,1.157-4.488C266.77,70.887,266.36,68.445,265.431,65.982z
				 M259.572,76.56c-1.667-1.384-3.402-3.717-4.412-6.51c-1.725-4.773-1.284-10.629,0.612-11.344
				c1.206-0.454,2.651,0.046,4.054,1.236c1.63,1.384,3.203,3.703,4.273,6.541c1.991,5.28,1.49,10.357-1.118,11.34
				C262.139,78.141,260.876,77.642,259.572,76.56z"/>
			<path fill-rule="evenodd" clip-rule="evenodd" fill="#FFFFFF" d="M256.796,66.011c-0.582-0.008-1.131,0.132-1.611,0.387
				c0.117,1.068,0.359,2.182,0.738,3.228c0.398,1.101,0.944,2.109,1.554,2.97c1.47-0.329,2.576-1.629,2.601-3.201
				C260.106,67.555,258.637,66.04,256.796,66.011z"/>
		</g>
	</g>
	<g>
		<path fill-rule="evenodd" clip-rule="evenodd" fill="#B2DCE2" d="M64.419,74.145c7.132,1.297,12.562,6.586,12.702,12.982l0,0
			c0.145,6.576-5.211,13.491-12.717,13.656l-32.994,0.724c-8.034,0.177-14.367-6.124-14.52-13.057l0,0
			c-0.141-6.396,5.052-11.918,12.12-13.528c-0.007-0.128-0.012-0.258-0.015-0.386c-0.18-8.217,7.602-15.054,17.384-15.268
			c9.781-0.215,17.857,6.273,18.037,14.49C64.42,73.885,64.42,74.015,64.419,74.145z"/>
		<g>
			<path fill="#FFFFFF" d="M42.141,77.354c0.263,0.143,0.518,0.302,0.767,0.477l1.002-0.98l2.07,2.113l-1.002,0.981
				c0.645,0.96,1.064,2.024,1.255,3.121l1.402,0.014l-0.031,2.959L46.2,86.024c-0.214,1.092-0.655,2.148-1.321,3.094l0.982,1.001
				l-2.113,2.072l-0.98-1.004c-0.96,0.644-2.025,1.063-3.122,1.255l-0.015,1.403l-2.957-0.032l0.014-1.403
				c-0.806-0.156-1.591-0.439-2.328-0.842l1.018-1.859c2.251,1.233,5.131,0.914,7.059-0.974c2.362-2.311,2.402-6.1,0.09-8.46
				c-0.424-0.433-0.897-0.787-1.402-1.064L42.141,77.354z M36.856,76.478l0.015-1.401l2.958,0.03l-0.014,1.404
				c0.805,0.156,1.592,0.438,2.327,0.842l-1.017,1.858c-2.249-1.233-5.129-0.913-7.058,0.973c-2.361,2.313-2.401,6.099-0.09,8.461
				l0,0c0.424,0.432,0.897,0.787,1.401,1.063l-1.018,1.859c-0.261-0.143-0.518-0.303-0.766-0.478l-1.003,0.982l-2.069-2.114
				l1.002-0.981c-0.645-0.96-1.064-2.024-1.254-3.121l-1.403-0.016l0.032-2.957l1.402,0.015c0.214-1.093,0.655-2.148,1.32-3.094
				L30.64,78.8l2.114-2.069l0.981,1.003C34.694,77.088,35.759,76.669,36.856,76.478z"/>
			<path fill="#FFFFFF" d="M54.281,70.438c0.183,0.1,0.362,0.212,0.535,0.334l0.701-0.686l1.445,1.477l-0.701,0.684
				c0.451,0.67,0.744,1.415,0.878,2.181l0.98,0.01l-0.023,2.068l-0.979-0.01c-0.15,0.762-0.458,1.499-0.922,2.16l0.685,0.7
				l-1.477,1.446l-0.686-0.7c-0.67,0.451-1.415,0.744-2.18,0.877l-0.011,0.98l-2.067-0.022l0.011-0.979
				c-0.563-0.11-1.111-0.307-1.626-0.588l0.71-1.299c1.573,0.861,3.585,0.639,4.932-0.681c1.649-1.614,1.677-4.262,0.063-5.91
				c-0.297-0.304-0.626-0.551-0.98-0.744L54.281,70.438z M50.588,69.826l0.011-0.98l2.066,0.022l-0.01,0.979
				c0.563,0.112,1.112,0.307,1.626,0.59l-0.711,1.298c-1.572-0.862-3.584-0.638-4.932,0.679c-1.649,1.616-1.677,4.262-0.062,5.911
				l0,0c0.296,0.302,0.627,0.551,0.979,0.744l-0.71,1.299c-0.183-0.101-0.362-0.212-0.534-0.334l-0.701,0.686l-1.446-1.477
				l0.701-0.686c-0.451-0.67-0.743-1.414-0.877-2.18l-0.98-0.011l0.022-2.067l0.979,0.01c0.151-0.762,0.458-1.501,0.924-2.161
				l-0.686-0.698l1.477-1.447l0.687,0.7C49.077,70.253,49.822,69.96,50.588,69.826z"/>
		</g>
	</g>
	<g>
		<path fill-rule="evenodd" clip-rule="evenodd" fill="#B2DCE2" d="M112.292,24.474c5.423,1.196,9.429,5.4,9.354,10.301l0,0
			c-0.077,5.038-4.374,10.179-10.125,10.091L86.243,44.48c-6.156-0.094-10.825-5.099-10.744-10.41l0,0
			c0.075-4.902,4.208-8.981,9.665-10.01c-0.001-0.099-0.002-0.198,0-0.297c0.096-6.297,6.25-11.309,13.743-11.194
			c7.493,0.114,13.491,5.312,13.395,11.609C112.3,24.277,112.296,24.376,112.292,24.474z"/>
		<g>
			
				<rect x="88.278" y="26.101" transform="matrix(-0.9999 -0.0153 0.0153 -0.9999 196.9334 56.1326)" fill="#FFFFFF" width="20.806" height="2.425"/>
			<path fill="#FFFFFF" d="M105.765,39.57l3.132,0.048l0.129-8.452l-3.132-0.048l-0.063,4.137l1.513,1.561l-1.56,1.514
				L105.765,39.57z M88.094,39.3l17.671,0.27l0.019-1.24l0,0l-1.514-1.56l1.561-1.514l0,0l0,0l0.063-4.137l-17.671-0.27L88.094,39.3
				z"/>
		</g>
	</g>
	<g>
		<path fill-rule="evenodd" clip-rule="evenodd" fill="#B2DCE2" d="M175.227,15.159c6.904,1.524,12.005,6.877,11.91,13.117l0,0
			c-0.098,6.415-5.569,12.961-12.892,12.849l-32.187-0.492c-7.837-0.12-13.783-6.491-13.679-13.255l0,0
			c0.095-6.24,5.358-11.434,12.306-12.746c-0.002-0.125-0.003-0.251-0.001-0.377c0.123-8.017,7.957-14.398,17.499-14.252
			c9.541,0.146,17.178,6.763,17.055,14.78C175.237,14.908,175.232,15.034,175.227,15.159z"/>
		<g>
			<path fill-rule="evenodd" clip-rule="evenodd" fill="#FFFFFF" d="M170.836,23.37l1.097,0.017c3.15,0.048,3.34-3.518,0.054-3.574
				l-1.097-0.018l-0.005,0.286l0,0c0.826,0.012,1.485,0.692,1.473,1.519c-0.012,0.827-0.692,1.488-1.519,1.475l0,0L170.836,23.37z
				 M144.888,22.973l25.948,0.397l0.005-0.295c-0.829-0.012-1.487-0.694-1.475-1.521c0.013-0.826,0.692-1.485,1.52-1.473
				l0.005-0.286c-8.65-0.147-17.299-0.279-25.948-0.397l-0.005,0.286c0.826,0.013,1.487,0.693,1.474,1.519
				c-0.012,0.827-0.694,1.488-1.52,1.475L144.888,22.973z M143.79,22.956l1.098,0.016l0.005-0.295
				c-0.827-0.012-1.487-0.693-1.475-1.52c0.012-0.826,0.693-1.486,1.52-1.473l0.005-0.286l-1.098-0.015
				C140.558,19.338,140.638,22.908,143.79,22.956z"/>
			<circle fill-rule="evenodd" clip-rule="evenodd" fill="#FFFFFF" cx="160.068" cy="8.937" r="1.498"/>
			<path fill-rule="evenodd" clip-rule="evenodd" fill="#FFFFFF" d="M171.451,21.187L161.408,9.603
				c-0.231-0.267-0.64-0.295-0.908-0.064l0,0c-0.268,0.232-0.297,0.641-0.065,0.909l10.042,11.583
				c0.233,0.267,0.64,0.295,0.907,0.063l0,0C171.653,21.863,171.682,21.456,171.451,21.187z"/>
			<circle fill-rule="evenodd" clip-rule="evenodd" fill="#FFFFFF" cx="156.092" cy="8.876" r="1.498"/>
			<path fill-rule="evenodd" clip-rule="evenodd" fill="#FFFFFF" d="M144.339,20.772l11.334-12.293
				c0.241-0.259,0.65-0.276,0.91-0.036l0,0c0.26,0.24,0.276,0.65,0.036,0.91l-11.335,12.294c-0.24,0.259-0.649,0.276-0.909,0.036
				l0,0C144.115,21.442,144.099,21.034,144.339,20.772z"/>
			<path fill-rule="evenodd" clip-rule="evenodd" fill="#FFFFFF" d="M166.498,24.368l5.234,0.08l-1.489,7.868
				c-0.323,1.695-1.174,2.96-3.782,2.92l-0.129-0.002l0.036-2.379c0.376-0.178,0.669-0.543,0.734-0.967
				c0.136-0.897,0.276-1.796,0.412-2.694c0.138-0.899,0.277-1.796,0.413-2.694c0.092-0.605-0.369-1.107-1.027-1.118l0,0
				c-0.143-0.002-0.284,0.02-0.419,0.062L166.498,24.368z M162.191,24.302l4.307,0.066l-0.016,1.076
				c-0.475,0.148-0.852,0.548-0.909,1.019c-0.107,0.899-0.219,1.797-0.327,2.696c-0.109,0.899-0.218,1.798-0.326,2.696
				c-0.074,0.604,0.35,1.104,0.941,1.113l0,0c0.176,0.003,0.348-0.037,0.507-0.112l-0.036,2.379l-4.307-0.066l0.035-2.293
				c0.472-0.117,0.852-0.542,0.898-1.05c0.083-0.899,0.168-1.798,0.249-2.697c0.082-0.9,0.168-1.798,0.249-2.698
				c0.055-0.605-0.433-1.108-1.091-1.118l0,0c-0.065-0.001-0.128,0.002-0.19,0.011L162.191,24.302z M157.842,24.236l4.349,0.066
				l-0.016,1.023c-0.574,0.075-1.041,0.524-1.073,1.071c-0.053,0.9-0.11,1.799-0.163,2.698c-0.053,0.9-0.109,1.799-0.163,2.698
				c-0.035,0.604,0.419,1.105,1.009,1.114l0,0c0.093,0.001,0.186-0.009,0.274-0.031l-0.035,2.293l-4.349-0.066l0.035-2.258
				c0.591,0.009,1.087-0.478,1.106-1.082c0.028-0.9,0.056-1.799,0.084-2.7c0.029-0.9,0.056-1.8,0.084-2.7
				c0.02-0.606-0.5-1.109-1.157-1.119l0,0h-0.001L157.842,24.236z M153.492,24.169l4.35,0.067l-0.016,1.008
				c-0.655-0.009-1.193,0.478-1.192,1.083c0,0.9,0.001,1.8,0.002,2.701c0.001,0.9-0.002,1.801-0.001,2.701
				c0.001,0.604,0.487,1.106,1.074,1.115l0,0h0.001l-0.035,2.258l-4.35-0.067l0.035-2.293c0.089,0.024,0.181,0.037,0.275,0.038l0,0
				c0.589,0.009,1.056-0.478,1.039-1.083c-0.025-0.9-0.052-1.801-0.078-2.702c-0.026-0.901-0.054-1.802-0.08-2.703
				c-0.015-0.548-0.468-1.013-1.041-1.102L153.492,24.169z M149.186,24.103l4.306,0.066l-0.016,1.023
				c-0.06-0.011-0.122-0.016-0.184-0.017l0,0c-0.658-0.01-1.165,0.477-1.127,1.084c0.054,0.901,0.109,1.802,0.166,2.704
				c0.055,0.901,0.109,1.803,0.163,2.704c0.031,0.51,0.4,0.946,0.867,1.078l-0.035,2.293l-4.305-0.066l0.036-2.378
				c0.156,0.08,0.327,0.125,0.502,0.128l0,0c0.592,0.009,1.029-0.478,0.974-1.084c-0.081-0.901-0.16-1.803-0.241-2.705
				c-0.082-0.902-0.165-1.803-0.245-2.705c-0.041-0.474-0.405-0.885-0.876-1.048L149.186,24.103z M148.897,34.969
				c-2.608-0.04-3.419-1.331-3.689-3.035l-1.25-7.91l5.228,0.08l-0.016,1.075c-0.132-0.045-0.272-0.071-0.415-0.073l0,0
				c-0.657-0.01-1.133,0.478-1.06,1.086c0.109,0.902,0.219,1.803,0.33,2.706c0.111,0.902,0.219,1.804,0.328,2.706
				c0.051,0.426,0.335,0.8,0.703,0.989l-0.036,2.378L148.897,34.969z"/>
		</g>
	</g>
	<g>
		<path fill-rule="evenodd" clip-rule="evenodd" fill="#FFAE00" d="M238.411,26.562c7.046,1.556,12.251,7.018,12.154,13.385l0,0
			c-0.099,6.547-5.683,13.226-13.156,13.112l-32.844-0.502c-7.997-0.123-14.064-6.625-13.959-13.526l0,0
			c0.098-6.367,5.467-11.667,12.557-13.007c-0.002-0.128-0.003-0.256-0.001-0.385c0.125-8.181,8.12-14.691,17.859-14.543
			c9.735,0.149,17.528,6.901,17.403,15.082C238.422,26.306,238.416,26.434,238.411,26.562z"/>
		<g>
			<path fill-rule="evenodd" clip-rule="evenodd" fill="#FFFFFF" d="M220.831,23.476c-6.43-0.098-11.711,4.319-11.796,9.866
				c-0.051,3.33,1.782,6.311,4.648,8.182l-1.702,4.121l4.063-2.925c1.375,0.52,2.887,0.819,4.48,0.844
				c6.428,0.098,11.709-4.318,11.793-9.866C232.402,28.15,227.259,23.574,220.831,23.476z"/>
			<g>
				<circle fill-rule="evenodd" clip-rule="evenodd" fill="#5896CC" cx="215.582" cy="33.639" r="1.578"/>
				<circle fill-rule="evenodd" clip-rule="evenodd" fill="#5896CC" cx="220.674" cy="33.717" r="1.578"/>
				<circle fill-rule="evenodd" clip-rule="evenodd" fill="#5896CC" cx="225.765" cy="33.795" r="1.578"/>
			</g>
		</g>
	</g>
	<g>
		<path fill-rule="evenodd" clip-rule="evenodd" fill="#84CB75" d="M116.456,59.423c8.296,1.83,14.425,8.263,14.311,15.761l0,0
			c-0.118,7.708-6.692,15.573-15.491,15.439L76.6,90.031c-9.417-0.144-16.561-7.801-16.437-15.927l0,0
			c0.115-7.498,6.438-13.74,14.787-15.316c-0.003-0.151-0.003-0.303-0.001-0.453c0.147-9.634,9.562-17.301,21.028-17.126
			c11.466,0.176,20.642,8.127,20.494,17.761C116.468,59.12,116.462,59.272,116.456,59.423z"/>
		<g>
			<polygon fill-rule="evenodd" clip-rule="evenodd" fill="#DB9600" points="110.951,64.195 95.459,75.022 80.306,63.726 
				95.797,52.9 			"/>
			
				<rect x="84.421" y="54.842" transform="matrix(-0.9999 -0.0153 0.0153 -0.9999 190.0617 138.3451)" fill-rule="evenodd" clip-rule="evenodd" fill="#FFFDFA" width="22.276" height="27.208"/>
			<g>
				
					<rect x="88.039" y="58.494" transform="matrix(-0.9999 -0.0153 0.0153 -0.9999 181.5296 119.6563)" fill-rule="evenodd" clip-rule="evenodd" fill="#FFDE96" width="6.365" height="1.284"/>
				
					<rect x="87.938" y="61.054" transform="matrix(-0.9999 -0.0153 0.0153 -0.9999 190.3711 124.8451)" fill-rule="evenodd" clip-rule="evenodd" fill="#FFDE96" width="15.449" height="1.283"/>
				
					<rect x="87.902" y="63.444" transform="matrix(-0.9999 -0.0153 0.0153 -0.9999 190.2617 129.6256)" fill-rule="evenodd" clip-rule="evenodd" fill="#FFDE96" width="15.449" height="1.284"/>
				
					<rect x="87.865" y="65.835" transform="matrix(-0.9999 -0.0153 0.0153 -0.9999 190.1523 134.4055)" fill-rule="evenodd" clip-rule="evenodd" fill="#FFDE96" width="15.449" height="1.283"/>
				
					<rect x="87.828" y="68.224" transform="matrix(-0.9999 -0.0153 0.0153 -0.9999 190.0424 139.1837)" fill-rule="evenodd" clip-rule="evenodd" fill="#FFDE96" width="15.449" height="1.283"/>
				
					<rect x="87.792" y="70.615" transform="matrix(-0.9999 -0.0153 0.0153 -0.9999 189.933 143.9647)" fill-rule="evenodd" clip-rule="evenodd" fill="#FFDE96" width="15.449" height="1.283"/>
				
					<rect x="87.755" y="73.004" transform="matrix(-0.9999 -0.0153 0.0153 -0.9999 189.8234 148.744)" fill-rule="evenodd" clip-rule="evenodd" fill="#FFDE96" width="15.449" height="1.285"/>
			</g>
			<polygon fill-rule="evenodd" clip-rule="evenodd" fill="#FFAE00" points="80.029,81.814 110.674,82.283 110.951,64.195 
				95.459,75.022 80.306,63.726 			"/>
			<polygon fill-rule="evenodd" clip-rule="evenodd" fill="#FFCD61" points="80.029,81.814 110.674,82.283 98.285,73.047 
				92.695,72.961 92.695,72.961 			"/>
		</g>
	</g>
	<g>
		<path fill-rule="evenodd" clip-rule="evenodd" fill="#FF8E7D" d="M145.448,99.158c5.802,1.281,10.089,5.779,10.009,11.023l0,0
			c-0.082,5.39-4.681,10.891-10.833,10.797l-27.048-0.413c-6.586-0.101-11.582-5.455-11.495-11.139l0,0
			c0.08-5.244,4.502-9.608,10.341-10.711c-0.002-0.106-0.002-0.212-0.001-0.317c0.103-6.737,6.687-12.1,14.706-11.977
			s14.436,5.684,14.333,12.421C145.457,98.946,145.454,99.052,145.448,99.158z"/>
		<g>
			<path fill-rule="evenodd" clip-rule="evenodd" fill="#FFFFFF" d="M130.957,97.449c3.321,0.051,5.973,2.784,5.922,6.106
				c-0.034,2.164-1.205,4.044-2.939,5.077l-0.709,4.947l-5.04-0.077l-0.558-4.967c-1.7-1.085-2.815-3.001-2.781-5.165
				C124.903,100.049,127.635,97.398,130.957,97.449z"/>
			<g>
				<path fill="#5896CC" d="M129.763,110.984c0.029,0.128-0.052,0.256-0.18,0.286c-0.13,0.028-0.258-0.053-0.286-0.181l-0.959-4.186
					l0.031-1.957l0.023,0.049c-0.005-0.023-0.012-0.043-0.023-0.062v-0.01c0.086,0.094,0.18,0.182,0.28,0.266
					c0.582,0.484,1.351,0.745,2.116,0.761c0.76,0.015,1.512-0.214,2.067-0.706c0.093-0.081,0.18-0.172,0.263-0.272
					c0.084-0.101,0.235-0.115,0.337-0.031c0.076,0.064,0.103,0.164,0.076,0.254l-1.551,5.935c-0.034,0.126-0.164,0.204-0.293,0.172
					c-0.126-0.033-0.204-0.163-0.171-0.291l1.351-5.173c-0.604,0.415-1.345,0.605-2.09,0.59c-0.778-0.016-1.562-0.257-2.196-0.706
					L129.763,110.984z M128.339,106.903l-0.412-1.803c-0.029-0.13,0.051-0.258,0.181-0.287c0.091-0.02,0.184,0.016,0.238,0.086
					l0.024,0.024v0.01c-0.008-0.012-0.016-0.024-0.024-0.034l0.024,0.047L128.339,106.903z"/>
			</g>
			<path fill-rule="evenodd" clip-rule="evenodd" fill="#5896CC" d="M127.343,110.458l6.829,0.104l-0.39,3.174
				c-0.071,0.574-0.096,0.847-0.863,0.835l-4.447-0.068c-0.766-0.012-0.784-0.284-0.836-0.861L127.343,110.458z"/>
			<g>
				<path fill="#FFFFFF" d="M134.697,92.455c0.058-0.154,0.23-0.232,0.384-0.173c0.154,0.058,0.232,0.23,0.173,0.385l-1.374,3.602
					c-0.059,0.154-0.23,0.232-0.385,0.173c-0.155-0.058-0.232-0.232-0.173-0.385L134.697,92.455z"/>
				<path fill="#FFFFFF" d="M138.185,94.42c0.108-0.125,0.297-0.139,0.422-0.031c0.124,0.107,0.139,0.297,0.03,0.422l-2.522,2.914
					c-0.108,0.125-0.297,0.138-0.422,0.031c-0.124-0.108-0.139-0.296-0.03-0.421L138.185,94.42z"/>
				<path fill="#FFFFFF" d="M140.793,97.459c0.145-0.081,0.326-0.029,0.407,0.115c0.08,0.145,0.029,0.325-0.114,0.407l-3.368,1.876
					c-0.145,0.081-0.326,0.029-0.408-0.115c-0.08-0.145-0.028-0.326,0.116-0.406L140.793,97.459z"/>
				<path fill="#FFFFFF" d="M142.205,101.206c0.163-0.025,0.316,0.086,0.342,0.25c0.026,0.162-0.086,0.316-0.249,0.342l-3.808,0.612
					c-0.163,0.026-0.316-0.085-0.341-0.249c-0.026-0.163,0.085-0.316,0.247-0.342L142.205,101.206z"/>
				<path fill="#FFFFFF" d="M130.744,91.804c0.002-0.167,0.139-0.298,0.304-0.296c0.166,0.003,0.297,0.138,0.295,0.305l-0.059,3.853
					c-0.002,0.166-0.138,0.298-0.304,0.295c-0.165-0.002-0.297-0.138-0.295-0.304L130.744,91.804z"/>
				<path fill="#FFFFFF" d="M126.809,92.539c-0.054-0.156,0.028-0.326,0.185-0.38c0.156-0.054,0.326,0.029,0.378,0.185l1.263,3.643
					c0.054,0.154-0.028,0.326-0.183,0.379c-0.157,0.054-0.328-0.029-0.381-0.185L126.809,92.539z"/>
				<path fill="#FFFFFF" d="M123.361,94.577c-0.103-0.128-0.084-0.317,0.043-0.421c0.128-0.104,0.316-0.084,0.421,0.044l2.432,2.99
					c0.104,0.129,0.084,0.316-0.044,0.42c-0.129,0.103-0.315,0.084-0.42-0.043L123.361,94.577z"/>
				<path fill="#FFFFFF" d="M120.818,97.671c-0.142-0.086-0.187-0.268-0.102-0.411c0.085-0.141,0.268-0.187,0.409-0.102l3.31,1.978
					c0.141,0.085,0.187,0.268,0.102,0.409c-0.085,0.142-0.269,0.188-0.41,0.102L120.818,97.671z"/>
				<path fill="#FFFFFF" d="M119.488,101.448c-0.163-0.03-0.269-0.187-0.238-0.349c0.031-0.163,0.187-0.269,0.35-0.239l3.786,0.728
					c0.163,0.031,0.269,0.187,0.238,0.35c-0.032,0.163-0.189,0.269-0.35,0.238L119.488,101.448z"/>
			</g>
		</g>
	</g>
	<g>
		<g>
			<g>
				<g>
					<path fill="#DB4E4B" d="M223.451,277.831c-0.094,6.218-5.675,11.176-12.462,11.071l-66.572-1.018
						c-6.787-0.104-12.213-5.229-12.117-11.447l0,0c0.095-6.218,5.675-11.174,12.462-11.07l66.572,1.018
						C218.121,266.489,223.545,271.613,223.451,277.831L223.451,277.831z"/>
					<path fill="#FF6860" d="M222.395,273.123c-1.885-3.902-6.103-6.661-11.061-6.738l-66.572-1.018
						c-4.957-0.076-9.26,2.554-11.262,6.396L222.395,273.123z"/>
				</g>
				<polygon fill="#9AA1A5" points="180.844,350.963 181.805,288.144 173.611,288.019 172.649,350.963 				"/>
			</g>
		</g>
		<path fill="#5896CC" d="M216.62,239.642c-1.021-2.651-1.702-5.144-3.45-7.534l-69.637-1.651
			c-4.914,8.706-5.734,21.243-3.151,26.325c5.354,10.535,24.295,10.878,35.894,11.055c11.771,0.181,23.816-0.973,34.539-4.61
			C216.137,261.424,219.583,247.325,216.62,239.642z"/>
		<g>
			<path fill="#EFAC95" d="M137.337,144.309c-6.004,6.443-10.49,41.081-10.206,48.913c8.623,0.572,16.333-0.146,25.083-0.249
				c-1.569-15.585-0.746-30.571,2.1-45.787L137.337,144.309z"/>
			<path fill="#EFAC95" d="M154.535,145.992c-0.078,0.398-0.147,0.796-0.222,1.194l0.735,0.124
				C154.678,146.666,155.539,146.159,154.535,145.992z"/>
		</g>
		<path fill-rule="evenodd" clip-rule="evenodd" fill="#EFAC95" d="M224.054,145.634c0,0,7.145,24.013,8.189,45.202l-21.189,1.041
			l-3.45-42.398L224.054,145.634z"/>
		<g>
			<path fill-rule="evenodd" clip-rule="evenodd" fill="#FFCD61" d="M165.445,125.423c-7.667-1.112-29.213,1.794-34.368,26.302
				l21.735,7.845l16.687-32.681C168.121,126.495,166.765,126.009,165.445,125.423z"/>
			<path fill-rule="evenodd" clip-rule="evenodd" fill="#FFCD61" d="M191.582,125.332c0,0,25.989-2.335,36.497,25.144
				l-24.748,10.549L191.582,125.332z"/>
			<path fill-rule="evenodd" clip-rule="evenodd" fill="#FFAE00" d="M190.956,125.472c-6.927,3.012-14.894,3.466-22.156,1.214
				c-26.504,13.397-27.135,105.02-27.135,105.02l72.188,0.51C213.852,232.217,218.959,136.305,190.956,125.472z"/>
		</g>
		<path fill="#FDCFBC" d="M191.708,55.541l-26.791,7.089c-12.074-0.121-10.16,25.614-7.597,32.112
			c3.959,10.038,10.723,18.284,22.282,18.113C202.315,112.519,211.929,65.36,191.708,55.541z"/>
		<g>
			<path fill="#FDCFBC" d="M218.267,193.948l-1.016-0.357C217.386,194.295,217.773,193.87,218.267,193.948z"/>
			<path fill="#FDCFBC" d="M265.165,138.035c-2.711-4.293-3.128-0.382-6.184,1.339c-6.053,3.408-7.227,2.627-13.727,4.382
				c-8.421,2.274-14.883,15.597-19.305,22.943c-4.34,7.211-12.652,16.776-13.53,25.198l4.83,1.693
				c-0.008-0.032-0.015-0.064-0.02-0.101c5.016,0.293,10.473,2.037,14.309-1.301c4.183-3.638,3.997-38.186,19.709-39.478
				c5.961-0.491,7.549-1.377,12.936-3.852C264.806,146.846,266.404,139.997,265.165,138.035z"/>
		</g>
		<path fill="#EFAC95" d="M191.077,113.714l-22.554,1.02c-1.882,3.179-0.76,10.785-0.824,14.909
			c8.235,0.546,15.572,0.675,23.707,0.362C191.919,125.193,191.324,118.632,191.077,113.714z"/>
		<path fill="#475259" d="M196.821,101.743c-5.692,2.127-7.906,11.956-18.34,11.788c-10.507-0.171-12.351-10.209-18.066-12.424
			c-0.159,10.404,5.93,19.369,17.917,19.552C190.333,120.843,196.671,111.458,196.821,101.743z"/>
		<path fill="#475259" d="M179.229,96.872c-5.767-2.457-9.132,3.667-11.675,4.229c3.101,5.05,7.085-2.458,11.629-1.203
			c4.581-1.115,8.334,6.511,11.589,1.558C188.247,100.817,185.07,94.593,179.229,96.872z"/>
		<path fill="#475259" d="M156.385,88.348c6.307-17.628,0.419-28.571,35.68-31.272c-0.434,18.948,7.864,22.902,10.181,30.438
			c2.777-8.118,1.36-35.855-22.414-36.218C156.063,50.932,153.973,77.255,156.385,88.348z"/>
		<path fill-rule="evenodd" clip-rule="evenodd" fill="#FFCD61" d="M166.129,125.434c0,0,14.465,3.827,28.879-0.734l3.331,5.515
			c0,0-11.765,10.064-36.212,0.811L166.129,125.434z"/>
		<path fill="#FDCFBC" d="M111.353,191.036c0,0,14.704-23.679,26.64-0.276L111.353,191.036z"/>
		<path fill="#73C1D9" d="M148.298,311.308c1.861,13.273,3.787,26.494,6.326,39.655h7.31l10.116-0.968
			c2.136-16.005,3.749-31.843,4.739-47.957c0.955-15.552,1.515-30.315-1.411-45.691c-2.557-13.45-25.726-23.979-30.777-5.53
			c-2.232,8.148-0.103,18.648,0.145,27C145.081,289.124,146.73,300.127,148.298,311.308z"/>
		<path fill="#73C1D9" d="M198.287,350.963c3.761-13.627,7.123-27.248,10.105-41.072c3.183-14.763,5.592-29.14,6.164-44.245
			c0.451-11.979-13.464-33.889-26.856-19.495c-6.875,7.394-6.181,18.284-6.444,27.615c-0.326,11.547-1.874,23.032-1.984,34.583
			c-0.134,14.1,0.57,28.572,1.327,42.613H198.287z"/>
		<g>
			
				<rect x="30.382" y="190.72" transform="matrix(0.9999 0.0153 -0.0153 0.9999 3.0183 -2.5635)" fill="#C0C5C8" width="277.582" height="10.818"/>
			
				<rect x="57.382" y="201.154" transform="matrix(0.9999 0.0153 -0.0153 0.9999 3.1629 -2.5604)" fill="#9AA1A5" width="223.296" height="8.832"/>
			<polygon fill="#9AA1A5" points="98.767,350.963 100.974,206.627 88.683,206.439 86.473,350.963 			"/>
			<polygon fill="#9AA1A5" points="242.524,350.963 244.691,209.175 232.403,208.987 230.232,350.963 			"/>
			
				<rect x="93.837" y="245.389" transform="matrix(0.9999 0.0153 -0.0153 0.9999 3.8346 -2.5013)" fill="#9AA1A5" width="143.4" height="8.393"/>
		</g>
		<g>
			<path fill="#2D2D2D" d="M207.161,85.054c0,0.859-0.696,1.555-1.555,1.555l0,0c-0.859,0-1.555-0.696-1.555-1.555v-9.004
				c0-0.859,0.696-1.555,1.555-1.555l0,0c0.859,0,1.555,0.696,1.555,1.555V85.054z"/>
			<path fill="#2D2D2D" d="M154.112,85.054c0,0.859-0.696,1.555-1.555,1.555l0,0c-0.859,0-1.555-0.696-1.555-1.555v-9.004
				c0-0.859,0.696-1.555,1.555-1.555l0,0c0.859,0,1.555,0.696,1.555,1.555V85.054z"/>
			<path fill="#444444" d="M203.045,83.795c0,1.475-1.196,2.671-2.671,2.671l-21.142-1.335l-21.439,1.335
				c-1.475,0-2.671-1.196-2.671-2.671V70.293c0-1.475,1.196-2.671,2.671-2.671l21.365-1.335l21.217,1.335
				c1.475,0,2.671,1.196,2.671,2.671V83.795z"/>
			<path fill="#2D2D2D" d="M203.045,90.917c0,1.475-1.196,2.671-2.671,2.671l-21.142-1.335l-21.439,1.335
				c-1.475,0-2.671-1.196-2.671-2.671V77.415c0-1.475,1.196-2.671,2.671-2.671l21.365-1.335l21.217,1.335
				c1.475,0,2.671,1.196,2.671,2.671V90.917z"/>
			<path fill="#444444" d="M205.524,88.492c0,1.628-1.319,2.947-2.947,2.947l-23.33-1.474l-23.657,1.474
				c-1.628,0-2.947-1.319-2.947-2.947V73.593c0-1.628,1.319-2.947,2.947-2.947l23.575-1.474l23.411,1.474
				c1.628,0,2.947,1.319,2.947,2.947V88.492z"/>
			<path fill="#595959" d="M179.084,69.178l-23.493,1.468c-1.628,0-2.947,1.319-2.947,2.947v14.898c0,1.628,1.319,2.947,2.947,2.947
				l23.493-1.463V69.178z"/>
			<circle fill="#FF3939" cx="202.065" cy="74.207" r="0.921"/>
		</g>
	</g>
</g>
</svg>
