<?xml version="1.0" encoding="utf-8"?>
<!-- Generator: Adobe Illustrator 21.1.0, SVG Export Plug-In . SVG Version: 6.00 Build 0)  -->
<svg version="1.1" id="Слой_1" xmlns="http://www.w3.org/2000/svg" xmlns:xlink="http://www.w3.org/1999/xlink" x="0px" y="0px"
	 viewBox="0 0 523.5 429.1" style="enable-background:new 0 0 523.5 429.1;" xml:space="preserve">
<style type="text/css">
	.st0{opacity:0.42;}
	.st1{fill:#6E6E6E;}
	.st2{opacity:0.5;}
	.st3{fill:#FFFFFF;}
	.st4{fill:#66DBFF;}
	.st5{fill:#F8B423;}
	.st6{fill:#DBDBDB;}
	.st7{fill:#FED770;}
	.st8{fill:#474747;}
	.st9{fill:#515151;}
	.st10{fill:url(#SVGID_1_);}
	.st11{fill:#FFD48F;}
	.st12{fill:#F0BE6E;}
	.st13{fill:#007EAA;}
	.st14{fill:#E0B267;}
	.st15{fill:#44C3B8;}
	.st16{fill:#D6A058;}
	.st17{fill:#344042;}
	.st18{fill:#E63D50;}
	.st19{fill:#AF7E44;}
	.st20{fill:#469E3E;}
	.st21{fill:#51B748;}
	.st22{fill:#F55D5D;}
	.st23{fill:#F5A2A2;}
	.st24{fill:#057277;}
	.st25{fill:#4497C9;}
	.st26{fill:#5FE0BA;}
	.st27{fill:#E0E0E0;}
	.st28{fill:#B83030;}
	.st29{fill:#DB3939;}
	.st30{fill:#EBEBEB;}
	.st31{fill:#FFD942;}
	.st32{fill:#22B39C;}
	.st33{fill:#2ADBBF;}
	.st34{fill:#999999;}
</style>
<g>
	<g class="st0">
		<path class="st1" d="M144.6,148.2v-35.4l-5.7-5.2V78.9v0l0,0l-13.7-13.7H85.5c-4,0-7.3,3.3-7.3,7.3v35.1l-5.7,5.2v35.4V160h72.1
			V148.2z"/>
		<path class="st1" d="M329.9,74.5h5.4l-3,14.5l20.5-14.5h31.5c4.9,0,8.8-3.9,8.8-8.8V38.3c0-4.9-3.9-8.8-8.8-8.8h-54.4
			c-4.9,0-8.8,3.9-8.8,8.8v27.4C321.1,70.6,325,74.5,329.9,74.5z"/>
		<path class="st1" d="M100.8,234c-1.3,0-2.5,0.1-3.7,0.4c-3.9-6.6-11.1-11-19.3-11c-9.7,0-18,6.2-21.1,14.9
			c-6.3,0.8-11.5,5-13.8,10.6h75.5C117.1,240.5,109.7,234,100.8,234z"/>
		<path class="st1" d="M477.4,149.9c-1.5,0-2.9,0.2-4.3,0.4c-4.5-7.6-12.8-12.8-22.3-12.8c-11.3,0-20.9,7.2-24.4,17.3
			c-7.2,0.9-13.3,5.8-16,12.3h87.4C496.2,157.3,487.6,149.9,477.4,149.9z"/>
		<path class="st1" d="M241.8,20.4c-1.7,0-3.4,0.2-5,0.5C231.7,12.1,222,6.2,211,6.2c-13.1,0-24.2,8.4-28.3,20.1
			c-8.4,1.1-15.4,6.7-18.5,14.2h101.3C263.6,29.1,253.8,20.4,241.8,20.4z"/>
		<polygon class="st1" points="523.5,330.5 6.2,330.5 6.2,341.5 11.3,341.5 11.3,352 517.1,352 517.1,341.5 523.5,341.5 		"/>
		<path class="st1" d="M245.1,111.2c-2.4,5-2.4,23.6-2.4,23.6s0,0,0,0c-2.8,0.4-4.6,3.9-4.6,7.1c0,6.6,3.9,12.8,8.4,11.8
			c0.3-0.1,0.6-0.2,0.8-0.3c0.5,1.6,1,3.1,1.6,4.6h-63c-8.7,0-15.7,7.1-15.7,15.7v99.9v10.9v6.6c0,0.9,0.1,1.7,0.4,2.5H66.8v5v7.3v5
			H63v18.7h6.2h2.6h2.5H77h83.7h2.6h2.5h2.6h5.5v-18.7h-2.3v-5v-7.3v-2.5c1.6,2.4,4.4,4,7.6,4h6.6h64.6l-6.4,17.6h-7
			c-3.5,0-6.4,2.1-7.8,5.1h-15.7v1.7h-3.7v-1.7h-7.6v1.7h-2.2v-1.7h-7.6v1.7h-7.7v5.6h114.6v-0.5h26.4v-3.4c0-4.7-3.8-8.5-8.5-8.5
			h-7l-6.4-17.6h64.6h6.6c5,0,9-4,9.1-8.9c6.4,9.7,17.1,16.2,29.4,16.7v1.7l-0.7,0l0,5.1l-15.9,0c-5.4,0-9.7,4.4-9.7,9.7v0l2.3,0
			c0,0.1,0,0.2,0,0.4c0,2.9,2.3,5.2,5.2,5.2h0.3h0.5h0.6h0.5h0.6h0.5h38.8l2.8-1.5c0.9,0.9,2.2,1.5,3.7,1.5h25.3
			c2.2,0,4-1.3,4.9-3.1c3.1,2.5,7,3.8,11.3,2.7c10.3,2.8,18.9-8.9,18.9-19.8c0-10.6-8-15.8-18.1-12c0.2-1.2,0.6-2.4,1-3.4
			c1.4-3.2,3.5-5.2,4.6-6c0.4-0.3,0.5-0.8,0.2-1.2l0,0c-0.3-0.5-0.9-0.6-1.4-0.2c-1.3,1-3.6,3.2-5.2,6.8c-0.1,0.1-0.1,0.3-0.2,0.4
			c-1-1.8-2.8-4.4-5.5-5.9c-4.6-2.5-10.3-1.1-10.3-1.1s1.9,5.5,6.5,8c3.1,1.7,6.5,1.6,8.6,1.4c-0.1,0.4-0.2,0.9-0.3,1.3
			c-10.4-3.8-17.9,1.4-18,11.9l-1.8-3h0v-16.3c0.8-0.1,1.3-0.8,1.3-1.6c0-0.9-0.7-1.7-1.7-1.7H455c2.3-5.2,3.5-10.8,3.5-16.8
			c0-23.6-19.2-42.9-42.9-42.9h-1v3.6h0.7v2.4c-3.6,0-7.1,0.5-10.4,1.5c-0.1,0-0.2,0-0.2,0.1c-0.9,0.3-1.7,0.5-2.6,0.9
			c-0.1,0-0.1,0-0.2,0.1c-0.8,0.3-1.6,0.7-2.4,1c0,0,0,0-0.1,0c-0.8,0.4-1.6,0.8-2.4,1.2c-0.1,0-0.2,0.1-0.2,0.1
			c-1.5,0.9-3,1.9-4.4,3c-0.1,0.1-0.1,0.1-0.2,0.2c-1.4,1.1-2.7,2.3-3.9,3.6c0,0-0.1,0.1-0.1,0.1c-0.6,0.7-1.2,1.3-1.8,2
			c0,0,0,0-0.1,0.1c-0.6,0.7-1.1,1.4-1.6,2.2c0,0,0,0,0,0c-0.2,0.2-0.3,0.4-0.4,0.7v-76.8c0-8.6-6.9-15.6-15.4-15.7l2-11.7
			c0.8-0.8,3.1-3.6,3.8-4.8c3-5.3,4.2-18.7,4.5-25.4c0.1-2-0.1-3.3-1.5-3.5c-1.3-0.2-2.1,1.1-2.3,2.5c-0.3,2.6-0.8,10.4-1.8,10.3
			c-1-0.1,0-10.5,0.5-13.9c0.2-1.5-0.4-3.2-1.8-3.3c-1.5-0.1-2.2,1.2-2.4,2.5c-0.4,3.5-1.7,14-2.7,13.9c-0.8-0.1,0.7-14.2,0.9-16.1
			c0.2-1.8-0.5-3.2-1.8-3.4c-1.4-0.2-2.2,1.1-2.5,3c-0.6,4.1-1.3,16.1-2.3,16c-0.9-0.1-0.5-10.1-0.3-13.5c0.1-1.7-0.4-3-1.7-3.2
			c-1.6-0.2-2.2,1.3-2.4,3.3c-0.5,4.2-1,16.7-1.8,17c-0.7,0.3-2.6-3.2-3.9-4.5c-0.9-1-2.2-2-3.3-1.6c-1.1,0.4-1.4,1.7-0.6,3
			c1.8,3.1,8,18.7,8.4,19.5l-3.2,13.8h-51.6c0.6-1.5,1.1-3,1.6-4.6c0.3,0.1,0.5,0.2,0.8,0.3c4.6,1,8.4-5.3,8.4-11.8
			c0-2.8-1.4-5.9-3.6-6.8c0,0,0,0,0,0s1.2-10,0-16.7c-1.1-6.2-5.1-20.9-17-19.9c-2.3,0.2-5.4-7.3-26.3-3
			C257.5,97.1,249.7,101.5,245.1,111.2z M447.8,290.8v2.3c-7.1,9.9-18.7,16.6-31.8,16.9v-1.7c4-0.1,7.8-0.7,11.4-1.9c0,0,0,0,0.1,0
			c1.6-0.5,3.2-1.2,4.7-1.9c0,0,0,0,0,0c0.7-0.4,1.5-0.8,2.2-1.2c0,0,0,0,0,0c1.4-0.8,2.8-1.8,4.1-2.8c0,0,0.1-0.1,0.1-0.1
			c1.3-1,2.5-2.1,3.6-3.2c0,0,0.1-0.1,0.1-0.1c0.5-0.5,1-1.1,1.5-1.7c0,0,0.1-0.1,0.1-0.1c1-1.2,2-2.5,2.8-3.8
			c0.1-0.1,0.1-0.2,0.2-0.3c0.1-0.2,0.2-0.3,0.3-0.5C447.4,290.6,447.6,290.7,447.8,290.8z M447.8,307.1L447.8,307.1l-6.1,9.8
			c-1.6-1.2-3.6-1.9-5.7-1.9l-19.4,0v-1.5c12.4-0.4,23.5-6.1,31.2-14.7V307.1z M443.5,243c7.4,7.4,11.5,17.3,11.5,27.7
			c0,6-1.4,11.7-3.9,16.8h-2.3c0.1-0.2,0.2-0.5,0.3-0.7c0-0.1,0.1-0.2,0.1-0.3c0.3-0.7,0.6-1.3,0.9-2c0-0.1,0.1-0.2,0.1-0.2
			c0.3-0.8,0.6-1.5,0.8-2.3c0,0,0,0,0,0h0c1-3.4,1.6-7.1,1.6-10.8c0-19.7-15.3-35.8-34.6-37.1v-2.4
			C427.6,232.1,436.6,236.1,443.5,243z"/>
		<polygon class="st1" points="77.4,279.9 78.6,279.9 78.6,291.1 77.4,291.1 77.4,293.8 163.5,293.8 163.5,291.1 162.6,291.1 
			162.6,279.9 163.5,279.9 163.5,277.1 77.4,277.1 		"/>
	</g>
	<g class="st2">
		<path class="st3" d="M267.2,401.6l-1.3,0l0-0.9l1.3,0L267.2,401.6z M269.7,401.6l0-0.9c0.4,0,0.8,0,1.3,0l0,0.9
			C270.6,401.6,270.2,401.6,269.7,401.6z M263.4,401.6l-1.3,0l0-0.9l1.3,0L263.4,401.6z M273.5,401.5l0-0.9c0.4,0,0.8,0,1.3,0l0,0.9
			C274.4,401.5,274,401.5,273.5,401.5z M259.6,401.4l-1.3-0.1l0-0.9l1.3,0.1L259.6,401.4z M277.3,401.4l0-0.9l1.3-0.1l0.1,0.9
			L277.3,401.4z M255.8,401.2l-1.3-0.1l0.1-0.9l1.3,0.1L255.8,401.2z M281.1,401.1l-0.1-0.9l1.3-0.1l0.1,0.9L281.1,401.1z
			 M252.1,400.9l-1.3-0.1l0.1-0.9l1.3,0.1L252.1,400.9z M284.9,400.8l-0.1-0.9l1.3-0.1l0.1,0.9L284.9,400.8z M248.3,400.5l-1.3-0.1
			l0.1-0.9l1.3,0.1L248.3,400.5z M288.7,400.4l-0.1-0.9l1.3-0.1l0.1,0.9L288.7,400.4z M244.5,400.1l-1.3-0.2l0.1-0.9l1.2,0.2
			L244.5,400.1z M292.4,400l-0.1-0.9l1.2-0.2l0.1,0.9L292.4,400z M240.8,399.6l-1.2-0.2l0.2-0.9l1.2,0.2L240.8,399.6z M296.2,399.4
			l-0.1-0.9l1.2-0.2l0.2,0.9L296.2,399.4z M237,399l-1.2-0.2l0.2-0.9l1.2,0.2L237,399z M299.9,398.8l-0.2-0.9l1.2-0.2l0.2,0.9
			L299.9,398.8z M233.3,398.3l-1.2-0.2l0.2-0.9l1.2,0.2L233.3,398.3z M303.6,398.1l-0.2-0.9l1.2-0.3l0.2,0.9L303.6,398.1z
			 M229.6,397.5l-1.2-0.3l0.2-0.9l1.2,0.3L229.6,397.5z M307.4,397.3l-0.2-0.9l1.2-0.3l0.2,0.9L307.4,397.3z M225.9,396.7l-1.2-0.3
			l0.2-0.9l1.2,0.3L225.9,396.7z M311,396.4l-0.2-0.9l1.2-0.3l0.2,0.9L311,396.4z M222.2,395.7l-1.2-0.3l0.2-0.9l1.2,0.3
			L222.2,395.7z M314.7,395.5l-0.2-0.9l1.2-0.3l0.2,0.9L314.7,395.5z M218.5,394.7l-1.2-0.4l0.3-0.9l1.2,0.3L218.5,394.7z
			 M318.4,394.5l-0.3-0.9l1.2-0.4l0.3,0.9L318.4,394.5z M214.9,393.6l-1.2-0.4l0.3-0.9l1.2,0.4L214.9,393.6z M322,393.4l-0.3-0.9
			l1.2-0.4l0.3,0.9L322,393.4z M211.3,392.5l-1.2-0.4l0.3-0.9l1.2,0.4L211.3,392.5z M325.6,392.2l-0.3-0.9l1.2-0.4l0.3,0.9
			L325.6,392.2z M207.7,391.3l-1.2-0.4l0.3-0.9l1.2,0.4L207.7,391.3z M329.2,390.9l-0.3-0.9l1.2-0.4l0.3,0.9L329.2,390.9z
			 M204.2,389.9l-1.2-0.5l0.3-0.9l1.2,0.5L204.2,389.9z M332.8,389.6l-0.3-0.9l1.2-0.5l0.3,0.9L332.8,389.6z M200.6,388.6l-1.2-0.5
			l0.4-0.9l1.2,0.5L200.6,388.6z M336.3,388.2l-0.4-0.9l1.2-0.5l0.4,0.9L336.3,388.2z M197.1,387.1l-1.2-0.5l0.4-0.9l1.2,0.5
			L197.1,387.1z M339.8,386.7l-0.4-0.9l1.2-0.5l0.4,0.9L339.8,386.7z M193.7,385.6c-0.4-0.2-0.8-0.3-1.1-0.5l0.4-0.9
			c0.4,0.2,0.8,0.3,1.1,0.5L193.7,385.6z M343.3,385.2l-0.4-0.9l1.1-0.5l0.4,0.9L343.3,385.2z M190.3,384l-1.1-0.5l0.4-0.8l1.1,0.5
			L190.3,384z M346.7,383.5l-0.4-0.8l1.1-0.6l0.4,0.8L346.7,383.5z M186.9,382.3c-0.4-0.2-0.7-0.4-1.1-0.6l0.4-0.8
			c0.4,0.2,0.7,0.4,1.1,0.6L186.9,382.3z M350.1,381.8l-0.4-0.8l1.1-0.6l0.4,0.8L350.1,381.8z M183.5,380.6l-1.1-0.6l0.5-0.8
			l1.1,0.6L183.5,380.6z M353.5,380.1l-0.5-0.8l1.1-0.6l0.5,0.8L353.5,380.1z M180.2,378.8l-1.1-0.6l0.5-0.8l1.1,0.6L180.2,378.8z
			 M356.8,378.2l-0.5-0.8l1.1-0.6l0.5,0.8L356.8,378.2z M176.9,376.9l-1.1-0.6l0.5-0.8l1.1,0.6L176.9,376.9z M360.1,376.3l-0.5-0.8
			c0.4-0.2,0.7-0.4,1.1-0.6l0.5,0.8C360.8,375.9,360.5,376.1,360.1,376.3z M173.7,374.9l-1.1-0.7l0.5-0.8l1.1,0.7L173.7,374.9z
			 M363.3,374.3l-0.5-0.8l1.1-0.7l0.5,0.8L363.3,374.3z M170.5,372.9l-1.1-0.7l0.5-0.8l1.1,0.7L170.5,372.9z M366.5,372.3l-0.5-0.8
			l1.1-0.7l0.5,0.8L366.5,372.3z M167.3,370.8l-1-0.7l0.5-0.8l1,0.7L167.3,370.8z M369.7,370.1l-0.5-0.8c0.3-0.2,0.7-0.5,1-0.7
			l0.5,0.8C370.4,369.7,370,369.9,369.7,370.1z M164.2,368.7c-0.3-0.2-0.7-0.5-1-0.7l0.6-0.8c0.3,0.2,0.7,0.5,1,0.7L164.2,368.7z
			 M372.8,368l-0.6-0.8c0.3-0.2,0.7-0.5,1-0.7l0.6,0.8C373.5,367.5,373.1,367.7,372.8,368z M161.1,366.4l-1-0.8l0.6-0.8l1,0.7
			L161.1,366.4z M375.9,365.7l-0.6-0.8l1-0.8l0.6,0.8L375.9,365.7z M158.1,364.2l-1-0.8l0.6-0.7l1,0.8L158.1,364.2z M378.9,363.4
			l-0.6-0.7l1-0.8l0.6,0.7L378.9,363.4z M155.1,361.8l-1-0.8l0.6-0.7l1,0.8L155.1,361.8z M381.8,361l-0.6-0.7l1-0.8l0.6,0.7
			L381.8,361z M152.2,359.4l-1-0.8l0.6-0.7l1,0.8L152.2,359.4z M384.7,358.6l-0.6-0.7l1-0.8l0.6,0.7L384.7,358.6z M149.3,356.9
			l-0.9-0.8l0.6-0.7l0.9,0.8L149.3,356.9z M387.6,356.1l-0.6-0.7l0.9-0.8l0.6,0.7L387.6,356.1z M146.5,354.4l-0.9-0.9l0.6-0.7
			l0.9,0.9L146.5,354.4z M390.4,353.6l-0.6-0.7l0.9-0.9l0.7,0.7L390.4,353.6z M143.8,351.8l-0.9-0.9l0.7-0.7l0.9,0.9L143.8,351.8z
			 M393.2,351l-0.7-0.7l0.9-0.9l0.7,0.7L393.2,351z M141,349.2l-0.9-0.9l0.7-0.7l0.9,0.9L141,349.2z M395.9,348.3l-0.7-0.7
			c0.3-0.3,0.6-0.6,0.9-0.9l0.7,0.7C396.5,347.7,396.2,348,395.9,348.3z M138.4,346.4l-0.9-0.9l0.7-0.7l0.9,0.9L138.4,346.4z
			 M398.5,345.6l-0.7-0.7l0.9-0.9l0.7,0.6L398.5,345.6z M135.8,343.7l-0.9-0.9l0.7-0.6l0.9,0.9L135.8,343.7z M401.1,342.8l-0.7-0.6
			c0.3-0.3,0.6-0.6,0.8-0.9l0.7,0.6C401.6,342.2,401.4,342.5,401.1,342.8z M133.2,340.9l-0.8-0.9l0.7-0.6l0.8,0.9L133.2,340.9z
			 M403.6,340l-0.7-0.6l0.8-1l0.7,0.6L403.6,340z M130.8,338l-0.8-1l0.7-0.6l0.8,1L130.8,338z M406.1,337.1l-0.7-0.6l0.8-1l0.7,0.6
			L406.1,337.1z M128.3,335.1l-0.8-1l0.7-0.6l0.8,1L128.3,335.1z M408.5,334.1l-0.7-0.6l0.8-1l0.7,0.6L408.5,334.1z M126,332.1
			l-0.8-1l0.7-0.6l0.8,1L126,332.1z M410.8,331.2l-0.7-0.6c0.3-0.3,0.5-0.7,0.8-1l0.8,0.6C411.3,330.5,411.1,330.8,410.8,331.2z
			 M123.7,329.1l-0.8-1l0.8-0.6l0.7,1L123.7,329.1z M413.1,328.1l-0.8-0.6l0.7-1l0.8,0.6L413.1,328.1z M121.4,326l-0.7-1l0.8-0.5
			l0.7,1L121.4,326z M415.3,325.1l-0.8-0.5l0.7-1l0.8,0.5L415.3,325.1z M119.3,322.9l-0.7-1l0.8-0.5l0.7,1L119.3,322.9z
			 M417.4,321.9l-0.8-0.5l0.7-1l0.8,0.5L417.4,321.9z M117.2,319.8l-0.7-1.1l0.8-0.5l0.7,1.1L117.2,319.8z M419.5,318.8l-0.8-0.5
			l0.7-1.1l0.8,0.5L419.5,318.8z M115.1,316.5l-0.7-1.1l0.8-0.5l0.7,1.1L115.1,316.5z M421.5,315.6l-0.8-0.5l0.7-1.1l0.8,0.5
			L421.5,315.6z M113.1,313.3l-0.6-1.1l0.8-0.5l0.6,1.1L113.1,313.3z M423.5,312.3l-0.8-0.5l0.6-1.1l0.8,0.5L423.5,312.3z
			 M111.2,310l-0.6-1.1l0.8-0.5l0.6,1.1L111.2,310z M425.3,309l-0.8-0.5l0.6-1.1l0.8,0.5L425.3,309z M109.4,306.7l-0.6-1.1l0.8-0.4
			l0.6,1.1L109.4,306.7z M427.1,305.7l-0.8-0.4l0.6-1.1l0.8,0.4L427.1,305.7z M107.6,303.3l-0.6-1.1l0.8-0.4l0.6,1.1L107.6,303.3z
			 M428.9,302.4l-0.8-0.4c0.2-0.4,0.4-0.7,0.6-1.1l0.8,0.4C429.3,301.6,429.1,302,428.9,302.4z M106,299.9l-0.5-1.1l0.9-0.4l0.5,1.1
			L106,299.9z M430.5,299l-0.9-0.4l0.5-1.1l0.9,0.4L430.5,299z M104.3,296.5l-0.5-1.2l0.9-0.4l0.5,1.2L104.3,296.5z M432.1,295.5
			l-0.9-0.4c0.2-0.4,0.3-0.8,0.5-1.1l0.9,0.4C432.5,294.8,432.3,295.2,432.1,295.5z M102.8,293l-0.5-1.2l0.9-0.4l0.5,1.2L102.8,293z
			 M433.6,292.1l-0.9-0.4l0.5-1.2l0.9,0.4L433.6,292.1z M101.3,289.5l-0.5-1.2l0.9-0.3l0.5,1.2L101.3,289.5z M435.1,288.6l-0.9-0.4
			l0.5-1.2l0.9,0.3L435.1,288.6z M99.9,285.9l-0.4-1.2l0.9-0.3l0.4,1.2L99.9,285.9z M436.5,285l-0.9-0.3l0.4-1.2l0.9,0.3L436.5,285z
			 M98.6,282.4l-0.4-1.2l0.9-0.3l0.4,1.2L98.6,282.4z M437.8,281.5l-0.9-0.3l0.4-1.2l0.9,0.3L437.8,281.5z M97.4,278.8l-0.4-1.2
			l0.9-0.3l0.4,1.2L97.4,278.8z M439,277.9l-0.9-0.3l0.4-1.2l0.9,0.3L439,277.9z M96.2,275.2l-0.4-1.2l0.9-0.3l0.4,1.2L96.2,275.2z
			 M440.1,274.3l-0.9-0.3l0.4-1.2l0.9,0.3L440.1,274.3z M95.1,271.5l-0.3-1.2l0.9-0.3l0.3,1.2L95.1,271.5z M441.2,270.6l-0.9-0.3
			l0.3-1.2l0.9,0.3L441.2,270.6z M94.1,267.9l-0.3-1.2l0.9-0.2l0.3,1.2L94.1,267.9z M442.2,267l-0.9-0.2l0.3-1.2l0.9,0.2L442.2,267z
			 M93.2,264.2l-0.3-1.2l0.9-0.2l0.3,1.2L93.2,264.2z M443.1,263.3l-0.9-0.2l0.3-1.2l0.9,0.2L443.1,263.3z M92.3,260.5l-0.3-1.2
			L93,259l0.3,1.2L92.3,260.5z M443.9,259.6l-0.9-0.2l0.3-1.2l0.9,0.2L443.9,259.6z M91.5,256.8l-0.2-1.2l0.9-0.2l0.2,1.2
			L91.5,256.8z M444.7,255.9l-0.9-0.2l0.2-1.2l0.9,0.2L444.7,255.9z M90.8,253l-0.2-1.2l0.9-0.2l0.2,1.2L90.8,253z M445.4,252.1
			l-0.9-0.2l0.2-1.2l0.9,0.2L445.4,252.1z M90.2,249.3L90,248l0.9-0.1l0.2,1.2L90.2,249.3z M446,248.4l-0.9-0.1l0.2-1.2l0.9,0.1
			L446,248.4z M89.7,245.5l-0.2-1.3l0.9-0.1l0.2,1.2L89.7,245.5z M446.5,244.6l-0.9-0.1l0.2-1.2l0.9,0.1L446.5,244.6z M89.2,241.8
			l-0.1-1.3l0.9-0.1l0.1,1.3L89.2,241.8z M446.9,240.9l-0.9-0.1l0.1-1.3l0.9,0.1L446.9,240.9z M88.8,238l-0.1-1.3l0.9-0.1l0.1,1.3
			L88.8,238z M447.3,237.1l-0.9-0.1c0-0.4,0.1-0.8,0.1-1.3l0.9,0.1C447.3,236.3,447.3,236.7,447.3,237.1z M88.5,234.2l-0.1-1.3
			l0.9-0.1l0.1,1.3L88.5,234.2z M447.5,233.3l-0.9-0.1c0-0.4,0.1-0.8,0.1-1.3l0.9,0C447.6,232.5,447.6,232.9,447.5,233.3z
			 M88.3,230.4l-0.1-1.3l0.9,0l0.1,1.3L88.3,230.4z M447.8,229.5l-0.9,0l0.1-1.3l0.9,0L447.8,229.5z M88.2,226.6l0-1.3l0.9,0l0,1.3
			L88.2,226.6z M447.9,225.7l-0.9,0l0-1.3l0.9,0L447.9,225.7z M88.1,222.9l0-1.3h0.9l0,1.3L88.1,222.9z M447.9,222H447l0-0.3l0-1.2
			l0.9,0l0,1.3L447.9,222z M89.1,219.1l-0.9,0l0-1.3l0.9,0L89.1,219.1z M446.9,217.9l0-1.3l0.9,0l0,1.3L446.9,217.9z M89.2,215.3
			l-0.9,0l0-1.3l0.9,0L89.2,215.3z M446.8,214.2l-0.1-1.3l0.9,0l0.1,1.3L446.8,214.2z M89.3,211.5l-0.9-0.1l0.1-1.3l0.9,0.1
			L89.3,211.5z M446.6,210.4c0-0.4-0.1-0.8-0.1-1.3l0.9-0.1c0,0.4,0.1,0.8,0.1,1.3L446.6,210.4z M89.6,207.8l-0.9-0.1l0.1-1.3
			l0.9,0.1L89.6,207.8z M446.3,206.6l-0.1-1.3l0.9-0.1l0.1,1.3L446.3,206.6z M89.9,204l-0.9-0.1l0.1-1.3l0.9,0.1L89.9,204z
			 M446,202.9l-0.1-1.3l0.9-0.1l0.1,1.3L446,202.9z M90.3,200.3l-0.9-0.1l0.2-1.3l0.9,0.1L90.3,200.3z M445.6,199.1l-0.2-1.2
			l0.9-0.1l0.2,1.3L445.6,199.1z M90.8,196.5l-0.9-0.1l0.2-1.3l0.9,0.1L90.8,196.5z M445.1,195.4l-0.2-1.2l0.9-0.1l0.2,1.2
			L445.1,195.4z M91.4,192.8l-0.9-0.2l0.2-1.2l0.9,0.2L91.4,192.8z M444.5,191.7l-0.2-1.2l0.9-0.2l0.2,1.2L444.5,191.7z M92,189.1
			l-0.9-0.2l0.2-1.2l0.9,0.2L92,189.1z M443.8,188l-0.2-1.2l0.9-0.2l0.2,1.2L443.8,188z M92.8,185.4l-0.9-0.2l0.3-1.2l0.9,0.2
			L92.8,185.4z M443,184.3l-0.3-1.2l0.9-0.2l0.3,1.2L443,184.3z M93.6,181.7l-0.9-0.2l0.3-1.2l0.9,0.2L93.6,181.7z M442.2,180.6
			l-0.3-1.2l0.9-0.2l0.3,1.2L442.2,180.6z M94.4,178l-0.9-0.2l0.3-1.2l0.9,0.2L94.4,178z M441.3,176.9l-0.3-1.2l0.9-0.2l0.3,1.2
			L441.3,176.9z M95.4,174.4l-0.9-0.2l0.3-1.2l0.9,0.3L95.4,174.4z M440.3,173.3c-0.1-0.4-0.2-0.8-0.3-1.2l0.9-0.3
			c0.1,0.4,0.2,0.8,0.3,1.2L440.3,173.3z M96.4,170.7l-0.9-0.3l0.4-1.2l0.9,0.3L96.4,170.7z M439.3,169.7l-0.4-1.2l0.9-0.3l0.4,1.2
			L439.3,169.7z M97.5,167.1l-0.9-0.3l0.4-1.2l0.9,0.3L97.5,167.1z M438.1,166l-0.4-1.2l0.9-0.3l0.4,1.2L438.1,166z M98.7,163.6
			l-0.9-0.3l0.4-1.2l0.9,0.3L98.7,163.6z M436.9,162.4l-0.4-1.2l0.9-0.3l0.4,1.2L436.9,162.4z M100,160l-0.9-0.3l0.4-1.2l0.9,0.3
			L100,160z M435.6,158.9l-0.4-1.2l0.9-0.3l0.5,1.2L435.6,158.9z M101.3,156.5l-0.9-0.3l0.5-1.2l0.9,0.4L101.3,156.5z M434.3,155.4
			l-0.5-1.2l0.9-0.4l0.5,1.2L434.3,155.4z M102.7,153l-0.9-0.4l0.5-1.2l0.9,0.4L102.7,153z M432.8,151.9l-0.5-1.2l0.9-0.4l0.5,1.2
			L432.8,151.9z M104.2,149.5l-0.9-0.4l0.5-1.2l0.9,0.4L104.2,149.5z M431.3,148.4l-0.5-1.1l0.9-0.4l0.5,1.2L431.3,148.4z
			 M105.8,146.1l-0.9-0.4l0.5-1.1l0.9,0.4L105.8,146.1z M429.7,145l-0.5-1.1l0.9-0.4l0.5,1.1L429.7,145z M107.4,142.7l-0.8-0.4
			l0.6-1.1l0.8,0.4L107.4,142.7z M428.1,141.6l-0.6-1.1l0.8-0.4l0.6,1.1L428.1,141.6z M109.1,139.4l-0.8-0.4l0.6-1.1l0.8,0.4
			L109.1,139.4z M426.3,138.2l-0.6-1.1l0.8-0.4l0.6,1.1L426.3,138.2z M110.9,136.1l-0.8-0.5l0.6-1.1l0.8,0.5L110.9,136.1z
			 M424.5,134.9c-0.2-0.4-0.4-0.7-0.6-1.1l0.8-0.5c0.2,0.4,0.4,0.7,0.6,1.1L424.5,134.9z M112.7,132.8l-0.8-0.5l0.6-1.1l0.8,0.5
			L112.7,132.8z M422.7,131.6l-0.6-1.1l0.8-0.5l0.6,1.1L422.7,131.6z M114.6,129.5l-0.8-0.5l0.7-1.1l0.8,0.5L114.6,129.5z
			 M420.7,128.3l-0.7-1.1l0.8-0.5l0.7,1.1L420.7,128.3z M116.6,126.3l-0.8-0.5l0.7-1.1l0.8,0.5L116.6,126.3z M418.7,125.1l-0.7-1.1
			l0.8-0.5l0.7,1.1L418.7,125.1z M118.6,123.2l-0.8-0.5l0.7-1.1l0.8,0.5L118.6,123.2z M416.6,122l-0.7-1l0.8-0.5l0.7,1L416.6,122z
			 M120.7,120l-0.8-0.5l0.7-1l0.8,0.5L120.7,120z M414.5,118.9l-0.7-1l0.8-0.5l0.7,1L414.5,118.9z M122.9,117l-0.8-0.6l0.7-1
			l0.8,0.6L122.9,117z M412.3,115.8c-0.2-0.3-0.5-0.7-0.7-1l0.8-0.6c0.3,0.3,0.5,0.7,0.8,1L412.3,115.8z M125.1,113.9l-0.8-0.6
			l0.8-1l0.7,0.6L125.1,113.9z M410,112.8l-0.8-1l0.7-0.6l0.8,1L410,112.8z M127.5,111l-0.7-0.6l0.8-1l0.7,0.6L127.5,111z
			 M407.7,109.8l-0.8-1l0.7-0.6l0.8,1L407.7,109.8z M129.8,108l-0.7-0.6l0.8-1l0.7,0.6L129.8,108z M405.3,106.9
			c-0.3-0.3-0.5-0.6-0.8-1l0.7-0.6c0.3,0.3,0.5,0.6,0.8,1L405.3,106.9z M132.2,105.1l-0.7-0.6l0.8-1l0.7,0.6L132.2,105.1z
			 M402.8,104l-0.8-0.9l0.7-0.6l0.8,0.9L402.8,104z M134.7,102.3l-0.7-0.6l0.8-0.9l0.7,0.6L134.7,102.3z M400.3,101.2l-0.9-0.9
			l0.7-0.6l0.9,0.9L400.3,101.2z M137.3,99.5l-0.7-0.6l0.9-0.9l0.7,0.7L137.3,99.5z M397.8,98.5l-0.9-0.9l0.7-0.7l0.9,0.9
			L397.8,98.5z M139.9,96.8l-0.7-0.7l0.9-0.9l0.7,0.7L139.9,96.8z M395.1,95.7c-0.3-0.3-0.6-0.6-0.9-0.9l0.7-0.7
			c0.3,0.3,0.6,0.6,0.9,0.9L395.1,95.7z M142.5,94.1l-0.7-0.7l0.9-0.9l0.7,0.7L142.5,94.1z M392.4,93.1l-0.9-0.9l0.7-0.7l0.9,0.9
			L392.4,93.1z M145.3,91.5l-0.6-0.7l0.9-0.9l0.6,0.7L145.3,91.5z M389.7,90.5l-0.9-0.9l0.6-0.7l0.9,0.9L389.7,90.5z M148,88.9
			l-0.6-0.7l0.9-0.8l0.6,0.7L148,88.9z M386.9,88l-0.9-0.8l0.6-0.7l0.9,0.8L386.9,88z M150.9,86.4l-0.6-0.7l1-0.8l0.6,0.7
			L150.9,86.4z M384.1,85.5l-1-0.8l0.6-0.7l1,0.8L384.1,85.5z M153.7,84l-0.6-0.7l1-0.8l0.6,0.7L153.7,84z M381.2,83.1l-1-0.8
			l0.6-0.7l1,0.8L381.2,83.1z M156.7,81.6l-0.6-0.7l1-0.8l0.6,0.7L156.7,81.6z M378.2,80.7l-1-0.8l0.6-0.7l1,0.8L378.2,80.7z
			 M159.6,79.3l-0.6-0.8l1-0.8l0.6,0.8L159.6,79.3z M375.2,78.4l-1-0.7l0.6-0.8l1,0.8L375.2,78.4z M162.7,77l-0.6-0.8l1-0.7l0.6,0.8
			L162.7,77z M372.2,76.2l-1-0.7l0.5-0.8l1,0.7L372.2,76.2z M165.7,74.8l-0.5-0.8c0.3-0.2,0.7-0.5,1-0.7l0.5,0.8L165.7,74.8z
			 M369.1,74l-1-0.7l0.5-0.8l1,0.7L369.1,74z M168.9,72.7l-0.5-0.8l1.1-0.7l0.5,0.8L168.9,72.7z M366,71.9l-1-0.6l0.2-0.5l0.3-0.4
			l1.1,0.7L366,71.9z M172,70.7l-0.5-0.8l1.1-0.7l0.5,0.8L172,70.7z M362.8,69.9l-1.1-0.7l0.5-0.8l1.1,0.7L362.8,69.9z M175.2,68.7
			l-0.5-0.8l1.1-0.7l0.5,0.8L175.2,68.7z M359.6,67.9l-1.1-0.6l0.5-0.8l1.1,0.6L359.6,67.9z M178.5,66.7l-0.5-0.8l1.1-0.6l0.5,0.8
			L178.5,66.7z M356.4,66.1l-1.1-0.6l0.5-0.8l1.1,0.6L356.4,66.1z M181.8,64.9l-0.5-0.8l1.1-0.6l0.5,0.8L181.8,64.9z M353.1,64.2
			l-1.1-0.6l0.4-0.8l1.1,0.6L353.1,64.2z M185.1,63.1l-0.4-0.8l1.1-0.6l0.4,0.8L185.1,63.1z M349.8,62.5l-1.1-0.6l0.4-0.8l1.1,0.6
			L349.8,62.5z M188.5,61.4l-0.4-0.8l1.1-0.6l0.4,0.8L188.5,61.4z M346.4,60.8l-1.1-0.5l0.4-0.9l1.1,0.5L346.4,60.8z M191.9,59.7
			l-0.4-0.9l1.2-0.5l0.4,0.9L191.9,59.7z M343,59.2l-1.1-0.5l0.4-0.9l1.1,0.5L343,59.2z M195.3,58.1l-0.4-0.9l1.2-0.5l0.4,0.9
			L195.3,58.1z M339.6,57.6l-1.1-0.5l0.4-0.9l1.2,0.5L339.6,57.6z M198.8,56.6l-0.4-0.9l1.2-0.5l0.4,0.9L198.8,56.6z M336.1,56.2
			l-1.2-0.5l0.4-0.9l1.2,0.5L336.1,56.2z M202.3,55.2l-0.3-0.9c0.4-0.2,0.8-0.3,1.2-0.5l0.3,0.9C203.1,54.9,202.7,55.1,202.3,55.2z
			 M332.6,54.8l-1.2-0.4l0.3-0.9l1.2,0.5L332.6,54.8z M205.8,53.9l-0.3-0.9l1.2-0.4l0.3,0.9L205.8,53.9z M329.1,53.4l-1.2-0.4
			l0.3-0.9l1.2,0.4L329.1,53.4z M209.4,52.6l-0.3-0.9l1.2-0.4l0.3,0.9L209.4,52.6z M325.5,52.2l-1.2-0.4l0.3-0.9l1.2,0.4L325.5,52.2
			z M213,51.4l-0.3-0.9l1.2-0.4l0.3,0.9L213,51.4z M321.9,51l-1.2-0.4l0.3-0.9l1.2,0.4L321.9,51z M216.6,50.3l-0.3-0.9l1.2-0.4
			l0.3,0.9L216.6,50.3z M318.3,49.9l-1.2-0.3l0.3-0.9l1.2,0.4L318.3,49.9z M220.2,49.2l-0.3-0.9l1.2-0.3l0.2,0.9L220.2,49.2z
			 M314.7,48.9l-1.2-0.3l0.2-0.9l1.2,0.3L314.7,48.9z M223.9,48.2l-0.2-0.9l1.2-0.3l0.2,0.9L223.9,48.2z M311,48l-1.2-0.3l0.2-0.9
			l1.2,0.3L311,48z M227.5,47.4l-0.2-0.9l1.2-0.3l0.2,0.9L227.5,47.4z M307.4,47.1l-1.2-0.3l0.2-0.9l1.2,0.3L307.4,47.1z
			 M231.2,46.5l-0.2-0.9l1.2-0.3l0.2,0.9L231.2,46.5z M303.7,46.3l-1.2-0.2l0.2-0.9l1.2,0.2L303.7,46.3z M234.9,45.8l-0.2-0.9
			l1.2-0.2l0.2,0.9L234.9,45.8z M300,45.6l-1.2-0.2l0.2-0.9l1.2,0.2L300,45.6z M238.6,45.2l-0.2-0.9l1.2-0.2l0.1,0.9L238.6,45.2z
			 M296.2,45l-1.2-0.2l0.1-0.9l1.2,0.2L296.2,45z M242.4,44.6l-0.1-0.9l1.3-0.2l0.1,0.9L242.4,44.6z M292.5,44.4l-1.2-0.2l0.1-0.9
			l1.3,0.2L292.5,44.4z M246.1,44.1l-0.1-0.9l1.3-0.1l0.1,0.9L246.1,44.1z M288.8,43.9l-1.3-0.1l0.1-0.9l1.3,0.1L288.8,43.9z
			 M249.9,43.7l-0.1-0.9l1.3-0.1l0.1,0.9L249.9,43.7z M285,43.6l-1.3-0.1l0.1-0.9l1.3,0.1L285,43.6z M253.6,43.3l-0.1-0.9l1.3-0.1
			l0.1,0.9L253.6,43.3z M281.3,43.2l-1.3-0.1l0.1-0.9l1.3,0.1L281.3,43.2z M257.4,43.1l-0.1-0.9l1.3-0.1l0,0.9L257.4,43.1z
			 M277.5,43l-1.3-0.1l0-0.9l1.3,0.1L277.5,43z M261.2,42.9l0-0.9l1.3,0l0,0.9L261.2,42.9z M273.7,42.8l-1.3,0l0-0.9l1.3,0
			L273.7,42.8z M264.9,42.8l0-0.9l1.3,0l0,0.9L264.9,42.8z M270,42.8l-1.3,0l0-0.9l1.3,0L270,42.8z"/>
	</g>
	<g>
		<path class="st4" d="M267,429.1c-0.4,0-0.8,0-1.2,0l0-0.6c0.4,0,0.8,0,1.1,0L267,429.1z M269.3,429.1l0-0.6l1.1,0l0,0.6
			L269.3,429.1z M263.5,429l-1.2,0l0-0.6l1.1,0L263.5,429z M272.7,429l0-0.6l1.1,0l0,0.6L272.7,429z M260.1,428.9
			c-0.4,0-0.8,0-1.1,0l0-0.6c0.4,0,0.8,0,1.1,0L260.1,428.9z M276.2,428.9l0-0.6c0.4,0,0.8,0,1.1,0l0,0.6
			C276.9,428.9,276.6,428.9,276.2,428.9z M256.6,428.7l-1.2-0.1l0-0.6l1.1,0.1L256.6,428.7z M279.6,428.7l0-0.6l1.1-0.1l0,0.6
			L279.6,428.7z M253.2,428.5l-1.1-0.1l0-0.6l1.1,0.1L253.2,428.5z M283.1,428.5l0-0.6c0.4,0,0.8-0.1,1.1-0.1l0,0.6
			C283.8,428.5,283.5,428.5,283.1,428.5z M249.7,428.3c-0.4,0-0.8-0.1-1.1-0.1l0.1-0.6c0.4,0,0.8,0.1,1.1,0.1L249.7,428.3z
			 M286.5,428.2l-0.1-0.6l1.1-0.1l0.1,0.6L286.5,428.2z M246.3,427.9l-1.1-0.1l0.1-0.6l1.1,0.1L246.3,427.9z M290,427.9l-0.1-0.6
			l1.1-0.1l0.1,0.6L290,427.9z M242.8,427.5l-1.1-0.1l0.1-0.6l1.1,0.1L242.8,427.5z M293.4,427.5l-0.1-0.6c0.4,0,0.8-0.1,1.1-0.1
			l0.1,0.6C294.2,427.4,293.8,427.5,293.4,427.5z M239.4,427.1c-0.4-0.1-0.8-0.1-1.1-0.2l0.1-0.6c0.4,0.1,0.8,0.1,1.1,0.2
			L239.4,427.1z M296.8,427.1l-0.1-0.6l1.1-0.2l0.1,0.6L296.8,427.1z M236,426.6l-1.1-0.2l0.1-0.6l1.1,0.2L236,426.6z M300.3,426.6
			l-0.1-0.6l1.1-0.2l0.1,0.6L300.3,426.6z M232.6,426c-0.4-0.1-0.8-0.1-1.1-0.2l0.1-0.6c0.4,0.1,0.8,0.1,1.1,0.2L232.6,426z
			 M303.7,426l-0.1-0.6c0.4-0.1,0.8-0.1,1.1-0.2l0.1,0.6C304.4,425.9,304,425.9,303.7,426z M229.2,425.4l-1.1-0.2l0.1-0.6l1.1,0.2
			L229.2,425.4z M307.1,425.4l-0.1-0.6l1.1-0.2l0.1,0.6L307.1,425.4z M225.8,424.8l-1.1-0.2l0.1-0.6l1.1,0.2L225.8,424.8z
			 M310.5,424.7l-0.1-0.6l1.1-0.2l0.1,0.6L310.5,424.7z M222.4,424c-0.4-0.1-0.7-0.2-1.1-0.3l0.1-0.6c0.4,0.1,0.7,0.2,1.1,0.3
			L222.4,424z M313.8,424l-0.1-0.6c0.4-0.1,0.7-0.2,1.1-0.3l0.1,0.6C314.6,423.8,314.2,423.9,313.8,424z M219,423.2
			c-0.4-0.1-0.7-0.2-1.1-0.3l0.1-0.6c0.4,0.1,0.7,0.2,1.1,0.3L219,423.2z M317.2,423.2l-0.1-0.6l1.1-0.3l0.1,0.6L317.2,423.2z
			 M215.7,422.4c-0.4-0.1-0.7-0.2-1.1-0.3l0.1-0.6c0.4,0.1,0.7,0.2,1.1,0.3L215.7,422.4z M320.6,422.3l-0.1-0.6
			c0.4-0.1,0.7-0.2,1.1-0.3l0.2,0.6C321.3,422.1,320.9,422.2,320.6,422.3z M212.3,421.5l-1.1-0.3l0.2-0.6l1.1,0.3L212.3,421.5z
			 M323.9,421.4l-0.2-0.6l1.1-0.3l0.2,0.6L323.9,421.4z M209,420.5c-0.4-0.1-0.7-0.2-1.1-0.3l0.2-0.6c0.4,0.1,0.7,0.2,1.1,0.3
			L209,420.5z M327.2,420.5l-0.2-0.6c0.4-0.1,0.7-0.2,1.1-0.3l0.2,0.6C328,420.3,327.6,420.4,327.2,420.5z M205.7,419.5l-1.1-0.3
			l0.2-0.5l1.1,0.3L205.7,419.5z M330.5,419.5l-0.2-0.5c0.4-0.1,0.7-0.2,1.1-0.4l0.2,0.5C331.3,419.2,330.9,419.4,330.5,419.5z
			 M202.4,418.5c-0.4-0.1-0.7-0.2-1.1-0.4l0.2-0.5c0.4,0.1,0.7,0.2,1.1,0.4L202.4,418.5z M333.8,418.4l-0.2-0.5l1.1-0.4l0.2,0.5
			L333.8,418.4z M199.2,417.3c-0.4-0.1-0.7-0.3-1.1-0.4l0.2-0.5c0.4,0.1,0.7,0.3,1.1,0.4L199.2,417.3z M337.1,417.3l-0.2-0.5
			c0.4-0.1,0.7-0.3,1.1-0.4l0.2,0.5C337.8,417,337.5,417.1,337.1,417.3z M195.9,416.2c-0.4-0.1-0.7-0.3-1.1-0.4l0.2-0.5
			c0.4,0.1,0.7,0.3,1.1,0.4L195.9,416.2z M340.4,416.1l-0.2-0.5l1.1-0.4l0.2,0.5L340.4,416.1z M192.7,414.9
			c-0.4-0.1-0.7-0.3-1.1-0.4l0.2-0.5c0.4,0.1,0.7,0.3,1.1,0.4L192.7,414.9z M343.6,414.8l-0.2-0.5c0.4-0.1,0.7-0.3,1.1-0.4l0.2,0.5
			C344.3,414.6,344,414.7,343.6,414.8z M189.5,413.7c-0.4-0.1-0.7-0.3-1.1-0.4l0.2-0.5c0.4,0.1,0.7,0.3,1.1,0.4L189.5,413.7z
			 M346.8,413.5l-0.2-0.5c0.4-0.1,0.7-0.3,1.1-0.4l0.2,0.5C347.6,413.3,347.2,413.4,346.8,413.5z M186.3,412.3
			c-0.4-0.1-0.7-0.3-1.1-0.5l0.2-0.5c0.3,0.2,0.7,0.3,1,0.5L186.3,412.3z M350,412.2l-0.2-0.5c0.4-0.2,0.7-0.3,1.1-0.5l0.2,0.5
			C350.7,411.9,350.4,412,350,412.2z M183.1,410.9l-1-0.5l0.2-0.5l1,0.5L183.1,410.9z M353.2,410.8l-0.2-0.5c0.3-0.2,0.7-0.3,1-0.5
			l0.2,0.5C353.9,410.5,353.6,410.6,353.2,410.8z M180,409.5l-1-0.5l0.2-0.5l1,0.5L180,409.5z M356.4,409.3l-0.2-0.5
			c0.3-0.2,0.7-0.3,1-0.5l0.2,0.5C357.1,409,356.7,409.2,356.4,409.3z M176.9,408l-1-0.5l0.3-0.5l1,0.5L176.9,408z M359.5,407.8
			l-0.3-0.5c0.3-0.2,0.7-0.3,1-0.5l0.3,0.5C360.2,407.5,359.8,407.7,359.5,407.8z M173.8,406.5l-1-0.5l0.3-0.5l1,0.5L173.8,406.5z
			 M362.6,406.3l-0.3-0.5l1-0.5l0.3,0.5L362.6,406.3z M170.8,404.9l-1-0.5l0.3-0.5l1,0.5L170.8,404.9z M365.6,404.7l-0.3-0.5
			c0.3-0.2,0.7-0.4,1-0.5l0.3,0.5C366.3,404.3,366,404.5,365.6,404.7z M167.7,403.2l-1-0.6l0.3-0.5l1,0.6L167.7,403.2z M368.7,403
			l-0.3-0.5c0.3-0.2,0.7-0.4,1-0.6l0.3,0.5C369.4,402.6,369,402.8,368.7,403z M164.7,401.5l-1-0.6l0.3-0.5l1,0.6L164.7,401.5z
			 M371.7,401.3l-0.3-0.5c0.3-0.2,0.7-0.4,1-0.6l0.3,0.5C372.4,400.9,372,401.1,371.7,401.3z M161.8,399.8l-1-0.6l0.3-0.5l1,0.6
			L161.8,399.8z M374.7,399.5l-0.3-0.5c0.3-0.2,0.7-0.4,1-0.6l0.3,0.5C375.3,399.2,375,399.4,374.7,399.5z M158.8,398l-1-0.6
			l0.3-0.5l1,0.6L158.8,398z M377.6,397.7l-0.3-0.5l1-0.6l0.3,0.5L377.6,397.7z M155.9,396.2l-1-0.6l0.3-0.5l1,0.6L155.9,396.2z
			 M380.6,395.9l-0.3-0.5l1-0.6l0.3,0.5L380.6,395.9z M153,394.3c-0.3-0.2-0.6-0.4-1-0.6l0.3-0.5c0.3,0.2,0.6,0.4,1,0.6L153,394.3z
			 M383.5,394l-0.3-0.5l1-0.6l0.3,0.5L383.5,394z M150.2,392.3l-0.9-0.7l0.3-0.5l0.9,0.7L150.2,392.3z M386.3,392l-0.3-0.5
			c0.3-0.2,0.6-0.4,0.9-0.7l0.3,0.5C386.9,391.6,386.6,391.8,386.3,392z M147.3,390.3l-0.9-0.7l0.3-0.5l0.9,0.7L147.3,390.3z
			 M389.1,390l-0.3-0.5l0.9-0.7l0.3,0.5L389.1,390z M144.5,388.3c-0.3-0.2-0.6-0.5-0.9-0.7l0.3-0.5c0.3,0.2,0.6,0.5,0.9,0.7
			L144.5,388.3z M391.9,388l-0.3-0.5c0.3-0.2,0.6-0.5,0.9-0.7l0.3,0.5C392.5,387.5,392.2,387.7,391.9,388z M141.8,386.2l-0.9-0.7
			l0.4-0.5l0.9,0.7L141.8,386.2z M394.7,385.9l-0.4-0.5l0.9-0.7l0.4,0.5L394.7,385.9z M139.1,384.1c-0.3-0.2-0.6-0.5-0.9-0.7
			l0.4-0.4c0.3,0.2,0.6,0.5,0.9,0.7L139.1,384.1z M397.4,383.7l-0.4-0.4c0.3-0.2,0.6-0.5,0.9-0.7l0.4,0.4
			C398,383.3,397.7,383.5,397.4,383.7z M136.4,381.9l-0.9-0.7l0.4-0.4l0.9,0.7L136.4,381.9z M400.1,381.6l-0.4-0.4l0.9-0.7l0.4,0.4
			L400.1,381.6z M133.7,379.7l-0.9-0.7l0.4-0.4l0.9,0.7L133.7,379.7z M402.7,379.3l-0.4-0.4l0.9-0.8l0.4,0.4L402.7,379.3z
			 M131.1,377.4c-0.3-0.3-0.6-0.5-0.9-0.8l0.4-0.4c0.3,0.3,0.6,0.5,0.9,0.8L131.1,377.4z M405.3,377.1l-0.4-0.4
			c0.3-0.3,0.6-0.5,0.9-0.8l0.4,0.4C405.9,376.6,405.6,376.8,405.3,377.1z M128.5,375.1l-0.8-0.8l0.4-0.4l0.8,0.8L128.5,375.1z
			 M407.9,374.8l-0.4-0.4c0.3-0.3,0.6-0.5,0.8-0.8l0.4,0.4C408.5,374.2,408.2,374.5,407.9,374.8z M126,372.8l-0.8-0.8l0.4-0.4
			l0.8,0.8L126,372.8z M410.4,372.4L410,372c0.3-0.3,0.6-0.5,0.8-0.8l0.4,0.4C411,371.9,410.7,372.1,410.4,372.4z M123.5,370.4
			l-0.8-0.8l0.4-0.4l0.8,0.8L123.5,370.4z M412.9,370l-0.4-0.4l0.8-0.8l0.4,0.4L412.9,370z M121.1,368l-0.8-0.8l0.4-0.4l0.8,0.8
			L121.1,368z M415.4,367.6l-0.4-0.4l0.8-0.8l0.4,0.4L415.4,367.6z M118.6,365.5l-0.8-0.8l0.4-0.4l0.8,0.8L118.6,365.5z
			 M417.8,365.1l-0.4-0.4l0.8-0.8l0.4,0.4L417.8,365.1z M116.3,363l-0.8-0.8l0.4-0.4l0.8,0.8L116.3,363z M420.2,362.6l-0.4-0.4
			c0.3-0.3,0.5-0.6,0.8-0.8l0.4,0.4C420.7,362,420.4,362.3,420.2,362.6z M113.9,360.4l-0.8-0.9l0.4-0.4l0.8,0.9L113.9,360.4z
			 M422.5,360l-0.4-0.4c0.3-0.3,0.5-0.6,0.8-0.9l0.4,0.4C423,359.4,422.8,359.7,422.5,360z M111.6,357.9l-0.8-0.9l0.4-0.4l0.8,0.9
			L111.6,357.9z M424.8,357.4l-0.4-0.4l0.8-0.9l0.4,0.4L424.8,357.4z M109.4,355.2l-0.7-0.9l0.4-0.4l0.7,0.9L109.4,355.2z
			 M427,354.8l-0.4-0.4l0.7-0.9l0.4,0.4L427,354.8z M107.2,352.6l-0.7-0.9l0.4-0.4l0.7,0.9L107.2,352.6z M429.2,352.1l-0.4-0.4
			c0.2-0.3,0.5-0.6,0.7-0.9l0.4,0.4C429.7,351.5,429.5,351.8,429.2,352.1z M105,349.9l-0.7-0.9l0.5-0.4l0.7,0.9L105,349.9z
			 M431.4,349.4l-0.5-0.4l0.7-0.9l0.5,0.4L431.4,349.4z M102.9,347.1l-0.7-0.9l0.5-0.3l0.7,0.9L102.9,347.1z M433.5,346.7l-0.5-0.3
			c0.2-0.3,0.5-0.6,0.7-0.9l0.5,0.3C433.9,346.1,433.7,346.4,433.5,346.7z M100.8,344.4l-0.7-0.9l0.5-0.3l0.7,0.9L100.8,344.4z
			 M435.5,343.9l-0.5-0.3l0.7-0.9l0.5,0.3L435.5,343.9z M98.8,341.6c-0.2-0.3-0.4-0.6-0.7-0.9l0.5-0.3c0.2,0.3,0.4,0.6,0.7,0.9
			L98.8,341.6z M437.5,341.1l-0.5-0.3l0.7-0.9l0.5,0.3L437.5,341.1z M96.8,338.7c-0.2-0.3-0.4-0.6-0.6-1l0.5-0.3
			c0.2,0.3,0.4,0.6,0.6,0.9L96.8,338.7z M439.5,338.3L439,338c0.2-0.3,0.4-0.6,0.6-0.9l0.5,0.3C439.9,337.7,439.7,338,439.5,338.3z
			 M94.9,335.8l-0.6-1l0.5-0.3l0.6,1L94.9,335.8z M441.4,335.4l-0.5-0.3l0.6-1l0.5,0.3L441.4,335.4z M93,332.9l-0.6-1l0.5-0.3l0.6,1
			L93,332.9z M443.3,332.5l-0.5-0.3l0.6-1l0.5,0.3L443.3,332.5z M91.2,330c-0.2-0.3-0.4-0.7-0.6-1l0.5-0.3c0.2,0.3,0.4,0.7,0.6,1
			L91.2,330z M445.1,329.6l-0.5-0.3l0.6-1l0.5,0.3L445.1,329.6z M89.4,327l-0.6-1l0.5-0.3l0.6,1L89.4,327z M446.9,326.6l-0.5-0.3
			l0.6-1l0.5,0.3L446.9,326.6z M87.6,324l-0.6-1l0.5-0.3l0.6,1L87.6,324z M448.6,323.6l-0.5-0.3c0.2-0.3,0.4-0.7,0.6-1l0.5,0.3
			C449,323,448.8,323.3,448.6,323.6z M86,321c-0.2-0.3-0.4-0.7-0.6-1l0.5-0.3c0.2,0.3,0.4,0.7,0.5,1L86,321z M450.3,320.6l-0.5-0.3
			l0.5-1l0.5,0.3L450.3,320.6z M84.3,318l-0.5-1l0.5-0.3l0.5,1L84.3,318z M451.9,317.6l-0.5-0.3l0.5-1l0.5,0.3L451.9,317.6z
			 M82.7,314.9l-0.5-1l0.5-0.3l0.5,1L82.7,314.9z M453.5,314.5l-0.5-0.3l0.5-1l0.5,0.3L453.5,314.5z M81.2,311.8
			c-0.2-0.3-0.3-0.7-0.5-1l0.5-0.2c0.2,0.3,0.3,0.7,0.5,1L81.2,311.8z M455,311.4l-0.5-0.2l0.5-1l0.5,0.2L455,311.4z M79.7,308.6
			l-0.5-1.1l0.5-0.2l0.5,1L79.7,308.6z M456.5,308.3l-0.5-0.2l0.5-1l0.5,0.2L456.5,308.3z M78.3,305.5c-0.2-0.4-0.3-0.7-0.5-1.1
			l0.5-0.2c0.2,0.4,0.3,0.7,0.5,1.1L78.3,305.5z M457.9,305.2l-0.5-0.2c0.2-0.3,0.3-0.7,0.5-1l0.5,0.2
			C458.2,304.5,458,304.8,457.9,305.2z M76.9,302.3l-0.4-1.1L77,301l0.4,1.1L76.9,302.3z M459.2,302l-0.5-0.2
			c0.1-0.4,0.3-0.7,0.4-1.1l0.5,0.2C459.5,301.3,459.4,301.7,459.2,302z M75.6,299.1c-0.1-0.4-0.3-0.7-0.4-1.1l0.5-0.2
			c0.1,0.4,0.3,0.7,0.4,1.1L75.6,299.1z M460.6,298.8l-0.5-0.2l0.4-1.1l0.5,0.2L460.6,298.8z M74.3,295.9l-0.4-1.1l0.5-0.2l0.4,1.1
			L74.3,295.9z M461.8,295.6l-0.5-0.2c0.1-0.4,0.3-0.7,0.4-1.1l0.5,0.2C462.1,294.9,461.9,295.2,461.8,295.6z M73.1,292.6l-0.4-1.1
			l0.5-0.2l0.4,1.1L73.1,292.6z M463,292.4l-0.5-0.2l0.4-1.1l0.5,0.2L463,292.4z M72,289.3l-0.4-1.1l0.5-0.2l0.4,1.1L72,289.3z
			 M464.2,289.1l-0.5-0.2l0.4-1.1l0.5,0.2L464.2,289.1z M70.8,286l-0.4-1.1l0.5-0.2l0.4,1.1L70.8,286z M465.3,285.8l-0.5-0.2
			l0.4-1.1l0.5,0.2L465.3,285.8z M69.8,282.7l-0.3-1.1l0.6-0.2l0.3,1.1L69.8,282.7z M466.3,282.5l-0.6-0.2c0.1-0.4,0.2-0.7,0.3-1.1
			l0.6,0.2C466.5,281.8,466.4,282.2,466.3,282.5z M68.8,279.4l-0.3-1.1l0.6-0.2l0.3,1.1L68.8,279.4z M467.3,279.2l-0.6-0.2
			c0.1-0.4,0.2-0.7,0.3-1.1l0.6,0.2C467.5,278.5,467.4,278.8,467.3,279.2z M67.9,276.1l-0.3-1.1l0.6-0.1l0.3,1.1L67.9,276.1z
			 M468.2,275.9l-0.6-0.2c0.1-0.4,0.2-0.7,0.3-1.1l0.6,0.1C468.4,275.1,468.3,275.5,468.2,275.9z M67,272.7l-0.3-1.1l0.6-0.1
			l0.3,1.1L67,272.7z M469.1,272.5l-0.6-0.1l0.3-1.1l0.6,0.1L469.1,272.5z M66.2,269.4l-0.3-1.1l0.6-0.1l0.3,1.1L66.2,269.4z
			 M469.9,269.2l-0.6-0.1c0.1-0.4,0.2-0.7,0.3-1.1l0.6,0.1C470.1,268.4,470,268.8,469.9,269.2z M65.4,266c-0.1-0.4-0.2-0.8-0.2-1.1
			l0.6-0.1c0.1,0.4,0.2,0.7,0.2,1.1L65.4,266z M470.7,265.8l-0.6-0.1l0.2-1.1l0.6,0.1L470.7,265.8z M64.7,262.6l-0.2-1.1l0.6-0.1
			l0.2,1.1L64.7,262.6z M471.4,262.4l-0.6-0.1c0.1-0.4,0.1-0.8,0.2-1.1l0.6,0.1C471.5,261.7,471.4,262,471.4,262.4z M64.1,259.2
			l-0.2-1.1l0.6-0.1l0.2,1.1L64.1,259.2z M472,259l-0.6-0.1l0.2-1.1l0.6,0.1L472,259z M63.5,255.8l-0.2-1.1l0.6-0.1l0.2,1.1
			L63.5,255.8z M472.6,255.6l-0.6-0.1l0.2-1.1l0.6,0.1L472.6,255.6z M62.9,252.4c-0.1-0.4-0.1-0.8-0.2-1.1l0.6-0.1
			c0.1,0.4,0.1,0.8,0.2,1.1L62.9,252.4z M473.1,252.2l-0.6-0.1c0.1-0.4,0.1-0.8,0.2-1.1l0.6,0.1
			C473.2,251.4,473.2,251.8,473.1,252.2z M62.5,249c-0.1-0.4-0.1-0.8-0.1-1.1l0.6-0.1c0,0.4,0.1,0.8,0.1,1.1L62.5,249z M473.6,248.8
			l-0.6-0.1l0.1-1.1l0.6,0.1L473.6,248.8z M62,245.5l-0.1-1.1l0.6-0.1l0.1,1.1L62,245.5z M474,245.3l-0.6-0.1l0.1-1.1l0.6,0.1
			L474,245.3z M61.7,242.1l-0.1-1.1l0.6-0.1l0.1,1.1L61.7,242.1z M474.4,241.9l-0.6-0.1c0-0.4,0.1-0.8,0.1-1.1l0.6,0.1
			C474.5,241.1,474.4,241.5,474.4,241.9z M61.4,238.7c0-0.4-0.1-0.8-0.1-1.1l0.6,0c0,0.4,0.1,0.8,0.1,1.1L61.4,238.7z M474.7,238.5
			l-0.6,0l0.1-1.1l0.6,0L474.7,238.5z M61.1,235.2l-0.1-1.2l0.6,0l0.1,1.1L61.1,235.2z M474.9,235l-0.6,0c0-0.4,0-0.8,0.1-1.1l0.6,0
			C475,234.2,475,234.6,474.9,235z M60.9,231.8l-0.1-1.2l0.6,0l0.1,1.1L60.9,231.8z M475.1,231.6l-0.6,0l0.1-1.1l0.6,0L475.1,231.6z
			 M60.8,228.3l0-1.2l0.6,0l0,1.1L60.8,228.3z M475.3,228.1l-0.6,0l0-1.1l0.6,0L475.3,228.1z M60.7,224.9c0-0.4,0-0.8,0-1.2l0.6,0
			c0,0.4,0,0.8,0,1.1L60.7,224.9z M475.3,224.7l-0.6,0c0-0.4,0-0.8,0-1.1l0.6,0C475.4,223.9,475.3,224.3,475.3,224.7z M475.4,221.7
			h-0.6l0-1.1l0.6,0L475.4,221.7z M61.3,221.4h-0.6c0-0.4,0-0.8,0-1.2l0.6,0C61.3,220.6,61.3,221,61.3,221.4z M474.8,218.3l0-1.1
			l0.6,0l0,1.2L474.8,218.3z M61.3,217.9l-0.6,0l0-1.1l0.6,0L61.3,217.9z M474.7,214.8c0-0.4,0-0.8,0-1.1l0.6,0c0,0.4,0,0.8,0,1.2
			L474.7,214.8z M61.4,214.5l-0.6,0l0-1.1l0.6,0L61.4,214.5z M474.5,211.4l-0.1-1.1l0.6,0l0.1,1.2L474.5,211.4z M61.5,211.1l-0.6,0
			l0.1-1.2l0.6,0L61.5,211.1z M474.3,207.9c0-0.4-0.1-0.8-0.1-1.1l0.6,0c0,0.4,0.1,0.8,0.1,1.2L474.3,207.9z M61.7,207.6l-0.6,0
			c0-0.4,0.1-0.8,0.1-1.2l0.6,0C61.8,206.9,61.7,207.2,61.7,207.6z M474.1,204.5l-0.1-1.1l0.6-0.1l0.1,1.1L474.1,204.5z M62,204.2
			l-0.6,0c0-0.4,0.1-0.8,0.1-1.1l0.6,0.1C62,203.4,62,203.8,62,204.2z M473.8,201.1l-0.1-1.1l0.6-0.1l0.1,1.1L473.8,201.1z
			 M62.3,200.8l-0.6-0.1l0.1-1.1l0.6,0.1L62.3,200.8z M473.4,197.6c0-0.4-0.1-0.8-0.1-1.1l0.6-0.1c0,0.4,0.1,0.8,0.1,1.1
			L473.4,197.6z M62.7,197.3l-0.6-0.1l0.1-1.1l0.6,0.1L62.7,197.3z M473,194.2l-0.2-1.1l0.6-0.1l0.2,1.1L473,194.2z M63.1,193.9
			l-0.6-0.1l0.2-1.1l0.6,0.1L63.1,193.9z M472.5,190.8l-0.2-1.1l0.6-0.1l0.2,1.1L472.5,190.8z M63.6,190.5l-0.6-0.1l0.2-1.1l0.6,0.1
			L63.6,190.5z M471.9,187.4c-0.1-0.4-0.1-0.8-0.2-1.1l0.6-0.1c0.1,0.4,0.1,0.8,0.2,1.1L471.9,187.4z M64.1,187.1l-0.6-0.1l0.2-1.1
			l0.6,0.1L64.1,187.1z M471.4,184c-0.1-0.4-0.1-0.8-0.2-1.1l0.6-0.1c0.1,0.4,0.1,0.8,0.2,1.1L471.4,184z M64.7,183.7l-0.6-0.1
			l0.2-1.1l0.6,0.1L64.7,183.7z M470.7,180.6l-0.2-1.1l0.6-0.1l0.2,1.1L470.7,180.6z M65.4,180.3l-0.6-0.1l0.2-1.1l0.6,0.1
			L65.4,180.3z M470,177.2l-0.2-1.1l0.6-0.1l0.2,1.1L470,177.2z M66.1,176.9l-0.6-0.1l0.3-1.1l0.6,0.1L66.1,176.9z M469.2,173.9
			l-0.3-1.1l0.6-0.1l0.3,1.1L469.2,173.9z M66.9,173.6l-0.6-0.1l0.3-1.1l0.6,0.1L66.9,173.6z M468.4,170.5c-0.1-0.4-0.2-0.7-0.3-1.1
			l0.6-0.1c0.1,0.4,0.2,0.7,0.3,1.1L468.4,170.5z M67.7,170.2l-0.6-0.1l0.3-1.1l0.6,0.1L67.7,170.2z M467.5,167.2l-0.3-1.1l0.6-0.2
			l0.3,1.1L467.5,167.2z M68.6,166.9l-0.6-0.2l0.3-1.1l0.6,0.2L68.6,166.9z M466.6,163.9c-0.1-0.4-0.2-0.7-0.3-1.1l0.6-0.2
			c0.1,0.4,0.2,0.7,0.3,1.1L466.6,163.9z M69.5,163.6l-0.6-0.2l0.3-1.1l0.6,0.2L69.5,163.6z M465.6,160.6c-0.1-0.4-0.2-0.7-0.3-1.1
			l0.5-0.2c0.1,0.4,0.2,0.7,0.3,1.1L465.6,160.6z M70.5,160.3l-0.5-0.2l0.3-1.1l0.5,0.2L70.5,160.3z M464.5,157.3l-0.4-1.1l0.5-0.2
			l0.4,1.1L464.5,157.3z M71.6,157l-0.5-0.2l0.4-1.1l0.5,0.2L71.6,157z M463.4,154c-0.1-0.4-0.3-0.7-0.4-1.1l0.5-0.2
			c0.1,0.4,0.3,0.7,0.4,1.1L463.4,154z M72.7,153.7l-0.5-0.2l0.4-1.1l0.5,0.2L72.7,153.7z M462.3,150.7l-0.4-1.1l0.5-0.2l0.4,1.1
			L462.3,150.7z M73.8,150.5l-0.5-0.2c0.1-0.4,0.3-0.7,0.4-1.1l0.5,0.2C74.1,149.8,74,150.1,73.8,150.5z M461.1,147.5
			c-0.1-0.4-0.3-0.7-0.4-1.1l0.5-0.2c0.1,0.4,0.3,0.7,0.4,1.1L461.1,147.5z M75.1,147.3l-0.5-0.2l0.4-1.1l0.5,0.2L75.1,147.3z
			 M459.8,144.3c-0.1-0.4-0.3-0.7-0.4-1.1l0.5-0.2c0.1,0.4,0.3,0.7,0.4,1.1L459.8,144.3z M76.3,144.1l-0.5-0.2l0.4-1.1l0.5,0.2
			L76.3,144.1z M458.5,141.1L458,140l0.5-0.2l0.5,1.1L458.5,141.1z M77.7,140.9l-0.5-0.2l0.5-1.1l0.5,0.2L77.7,140.9z M457.1,137.9
			c-0.2-0.4-0.3-0.7-0.5-1.1l0.5-0.2c0.2,0.4,0.3,0.7,0.5,1.1L457.1,137.9z M79,137.7l-0.5-0.2c0.2-0.4,0.3-0.7,0.5-1l0.5,0.2
			C79.3,137,79.2,137.4,79,137.7z M455.7,134.8c-0.2-0.3-0.3-0.7-0.5-1l0.5-0.2c0.2,0.3,0.3,0.7,0.5,1L455.7,134.8z M80.4,134.6
			l-0.5-0.2l0.5-1l0.5,0.2L80.4,134.6z M454.2,131.6c-0.2-0.3-0.3-0.7-0.5-1l0.5-0.3c0.2,0.3,0.3,0.7,0.5,1L454.2,131.6z
			 M81.9,131.5l-0.5-0.3l0.5-1l0.5,0.3L81.9,131.5z M452.6,128.5c-0.2-0.3-0.3-0.7-0.5-1l0.5-0.3c0.2,0.3,0.3,0.7,0.5,1L452.6,128.5
			z M83.4,128.4l-0.5-0.3c0.2-0.3,0.3-0.7,0.5-1l0.5,0.3C83.8,127.7,83.6,128.1,83.4,128.4z M451.1,125.5l-0.5-1l0.5-0.3l0.5,1
			L451.1,125.5z M85,125.4l-0.5-0.3c0.2-0.3,0.4-0.7,0.5-1l0.5,0.3C85.4,124.7,85.2,125,85,125.4z M449.4,122.4l-0.6-1l0.5-0.3
			l0.6,1L449.4,122.4z M86.7,122.3l-0.5-0.3l0.6-1l0.5,0.3L86.7,122.3z M447.7,119.4l-0.6-1l0.5-0.3l0.6,1L447.7,119.4z M88.3,119.3
			l-0.5-0.3c0.2-0.3,0.4-0.7,0.6-1l0.5,0.3C88.7,118.7,88.5,119,88.3,119.3z M446,116.4l-0.6-1l0.5-0.3l0.6,1L446,116.4z
			 M90.1,116.4l-0.5-0.3c0.2-0.3,0.4-0.7,0.6-1l0.5,0.3C90.5,115.7,90.3,116,90.1,116.4z M444.2,113.5l-0.6-1l0.5-0.3l0.6,1
			L444.2,113.5z M91.8,113.4l-0.5-0.3l0.6-1l0.5,0.3L91.8,113.4z M442.4,110.5l-0.6-1l0.5-0.3l0.6,1L442.4,110.5z M93.7,110.5
			l-0.5-0.3l0.6-1l0.5,0.3L93.7,110.5z M440.5,107.6l-0.6-1l0.5-0.3l0.6,1L440.5,107.6z M95.5,107.6l-0.5-0.3l0.6-1l0.5,0.3
			L95.5,107.6z M438.6,104.8l-0.7-0.9l0.5-0.3l0.7,0.9L438.6,104.8z M97.5,104.8l-0.5-0.3c0.2-0.3,0.4-0.6,0.7-0.9l0.5,0.3
			C97.9,104.1,97.7,104.5,97.5,104.8z M99.4,102l-0.5-0.3l0.7-0.9l0.5,0.3L99.4,102z M436.6,102l-0.7-0.9l0.5-0.3l0.7,0.9L436.6,102
			z M101.5,99.2l-0.5-0.3l0.7-0.9l0.5,0.3L101.5,99.2z M434.6,99.2l-0.7-0.9l0.5-0.3l0.7,0.9L434.6,99.2z M103.5,96.4l-0.5-0.3
			l0.7-0.9l0.5,0.4L103.5,96.4z M432.5,96.4c-0.2-0.3-0.5-0.6-0.7-0.9l0.5-0.4c0.2,0.3,0.5,0.6,0.7,0.9L432.5,96.4z M105.6,93.7
			l-0.5-0.4l0.7-0.9l0.4,0.4L105.6,93.7z M430.4,93.7l-0.7-0.9l0.4-0.4l0.7,0.9L430.4,93.7z M107.8,91l-0.4-0.4l0.7-0.9l0.4,0.4
			L107.8,91z M428.2,91l-0.7-0.9l0.4-0.4l0.7,0.9L428.2,91z M110,88.4l-0.4-0.4l0.7-0.9l0.4,0.4L110,88.4z M426,88.3
			c-0.2-0.3-0.5-0.6-0.7-0.9l0.4-0.4c0.2,0.3,0.5,0.6,0.7,0.9L426,88.3z M112.2,85.7l-0.4-0.4l0.8-0.9l0.4,0.4L112.2,85.7z
			 M423.8,85.7l-0.8-0.9l0.4-0.4l0.8,0.9L423.8,85.7z M114.5,83.2l-0.4-0.4l0.8-0.9l0.4,0.4L114.5,83.2z M421.5,83.1l-0.8-0.9
			l0.4-0.4l0.8,0.9L421.5,83.1z M116.9,80.6l-0.4-0.4l0.8-0.8l0.4,0.4L116.9,80.6z M419.1,80.6l-0.8-0.8l0.4-0.4l0.8,0.8L419.1,80.6
			z M119.2,78.1l-0.4-0.4l0.8-0.8l0.4,0.4L119.2,78.1z M416.8,78.1l-0.8-0.8l0.4-0.4l0.8,0.8L416.8,78.1z M121.6,75.7l-0.4-0.4
			l0.8-0.8l0.4,0.4L121.6,75.7z M414.4,75.6l-0.8-0.8l0.4-0.4l0.8,0.8L414.4,75.6z M124.1,73.3l-0.4-0.4l0.8-0.8l0.4,0.4L124.1,73.3
			z M411.9,73.2l-0.8-0.8l0.4-0.4l0.8,0.8L411.9,73.2z M126.6,70.9l-0.4-0.4l0.8-0.8l0.4,0.4L126.6,70.9z M409.4,70.8
			c-0.3-0.3-0.6-0.5-0.8-0.8l0.4-0.4c0.3,0.3,0.6,0.5,0.8,0.8L409.4,70.8z M129.1,68.5l-0.4-0.4l0.9-0.8l0.4,0.4L129.1,68.5z
			 M406.9,68.5l-0.9-0.8l0.4-0.4l0.9,0.8L406.9,68.5z M131.7,66.2l-0.4-0.4l0.9-0.8l0.4,0.4L131.7,66.2z M404.3,66.2
			c-0.3-0.3-0.6-0.5-0.9-0.8l0.4-0.4c0.3,0.3,0.6,0.5,0.9,0.8L404.3,66.2z M134.3,64l-0.4-0.4l0.9-0.7l0.4,0.4L134.3,64z M401.7,64
			l-0.9-0.7l0.4-0.4l0.9,0.7L401.7,64z M137,61.8l-0.4-0.4l0.9-0.7l0.4,0.4L137,61.8z M399,61.8l-0.9-0.7l0.4-0.4l0.9,0.7L399,61.8z
			 M139.6,59.6l-0.4-0.5l0.9-0.7l0.4,0.5L139.6,59.6z M396.4,59.6l-0.9-0.7l0.4-0.5l0.9,0.7L396.4,59.6z M142.4,57.5L142,57l0.9-0.7
			l0.3,0.5L142.4,57.5z M393.6,57.5l-0.9-0.7l0.3-0.5L394,57L393.6,57.5z M145.1,55.4l-0.3-0.5l0.9-0.7l0.3,0.5L145.1,55.4z
			 M390.9,55.4l-0.9-0.7l0.3-0.5l0.9,0.7L390.9,55.4z M147.9,53.4l-0.3-0.5l0.9-0.7l0.3,0.5L147.9,53.4z M388.1,53.4l-0.9-0.7
			l0.3-0.5l0.9,0.7L388.1,53.4z M150.7,51.4l-0.3-0.5l1-0.7l0.3,0.5L150.7,51.4z M385.3,51.4c-0.3-0.2-0.6-0.4-0.9-0.6l0.3-0.5
			c0.3,0.2,0.6,0.4,0.9,0.7L385.3,51.4z M382.4,49.5c-0.3-0.2-0.6-0.4-1-0.6l0.3-0.5c0.3,0.2,0.6,0.4,1,0.6L382.4,49.5z M153.6,49.5
			l-0.3-0.5l1-0.6l0.3,0.5L153.6,49.5z M379.6,47.6c-0.3-0.2-0.6-0.4-1-0.6l0.3-0.5c0.3,0.2,0.6,0.4,1,0.6L379.6,47.6z M156.5,47.6
			l-0.3-0.5l1-0.6l0.3,0.5L156.5,47.6z M376.7,45.8c-0.3-0.2-0.6-0.4-1-0.6l0.3-0.5c0.3,0.2,0.7,0.4,1,0.6L376.7,45.8z M159.4,45.7
			l-0.3-0.5c0.3-0.2,0.7-0.4,1-0.6l0.3,0.5C160.1,45.3,159.7,45.5,159.4,45.7z M373.7,44c-0.3-0.2-0.7-0.4-1-0.6l0.3-0.5
			c0.3,0.2,0.7,0.4,1,0.6L373.7,44z M162.4,43.9l-0.3-0.5l1-0.6l0.3,0.5L162.4,43.9z M370.7,42.2c-0.3-0.2-0.7-0.4-1-0.6l0.3-0.5
			c0.3,0.2,0.7,0.4,1,0.6L370.7,42.2z M165.3,42.2l-0.3-0.5l1-0.6l0.3,0.5L165.3,42.2z M367.8,40.5c-0.3-0.2-0.7-0.4-1-0.6l0.3-0.5
			c0.3,0.2,0.7,0.4,1,0.6L367.8,40.5z M168.4,40.5l-0.3-0.5l1-0.6l0.3,0.5L168.4,40.5z M364.7,38.9c-0.3-0.2-0.7-0.4-1-0.5l0.3-0.5
			c0.3,0.2,0.7,0.4,1,0.5L364.7,38.9z M171.4,38.9l-0.3-0.5l1-0.5l0.3,0.5L171.4,38.9z M361.7,37.3l-1-0.5l0.3-0.5l1,0.5L361.7,37.3
			z M174.5,37.3l-0.3-0.5l1-0.5l0.3,0.5L174.5,37.3z M358.6,35.8l-1-0.5l0.2-0.5l1,0.5L358.6,35.8z M177.6,35.7l-0.3-0.5
			c0.3-0.2,0.7-0.3,1-0.5l0.2,0.5C178.2,35.4,177.9,35.6,177.6,35.7z M355.5,34.3l-1-0.5l0.2-0.5l1,0.5L355.5,34.3z M180.7,34.2
			l-0.2-0.5l1-0.5l0.2,0.5L180.7,34.2z M352.4,32.9l-1-0.5l0.2-0.5l1,0.5L352.4,32.9z M183.8,32.8l-0.2-0.5l1.1-0.5l0.2,0.5
			L183.8,32.8z M349.2,31.5l-1.1-0.4l0.2-0.5l1.1,0.4L349.2,31.5z M187,31.4l-0.2-0.5l1.1-0.5l0.2,0.5L187,31.4z M346.1,30.2
			c-0.4-0.1-0.7-0.3-1.1-0.4l0.2-0.5c0.4,0.1,0.7,0.3,1.1,0.4L346.1,30.2z M190.2,30.1l-0.2-0.5l1.1-0.4l0.2,0.5L190.2,30.1z
			 M342.9,28.9l-1.1-0.4L342,28l1.1,0.4L342.9,28.9z M193.4,28.8l-0.2-0.5l1.1-0.4l0.2,0.5L193.4,28.8z M339.6,27.7l-1.1-0.4
			l0.2-0.5l1.1,0.4L339.6,27.7z M196.6,27.6l-0.2-0.5l1.1-0.4l0.2,0.5L196.6,27.6z M336.4,26.5c-0.4-0.1-0.7-0.3-1.1-0.4l0.2-0.5
			c0.4,0.1,0.7,0.3,1.1,0.4L336.4,26.5z M199.9,26.4l-0.2-0.5l1.1-0.4l0.2,0.5L199.9,26.4z M333.1,25.4c-0.4-0.1-0.7-0.2-1.1-0.4
			l0.2-0.5c0.4,0.1,0.7,0.2,1.1,0.4L333.1,25.4z M203.2,25.3l-0.2-0.5l1.1-0.4l0.2,0.5L203.2,25.3z M329.9,24.4l-1.1-0.3l0.2-0.5
			l1.1,0.3L329.9,24.4z M206.5,24.3l-0.2-0.5c0.4-0.1,0.7-0.2,1.1-0.3l0.2,0.6C207.2,24,206.8,24.1,206.5,24.3z M326.6,23.3
			l-1.1-0.3l0.2-0.6l1.1,0.3L326.6,23.3z M209.8,23.3l-0.2-0.6l1.1-0.3l0.2,0.6L209.8,23.3z M323.2,22.4l-1.1-0.3l0.2-0.6l1.1,0.3
			L323.2,22.4z M213.1,22.3l-0.2-0.6c0.4-0.1,0.7-0.2,1.1-0.3l0.1,0.6C213.8,22.1,213.5,22.2,213.1,22.3z M319.9,21.5
			c-0.4-0.1-0.7-0.2-1.1-0.3l0.1-0.6c0.4,0.1,0.7,0.2,1.1,0.3L319.9,21.5z M216.4,21.4l-0.1-0.6l1.1-0.3l0.1,0.6L216.4,21.4z
			 M316.6,20.7l-1.1-0.3l0.1-0.6l1.1,0.3L316.6,20.7z M219.8,20.6l-0.1-0.6l1.1-0.3l0.1,0.6L219.8,20.6z M313.2,19.9l-1.1-0.2
			l0.1-0.6l1.1,0.2L313.2,19.9z M223.1,19.8l-0.1-0.6l1.1-0.2l0.1,0.6L223.1,19.8z M309.8,19.2l-1.1-0.2l0.1-0.6l1.1,0.2L309.8,19.2
			z M226.5,19.1l-0.1-0.6l1.1-0.2l0.1,0.6L226.5,19.1z M306.5,18.5l-1.1-0.2l0.1-0.6l1.1,0.2L306.5,18.5z M229.9,18.5l-0.1-0.6
			c0.4-0.1,0.8-0.1,1.1-0.2l0.1,0.6C230.6,18.3,230.3,18.4,229.9,18.5z M303.1,17.9c-0.4-0.1-0.8-0.1-1.1-0.2l0.1-0.6
			c0.4,0.1,0.8,0.1,1.1,0.2L303.1,17.9z M233.3,17.9l-0.1-0.6l1.1-0.2l0.1,0.6L233.3,17.9z M299.7,17.4l-1.1-0.2l0.1-0.6l1.1,0.2
			L299.7,17.4z M236.7,17.3l-0.1-0.6l1.1-0.2l0.1,0.6L236.7,17.3z M296.2,16.9l-1.1-0.2l0.1-0.6l1.1,0.2L296.2,16.9z M240.1,16.8
			l-0.1-0.6l1.1-0.2l0.1,0.6L240.1,16.8z M292.8,16.4l-1.1-0.1l0.1-0.6l1.1,0.1L292.8,16.4z M243.5,16.4l-0.1-0.6
			c0.4,0,0.8-0.1,1.1-0.1l0.1,0.6C244.3,16.3,243.9,16.3,243.5,16.4z M289.4,16c-0.4,0-0.8-0.1-1.1-0.1l0.1-0.6
			c0.4,0,0.8,0.1,1.1,0.1L289.4,16z M247,16l-0.1-0.6l1.1-0.1l0.1,0.6L247,16z M286,15.7l-1.1-0.1l0-0.6l1.1,0.1L286,15.7z
			 M250.4,15.7l0-0.6l1.1-0.1l0,0.6L250.4,15.7z M282.5,15.4l-1.1-0.1l0-0.6l1.2,0.1L282.5,15.4z M253.8,15.4l0-0.6
			c0.4,0,0.8-0.1,1.2-0.1l0,0.6C254.6,15.4,254.2,15.4,253.8,15.4z M279.1,15.2l-1.1-0.1l0-0.6l1.2,0.1L279.1,15.2z M257.3,15.2
			l0-0.6c0.4,0,0.8,0,1.2-0.1l0,0.6C258,15.2,257.6,15.2,257.3,15.2z M275.6,15.1c-0.4,0-0.8,0-1.1,0l0-0.6c0.4,0,0.8,0,1.1,0
			L275.6,15.1z M260.7,15.1l0-0.6l1.2,0l0,0.6L260.7,15.1z M272.2,15c-0.4,0-0.8,0-1.1,0l0-0.6c0.4,0,0.8,0,1.2,0L272.2,15z
			 M264.2,15l0-0.6l1.2,0l0,0.6L264.2,15z M268.8,14.9l-0.7,0l-0.4,0l0-0.6l0.4,0l0.7,0L268.8,14.9z"/>
	</g>
	<g>
		<path class="st5" d="M99.2,76.4l-32.9,30.2V142h72.1v-35.4l-32.9-30.2C103.7,74.8,101,74.8,99.2,76.4z"/>
		<g>
			<path class="st3" d="M119,59.1H79.3c-4,0-7.3,3.3-7.3,7.3v60.5c0,4,3.3,7.3,7.3,7.3h46.1c4,0,7.3-3.3,7.3-7.3V72.8L119,59.1z"/>
			<path class="st6" d="M132.7,72.8h-6.4c-4,0-7.3-3.3-7.3-7.3v-6.4L132.7,72.8z"/>
			<g>
				<path class="st6" d="M124.7,77.1H80c-0.6,0-1.1,0.5-1.1,1.1l0,0c0,0.6,0.5,1.1,1.1,1.1h44.7c0.6,0,1.1-0.5,1.1-1.1l0,0
					C125.8,77.6,125.3,77.1,124.7,77.1z"/>
				<path class="st6" d="M124.7,83.6H80c-0.6,0-1.1,0.5-1.1,1.1c0,0.6,0.5,1.1,1.1,1.1h44.7c0.6,0,1.1-0.5,1.1-1.1
					C125.8,84,125.3,83.6,124.7,83.6z"/>
				<path class="st6" d="M124.7,89.5H80c-0.6,0-1.1,0.5-1.1,1.1s0.5,1.1,1.1,1.1h44.7c0.6,0,1.1-0.5,1.1-1.1S125.3,89.5,124.7,89.5z
					"/>
				<path class="st6" d="M124.7,95.9H80c-0.6,0-1.1,0.5-1.1,1.1S79.4,98,80,98h44.7c0.6,0,1.1-0.5,1.1-1.1S125.3,95.9,124.7,95.9z"
					/>
				<path class="st6" d="M124.7,101.8H80c-0.6,0-1.1,0.5-1.1,1.1s0.5,1.1,1.1,1.1h44.7c0.6,0,1.1-0.5,1.1-1.1
					S125.3,101.8,124.7,101.8z"/>
				<path class="st6" d="M124.7,108.2H80c-0.6,0-1.1,0.5-1.1,1.1s0.5,1.1,1.1,1.1h44.7c0.6,0,1.1-0.5,1.1-1.1
					S125.3,108.2,124.7,108.2z"/>
				<path class="st6" d="M124.7,114.2H80c-0.6,0-1.1,0.5-1.1,1.1c0,0.6,0.5,1.1,1.1,1.1h44.7c0.6,0,1.1-0.5,1.1-1.1
					C125.8,114.6,125.3,114.2,124.7,114.2z"/>
				<path class="st6" d="M124.7,120.6H80c-0.6,0-1.1,0.5-1.1,1.1c0,0.6,0.5,1.1,1.1,1.1h44.7c0.6,0,1.1-0.5,1.1-1.1
					C125.8,121.1,125.3,120.6,124.7,120.6z"/>
			</g>
		</g>
		<g>
			<polygon class="st7" points="138.4,153.8 66.3,153.8 66.3,106.7 99.8,130.2 104.9,130.2 138.4,106.7 			"/>
			<polygon class="st5" points="99.8,130.2 66.3,153.8 138.4,153.8 104.9,130.2 			"/>
		</g>
	</g>
	<g>
		<path class="st3" d="M378.1,23.3h-54.4c-4.9,0-8.8,3.9-8.8,8.8v27.4c0,4.9,3.9,8.8,8.8,8.8h5.4l-3,14.5l20.5-14.5h31.5
			c4.9,0,8.8-3.9,8.8-8.8V32.1C386.9,27.2,383,23.3,378.1,23.3z"/>
		<g>
			<path class="st6" d="M377.6,33.2h-53.4c-0.9,0-1.7,0.7-1.7,1.7c0,0.9,0.7,1.7,1.7,1.7h53.4c0.9,0,1.7-0.7,1.7-1.7
				C379.3,33.9,378.5,33.2,377.6,33.2z"/>
			<path class="st6" d="M377.6,43.7h-53.4c-0.9,0-1.7,0.7-1.7,1.7c0,0.9,0.7,1.7,1.7,1.7h53.4c0.9,0,1.7-0.7,1.7-1.7
				C379.3,44.5,378.5,43.7,377.6,43.7z"/>
			<path class="st6" d="M377.6,54.3h-53.4c-0.9,0-1.7,0.7-1.7,1.7c0,0.9,0.7,1.7,1.7,1.7h53.4c0.9,0,1.7-0.7,1.7-1.7
				C379.3,55,378.5,54.3,377.6,54.3z"/>
		</g>
	</g>
	<path class="st3" d="M112.3,242.8c-1.4-8.5-8.8-14.9-17.6-14.9c-1.3,0-2.5,0.1-3.7,0.4c-3.9-6.6-11.1-11-19.3-11
		c-9.7,0-18,6.2-21.1,14.9c-6.3,0.8-11.5,5-13.8,10.6H112.3z"/>
	<path class="st3" d="M491.6,161c-1.6-9.8-10.1-17.3-20.4-17.3c-1.5,0-2.9,0.2-4.3,0.4c-4.5-7.6-12.8-12.8-22.3-12.8
		c-11.3,0-20.9,7.2-24.4,17.3c-7.2,0.9-13.3,5.8-16,12.3H491.6z"/>
	<path class="st3" d="M259.3,34.3c-1.9-11.4-11.8-20-23.7-20c-1.7,0-3.4,0.2-5,0.5C225.5,5.9,215.9,0,204.8,0
		c-13.1,0-24.2,8.4-28.3,20.1c-8.4,1.1-15.4,6.7-18.5,14.2H259.3z"/>
	<rect y="324.3" class="st8" width="517.3" height="10.9"/>
	<rect x="5.1" y="334.8" class="st9" width="505.8" height="10.9"/>
	<g>
		<polygon class="st6" points="290.4,273.7 251.7,273.7 237.9,311.9 304.2,311.9 		"/>
		<path class="st9" d="M368,294.3H174.2c-5.6,0-10.2-4.6-10.2-10.2V162.2c0-5.6,4.6-10.2,10.2-10.2H368c5.6,0,10.2,4.6,10.2,10.2
			v121.9C378.2,289.7,373.6,294.3,368,294.3z"/>
		<path class="st3" d="M164,267.6v17.5c0,5,4.1,9.1,9.1,9.1h196c5,0,9.1-4.1,9.1-9.1v-17.5H164z"/>
		<linearGradient id="SVGID_1_" gradientUnits="userSpaceOnUse" x1="271.0641" y1="258.7595" x2="271.0641" y2="164.7893">
			<stop  offset="0" style="stop-color:#80ABC0"/>
			<stop  offset="6.463885e-02" style="stop-color:#89B3C7"/>
			<stop  offset="0.2973" style="stop-color:#A5CADE"/>
			<stop  offset="0.5313" style="stop-color:#B9DBEE"/>
			<stop  offset="0.7654" style="stop-color:#C5E5F8"/>
			<stop  offset="1" style="stop-color:#C9E8FB"/>
		</linearGradient>
		<rect x="176.7" y="164.8" class="st10" width="188.8" height="94"/>
		<path class="st9" d="M319.7,323.8h-97.2v-6.4c0-3,2.5-5.5,5.5-5.5h86.2c3,0,5.5,2.5,5.5,5.5V323.8z"/>
	</g>
	<g>
		<g>
			<path class="st11" d="M282.7,166.4c0-3,0-19.2,0-19.2H268h-14.7c0,0,0,16.3,0,19.2c0,4.4-1.1,5.1-3.1,5.8
				c3.2,5.5,8,27.2,18.3,27.2c10.3-0.1,14.1-21.7,17.3-27.2C283.8,171.5,282.7,170.9,282.7,166.4z"/>
		</g>
		<path class="st11" d="M368.5,135.5c3-5.3,4.2-18.7,4.5-25.4c0.1-2-0.1-3.3-1.5-3.5c-1.3-0.2-2.1,1.1-2.3,2.5
			c-0.3,2.6-0.8,10.4-1.8,10.3c-1-0.1,0-10.5,0.5-13.9c0.2-1.5-0.4-3.2-1.8-3.3c-1.5-0.1-2.2,1.2-2.4,2.5c-0.4,3.5-1.7,14-2.7,13.9
			c-0.8-0.1,0.7-14.2,0.9-16.1c0.2-1.8-0.5-3.2-1.8-3.4c-1.4-0.2-2.2,1.1-2.5,3c-0.6,4.1-1.3,16.1-2.3,16
			c-0.9-0.1-0.5-10.1-0.3-13.5c0.1-1.7-0.4-3-1.7-3.2c-1.6-0.2-2.2,1.3-2.4,3.3c-0.5,4.2-1,16.7-1.8,17c-0.7,0.3-2.6-3.2-3.9-4.5
			c-0.9-1-2.2-2-3.3-1.6c-1.1,0.4-1.4,1.7-0.6,3c1.8,3.1,8,18.7,8.4,19.5l-10.3,44.4l-35.2-6.8l-3.5,18l44.5,8.6
			c4.8,0.9,9.4-2.2,10.4-7l9.2-55.1C365.5,139.5,367.8,136.7,368.5,135.5z"/>
		<g>
			<g>
				
					<rect x="214.9" y="204" transform="matrix(-1 -1.224647e-16 1.224647e-16 -1 449.2958 462.8943)" class="st11" width="19.5" height="54.9"/>
			</g>
		</g>
		<g>
			<polygon class="st12" points="214.9,224.2 214.9,228.1 233.5,235.9 233.5,229.5 			"/>
		</g>
		<path class="st13" d="M336.6,180.5c0,0-25.5-7.3-36.1-8.4c-7.9-0.8-9.9,0.1-13.4,0.1l-18.6,26.7l-18.3-26.7
			c-19.3,0-39.1,5.6-39.1,50.6c0,0.3,0,1.3,0,1.3c0,0.6,0.5,0.8,1.1,1c4.9,1.8,19.8,6.3,19.8,6.3v27.4h74.3v-50.5
			c0-1.7,1.6-3,3.3-2.7l17.6,3.7c0,0,2.8-3.2,6.3-12.1C337.9,186.1,336.6,180.5,336.6,180.5z"/>
		<path class="st14" d="M282.9,169.2c-0.4-0.8-0.2-0.9-0.2-2.8c0-3,0-19.2,0-19.2H268h-14.7c0,0,0,16.3,0,19.2
			c0,1.3,0.1,1.1-0.1,1.8c4.2,3.5,9.1,8.5,15.5,8.7C274.6,176.8,279,172.2,282.9,169.2z"/>
		<g>
			<g>
				<path class="st15" d="M257.4,179.5c5.7,6.1,8.2,9,8.2,9s-3.7,15.3-6.1,12.7c-2.4-2.6-15.1-21.8-12-29c0.6-1.5,5.7-3.8,5.7-3.8
					S253.3,175.1,257.4,179.5z"/>
			</g>
		</g>
		<g>
			<g>
				<path class="st15" d="M278.6,179.5c-5.7,6.1-8.2,9-8.2,9s3.7,15.3,6.1,12.7c2.4-2.6,15.1-21.8,12-29c-0.6-1.5-5.6-2.9-5.6-2.9
					S282.7,175.1,278.6,179.5z"/>
			</g>
		</g>
		<g>
			<g>
				<g>
					<path class="st11" d="M297.2,147.6c4.6,1,8.4-5.3,8.4-11.8c0-3.7-2.4-7.9-6.1-7c-4.7,1.1-5.5,5.5-5.5,5.5v10.2
						C294,144.5,294.8,147.1,297.2,147.6z"/>
				</g>
				<g>
					<path class="st16" d="M296.1,144.3c3,0.6,5.6-3.5,5.6-7.8c0-2.4-1.6-5.2-4.1-4.6c-3.1,0.7-3.7,3.6-3.7,3.6v6.7
						C294,142.2,294.5,143.9,296.1,144.3z"/>
				</g>
			</g>
			<g>
				<g>
					<path class="st11" d="M240.3,147.6c-4.6,1-8.4-5.3-8.4-11.8c0-3.7,2.4-7.9,6.1-7c4.7,1.1,5.5,5.5,5.5,5.5v10.2
						C243.4,144.5,242.7,147.1,240.3,147.6z"/>
				</g>
				<g>
					<path class="st16" d="M241.3,144.3c-3,0.6-5.6-3.5-5.6-7.8c0-2.4,1.6-5.2,4.1-4.6c3.1,0.7,3.7,3.6,3.7,3.6v6.7
						C243.4,142.2,242.9,143.9,241.3,144.3z"/>
				</g>
			</g>
		</g>
		<g>
			<path class="st11" d="M290.8,110.6c-8.7-6.2-35.3-6.2-44.1,0c-6.9,4.9-9.9,22.2-5.9,35.8c4.9,16.3,12.9,27,27.9,27.3
				c15-0.3,23.1-11,27.9-27.3C300.7,132.8,297.6,115.5,290.8,110.6z"/>
		</g>
		<g>
			<path class="st17" d="M268.7,169L268.7,169c-7.2,0-12.6-8.5-12.5-15.3l0,0c0-1.2,0.9-1.7,2.1-1.3c6.7,2.5,14.1,2.5,20.9,0
				c1.2-0.4,2.1,0.1,2.1,1.3l0,0C281.3,160.6,275.9,169.1,268.7,169z"/>
			<path class="st18" d="M277.1,164.7c-2.2-1.3-5.1-1.9-8.4-1.9c-3.3,0-6.2,0.6-8.4,1.9c2.2,2.6,5.1,4.4,8.4,4.4
				C272,169.1,274.9,167.3,277.1,164.7z"/>
			<path class="st3" d="M279.1,152.4c-6.7,2.5-14.1,2.5-20.9,0c-1.2-0.4-2.1,0.1-2.1,1.3c0,0.5,0,0.9,0.1,1.4c7.9,3.7,17,3.7,24.9,0
				c0-0.5,0.1-1,0.1-1.4C281.2,152.5,280.3,152,279.1,152.4z"/>
		</g>
		<g>
			<g>
				<ellipse class="st17" cx="256" cy="134" rx="2.9" ry="4.9"/>
			</g>
			<g>
				<ellipse class="st17" cx="281.4" cy="134" rx="2.9" ry="4.9"/>
			</g>
			<path class="st17" d="M281.4,144.3c-5.8,0-10.5-4.7-10.5-10.5v-0.1c-0.5-0.2-1.3-0.5-2.1-0.5c-1,0-1.7,0.3-2.2,0.6v0.1
				c0,5.8-4.7,10.5-10.5,10.5c-5.8,0-10.5-4.7-10.5-10.5v-4.3c0-3.2,2.6-5.7,5.7-5.7h9.6c3.2,0,5.7,2.6,5.7,5.7v1.6
				c0.6-0.2,1.4-0.4,2.2-0.4c0.8,0,1.5,0.2,2.1,0.4v-1.6c0-3.2,2.6-5.7,5.7-5.7h9.6c3.2,0,5.7,2.6,5.7,5.7v4.3
				C291.9,139.6,287.2,144.3,281.4,144.3z M276.6,126.2c-1.9,0-3.4,1.5-3.4,3.4v4.3c0,4.5,3.7,8.2,8.2,8.2c4.5,0,8.2-3.7,8.2-8.2
				v-4.3c0-1.9-1.5-3.4-3.4-3.4H276.6z M251.3,126.2c-1.9,0-3.4,1.5-3.4,3.4v4.3c0,4.5,3.7,8.2,8.2,8.2c4.5,0,8.2-3.7,8.2-8.2v-4.3
				c0-1.9-1.5-3.4-3.4-3.4H251.3z"/>
		</g>
		<rect x="290.7" y="128.7" class="st19" width="7.6" height="1.2"/>
		<rect x="239" y="128.7" class="st19" width="7.6" height="1.2"/>
		<g>
			<path class="st17" d="M239,133.7c0.1,1.4,0.8,5.6,0.8,5.6s5.8-9.7,8.4-23c1.7,2.1,9,6.8,21.8,4c5.7-1.3,19-8.5,19-8.5
				s-1.5,4.5,3.4,16.3c1.4,3.3,5.3,12.1,5.3,12.1s1.3-4.6,1.4-6.8c0.1-2.2,3.1-4.4,3.1-4.4s1.2-10,0-16.7c-1.1-6.2-5.1-20.9-17-19.9
				c-2.3,0.2-5.4-7.3-26.3-3c-7.4,1.5-15.2,5.9-19.8,15.7c-2.4,5-2.4,23.6-2.4,23.6S238.9,132.3,239,133.7z"/>
		</g>
	</g>
	<g>
		<g>
			<g>
				<g>
					<path class="st20" d="M478,301.2c-0.5,0-1-0.3-1-0.9c-0.1-2.3-0.2-8,1.7-12.4c1.5-3.6,3.9-5.8,5.2-6.8c0.4-0.3,1.1-0.2,1.4,0.2
						l0,0c0.2,0.4,0.2,0.9-0.2,1.2c-1.1,0.9-3.2,2.8-4.6,6c-1.7,4-1.6,9.5-1.5,11.6C478.9,300.7,478.5,301.2,478,301.2L478,301.2z"
						/>
				</g>
				<g>
					<path class="st21" d="M469.2,289.3c4.6,2.5,10.3,1.1,10.3,1.1s-1.9-5.5-6.5-8c-4.6-2.5-10.3-1.1-10.3-1.1
						S464.6,286.8,469.2,289.3z"/>
				</g>
			</g>
			<path class="st22" d="M497.4,304c0,10.9-8.7,22.6-18.9,19.8c-10.7,2.8-18.9-8.9-18.9-19.8c0-10.9,8-16.1,18.9-11.6
				C489,287.9,497.4,293.1,497.4,304z"/>
			<path class="st18" d="M497.4,304c0,10.9-8.7,22.6-18.9,19.8c-10.7,2.8-18.9-8.9-18.9-19.8c0-10.9,8-16.1,18.9-11.6
				C489,287.9,497.4,293.1,497.4,304z"/>
			<path class="st23" d="M464.5,307.1c0-9.8,4.8-14.9,14.4-11.2c-1.7-2.1-3.1-2.6-5.6-3c-5.2-0.8-11.9,1.7-11.9,11.5
				c0,6.4,3.1,13,8,16.1C466.3,316.9,464.5,311.9,464.5,307.1z"/>
		</g>
		<g>
			<path class="st15" d="M409.6,221.7h-1v3.6h0.7v3h2.6v-2.9c9.6,0.5,18.6,4.6,25.5,11.4c7.4,7.4,11.5,17.3,11.5,27.7
				c0,21.2-17.4,38.7-39,39.2v-2.8h-2.2v2.9l-0.7,0l0,8.2h3.6v-4.6c23.2-0.8,42-19.8,42-42.8C452.4,240.9,433.2,221.7,409.6,221.7z"
				/>
			<path class="st24" d="M439.6,318.7l-58.5,0l0-3.4c0-3.5,2.8-6.3,6.3-6.3l45.8,0c3.5,0,6.3,2.8,6.3,6.3L439.6,318.7z"/>
			<g>
				<circle class="st25" cx="409.3" cy="264.9" r="37.2"/>
				<path class="st26" d="M444.8,275.8c-2.5-1.3-7.5-3.2-9.9-0.4c-3.3,3.8-2.5,7-6.4,12c-3.8,5-12.6,1.3-13,4.1
					c-0.2,1.7,0.2,6.5,0.6,10C429.8,298.9,440.8,288.9,444.8,275.8z"/>
				<path class="st26" d="M405.8,266.8c-6.7,1.3-5.7,2,2.6,6.6c8.3,4.6,15.7,6.4,14.3,3.1C421.2,273.2,412.5,265.6,405.8,266.8z"/>
				<path class="st26" d="M372.4,259.7c2.6,1.8,5.3,3.6,6.5,4.6c2.8,2.4,2.7,1.5,4.3,7.4c1.7,5.9,3.7,8.3,5.7,7.1
					c3.2-1.8,2.8-12,2.7-14.6c-0.1-2.7,0.3-4.1,6.8-8.5c6.5-4.5-0.4-4.5,6-8.2c6.4-3.7,1.4-8-0.5-13.6c-0.7-2.2-1.5-3.9-2.4-5.3
					C386.4,231.7,374.6,244.2,372.4,259.7z"/>
				<path class="st26" d="M412.1,258c-0.5,0.1-5.9,1.3-2.9,2.7c3,1.3,5.3,2.2,6.3,0.5C416.6,259.5,414.5,257.4,412.1,258z"/>
			</g>
		</g>
		<g>
			<path class="st3" d="M466.9,316l-9.2-15h0v-16.3c0.8-0.1,1.3-0.8,1.3-1.6c0-0.9-0.7-1.7-1.7-1.7H442c-0.9,0-1.7,0.7-1.7,1.7
				c0,0.8,0.5,1.4,1.3,1.6V301h-0.1l-9.2,15c-2.2,3.6,0.4,8.3,4.6,8.3h25.3C466.6,324.2,469.2,319.6,466.9,316z"/>
			<path class="st25" d="M459.5,320.9h-19.7c-3,0-5.1-2.4-3.8-4.5l5.9-10.2h15.5l5.9,10.2C464.6,318.5,462.5,320.9,459.5,320.9z"/>
			<ellipse class="st15" cx="449.6" cy="306.2" rx="7.7" ry="1"/>
		</g>
		<g>
			<polygon class="st5" points="430.5,324.2 391.6,324.2 391.6,313.8 430.5,313.8 434,319 			"/>
			<g>
				<rect x="391.6" y="321" class="st17" width="41.2" height="0.8"/>
				<rect x="391.6" y="316.2" class="st17" width="41.2" height="0.8"/>
			</g>
			<polygon class="st7" points="430.5,324.2 440.5,319 430.5,313.8 431.4,316 430.2,317 431.4,319 430.4,321 431.7,321.8 			"/>
			<polygon class="st17" points="438.3,317.9 438.3,320.2 440.5,319 			"/>
			<rect x="388.9" y="313.8" class="st27" width="2.7" height="10.5"/>
			<rect x="390" y="313.8" class="st3" width="0.5" height="10.5"/>
			<rect x="391.1" y="313.8" class="st3" width="0.5" height="10.5"/>
			<rect x="388.9" y="313.8" class="st3" width="0.5" height="10.5"/>
			<path class="st18" d="M386.8,324.2h2.2v-10.5h-2.2c-1.9,0-3.4,1.5-3.4,3.4v3.7C383.4,322.7,384.9,324.2,386.8,324.2z"/>
		</g>
	</g>
	<g>
		<g>
			<g>
				<rect x="72.4" y="272.3" class="st28" width="84" height="13.9"/>
			</g>
			<g>
				<g>
					<rect x="71.2" y="271" class="st29" width="86" height="2.7"/>
				</g>
				<g>
					<rect x="71.2" y="284.9" class="st29" width="86" height="2.7"/>
				</g>
				<g>
					<g>
						<rect x="73.8" y="273.7" class="st3" width="80.8" height="11.2"/>
					</g>
					<g>
						<g>
							<rect x="73.8" y="273.7" class="st30" width="80.8" height="1"/>
						</g>
						<g>
							<rect x="73.8" y="277.1" class="st30" width="80.8" height="1"/>
						</g>
					</g>
					<g>
						<g>
							<rect x="73.8" y="280.5" class="st30" width="80.8" height="1"/>
						</g>
						<g>
							<rect x="73.8" y="283.9" class="st30" width="80.8" height="1"/>
						</g>
					</g>
				</g>
			</g>
		</g>
		<g>
			<g>
				<g>
					<rect x="56.9" y="305" class="st17" width="110.9" height="18.7"/>
				</g>
				<g>
					<rect x="63" y="305" class="st31" width="2.6" height="18.7"/>
				</g>
				<g>
					<rect x="68.2" y="305" class="st31" width="2.6" height="18.7"/>
				</g>
				<g>
					<g>
						<rect x="154.5" y="305" class="st31" width="2.6" height="18.7"/>
					</g>
					<g>
						<rect x="159.7" y="305" class="st31" width="2.6" height="18.7"/>
					</g>
				</g>
			</g>
			<rect x="78.1" y="311.6" class="st31" width="67.5" height="5.4"/>
		</g>
		<g>
			<g>
				<rect x="60.7" y="287.7" class="st32" width="104.9" height="17.3"/>
			</g>
			<g>
				<rect x="60.7" y="292.7" class="st33" width="104.9" height="7.3"/>
			</g>
		</g>
	</g>
	<g>
		<rect x="178.7" y="318.6" class="st34" width="114.6" height="5.6"/>
		<rect x="281" y="316.9" class="st1" width="7.6" height="1.7"/>
		<rect x="271.1" y="316.9" class="st1" width="7.6" height="1.7"/>
		<rect x="261.3" y="316.9" class="st1" width="7.6" height="1.7"/>
		<rect x="251.4" y="316.9" class="st1" width="7.6" height="1.7"/>
		<rect x="196.2" y="316.9" class="st1" width="7.6" height="1.7"/>
		<rect x="186.4" y="316.9" class="st1" width="7.6" height="1.7"/>
		<rect x="207.4" y="316.9" class="st1" width="41.4" height="1.7"/>
	</g>
</g>
</svg>
